<?xml version="1.0" encoding="utf-8"?>
<!-- Generator: Adobe Illustrator 23.0.6, SVG Export Plug-In . SVG Version: 6.00 Build 0)  -->
<svg version="1.1" id="Calque_1" xmlns="http://www.w3.org/2000/svg" xmlns:xlink="http://www.w3.org/1999/xlink" x="0px" y="0px"
	 viewBox="0 0 587 306.4" style="enable-background:new 0 0 587 306.4;" xml:space="preserve">
<style type="text/css">
	.Voûte _x002D__x0020_Vert{fill:url(#SVGID_1_);stroke:#FFFFFF;stroke-width:0.25;stroke-miterlimit:1;}
	.st0{fill:#E42535;}
</style>
<linearGradient id="SVGID_1_" gradientUnits="userSpaceOnUse" x1="138.8506" y1="37.5176" x2="139.5577" y2="36.8105">
	<stop  offset="0" style="stop-color:#1BA138"/>
	<stop  offset="0.9831" style="stop-color:#23391D"/>
</linearGradient>
<g>
	<path d="M125.7,157.8H150c14.2,0,22.8,8.4,22.8,20.6v0.2c0,13.8-10.7,20.9-24.1,20.9h-10v17.9h-13.1V157.8z M149.2,187.9
		c6.6,0,10.4-3.9,10.4-9v-0.2c0-5.9-4.1-9-10.6-9h-10.1v18.2H149.2z"/>
	<path d="M178.7,157.8h45v11.7h-31.9v12.1h28.1v11.7h-28.1v12.5H224v11.7h-45.4V157.8z"/>
	<path d="M227.4,187.8v-0.2c0-16.9,12.8-30.8,31.1-30.8c11.2,0,18,3.7,23.5,9.2l-8.3,9.6c-4.6-4.2-9.3-6.7-15.2-6.7
		c-10,0-17.3,8.3-17.3,18.6v0.2c0,10.2,7.1,18.7,17.3,18.7c6.8,0,11-2.7,15.7-7l8.3,8.4c-6.1,6.6-12.9,10.6-24.4,10.6
		C240.5,218.5,227.4,204.9,227.4,187.8z"/>
	<path d="M99.2,192c0,9.5-4.9,14.3-12.9,14.3c-8,0-12.9-5-12.9-14.7v-33.7H60.3v34.1c0,17.5,9.8,26.5,25.8,26.5
		c16,0,26.1-8.9,26.1-26.9l0.1-40.8l-13.2,4.5V192z"/>
	<polygon class="st0" points="112.4,116.2 112.4,149.7 112.4,150.6 281.1,93.9 281.1,59.5 	"/>
	<polygon points="305.9,246.8 304.3,246.8 304.3,128.5 305.9,128.5 305.9,246.8 	"/>
	<g>
		<g>
			<path d="M61.8,231.2v5.5c0,1.5,0.3,2.7,2.1,2.7c1.8,0,2-1.2,2-2.7v-5.5h1v5.9c0,1.9-0.9,3.2-3.1,3.2c-2.2,0-3.3-1.2-3.3-3.2v-5.9
				H61.8z"/>
			<path d="M70.8,231.2H72l4.5,7h0v-7h1v8.9h-1.2l-4.5-7h0v7h-1V231.2z"/>
			<path d="M81.4,231.2h1.2v8.9h-1.2V231.2z"/>
			<path d="M90,240.1h-1.2l-3.4-8.9h1.3l2.8,7.4l2.7-7.4h1L90,240.1z"/>
			<path d="M96.1,231.2h4.9v0.9h-3.7v2.9h3.1v0.9h-3.1v3.3h4v0.9h-5.2V231.2z"/>
			<path d="M104.3,231.2h2.9c0.9,0,2.4,0.5,2.4,2.2c0,1.1-0.8,2.1-1.8,2.5l3,4.2h-1.5l-2.6-3.8h-1.2v3.8h-1.2V231.2z M105.5,235.4
				c0.2,0,0.3,0,0.5,0c1.5,0,2.3-0.7,2.3-2c0-0.9-0.7-1.4-1.7-1.4h-1.2V235.4z"/>
			<path d="M113.1,238.7c0.8,0.4,1.6,0.7,2.5,0.7c0.9,0,1.7-0.5,1.7-1.4c0-2.2-4.1-2.1-4.1-4.7c0-0.8,0.6-2.4,2.7-2.4
				c0.7,0,1.4,0.1,2.1,0.4v1.1c-0.7-0.3-1.4-0.6-2.1-0.6c-1.1,0-1.5,0.8-1.5,1.3c0,1.8,4.2,2,4.2,4.7c0,0.9-0.6,2.5-3,2.5
				c-0.8,0-1.6-0.2-2.3-0.4V238.7z"/>
			<path d="M121.8,231.2h1.2v8.9h-1.2V231.2z"/>
			<path d="M129,232.1h-3.2v-0.9h7.5v0.9h-3.2v8H129V232.1z"/>
			<path d="M136.2,231.2h4.9v0.9h-3.7v2.9h3.1v0.9h-3.1v3.3h4v0.9h-5.2V231.2z M138.7,228.7h1.3l-1.6,1.8h-1L138.7,228.7z"/>
			<path d="M149.8,231.2h2.9c1.3,0,2.5,0.6,2.5,2.3c0,2.5-2.1,3.1-4.2,3v3.5h-1.2V231.2z M151,235.7c1.8,0.1,2.9-0.4,2.9-2.1
				c0-1.1-0.8-1.5-1.6-1.5H151V235.7z"/>
			<path d="M159.9,231.2h1.2l3.5,8.9h-1.3l-1-2.5h-3.9l-1,2.5h-1L159.9,231.2z M162,236.7l-1.6-4.1l-1.6,4.1H162z"/>
			<path d="M167.5,231.2h2.9c0.9,0,2.4,0.5,2.4,2.2c0,1.1-0.8,2.1-1.8,2.5l3,4.2h-1.5l-2.6-3.8h-1.2v3.8h-1.2V231.2z M168.6,235.4
				c0.2,0,0.3,0,0.5,0c1.5,0,2.3-0.7,2.3-2c0-0.9-0.7-1.4-1.7-1.4h-1.2V235.4z"/>
			<path d="M176.8,231.2h1.2v8.9h-1.2V231.2z"/>
			<path d="M181.3,238.7c0.8,0.4,1.6,0.7,2.5,0.7c0.9,0,1.7-0.5,1.7-1.4c0-2.2-4.1-2.1-4.1-4.7c0-0.8,0.6-2.4,2.7-2.4
				c0.7,0,1.4,0.1,2.1,0.4v1.1c-0.7-0.3-1.4-0.6-2.1-0.6c-1.1,0-1.5,0.8-1.5,1.3c0,1.8,4.2,2,4.2,4.7c0,0.9-0.6,2.5-3,2.5
				c-0.8,0-1.6-0.2-2.3-0.4V238.7z"/>
			<path d="M189.5,236h2.7v0.9h-2.7V236z"/>
			<path d="M195.6,231.2h4.9v0.9h-3.7v2.9h3.1v0.9h-3.1v3.3h4v0.9h-5.2V231.2z"/>
			<path d="M203.2,238.7c0.8,0.4,1.6,0.7,2.5,0.7c0.9,0,1.7-0.5,1.7-1.4c0-2.2-4.1-2.1-4.1-4.7c0-0.8,0.6-2.4,2.7-2.4
				c0.7,0,1.4,0.1,2.1,0.4v1.1c-0.7-0.3-1.4-0.6-2.1-0.6c-1.1,0-1.5,0.8-1.5,1.3c0,1.8,4.2,2,4.2,4.7c0,0.9-0.6,2.5-3,2.5
				c-0.8,0-1.6-0.2-2.3-0.4V238.7z"/>
			<path d="M214.1,232.1h-3.2v-0.9h7.5v0.9h-3.2v8h-1.2V232.1z"/>
			<path d="M233.3,232.5c-0.9-0.3-1.8-0.6-3-0.6c-2.2,0-2.9,1.9-2.9,3.8c0,1.8,0.7,3.8,2.9,3.8c1.3,0,2.1-0.3,3-0.8v1
				c-0.9,0.5-1.8,0.7-3,0.7c-2.8,0-4.1-2.1-4.1-4.7c0-2.6,1.4-4.7,4.1-4.7c1.1,0,2.1,0.2,3,0.4V232.5z"/>
			<path d="M236.8,231.2h2.9c0.9,0,2.4,0.5,2.4,2.2c0,1.1-0.8,2.1-1.8,2.5l3,4.2h-1.5l-2.6-3.8H238v3.8h-1.2V231.2z M238,235.4
				c0.2,0,0.3,0,0.5,0c1.5,0,2.3-0.7,2.3-2c0-0.9-0.7-1.4-1.7-1.4H238V235.4z"/>
			<path d="M246.1,231.2h4.9v0.9h-3.7v2.9h3.1v0.9h-3.1v3.3h4v0.9h-5.2V231.2z M248.5,228.7h1.3l-1.6,1.8h-1L248.5,228.7z"/>
			<path d="M256.4,232.1h-3.2v-0.9h7.5v0.9h-3.2v8h-1.2V232.1z"/>
			<path d="M263.7,231.2h4.9v0.9h-3.7v2.9h3.1v0.9h-3.1v3.3h4v0.9h-5.2V231.2z"/>
			<path d="M271.9,231.2h1.2v8.9h-1.2V231.2z"/>
			<path d="M276.9,231.2h1.2v8h4v0.9h-5.2V231.2z"/>
		</g>
	</g>
	<g>
		<path class="st0" d="M327.7,157.9h13.5v3.2h-8.3v5.4h6.7v2.9h-6.7v8h-5.2V157.9z"/>
		<path class="st0" d="M348.3,157.9h5.2l7.5,19.5h-5.2l-1.9-5h-7.6l-1.9,5h-3.5L348.3,157.9z M352.7,169.4l-2.6-6.9l-2.6,6.9H352.7z
			"/>
		<path class="st0" d="M380.1,161.8c-1.9-0.7-3.8-1.2-5.8-1.2c-4.7,0-6.2,3.4-6.2,6.9c0,4.4,2.3,7.1,6.7,7.1c1.9,0,3.9-0.6,5.6-1.4
			v3.6c-2.2,0.7-4.6,1.1-7.3,1.1c-6.3,0-10.6-3.8-10.6-10.2c0-6.5,4.2-10.3,10.6-10.3c2.6,0,4.8,0.2,7,0.6V161.8z"/>
		<path class="st0" d="M388.9,157.9v11.3c0,3.7,0.8,5.5,3.4,5.5c2.3,0,3.4-1.3,3.4-5v-11.8h4.5v12.4c0,1.7,0,7.6-8.1,7.6
			c-4.8,0-8.5-2.3-8.5-7.6v-12.4H388.9z"/>
		<path class="st0" d="M405.1,157.9h5.2v16.3h8.8v3.2h-14V157.9z"/>
		<path class="st0" d="M424.1,161.2H417v-3.3h19.4v3.3h-7.1v16.2h-5.2V161.2z"/>
		<path class="st0" d="M439.2,157.9h13.3v3.2h-8.1v4.8h6.7v2.9h-6.7v5.4h8.8v3.2h-14V157.9z M445.9,152.8h4l-3.9,3.9h-3.1
			L445.9,152.8z"/>
		<path class="st0" d="M327.7,197.9h10.6c2.7,0,8.2,1.6,8.2,9.4c0,6.9-4.1,10.1-9.2,10.1h-9.7V197.9z M332.9,214
			c0.9,0.1,1.7,0.2,2.5,0.2c4.5,0,5.6-3.4,5.6-6.7c0-2.7-0.9-6.4-5.5-6.4h-2.6V214z"/>
		<path class="st0" d="M350.1,197.9h13.3v3.2h-8.1v4.8h6.7v2.9h-6.7v5.4h8.8v3.2h-14V197.9z"/>
		<path class="st0" d="M376.3,213.5c1.7,0.7,3.5,1.2,5.3,1.2c1.4,0,3.2-0.4,3.2-2.1c0-3.2-8.7-3.5-8.7-9.6c0-3.9,3.5-5.5,6.9-5.5
			c1.9,0,3.9,0.2,5.8,0.6v3.7c-1.6-0.6-3.3-1.1-5-1.1c-1,0-2.5,0.4-2.5,1.7c0,2.9,9,3.3,9,9.7c0,2-1,5.9-8,5.9
			c-2.5,0-4.6-0.2-6.1-0.5V213.5z"/>
		<path class="st0" d="M399.2,197.9h5.2l7.5,19.5h-5.2l-1.9-5h-7.6l-1.9,5h-3.5L399.2,197.9z M403.5,209.4l-2.6-6.9l-2.6,6.9H403.5z
			"/>
		<path class="st0" d="M414.7,197.9h4.3l8.3,11.7h0.1v-11.7h3.9v19.5H427l-8.3-11.7h-0.1v11.7h-3.9V197.9z"/>
		<path class="st0" d="M441.2,201.2h-7.1v-3.3h19.4v3.3h-7.1v16.2h-5.2V201.2z"/>
		<path class="st0" d="M456.3,197.9h13.3v3.2h-8.1v4.8h6.7v2.9h-6.7v5.4h8.8v3.2h-14V197.9z M463,192.8h4l-3.9,3.9H460L463,192.8z"
			/>
	</g>
</g>
</svg>
