<svg xmlns="http://www.w3.org/2000/svg" width="600" height="413.804" viewBox="0 0 600 413.804"><path d="M572.632 146.512c7-1.421 12.507-4.797 15.598-10.126 8.207-14.176-4.37-36.738-28.069-50.417-17.552-10.126-36.276-12.542-48.107-7.354-25.546-20.82-55.888-38.94-89.926-52.726-129.292-52.371-263.31-22.775-299.302 66.12-36.027 88.896 39.616 203.408 168.908 255.779 129.293 52.37 263.31 22.774 299.302-66.121 17.161-42.387 8.954-90.636-18.404-135.155zm-33.327 83.85c-25.19 62.177-121.405 81.86-214.919 43.986-93.479-37.875-148.87-118.99-123.714-181.166 25.19-62.177 121.405-81.86 214.919-43.986 34.712 14.07 64.131 34.073 86.16 56.848 8.207 8.491 15.384 17.338 21.424 26.434 21.46 32.296 28.495 67.364 16.13 97.884z" fill="#39c"/><path d="M461.282 172.84c-12.187 30.058-58.873 39.508-104.315 21.104-45.443-18.404-72.374-57.665-60.223-87.723 12.187-30.058 58.873-39.509 104.315-21.104 45.407 18.404 72.374 57.664 60.223 87.722z" fill="#39c"/><path d="M24.018 139.974v17.8L.284 166.303A4.682 4.682 0 0 1 0 164.739v-24.765a4.443 4.443 0 0 1 4.441-4.44h15.136a4.443 4.443 0 0 1 4.441 4.44z" fill="#f40066"/><path d="M126.258 173.834H48.797c-5.988 0-10.887 4.899-10.887 10.886v69.575c0 1.499 1.215 2.714 2.715 2.714h14.503c1.5 0 2.714-1.215 2.714-2.714v-53.657c0-4.17 3.412-7.582 7.583-7.582h46.884c2.7 0 4.868 2.203 4.868 4.867v56.372c0 1.499 1.215 2.714 2.714 2.714h14.539c1.5 0 2.715-1.215 2.715-2.714V184.72c0-5.987-4.9-10.886-10.887-10.886zm-105.828.464l-17.664 2.287A3.173 3.173 0 0 0 0 179.732v74.104a3.173 3.173 0 0 0 3.173 3.173h17.664a3.173 3.173 0 0 0 3.174-3.173v-76.392a3.173 3.173 0 0 0-3.581-3.146zm222.948-.464h-75.43c-6.43 0-11.688 5.259-11.688 11.69v39.082c0 6.431 5.258 11.69 11.689 11.69h66.334v19.363h-60.365v-7.781l-17.232-5.116a8.817 8.817 0 0 0-.426 2.736v20.287c0 5.045 4.157 9.202 9.202 9.202h80.404c5.08 0 9.202-4.157 9.202-9.202v-80.262c0-6.43-5.259-11.689-11.69-11.689zm-9.095 38.052c0 1.955-1.6 3.518-3.553 3.518h-53.26c-1.953 0-3.552-1.563-3.552-3.518v-15.135a3.563 3.563 0 0 1 3.553-3.553h53.259a3.563 3.563 0 0 1 3.553 3.553v15.135zm140.449 36.916v-20.074l-19.613 2.735v1.137c0 2.239-1.812 4.05-4.086 4.05h-51.66c-2.238 0-4.086-1.811-4.086-4.05v-7.532h73.724c3.163 0 5.72-2.523 5.72-5.685V179.52c0-3.127-2.557-5.685-5.72-5.685h-87.616a5.679 5.679 0 0 0-5.685 5.685v69.283a7.218 7.218 0 0 0 7.213 7.212h84.596a7.218 7.218 0 0 0 7.213-7.212zm-79.445-51.518a4.086 4.086 0 0 1 4.086-4.086h51.66a4.064 4.064 0 0 1 4.086 4.086v5.187c0 1.03-.817 1.848-1.812 1.848h-56.172a1.835 1.835 0 0 1-1.848-1.848v-5.187zm70.037-61.743H330.11l-28.108 28.108 35.744-.53 27.578-27.578zm-89.242 278.263l21.972-2.988.016-16.304-9.432 1.148.06-106.605 9.476-.272.016-17.06-22.108.304v141.777zm123.154-125.992l-9.763-7.409-12.007 24.307 6.074 5.492 15.696-22.39zm-48.662 26.924c-5.018.271-9.085 3.263-12.18 8.995-3.082-5.383-7.964-7.715-14.696-6.99-5.147.281-9.108 3.473-11.852 9.606l-6.663-7.748-.083 64.847 11.85-1.335.06-33.424c.022-11.4 2.373-17.263 7.022-17.577 2.674-.18 4.488 1.58 5.444 5.273.594 2.25.89 5.837.879 10.786l-.08 33.441 11.33-1.276.099-33.642c.03-10.52 2.252-15.927 6.642-16.224 2.442-.164 4.117 1.159 5.032 3.965.626 2.023.936 5.182.92 9.48l-.121 35.005 10.85-1.223.145-36.788c.068-17.3-4.753-25.704-14.598-25.171zm158.817-45.925l-.141 13.663 5.943-.17-.91 85.9-5.926.72-.137 13.308 14.111-1.919 1.224-111.697-14.164.195zm-54.783 26.609l9.04-.363.134-16.018-9.046.214-.128 16.167zm32.139 11.952c-4.6.25-8.473 3.204-11.606 8.88-3.155 5.709-4.773 12.704-4.844 20.935-.073 8.4 1.413 15.276 4.441 20.603 3.007 5.3 6.837 7.669 11.472 7.138 3.577-.41 6.601-2.78 9.084-7.096l-.042 4.307 8.215-.927.541-53.498-5.42 6.015c-2.381-4.84-6.317-6.97-11.841-6.357zm6.53 39.407c-1.583 3.238-3.699 4.985-6.35 5.253-2.31.234-4.232-1.302-5.77-4.616-1.45-3.103-2.162-6.756-2.124-10.963.04-4.354.873-8.14 2.498-11.351 1.617-3.191 3.653-4.871 6.096-5.036 2.474-.167 4.452 1.151 5.936 3.937 1.478 2.776 2.195 6.38 2.152 10.82-.046 4.752-.858 8.728-2.439 11.956zm-104.132 14.89c-2.65.267-4.84-.774-6.571-3.13-1.74-2.353-2.766-5.624-3.075-9.786l27.216-2.388c.001-.167.067-.578.202-1.234.134-.645.203-1.098.204-1.358.06-10.223-1.357-18.097-4.26-23.64-3.131-6.071-7.85-8.97-14.193-8.635-5.546.294-10.227 3.317-14.013 9.073-3.98 5.978-6.001 13.496-6.038 22.518-.066 15.985 3.825 26.364 11.588 31.11 2.667 1.61 5.353 2.267 8.06 1.957 4.617-.53 8.438-2.516 11.472-5.938 2.593-2.931 5.242-7.767 7.94-14.505l-8.692-6.995c-2.485 8.214-5.76 12.539-9.84 12.95zm-.143-35.983c4.037-.269 6.611 2.623 7.752 8.65l-16.538 1.245c1.291-6.292 4.23-9.592 8.786-9.895zm49.48-13.218c-2.15-2.197-3.978-3.458-5.484-3.754a20.197 20.197 0 0 0-4.818-.309c-5.39.28-9.782 3.612-13.15 10.021-3.389 6.448-5.116 14.285-5.17 23.466-.053 8.831 1.686 16.163 5.2 21.968 3.483 5.761 7.821 8.327 12.993 7.735 6.494-.09 11.2-3.261 14.165-9.502l4.876 6.333.695-91.48-9.052.192-.254 35.33zm-2.64 39.466c-1.75 3.27-4.135 5.065-7.169 5.37-2.752.277-4.954-1.217-6.6-4.49-1.6-3.034-2.386-6.952-2.355-11.747.03-4.88.845-9.11 2.44-12.674 1.792-3.813 4.094-5.818 6.901-6.003 3.037-.2 5.381 1.307 7.035 4.513 1.648 3.194 2.45 7.339 2.413 12.461-.037 5.12-.925 9.31-2.665 12.57zm18.489 14.7l8.941-1.006.477-57.258-8.96.482-.458 57.783zM40.76 161.128h20.284c1.567 0 2.85-1.432 2.85-3.183v-20.341c0-.438-.318-.793-.71-.793h-3.798c-.393 0-.711.355-.711.793v15.688c0 1.219-.894 2.216-1.985 2.216H44.413c-.707 0-1.274-.644-1.274-1.423v-16.481c0-.438-.318-.793-.711-.793H38.62c-.393 0-.71.355-.71.793v20.341c0 1.75 1.282 3.183 2.85 3.183zm34.917-.012h2.807c.746 0 1.35-.604 1.35-1.315v-8.527H92.52a2.047 2.047 0 0 0 2.025-2.025v-.569a2.048 2.048 0 0 0-2.025-2.025H79.835v-5.223h21.602c.71 0 1.315-.604 1.315-1.35v-1.954c0-.71-.604-1.315-1.315-1.315H75.643c-.71 0-1.315.604-1.315 1.315V159.8c0 .71.604 1.315 1.35 1.315zm35.601 0h3.695c.604 0 1.066-.498 1.066-1.066v-9.913h14.212c.426 0 .853-.036 1.279-.142v10.303c0 .427.355.818.817.818h3.908c.462 0 .853-.391.853-.818v-7.994a4.61 4.61 0 0 0-2.238-3.979c1.385-1.28 2.238-3.056 2.238-5.045v-3.411c0-1.67-1.386-3.056-3.056-3.056h-22.312c-.853 0-1.528.675-1.528 1.528v21.709c0 .568.462 1.066 1.066 1.066zm4.121-19.506c0-.213.036-.427.143-.64.248-.568.817-.995 1.492-.995h13.927a1.63 1.63 0 0 1 1.635 1.635v3.73c0 .889-.71 1.6-1.635 1.6h-13.927a1.49 1.49 0 0 1-.995-.356 1.5 1.5 0 0 1-.64-1.244v-3.73z" fill="#384045"/></svg>