<?xml version="1.0" encoding="UTF-8"?>
<svg width="200px" height="89px" viewBox="0 0 200 89" version="1.1" xmlns="http://www.w3.org/2000/svg" xmlns:xlink="http://www.w3.org/1999/xlink">
    <title>Group</title>
    <g id="Symbols" stroke="none" stroke-width="1" fill="none" fill-rule="evenodd">
        <g id="Group" transform="translate(-0.000044, 0.000088)">
            <path d="M98.7075833,56.7613424 L97.19724,56.7613424 C97.2973151,57.9227397 96.9826054,59.0187372 96.3523081,59.8487456 C95.3379508,59.0692136 94.3604633,58.222526 93.5646911,57.4412382 C94.427619,56.810502 95.2567496,56.0634505 95.2567496,54.9516517 C95.2567496,53.8736503 94.3771425,53.077878 92.85012,53.077878 C91.2563809,53.077878 90.2446572,54.022885 90.2446572,55.2839185 C90.2446572,55.8962198 90.7094795,56.6287868 91.4218559,57.4083188 C90.3425376,58.1553703 89.5322808,58.9853788 89.5322808,60.1976915 C89.5322808,61.6571194 90.558928,62.7693571 92.6179284,62.7693571 C94.1115925,62.7693571 95.372626,62.3040959 96.3523081,61.5754793 C96.8482941,61.9406654 97.5132665,62.4204112 98.2256429,62.9019127 L99.10525,61.7751905 C98.5745888,61.4100043 98.0276874,61.0285779 97.4461109,60.5957971 C98.2932375,59.5493983 98.7743,58.1716106 98.7075833,56.7613424 L98.7075833,56.7613424 Z M93.7968827,55.0842073 C93.7968827,55.7469851 93.2973853,56.2469214 92.6684048,56.6941867 C92.0688323,56.0634505 91.7198864,55.5327894 91.7198864,55.1676032 C91.7198864,54.5535462 92.1693463,54.2046002 92.7667242,54.2046002 C93.4830509,54.2046002 93.7968827,54.5860267 93.7968827,55.0842073 L93.7968827,55.0842073 Z M95.2238302,60.7445929 C94.5930939,61.2445293 93.7968827,61.5429988 92.85012,61.5429988 C91.7383213,61.5429988 91.0404294,60.8451069 91.0404294,60.0322166 C91.0404294,59.2184483 91.6711657,58.6548678 92.3032186,58.2062857 C93.0831896,59.0187372 94.2279078,59.9654999 95.2238302,60.7445929 L95.2238302,60.7445929 Z M111.1046,62.569207 L111.1046,53.9408059 L109.596452,53.9408059 L109.596452,57.4776691 L105.212901,57.4776691 L105.212901,53.9408059 L103.704752,53.9408059 L103.704752,62.569207 L105.212901,62.569207 L105.212901,58.7676717 L109.596452,58.7676717 L109.596452,62.569207 L111.1046,62.569207 Z M121.012031,59.285604 L121.012031,53.9408059 L119.520561,53.9408059 L119.520561,59.167094 C119.520561,60.5466375 118.9245,61.459164 117.296086,61.459164 C115.867822,61.459164 115.05537,60.7955083 115.05537,59.3180845 L115.05537,53.9408059 L113.547222,53.9408059 L113.547222,59.5836345 C113.547222,61.5737236 114.788504,62.7039572 117.179771,62.7039572 C119.901988,62.7039572 121.012031,61.1264583 121.012031,59.285604 L121.012031,59.285604 Z M134.002037,62.569207 L132.742759,53.9408059 L130.769349,53.9408059 L128.942979,59.2184483 C128.742829,59.8000249 128.612029,60.2121761 128.493958,60.8121875 L128.477279,60.8121875 C128.377643,60.2960109 128.195928,59.7328692 128.014212,59.167094 L126.237002,53.9408059 L124.363229,53.9408059 L123.05128,62.569207 L124.56294,62.569207 L125.17568,57.8410995 C125.275316,57.0431326 125.359151,56.3799159 125.39207,55.7162603 L125.408311,55.7162603 C125.508386,56.2636006 125.738822,56.993973 125.955212,57.6084689 L127.614351,62.569207 L129.224331,62.569207 L131.032265,57.2432828 C131.232854,56.6779465 131.381211,56.1472853 131.481725,55.6982643 L131.497966,55.6982643 C131.546686,56.1802047 131.614281,56.8614174 131.730157,57.7739439 L132.410053,62.569207 L134.002037,62.569207 Z M143.14837,62.569207 L139.829653,53.9408059 L138.103797,53.9408059 L134.750844,62.569207 L136.279183,62.569207 L136.95864,60.7590775 L140.791339,60.7590775 L141.472991,62.569207 L143.14837,62.569207 Z M140.411668,59.6507901 L137.356746,59.6507901 L138.419824,56.928573 C138.601539,56.4453159 138.767014,55.9488909 138.86665,55.5147934 L138.88289,55.5147934 C139.015885,55.930895 139.18136,56.4633118 139.364831,56.9448133 L140.411668,59.6507901 Z M152.043638,62.569207 L152.043638,53.9408059 L150.56797,53.9408059 L150.58421,57.87358 C150.58421,59.1508538 150.600889,60.0813762 150.651805,60.6467125 L150.635564,60.6467125 C150.337095,60.0633803 149.988149,59.4673192 149.622963,58.9186621 L146.417489,53.9408059 L144.427399,53.9408059 L144.427399,62.569207 L145.886827,62.569207 L145.886827,57.87358 C145.886827,56.9448133 145.852152,56.36192 145.819672,55.8145796 L145.835912,55.8145796 C146.084783,56.3452408 146.433729,56.9755381 146.782675,57.5083939 L150.037309,62.569207 L152.043638,62.569207 Z M154.598185,62.569207 L156.106773,62.569207 L156.106773,53.9408059 L154.598185,53.9408059 L154.598185,62.569207 Z M163.755931,55.2022783 L163.755931,53.9408059 L157.253686,53.9408059 L157.253686,55.2022783 L159.743711,55.2022783 L159.743711,62.569207 L161.251421,62.569207 L161.251421,55.2022783 L163.755931,55.2022783 Z M169.383836,51.3840638 L168.636785,50.3574166 L166.281948,52.1965152 L166.879326,53.0269626 L169.383836,51.3840638 Z M169.881578,62.569207 L169.881578,61.3590889 L166.512384,61.3590889 L166.512384,58.7022717 L169.714347,58.7022717 L169.714347,57.5571146 L166.512384,57.5571146 L166.512384,55.1166878 L169.881578,55.1166878 L169.881578,53.9408059 L165.00248,53.9408059 L165.00248,62.569207 L169.881578,62.569207 Z M176.918434,59.899661 C176.918434,57.1594479 172.835109,57.9227397 172.835109,56.2469214 C172.835109,55.5003089 173.383766,55.0183685 174.612319,55.0183685 C175.144297,55.0183685 175.857112,55.1166878 176.320179,55.2676782 L176.387773,53.9570461 C175.889593,53.85741 175.210136,53.8082503 174.693959,53.8082503 C172.504159,53.8082503 171.243125,54.8348975 171.243125,56.4123964 C171.243125,59.1855289 175.308455,58.3550815 175.308455,60.0633803 C175.308455,61.0610584 174.39549,61.4424848 173.481646,61.4424848 C172.734595,61.4424848 172.022657,61.3279252 171.509992,61.0935389 L171.442837,62.5020514 C171.924777,62.6205613 172.669634,62.7184418 173.299931,62.7184418 C175.375611,62.7184418 176.918434,61.6426349 176.918434,59.899661 L176.918434,59.899661 Z" id="Fill-1" fill="#100C08"></path>
            <path d="M90.3774761,49.0314221 L91.8860637,49.0314221 L91.8860637,40.403021 L90.3774761,40.403021 L90.3774761,49.0314221 Z M102.042804,49.0314221 L102.042804,40.403021 L100.567136,40.403021 L100.583376,44.3353562 C100.583376,45.6130689 100.600055,46.5435913 100.650532,47.106733 L100.632536,47.106733 C100.334505,46.5273511 99.9859983,45.9273397 99.6203732,45.3804383 L96.4166546,40.403021 L94.4265655,40.403021 L94.4265655,49.0314221 L95.8842377,49.0314221 L95.8842377,44.3353562 C95.8842377,43.4052727 95.8517572,42.8254518 95.8183989,42.2767947 L95.8346391,42.2767947 C96.0839489,42.8092116 96.4328948,43.4395089 96.7818408,43.97017 L100.036475,49.0314221 L102.042804,49.0314221 Z M109.542727,46.3601204 C109.542727,43.6212241 105.461157,44.3845159 105.461157,42.7073808 C105.461157,41.9603293 106.009814,41.4788278 107.238367,41.4788278 C107.769029,41.4788278 108.483161,41.5789029 108.946666,41.7276987 L109.012066,40.4192612 C108.515641,40.3196251 107.836184,40.2704654 107.321763,40.2704654 C105.128452,40.2704654 103.869174,41.2971126 103.869174,42.8746115 C103.869174,45.647744 107.936259,44.8172966 107.936259,46.5273511 C107.936259,47.5228345 107.021977,47.9046999 106.108134,47.9046999 C105.361082,47.9046999 104.648706,47.7883846 104.134724,47.5535593 L104.068885,48.9660222 C104.548631,49.0805818 105.295682,49.1806568 105.926418,49.1806568 C108.00122,49.1806568 109.542727,48.1026554 109.542727,46.3601204 L109.542727,46.3601204 Z M116.279359,41.6605431 L116.279359,40.403021 L109.773163,40.403021 L109.773163,41.6605431 L112.26275,41.6605431 L112.26275,49.0314221 L113.771337,49.0314221 L113.771337,41.6605431 L116.279359,41.6605431 Z M117.523713,49.0314221 L119.032301,49.0314221 L119.032301,40.403021 L117.523713,40.403021 L117.523713,49.0314221 Z M126.68102,41.6605431 L126.68102,40.403021 L120.178774,40.403021 L120.178774,41.6605431 L122.666605,41.6605431 L122.666605,49.0314221 L124.175193,49.0314221 L124.175193,41.6605431 L126.68102,41.6605431 Z M135.260261,45.7456244 L135.260261,40.403021 L133.768353,40.403021 L133.768353,45.6293091 C133.768353,47.0088525 133.170536,47.9209401 131.542122,47.9209401 C130.115613,47.9209401 129.301845,47.2559677 129.301845,45.7785438 L129.301845,40.403021 L127.793257,40.403021 L127.793257,46.0440939 C127.793257,48.0372554 129.036295,49.1639777 131.427562,49.1639777 C134.149779,49.1639777 135.260261,47.5886734 135.260261,45.7456244 L135.260261,45.7456244 Z M142.778619,41.6605431 L142.778619,40.403021 L136.272424,40.403021 L136.272424,41.6605431 L138.763766,41.6605431 L138.763766,49.0314221 L140.272353,49.0314221 L140.272353,41.6605431 L142.778619,41.6605431 Z M151.971918,46.3601204 C151.971918,43.6212241 147.889909,44.3845159 147.889909,42.7073808 C147.889909,41.9603293 148.437249,41.4788278 149.667558,41.4788278 C150.198219,41.4788278 150.910595,41.5789029 151.375856,41.7276987 L151.441256,40.4192612 C150.943076,40.3196251 150.26318,40.2704654 149.749198,40.2704654 C147.557642,40.2704654 146.298364,41.2971126 146.298364,42.8746115 C146.298364,45.647744 150.363694,44.8172966 150.363694,46.5273511 C150.363694,47.5228345 149.449412,47.9046999 148.537324,47.9046999 C147.790273,47.9046999 147.07614,47.7883846 146.56172,47.5535593 L146.49632,48.9660222 C146.977821,49.0805818 147.722678,49.1806568 148.353853,49.1806568 C150.428655,49.1806568 151.971918,48.1026554 151.971918,46.3601204 L151.971918,46.3601204 Z M161.546642,44.6338257 C161.546642,41.7786141 159.923934,40.2704654 157.383432,40.2704654 C155.024646,40.2704654 153.002076,41.9440891 153.002076,44.8006174 C153.002076,47.3573595 154.312269,49.1639777 157.118321,49.1639777 C159.556992,49.1639777 161.546642,47.5228345 161.546642,44.6338257 L161.546642,44.6338257 Z M159.923934,44.7663812 C159.923934,46.8249427 158.728301,47.8537845 157.216202,47.8537845 C155.324871,47.8537845 154.6103,46.427276 154.6103,44.6663062 C154.6103,42.6419809 155.855532,41.5626626 157.267117,41.5626626 C158.893337,41.5626626 159.923934,42.676656 159.923934,44.7663812 L159.923934,44.7663812 Z M169.015841,48.7333916 L168.882846,47.4052024 C168.352185,47.655829 167.638053,47.821304 166.958596,47.821304 C165.083067,47.821304 164.036229,46.7415468 164.036229,44.749702 C164.036229,42.9400114 164.983431,41.5626626 166.858521,41.5626626 C167.489257,41.5626626 168.136234,41.678539 168.78321,41.8786891 L168.933762,40.5355765 C168.335945,40.3683458 167.621813,40.2867057 167.007756,40.2867057 C163.822033,40.2867057 162.429761,42.4255905 162.429761,44.8989368 C162.429761,47.5390748 163.870754,49.1455428 166.64257,49.1455428 C167.505936,49.1455428 168.317949,48.9971859 169.015841,48.7333916 L169.015841,48.7333916 Z M170.676736,49.0314221 L172.185323,49.0314221 L172.185323,40.403021 L170.676736,40.403021 L170.676736,49.0314221 Z M179.055827,37.8462789 L178.309214,36.8156814 L175.953939,38.660486 L176.551756,39.4887388 L179.055827,37.8462789 Z M179.554008,49.0314221 L179.554008,47.821304 L176.184814,47.821304 L176.184814,45.1644868 L179.388533,45.1644868 L179.388533,44.0210854 L176.184814,44.0210854 L176.184814,41.5789029 L179.554008,41.5789029 L179.554008,40.403021 L174.676665,40.403021 L174.676665,49.0314221 L179.554008,49.0314221 Z M186.839296,41.6605431 L186.839296,40.403021 L180.335295,40.403021 L180.335295,41.6605431 L182.824882,41.6605431 L182.824882,49.0314221 L184.33303,49.0314221 L184.33303,41.6605431 L186.839296,41.6605431 Z M192.465446,37.8462789 L191.718833,36.8156814 L189.363119,38.660486 L189.961375,39.4887388 L192.465446,37.8462789 Z M192.963626,49.0314221 L192.963626,47.821304 L189.594433,47.821304 L189.594433,45.1644868 L192.798151,45.1644868 L192.798151,44.0210854 L189.594433,44.0210854 L189.594433,41.5789029 L192.963626,41.5789029 L192.963626,40.403021 L188.085845,40.403021 L188.085845,49.0314221 L192.963626,49.0314221 Z M200.000044,46.3601204 C200.000044,43.6212241 195.916279,44.3845159 195.916279,42.7073808 C195.916279,41.9603293 196.465375,41.4788278 197.693928,41.4788278 C198.226345,41.4788278 198.940477,41.5789029 199.403544,41.7276987 L199.469383,40.4192612 C198.972958,40.3196251 198.293501,40.2704654 197.777324,40.2704654 C195.585768,40.2704654 194.32649,41.2971126 194.32649,42.8746115 C194.32649,45.647744 198.393576,44.8172966 198.393576,46.5273511 C198.393576,47.5228345 197.479294,47.9046999 196.56545,47.9046999 C195.81796,47.9046999 195.104267,47.7883846 194.592041,47.5535593 L194.524446,48.9660222 C195.005947,49.0805818 195.751243,49.1806568 196.383735,49.1806568 C198.458976,49.1806568 200.000044,48.1026554 200.000044,46.3601204 L200.000044,46.3601204 Z" id="Fill-3" fill="#100C08"></path>
            <polygon id="Fill-5" fill="#008CAD" points="40.1937418 25.7596262 40.4031093 34.0166961 67.7464239 33.296858 67.9562303 24.9945787"></polygon>
            <path d="M69.346308,12.5172821 L68.2336314,12.4878741 L67.9149713,23.964464 L40.2148102,24.6913249 L39.8961502,12.512015 L38.7834736,12.541423 L39.1038893,24.7189772 L17.1808681,25.2882639 L17.1791124,25.2970424 C16.159488,25.3352289 15.161371,25.4612006 14.1922231,25.65345 L13.2485329,13.7133546 L12.1446348,13.7980673 L13.0966646,25.9080269 C5.54363141,27.9068945 0,34.4885852 0,42.3062905 C0,47.7046375 2.64277155,52.5161409 6.76735622,55.634269 L6.7739401,55.6360247 C9.49308473,57.7200438 12.5998007,59.5411465 15.8553125,60.9443919 L18.0600363,88.9855983 C18.1776683,88.945656 19.1490109,88.5888094 19.1490109,88.5888094 L19.1490109,88.5787142 C24.5153163,86.3252697 28.2870047,81.0120743 28.2870047,74.8161993 C28.2870047,68.2187073 24.00309,62.6303055 18.0740819,60.6656741 C18.0565248,60.6538231 17.2897217,60.3492087 16.9126845,60.1933901 L14.2800083,26.7731495 C15.1003604,26.6037241 15.9417809,26.4860921 16.8016363,26.4321042 L39.1315416,25.8404324 L40.63574,85.0637973 L41.7484166,85.0343892 L40.245974,25.8127801 L67.8855633,25.0788963 L66.3831207,85.0343892 L67.4962362,85.0637973 L69.346308,12.5172821 Z M17.0096871,61.4201874 C17.2396841,61.5141175 17.8107265,61.7388474 17.8647143,61.7581601 C23.2801794,63.6148158 27.1721335,68.7603416 27.1721335,74.8161993 C27.1721335,80.4182078 23.8424432,85.2384897 19.0550808,87.4015155 L17.0096871,61.4201874 Z M15.75831,59.6930148 C12.6414987,58.2893304 9.65592616,56.4998304 7.07328742,54.4697991 L7.07328742,54.4627763 C3.42844853,51.5465541 1.11487124,47.181877 1.11487124,42.3062905 C1.11487124,35.0719174 6.2116763,28.9748007 13.1848887,27.041333 L15.75831,59.6930148 Z" id="Fill-6" fill="#100C08"></path>
            <path d="M12.6678781,13.8017103 C16.4738027,13.502363 19.3158465,10.1739896 19.0160603,6.36982064 C18.716713,2.56389602 15.3900952,-0.277708868 11.5841706,0.0216384498 C7.77824597,0.321424693 4.93664108,3.64935924 5.23598839,7.45352816 C5.53577464,11.2594528 8.86370919,14.1010577 12.6678781,13.8017103" id="Fill-7" fill="#E4032C"></path>
        </g>
    </g>
</svg>