<?xml version="1.0" encoding="utf-8"?>
<!-- Generator: Adobe Illustrator 27.9.0, SVG Export Plug-In . SVG Version: 6.00 Build 0)  -->
<svg version="1.1" id="Calque_1" xmlns="http://www.w3.org/2000/svg" xmlns:xlink="http://www.w3.org/1999/xlink" x="0px" y="0px"
	 viewBox="0 0 233 86" style="enable-background:new 0 0 233 86;" xml:space="preserve">
<style type="text/css">
	.st0{fill:#FFFFFF;}
</style>
<path class="st0" d="M26.8,30.6v4c0,1.1,0.9,2.1,2.1,2.1h3.9v-6H26.8z"/>
<path class="st0" d="M36.5,36.7h4c1.1,0,2.1-0.9,2.1-2.1v-4h-6.1V36.7z"/>
<polygon class="st0" points="32.8,20.9 29.6,20.9 28.9,20.9 26.8,20.9 26.8,23 26.8,24.5 26.8,26.9 32.8,26.9 "/>
<polygon class="st0" points="42.6,26.9 42.6,23 42.6,23 42.6,20.9 40.5,20.9 39.8,20.9 36.5,20.9 36.5,26.9 "/>
<path class="st0" d="M61.2,14.5H50.6c-0.9,0-1.6,0.7-1.6,1.6c0,0.9,0.7,1.6,1.6,1.6h9V55c0,1.4-0.1,2.9-0.4,4.5l0,0.2l-9.7-12.7
	c-0.3-0.4-0.8-0.6-1.3-0.6c-0.5,0-1,0.2-1.3,0.6L44,51l-8-10.7c-0.3-0.4-0.8-0.6-1.3-0.6c-0.5,0-1,0.2-1.3,0.6l-8,10.7l-2.9-3.9
	c-0.3-0.4-0.8-0.6-1.3-0.6c-0.5,0-1,0.2-1.3,0.6l-9.7,12.7l0-0.2c-0.3-1.5-0.4-3-0.4-4.5V17.7h9c0.9,0,1.6-0.7,1.6-1.6
	c0-0.9-0.7-1.6-1.6-1.6H8.2c-0.9,0-1.6,0.7-1.6,1.6v39c0,5.4,1.5,10.6,4.4,15.2c0.7,1,1.4,2,2.1,2.9c2.9,3.4,6.6,6.2,10.7,7.9
	c0.2,0.1,0.5,0.2,0.8,0.2c0.5,0,1-0.2,1.3-0.6l8.8-11.8l0.1,0.1l8.7,11.6c0.2,0.3,0.5,0.5,0.8,0.6l0.1,0c0.1,0,0.3,0.1,0.5,0.1h0
	c0.2,0,0.4,0,0.6-0.1c4.2-1.7,7.9-4.5,10.8-7.9c0.8-0.9,1.5-1.9,2.1-2.9c2.9-4.5,4.4-9.8,4.4-15.2v-39
	C62.8,15.2,62.1,14.5,61.2,14.5 M54.3,70.4c-2.4,3-5.5,5.5-9,7.2l-0.1,0l-0.1-0.1L36,65.1c-0.3-0.4-0.8-0.6-1.3-0.6
	c-0.5,0-1,0.2-1.3,0.6l-9.3,12.5l-0.1,0c-3.5-1.6-6.6-4.1-9-7.2L15,70.3l0-0.1L34.7,44l9.4,12.5L54.3,70.4L54.3,70.4z"/>
<path class="st0" d="M47.7,6.2c0-0.8-0.6-1.5-1.5-1.6c-0.8-0.1-1.6,0.5-1.7,1.3l-0.3,1.6c-0.5,1.3-2,2.1-3.8,2.1
	c-1.9,0-4.1-0.9-4.1-3.4c0-0.9-0.7-1.6-1.6-1.6s-1.6,0.7-1.6,1.6c0,2.5-2.2,3.4-4.1,3.4c-1.8,0-3.3-0.8-3.8-2.1l0,0l-0.3-1.6
	c-0.1-0.8-0.8-1.3-1.6-1.3c0,0-0.1,0-0.1,0c-0.8,0.1-1.5,0.8-1.5,1.6c0,0.1,0,0.2,0,0.3c0,0.4,0.3,1.6,0.3,1.9c0,0,0,0,0,0l1.4,8
	c0.1,0.8,0.8,1.3,1.6,1.3h19.4c0.8,0,1.5-0.6,1.6-1.3l1.4-8c0,0,0,0,0,0c0-0.2,0.3-1.5,0.3-2C47.7,6.3,47.7,6.3,47.7,6.2 M43,14.5
	H26.4L26,12.3l0.2,0.1c0.9,0.3,1.8,0.5,2.8,0.5c2.3,0,4.3-0.8,5.6-2.2l0.1-0.1l0.1,0.1c1.4,1.4,3.3,2.2,5.6,2.2c1,0,2-0.2,2.8-0.5
	l0.2-0.1L43,14.5z"/>
<rect x="70.8" y="17.8" class="st0" width="8.9" height="41.7"/>
<path class="st0" d="M100.1,17.5h8.2l17.3,42h-9.3l-3.7-9.4H95.5l-3.7,9.4h-9.1L100.1,17.5z M109.5,42l-5.4-13.5L98.7,42H109.5z"/>
<polygon class="st0" points="128.3,17.8 158.8,17.8 158.8,26 137.1,26 137.1,34.4 156.2,34.4 156.2,42.6 137.1,42.6 137.1,51.3 
	159.1,51.3 159.1,59.5 128.3,59.5 "/>
<path class="st0" d="M71.1,68v-3.5h1.1v3.4c0,1.1,0.6,1.7,1.5,1.7c0.9,0,1.5-0.6,1.5-1.7v-3.5h1.1v3.4c0,1.8-1,2.7-2.6,2.7
	C72.1,70.6,71.1,69.7,71.1,68"/>
<polygon class="st0" points="77.7,64.5 78.7,64.5 81.9,68.7 81.9,64.5 83,64.5 83,70.5 82.1,70.5 78.8,66.2 78.8,70.5 77.7,70.5 "/>
<rect x="84.5" y="64.5" class="st0" width="1.1" height="6"/>
<polygon class="st0" points="86.6,64.5 87.8,64.5 89.6,69.1 91.4,64.5 92.6,64.5 90.1,70.6 89.1,70.6 "/>
<polygon class="st0" points="93.6,64.5 98.1,64.5 98.1,65.4 94.6,65.4 94.6,67 97.7,67 97.7,68 94.6,68 94.6,69.6 98.1,69.6 
	98.1,70.5 93.6,70.5 "/>
<path class="st0" d="M99.3,64.5h2.7c0.8,0,1.4,0.2,1.7,0.6c0.3,0.3,0.5,0.8,0.5,1.3v0c0,1-0.6,1.6-1.4,1.8l1.6,2.3h-1.3l-1.5-2.1
	h-1.3v2.1h-1.1V64.5z M101.9,67.5c0.8,0,1.2-0.4,1.2-1v0c0-0.6-0.5-1-1.3-1h-1.5v2H101.9z"/>
<path class="st0" d="M105.1,69.6l0.6-0.8c0.6,0.5,1.2,0.8,1.9,0.8c0.7,0,1.1-0.3,1.1-0.8v0c0-0.4-0.2-0.7-1.4-0.9
	c-1.3-0.3-2-0.7-2-1.8v0c0-1,0.9-1.8,2.1-1.8c0.9,0,1.6,0.3,2.2,0.8L109,66c-0.5-0.4-1.1-0.6-1.6-0.6c-0.6,0-1,0.3-1,0.7v0
	c0,0.5,0.3,0.7,1.4,0.9c1.3,0.3,1.9,0.8,1.9,1.8v0c0,1.1-0.9,1.8-2.2,1.8C106.7,70.6,105.8,70.3,105.1,69.6"/>
<rect x="111" y="64.5" class="st0" width="1.1" height="6"/>
<polygon class="st0" points="115.1,65.5 113.2,65.5 113.2,64.5 118.1,64.5 118.1,65.5 116.2,65.5 116.2,70.5 115.1,70.5 "/>
<path class="st0" d="M119.2,64.5h4.5v1h-3.4V67h3v1h-3v1.6h3.5v0.9h-4.5V64.5z M122,62.7l1,0.4l-1.1,0.8H121L122,62.7z"/>
<path class="st0" d="M127,69.6l0.6-0.8c0.6,0.5,1.2,0.8,1.9,0.8c0.7,0,1.1-0.3,1.1-0.8v0c0-0.4-0.2-0.7-1.4-0.9
	c-1.3-0.3-2-0.7-2-1.8v0c0-1,0.9-1.8,2.1-1.8c0.9,0,1.6,0.3,2.2,0.8l-0.6,0.8c-0.5-0.4-1.1-0.6-1.6-0.6c-0.6,0-1,0.3-1,0.7v0
	c0,0.5,0.3,0.7,1.4,0.9c1.3,0.3,1.9,0.8,1.9,1.8v0c0,1.1-0.9,1.8-2.2,1.8C128.6,70.6,127.7,70.3,127,69.6"/>
<path class="st0" d="M134.9,64.4h1l2.7,6.1h-1.1l-0.6-1.5h-2.9l-0.6,1.5h-1.1L134.9,64.4z M136.4,68.1l-1-2.4l-1,2.4H136.4z"/>
<polygon class="st0" points="138.1,64.5 139.3,64.5 141.1,69.1 142.9,64.5 144.1,64.5 141.6,70.6 140.6,70.6 "/>
<path class="st0" d="M144.4,67.5L144.4,67.5c0-1.7,1.3-3.1,3.2-3.1c1.9,0,3.2,1.4,3.2,3.1v0c0,1.7-1.3,3.1-3.2,3.1
	C145.7,70.6,144.4,69.2,144.4,67.5 M149.6,67.5L149.6,67.5c0-1.2-0.9-2.2-2.1-2.2c-1.2,0-2,1-2,2.1v0c0,1.2,0.9,2.1,2.1,2.1
	C148.8,69.6,149.6,68.7,149.6,67.5"/>
<rect x="152" y="64.5" class="st0" width="1.1" height="6"/>
<polygon class="st0" points="154.6,64.5 159.1,64.5 159.1,65.4 155.7,65.4 155.7,67 158.7,67 158.7,68 155.7,68 155.7,69.6 
	159.2,69.6 159.2,70.5 154.6,70.5 "/>
<polygon class="st0" points="71.1,75.1 72.3,75.1 74.1,78 75.9,75.1 77.1,75.1 77.1,81.2 76,81.2 76,76.8 74.1,79.7 74.1,79.7 
	72.2,76.9 72.2,81.2 71.1,81.2 "/>
<path class="st0" d="M78.3,78.2L78.3,78.2c0-1.7,1.3-3.1,3.2-3.1c1.9,0,3.2,1.4,3.2,3.1v0c0,1.7-1.3,3.1-3.2,3.1
	C79.6,81.3,78.3,79.9,78.3,78.2 M83.5,78.2L83.5,78.2c0-1.2-0.9-2.2-2.1-2.2c-1.2,0-2,1-2,2.1v0c0,1.2,0.9,2.1,2.1,2.1
	C82.7,80.3,83.5,79.3,83.5,78.2"/>
<polygon class="st0" points="85.8,75.1 86.8,75.1 90.1,79.3 90.1,75.1 91.1,75.1 91.1,81.2 90.2,81.2 86.9,76.9 86.9,81.2 
	85.8,81.2 "/>
<polygon class="st0" points="94.1,76.1 92.2,76.1 92.2,75.1 97.1,75.1 97.1,76.1 95.2,76.1 95.2,81.2 94.1,81.2 "/>
<path class="st0" d="M100.7,75.1h2.7c0.7,0,1.2,0.2,1.6,0.5c0.3,0.3,0.4,0.6,0.4,1v0c0,0.7-0.4,1.1-0.9,1.3c0.7,0.2,1.2,0.6,1.2,1.5
	v0c0,1.1-0.9,1.7-2.2,1.7h-2.8V75.1z M104.3,76.8c0-0.5-0.4-0.8-1.1-0.8h-1.5v1.6h1.5C103.9,77.7,104.3,77.4,104.3,76.8L104.3,76.8z
	 M103.4,78.6h-1.7v1.7h1.8c0.7,0,1.2-0.3,1.2-0.8v0C104.6,78.9,104.2,78.6,103.4,78.6"/>
<polygon class="st0" points="106.8,75.1 107.9,75.1 107.9,80.2 111.1,80.2 111.1,81.2 106.8,81.2 "/>
<path class="st0" d="M114.3,75.1h1l2.7,6.1h-1.1l-0.6-1.5h-2.9l-0.6,1.5h-1.1L114.3,75.1z M115.8,78.8l-1-2.4l-1,2.4H115.8z"/>
<polygon class="st0" points="118.9,75.1 119.9,75.1 123.1,79.3 123.1,75.1 124.2,75.1 124.2,81.2 123.3,81.2 119.9,76.9 119.9,81.2 
	118.9,81.2 "/>
<path class="st0" d="M125.4,78.2L125.4,78.2c0-1.7,1.3-3.1,3.1-3.1c1.1,0,1.8,0.4,2.4,0.9l-0.7,0.8c-0.5-0.4-1-0.8-1.7-0.8
	c-1.1,0-2,0.9-2,2.1v0c0,1.2,0.8,2.1,2,2.1c0.7,0,1.2-0.3,1.7-0.8l0.7,0.7c-0.6,0.7-1.3,1.1-2.5,1.1
	C126.7,81.3,125.4,79.9,125.4,78.2"/>
</svg>
