<?xml version="1.0" encoding="UTF-8" standalone="no"?>
<!-- Created with Inkscape (http://www.inkscape.org/) -->

<svg
   xmlns:dc="http://purl.org/dc/elements/1.1/"
   xmlns:cc="http://creativecommons.org/ns#"
   xmlns:rdf="http://www.w3.org/1999/02/22-rdf-syntax-ns#"
   xmlns:svg="http://www.w3.org/2000/svg"
   xmlns="http://www.w3.org/2000/svg"
   xmlns:sodipodi="http://sodipodi.sourceforge.net/DTD/sodipodi-0.dtd"
   xmlns:inkscape="http://www.inkscape.org/namespaces/inkscape"
   id="svg2"
   version="1.1"
   inkscape:version="0.48.5 r10040"
   width="325.77466"
   height="87.97818"
   xml:space="preserve"
   sodipodi:docname="CP_JFTassin_ENSIM.pdf"><metadata
     id="metadata8"><rdf:RDF><cc:Work
         rdf:about=""><dc:format>image/svg+xml</dc:format><dc:type
           rdf:resource="http://purl.org/dc/dcmitype/StillImage" /><dc:title></dc:title></cc:Work></rdf:RDF></metadata><defs
     id="defs6"><clipPath
       clipPathUnits="userSpaceOnUse"
       id="clipPath238"><path
         d="m 0,0 595.276,0 0,841.89 L 0,841.89 0,0 z"
         id="path240"
         inkscape:connector-curvature="0" /></clipPath><clipPath
       clipPathUnits="userSpaceOnUse"
       id="clipPath254"><path
         d="m 0,0 595.276,0 0,841.89 L 0,841.89 0,0 z"
         id="path256"
         inkscape:connector-curvature="0" /></clipPath><clipPath
       clipPathUnits="userSpaceOnUse"
       id="clipPath288"><path
         d="m 0,0 595.276,0 0,841.89 L 0,841.89 0,0 z"
         id="path290"
         inkscape:connector-curvature="0" /></clipPath><clipPath
       clipPathUnits="userSpaceOnUse"
       id="clipPath310"><path
         d="m 0,0 595.276,0 0,841.89 L 0,841.89 0,0 z"
         id="path312"
         inkscape:connector-curvature="0" /></clipPath></defs><sodipodi:namedview
     pagecolor="#ffffff"
     bordercolor="#666666"
     borderopacity="1"
     objecttolerance="10"
     gridtolerance="10"
     guidetolerance="10"
     inkscape:pageopacity="0"
     inkscape:pageshadow="2"
     inkscape:window-width="1280"
     inkscape:window-height="669"
     id="namedview4"
     showgrid="false"
     fit-margin-top="0"
     fit-margin-left="0"
     fit-margin-right="0"
     fit-margin-bottom="0"
     inkscape:zoom="0.22425732"
     inkscape:cx="1586.0739"
     inkscape:cy="126.34456"
     inkscape:window-x="0"
     inkscape:window-y="1"
     inkscape:window-maximized="1"
     inkscape:current-layer="g10" /><g
     id="g10"
     inkscape:groupmode="layer"
     inkscape:label="CP_JFTassin_ENSIM"
     transform="matrix(1.25,0,0,-1.25,-357.09363,928.59013)"><g
       id="g230"
       transform="matrix(2.0431356,0,0,2.0431356,358.26136,742.8721)"><path
         d="m 0,0 0,-13.849 9.496,0 0,2.328 -6.867,0 L 2.629,0 0,0 z"
         style="fill:#2a3f83;fill-opacity:1;fill-rule:nonzero;stroke:none"
         id="path232"
         inkscape:connector-curvature="0" /></g><g
       id="g234"
       transform="matrix(2.0431356,0,0,2.0431356,-569.85932,-774.9163)"><g
         id="g236"
         clip-path="url(#clipPath238)"><g
           id="g242"
           transform="translate(467.5574,734.9211)"><path
             d="M 0,0 C 0,0.248 0.056,0.497 0.166,0.747 0.278,0.994 0.438,1.221 0.647,1.42 0.855,1.622 1.114,1.787 1.43,1.92 1.742,2.05 2.1,2.117 2.504,2.117 2.878,2.117 3.213,2.05 3.503,1.92 3.797,1.787 4.038,1.622 4.225,1.42 4.413,1.221 4.554,0.994 4.653,0.747 4.749,0.497 4.8,0.248 4.8,0 L 0,0 z m 7.323,-1.412 c 0,0.691 -0.083,1.369 -0.249,2.034 C 6.906,1.287 6.636,1.88 6.26,2.406 5.885,2.933 5.385,3.359 4.768,3.683 4.148,4.01 3.394,4.172 2.504,4.172 1.767,4.172 1.096,4.039 0.489,3.779 -0.115,3.515 -0.637,3.154 -1.075,2.699 -1.513,2.241 -1.855,1.704 -2.099,1.088 -2.342,0.473 -2.464,-0.194 -2.464,-0.914 c 0,-0.79 0.122,-1.508 0.365,-2.16 0.244,-0.652 0.591,-1.207 1.043,-1.672 0.454,-0.463 1,-0.828 1.639,-1.091 0.641,-0.261 1.349,-0.394 2.13,-0.394 0.764,0 1.421,0.083 1.972,0.25 0.548,0.165 1,0.354 1.355,0.562 0.356,0.207 0.626,0.404 0.815,0.59 0.187,0.186 0.302,0.301 0.345,0.343 L 5.864,-2.991 C 5.781,-3.074 5.658,-3.18 5.498,-3.313 5.337,-3.444 5.134,-3.568 4.883,-3.685 4.632,-3.805 4.33,-3.909 3.974,-3.999 3.619,-4.087 3.204,-4.132 2.734,-4.132 c -0.321,0 -0.644,0.053 -0.973,0.165 -0.326,0.112 -0.617,0.271 -0.874,0.478 -0.259,0.208 -0.468,0.458 -0.628,0.748 -0.16,0.289 -0.238,0.614 -0.238,0.975 l 7.302,0 0,0.354 z"
             style="fill:#2a3f83;fill-opacity:1;fill-rule:nonzero;stroke:none"
             id="path244"
             inkscape:connector-curvature="0" /></g></g></g><g
       id="g246"
       transform="matrix(2.0431356,0,0,2.0431356,434.15547,742.8721)"><path
         d="M 0,0 -3.797,-6.542 -7.658,0 l -2.443,0 -0.668,-13.849 2.465,0 0.457,9.448 3.359,-5.501 1.233,0 3.338,5.645 0.46,-9.592 2.568,0 L 2.443,0 0,0 z"
         style="fill:#2a3f83;fill-opacity:1;fill-rule:nonzero;stroke:none"
         id="path248"
         inkscape:connector-curvature="0" /></g><g
       id="g250"
       transform="matrix(2.0431356,0,0,2.0431356,-569.85932,-774.9163)"><g
         id="g252"
         clip-path="url(#clipPath254)"><g
           id="g258"
           transform="translate(502.8034,732.4691)"><path
             d="M 0,0 C 0,-0.247 -0.064,-0.484 -0.198,-0.704 -0.329,-0.927 -0.5,-1.119 -0.709,-1.287 -0.917,-1.451 -1.157,-1.584 -1.428,-1.68 -1.7,-1.779 -1.98,-1.827 -2.274,-1.827 c -0.584,0 -1.027,0.117 -1.323,0.354 -0.3,0.234 -0.45,0.562 -0.45,0.976 0,0.401 0.158,0.758 0.479,1.069 0.32,0.311 0.876,0.468 1.67,0.468 0.153,0 0.337,-0.006 0.554,-0.011 C -1.131,1.022 -0.925,1.011 -0.73,0.997 -0.492,0.984 -0.249,0.971 0,0.955 L 0,0 z M 2.066,4.516 C 1.87,4.951 1.593,5.327 1.232,5.637 0.871,5.949 0.435,6.191 -0.073,6.363 -0.58,6.537 -1.147,6.624 -1.772,6.624 -2.358,6.624 -2.868,6.587 -3.307,6.51 -3.745,6.433 -4.133,6.337 -4.464,6.22 -4.798,6.101 -5.092,5.97 -5.34,5.823 -5.592,5.68 -5.816,5.536 -6.008,5.398 l 1.125,-1.659 c 0.321,0.208 0.689,0.401 1.106,0.58 0.417,0.181 0.973,0.271 1.671,0.271 0.625,0 1.133,-0.138 1.523,-0.415 C -0.195,3.896 0,3.516 0,3.031 L 0,2.803 C -0.265,2.816 -0.521,2.832 -0.773,2.845 -0.995,2.859 -1.225,2.87 -1.46,2.877 -1.697,2.883 -1.911,2.885 -2.106,2.885 -2.748,2.885 -3.33,2.811 -3.86,2.659 -4.389,2.505 -4.84,2.282 -5.217,1.984 -5.592,1.686 -5.883,1.319 -6.094,0.883 -6.302,0.447 -6.407,-0.048 -6.407,-0.601 c 0,-0.539 0.102,-1.01 0.302,-1.412 0.203,-0.401 0.468,-0.73 0.794,-0.986 0.326,-0.256 0.69,-0.447 1.085,-0.572 0.398,-0.125 0.796,-0.186 1.2,-0.186 0.668,0 1.275,0.125 1.817,0.372 0.543,0.25 0.944,0.534 1.209,0.854 l 0.064,-0.915 2.296,0 0,6.541 c 0,0.511 -0.099,0.985 -0.294,1.421"
             style="fill:#2a3f83;fill-opacity:1;fill-rule:nonzero;stroke:none"
             id="path260"
             inkscape:connector-curvature="0" /></g><g
           id="g262"
           transform="translate(515.7021,737.878)"><path
             d="M 0,0 C -0.641,0.726 -1.574,1.09 -2.798,1.09 -3.186,1.09 -3.536,1.047 -3.841,0.965 -4.148,0.883 -4.42,0.776 -4.664,0.643 -4.91,0.513 -5.118,0.37 -5.292,0.218 -5.466,0.067 -5.615,-0.08 -5.741,-0.218 l -0.061,1.101 -2.358,0 0,-9.738 2.462,0 0,5.273 c 0,0.362 0.058,0.697 0.176,1.008 0.117,0.311 0.283,0.585 0.492,0.819 0.208,0.237 0.459,0.42 0.751,0.55 0.291,0.133 0.604,0.197 0.938,0.197 0.543,0 0.987,-0.167 1.325,-0.508 0.342,-0.337 0.511,-0.819 0.511,-1.441 l 0,-5.898 2.465,0 0,5.917 C 0.96,-1.704 0.639,-0.726 0,0"
             style="fill:#2a3f83;fill-opacity:1;fill-rule:nonzero;stroke:none"
             id="path264"
             inkscape:connector-curvature="0" /></g><g
           id="g266"
           transform="translate(526.7836,732.9772)"><path
             d="m 0,0 c -0.155,0.34 -0.374,0.636 -0.657,0.883 -0.287,0.25 -0.629,0.457 -1.024,0.625 -0.396,0.165 -0.845,0.303 -1.348,0.414 -0.804,0.192 -1.4,0.376 -1.782,0.551 -0.382,0.173 -0.574,0.41 -0.574,0.716 0,0.25 0.114,0.459 0.344,0.632 0.23,0.173 0.636,0.261 1.221,0.261 0.583,0 1.091,-0.08 1.524,-0.239 0.43,-0.16 0.778,-0.335 1.042,-0.53 l 1.272,1.724 c -0.486,0.358 -1.031,0.629 -1.638,0.808 -0.604,0.18 -1.336,0.271 -2.2,0.271 -0.488,0 -0.97,-0.069 -1.451,-0.207 C -5.752,5.77 -6.182,5.574 -6.564,5.315 -6.947,5.06 -7.257,4.741 -7.492,4.361 -7.73,3.981 -7.848,3.547 -7.848,3.063 c 0,-0.471 0.102,-0.875 0.303,-1.215 0.2,-0.337 0.459,-0.63 0.772,-0.872 0.313,-0.242 0.649,-0.431 1.013,-0.569 0.361,-0.138 0.708,-0.25 1.043,-0.333 0.542,-0.124 0.972,-0.242 1.293,-0.353 0.321,-0.112 0.569,-0.221 0.751,-0.332 0.182,-0.112 0.299,-0.227 0.356,-0.344 0.056,-0.117 0.082,-0.244 0.082,-0.383 0,-0.319 -0.16,-0.547 -0.478,-0.685 -0.321,-0.139 -0.745,-0.208 -1.275,-0.208 -0.599,0 -1.13,0.101 -1.595,0.3 -0.468,0.202 -0.853,0.455 -1.158,0.758 l -1.483,-1.598 c 0.446,-0.497 1.037,-0.875 1.774,-1.13 0.739,-0.258 1.567,-0.385 2.484,-0.385 0.569,0 1.109,0.071 1.617,0.218 0.508,0.146 0.953,0.351 1.336,0.611 0.382,0.263 0.684,0.585 0.908,0.968 0.223,0.381 0.333,0.806 0.333,1.277 C 0.228,-0.742 0.153,-0.338 0,0"
             style="fill:#2a3f83;fill-opacity:1;fill-rule:nonzero;stroke:none"
             id="path268"
             inkscape:connector-curvature="0" /></g><g
           id="g270"
           transform="translate(462.8824,722.6494)"><path
             d="m 0,0 0,-8.283 c 0,-0.527 -0.053,-1 -0.158,-1.423 -0.104,-0.423 -0.275,-0.782 -0.51,-1.08 -0.238,-0.297 -0.551,-0.526 -0.938,-0.682 -0.39,-0.16 -0.871,-0.24 -1.441,-0.24 -0.572,0 -1.051,0.08 -1.441,0.24 -0.39,0.156 -0.703,0.385 -0.938,0.682 -0.237,0.298 -0.409,0.657 -0.513,1.08 -0.105,0.423 -0.155,0.896 -0.155,1.423 l 0,8.283 -2.63,0 0,-8.741 c 0,-0.773 0.126,-1.494 0.377,-2.158 0.248,-0.665 0.617,-1.242 1.104,-1.734 0.489,-0.492 1.082,-0.878 1.785,-1.163 0.703,-0.281 1.505,-0.425 2.411,-0.425 0.903,0 1.708,0.144 2.411,0.425 0.7,0.285 1.296,0.671 1.783,1.163 0.486,0.492 0.855,1.069 1.106,1.734 0.251,0.664 0.377,1.385 0.377,2.158 L 2.63,0 0,0 z"
             style="fill:#2a3f83;fill-opacity:1;fill-rule:nonzero;stroke:none"
             id="path272"
             inkscape:connector-curvature="0" /></g><g
           id="g274"
           transform="translate(476.2382,717.6582)"><path
             d="M 0,0 C -0.641,0.726 -1.572,1.09 -2.796,1.09 -3.186,1.09 -3.533,1.047 -3.841,0.965 -4.146,0.883 -4.421,0.774 -4.664,0.643 -4.907,0.51 -5.116,0.37 -5.289,0.218 -5.466,0.064 -5.613,-0.08 -5.738,-0.218 l -0.064,1.101 -2.358,0 0,-9.738 2.462,0 0,5.273 c 0,0.359 0.058,0.694 0.179,1.006 0.118,0.313 0.28,0.585 0.489,0.821 0.208,0.234 0.459,0.417 0.751,0.55 0.294,0.131 0.607,0.197 0.94,0.197 0.543,0 0.985,-0.17 1.324,-0.508 0.342,-0.34 0.513,-0.821 0.513,-1.444 l 0,-5.895 2.462,0 0,5.917 C 0.96,-1.707 0.639,-0.728 0,0"
             style="fill:#2a3f83;fill-opacity:1;fill-rule:nonzero;stroke:none"
             id="path276"
             inkscape:connector-curvature="0" /></g></g></g><path
       d="m 479.681,708.804 2.461,0 0,9.737 -2.461,0 0,-9.737 z m -0.083,11.271 2.63,0 0,2.574 -2.63,0 0,-2.574 z"
       style="fill:#2a3f83;fill-opacity:1;fill-rule:nonzero;stroke:none"
       id="path278"
       inkscape:connector-curvature="0"
       transform="matrix(2.0431356,0,0,2.0431356,-569.85932,-774.9163)" /><g
       id="g280"
       transform="matrix(2.0431356,0,0,2.0431356,434.66932,693.16057)"><path
         d="M 0,0 -2.63,-6.977 -5.26,0 l -2.839,0 4.154,-9.737 2.504,0 L 2.691,0 0,0 z"
         style="fill:#2a3f83;fill-opacity:1;fill-rule:nonzero;stroke:none"
         id="path282"
         inkscape:connector-curvature="0" /></g><g
       id="g284"
       transform="matrix(2.0431356,0,0,2.0431356,-569.85932,-774.9163)"><g
         id="g286"
         clip-path="url(#clipPath288)"><g
           id="g292"
           transform="translate(497.2518,714.6987)"><path
             d="M 0,0 C 0,0.25 0.056,0.497 0.169,0.747 0.278,0.997 0.438,1.221 0.647,1.423 0.858,1.622 1.117,1.789 1.43,1.92 1.743,2.053 2.101,2.119 2.504,2.119 2.881,2.119 3.216,2.053 3.507,1.92 3.798,1.789 4.039,1.622 4.226,1.423 4.415,1.221 4.557,0.997 4.656,0.747 4.753,0.497 4.801,0.25 4.801,0 L 0,0 z m 7.326,-1.412 c 0,0.691 -0.083,1.369 -0.251,2.034 C 6.909,1.287 6.637,1.883 6.263,2.409 5.885,2.936 5.388,3.361 4.768,3.685 4.151,4.01 3.394,4.172 2.504,4.172 1.767,4.172 1.096,4.042 0.492,3.779 -0.112,3.515 -0.636,3.157 -1.074,2.699 -1.513,2.241 -1.852,1.704 -2.096,1.09 -2.338,0.473 -2.461,-0.194 -2.461,-0.914 c 0,-0.788 0.123,-1.508 0.365,-2.16 0.244,-0.649 0.591,-1.207 1.043,-1.67 0.451,-0.465 1,-0.826 1.639,-1.09 0.638,-0.264 1.349,-0.393 2.127,-0.393 0.767,0 1.424,0.081 1.972,0.246 0.551,0.168 1.003,0.354 1.359,0.562 0.354,0.207 0.625,0.404 0.812,0.593 0.189,0.186 0.301,0.3 0.344,0.34 L 5.864,-2.989 C 5.781,-3.074 5.661,-3.18 5.501,-3.311 5.34,-3.444 5.134,-3.568 4.886,-3.685 4.635,-3.802 4.333,-3.906 3.977,-3.997 3.622,-4.087 3.207,-4.132 2.734,-4.132 c -0.321,0 -0.644,0.056 -0.97,0.167 -0.326,0.11 -0.62,0.269 -0.877,0.476 -0.256,0.208 -0.465,0.458 -0.625,0.748 -0.16,0.292 -0.241,0.617 -0.241,0.975 l 7.305,0 0,0.354 z"
             style="fill:#2a3f83;fill-opacity:1;fill-rule:nonzero;stroke:none"
             id="path294"
             inkscape:connector-curvature="0" /></g><g
           id="g296"
           transform="translate(512.4761,718.6846)"><path
             d="m 0,0 c -0.187,0.027 -0.399,0.043 -0.636,0.043 -0.404,0 -0.762,-0.051 -1.075,-0.147 -0.312,-0.096 -0.588,-0.215 -0.823,-0.353 -0.237,-0.138 -0.443,-0.29 -0.618,-0.455 -0.173,-0.167 -0.315,-0.319 -0.427,-0.457 l -0.061,1.226 -2.361,0 0,-9.738 2.465,0 0,5.252 c 0,0.359 0.067,0.685 0.197,0.976 0.134,0.289 0.31,0.539 0.533,0.747 0.222,0.207 0.486,0.367 0.793,0.479 0.305,0.108 0.626,0.164 0.96,0.164 0.238,0 0.441,-0.013 0.615,-0.042 0.173,-0.027 0.345,-0.075 0.513,-0.144 l 0.5,2.306 C 0.379,-0.074 0.19,-0.027 0,0"
             style="fill:#2a3f83;fill-opacity:1;fill-rule:nonzero;stroke:none"
             id="path298"
             inkscape:connector-curvature="0" /></g><g
           id="g300"
           transform="translate(521.6705,712.7575)"><path
             d="m 0,0 c -0.155,0.338 -0.374,0.633 -0.657,0.883 -0.287,0.249 -0.626,0.457 -1.024,0.622 -0.396,0.167 -0.845,0.303 -1.345,0.415 -0.807,0.194 -1.403,0.378 -1.785,0.55 -0.382,0.173 -0.574,0.412 -0.574,0.719 0,0.246 0.114,0.457 0.344,0.632 0.23,0.173 0.636,0.258 1.221,0.258 0.583,0 1.091,-0.08 1.524,-0.24 0.43,-0.156 0.778,-0.334 1.042,-0.528 l 1.275,1.723 c -0.489,0.361 -1.034,0.63 -1.638,0.811 -0.607,0.18 -1.339,0.269 -2.203,0.269 -0.486,0 -0.97,-0.07 -1.451,-0.208 C -5.749,5.767 -6.182,5.57 -6.564,5.315 -6.947,5.058 -7.257,4.741 -7.492,4.361 -7.73,3.978 -7.848,3.547 -7.848,3.063 c 0,-0.471 0.102,-0.877 0.303,-1.215 0.203,-0.34 0.459,-0.63 0.772,-0.872 0.313,-0.242 0.649,-0.434 1.013,-0.572 0.361,-0.138 0.708,-0.247 1.043,-0.332 0.542,-0.125 0.975,-0.242 1.293,-0.352 0.321,-0.111 0.572,-0.223 0.751,-0.331 0.182,-0.112 0.299,-0.227 0.356,-0.344 0.056,-0.117 0.082,-0.247 0.082,-0.385 0,-0.317 -0.16,-0.545 -0.478,-0.683 -0.321,-0.139 -0.745,-0.208 -1.272,-0.208 -0.599,0 -1.133,0.098 -1.598,0.3 -0.466,0.2 -0.853,0.452 -1.158,0.758 l -1.483,-1.598 c 0.446,-0.5 1.037,-0.877 1.774,-1.132 0.739,-0.256 1.567,-0.383 2.484,-0.383 0.572,0 1.109,0.071 1.617,0.218 0.508,0.143 0.954,0.348 1.336,0.611 0.382,0.263 0.684,0.585 0.908,0.966 0.223,0.379 0.335,0.805 0.335,1.276 C 0.23,-0.744 0.153,-0.34 0,0"
             style="fill:#2a3f83;fill-opacity:1;fill-rule:nonzero;stroke:none"
             id="path302"
             inkscape:connector-curvature="0" /></g></g></g><path
       d="m 524.007,708.804 2.464,0 0,9.737 -2.464,0 0,-9.737 z m -0.084,11.271 2.63,0 0,2.574 -2.63,0 0,-2.574 z"
       style="fill:#2a3f83;fill-opacity:1;fill-rule:nonzero;stroke:none"
       id="path304"
       inkscape:connector-curvature="0"
       transform="matrix(2.0431356,0,0,2.0431356,-569.85932,-774.9163)" /><g
       id="g306"
       transform="matrix(2.0431356,0,0,2.0431356,-569.85932,-774.9163)"><g
         id="g308"
         clip-path="url(#clipPath310)"><g
           id="g314"
           transform="translate(535.0665,711.1274)"><path
             d="m 0,0 c -0.208,-0.152 -0.428,-0.285 -0.657,-0.393 -0.23,-0.112 -0.538,-0.168 -0.928,-0.168 -0.417,0 -0.719,0.149 -0.908,0.446 -0.187,0.299 -0.281,0.724 -0.281,1.277 l 0,4.257 2.63,0 0,1.995 -2.63,0 0,3.154 -2.462,0 0,-3.154 -1.67,0 0,-1.995 1.67,0 0,-4.422 c 0,-0.54 0.054,-1.034 0.166,-1.484 0.112,-0.452 0.296,-0.835 0.553,-1.154 0.257,-0.319 0.594,-0.563 1.013,-0.736 0.417,-0.173 0.925,-0.261 1.524,-0.261 0.582,0 1.111,0.088 1.585,0.261 0.473,0.173 0.951,0.46 1.44,0.861 L 0,0 z"
             style="fill:#2a3f83;fill-opacity:1;fill-rule:nonzero;stroke:none"
             id="path316"
             inkscape:connector-curvature="0" /></g><g
           id="g318"
           transform="translate(541.4546,722.9633)"><path
             d="m 0,0 -1.002,-2.949 1.983,0 L 2.627,0 0,0 z m -2.486,-8.265 c 0,0.25 0.057,0.498 0.169,0.748 0.112,0.25 0.269,0.473 0.481,0.675 0.208,0.2 0.467,0.367 0.78,0.498 0.313,0.132 0.671,0.199 1.074,0.199 0.378,0 0.712,-0.067 1.003,-0.199 0.291,-0.131 0.532,-0.298 0.721,-0.498 0.187,-0.202 0.329,-0.425 0.429,-0.675 0.096,-0.25 0.144,-0.498 0.144,-0.748 l -4.801,0 z M 4.84,-9.677 c 0,0.692 -0.083,1.37 -0.251,2.034 -0.165,0.665 -0.438,1.261 -0.812,1.788 -0.377,0.526 -0.874,0.951 -1.492,1.276 -0.62,0.324 -1.376,0.487 -2.267,0.487 -0.734,0 -1.408,-0.131 -2.012,-0.394 -0.604,-0.263 -1.128,-0.622 -1.566,-1.08 -0.439,-0.457 -0.778,-0.994 -1.021,-1.609 -0.243,-0.616 -0.366,-1.284 -0.366,-2.004 0,-0.788 0.123,-1.508 0.366,-2.16 0.243,-0.648 0.59,-1.206 1.042,-1.67 0.452,-0.465 1,-0.826 1.639,-1.09 0.641,-0.263 1.35,-0.393 2.13,-0.393 0.764,0 1.421,0.082 1.97,0.247 0.55,0.168 1.002,0.354 1.358,0.561 0.355,0.207 0.625,0.404 0.812,0.593 0.189,0.186 0.305,0.3 0.344,0.341 l -1.336,1.497 c -0.083,-0.086 -0.203,-0.192 -0.363,-0.322 -0.16,-0.133 -0.367,-0.258 -0.615,-0.375 -0.251,-0.117 -0.553,-0.221 -0.909,-0.311 -0.355,-0.091 -0.77,-0.136 -1.243,-0.136 -0.317,0 -0.641,0.056 -0.969,0.168 -0.327,0.109 -0.618,0.268 -0.878,0.476 -0.256,0.207 -0.465,0.457 -0.625,0.747 -0.16,0.293 -0.24,0.617 -0.24,0.975 l 7.304,0 0,0.354 z"
             style="fill:#2a3f83;fill-opacity:1;fill-rule:nonzero;stroke:none"
             id="path320"
             inkscape:connector-curvature="0" /></g><g
           id="g322"
           transform="translate(440.7059,733.8628)"><path
             d="m 0,0 -2.817,-4.289 0.288,-1.888 -2.693,0 -0.391,2.545 2.497,3.797 -9.149,0 2.485,-3.784 -0.392,-2.558 -2.695,0 0.292,1.904 -2.809,4.273 0,4.536 2.279,0 1.11,-1.685 2.269,0 1.109,1.685 1.857,0 1.11,-1.685 2.264,0 1.106,1.685 2.28,0 L 0,0 z m -3.132,-19.725 -1.069,6.889 -3.015,-4.584 -0.971,0 -3.009,4.563 -1.067,-6.868 -2.694,0 1.636,10.663 2.857,0 2.758,-4.197 2.759,4.197 2.873,0 1.636,-10.663 -2.694,0 z m 9.608,28.707 -28.446,0 0.027,-20.291 c 0.01,-7.816 6.388,-14.141 14.243,-14.13 7.855,0.01 14.217,6.355 14.206,14.17 L 6.476,8.982 z"
             style="fill:#ec3b33;fill-opacity:1;fill-rule:nonzero;stroke:none"
             id="path324"
             inkscape:connector-curvature="0" /></g></g></g></g></svg>