<?xml version="1.0" encoding="UTF-8" standalone="no"?>
<!-- Created with Inkscape (http://www.inkscape.org/) -->

<svg
   xmlns:dc="http://purl.org/dc/elements/1.1/"
   xmlns:cc="http://creativecommons.org/ns#"
   xmlns:rdf="http://www.w3.org/1999/02/22-rdf-syntax-ns#"
   xmlns:svg="http://www.w3.org/2000/svg"
   xmlns="http://www.w3.org/2000/svg"
   xmlns:sodipodi="http://sodipodi.sourceforge.net/DTD/sodipodi-0.dtd"
   xmlns:inkscape="http://www.inkscape.org/namespaces/inkscape"
   id="svg2"
   version="1.1"
   inkscape:version="0.48.3.1 r9886"
   width="363.35"
   height="488.85"
   xml:space="preserve"
   sodipodi:docname="logoenseirb-matmeca.eps"><metadata
     id="metadata8"><rdf:RDF><cc:Work
         rdf:about=""><dc:format>image/svg+xml</dc:format><dc:type
           rdf:resource="http://purl.org/dc/dcmitype/StillImage" /><dc:title></dc:title></cc:Work></rdf:RDF></metadata><defs
     id="defs6"><clipPath
       clipPathUnits="userSpaceOnUse"
       id="clipPath18"><path
         d="M 0,3910.76 0,0 l 2906.8,0 0,3910.76 -2906.8,0 z"
         id="path20" /></clipPath></defs><sodipodi:namedview
     pagecolor="#ffffff"
     bordercolor="#666666"
     borderopacity="1"
     objecttolerance="10"
     gridtolerance="10"
     guidetolerance="10"
     inkscape:pageopacity="0"
     inkscape:pageshadow="2"
     inkscape:window-width="640"
     inkscape:window-height="480"
     id="namedview4"
     showgrid="false"
     inkscape:zoom="0.48276567"
     inkscape:cx="181.675"
     inkscape:cy="244.425"
     inkscape:window-x="0"
     inkscape:window-y="25"
     inkscape:window-maximized="0"
     inkscape:current-layer="g10" /><g
     id="g10"
     inkscape:groupmode="layer"
     inkscape:label="ink_ext_XXXXXX"
     transform="matrix(1.25,0,0,-1.25,0,488.85)"><path
       inkscape:connector-curvature="0"
       id="path22"
       style="fill:#7b7979;fill-opacity:1;fill-rule:nonzero;stroke:none"
       d="M 42.066,8.50703 C 42.3379,7.49688 42.7617,6.5918 43.3305,5.78789 l 0,0 c 0.5683,-0.79609 1.2949,-1.43281 2.184,-1.91601 l 0,0 c 0.882,-0.47579 1.9367,-0.72305 3.1871,-0.72305 l 0,0 c 1.2574,0 2.3156,0.24726 3.1906,0.72305 l 0,0 c 0.8953,0.4832 1.6195,1.11992 2.184,1.91601 l 0,0 c 0.5785,0.80391 0.9996,1.70899 1.2676,2.71914 l 0,0 c 0.2695,1.01602 0.4101,2.05587 0.4101,3.10387 l 0,0 c 0,1.0539 -0.1406,2.0801 -0.4101,3.109 l 0,0 c -0.268,1.011 -0.6891,1.9153 -1.2676,2.7172 l 0,0 c -0.5645,0.7957 -1.2887,1.4297 -2.184,1.9188 l 0,0 c -0.875,0.4761 -1.9297,0.7179 -3.1906,0.7203 l 0,0 C 47.4512,20.0738 46.3965,19.832 45.5145,19.3559 l 0,0 c -0.8891,-0.4891 -1.6157,-1.1231 -2.184,-1.9188 l 0,0 C 42.7617,16.6352 42.3379,15.7309 42.066,14.7199 l 0,0 c -0.2691,-1.0211 -0.4066,-2.0551 -0.4066,-3.109 l 0,0 c 0,-1.048 0.1375,-2.08785 0.4066,-3.10387 l 0,0 M 44.0574,0.951172 C 42.7207,1.58516 41.5973,2.45312 40.7012,3.53516 l 0,0 c -0.9028,1.08476 -1.5711,2.3289 -2.0121,3.73086 l 0,0 C 38.2449,8.65508 38.0203,10.109 38.0203,11.6109 l 0,0 c 0,1.502 0.2246,2.9559 0.6688,4.3481 l 0,0 c 0.441,1.3988 1.1093,2.6461 2.0121,3.7281 l 0,0 c 0.8961,1.0848 2.0195,1.9559 3.3492,2.5988 l 0,0 c 1.3441,0.6532 2.9047,0.975 4.6512,0.975 l 0,0 c 1.7578,0 3.3117,-0.3218 4.6589,-0.975 l 0,0 c 1.3333,-0.6429 2.4555,-1.514 3.352,-2.5988 l 0,0 c 0.8965,-1.082 1.568,-2.3293 2.0047,-3.7281 l 0,0 c 0.4488,-1.3922 0.6656,-2.8461 0.6656,-4.3481 l 0,0 c 0,-1.5019 -0.2168,-2.95582 -0.6656,-4.34488 l 0,0 C 58.2805,5.86406 57.609,4.61992 56.7125,3.53516 l 0,0 c -0.8965,-1.08204 -2.0227,-1.95 -3.359,-2.583988 l 0,0 C 52.0133,0.310156 50.4594,0 48.7016,0 l 0,0 c -1.7465,0 -3.3071,0.310156 -4.6442,0.951172 l 0,0" /><path
       inkscape:connector-curvature="0"
       id="path24"
       style="fill:#7b7979;fill-opacity:1;fill-rule:nonzero;stroke:none"
       d="m 83.9801,12.8449 5.5711,0 c 0.648,0 1.2539,0.0473 1.8359,0.1449 l 0,0 c 0.5559,0.093 1.0277,0.2692 1.4344,0.5293 l 0,0 c 0.3957,0.2559 0.709,0.5969 0.9539,1.0379 l 0,0 c 0.2234,0.411 0.3551,0.9828 0.3551,1.7192 l 0,0 c 0,1.0199 -0.2719,1.7918 -0.8063,2.3988 l 0,0 c -0.4972,0.5641 -1.3402,0.8879 -2.6262,0.8879 l -6.7179,0 0,-6.718 z m 6.8672,9.902 c 2.1078,0 3.8172,-0.518 5.0605,-1.5989 l 0,0 c 1.2406,-1.0742 1.8637,-2.591 1.8602,-4.4171 l 0,0 c 0,-1.3598 -0.3125,-2.584 -0.9465,-3.6309 l 0,0 c -0.4723,-0.7941 -1.1684,-1.3988 -2.0504,-1.8199 l 0,0 c 0.2273,-0.0973 0.4309,-0.2133 0.6234,-0.3442 l 0,0 c 0.4313,-0.3097 0.7828,-0.689 1.0407,-1.13082 l 0,0 c 0.248,-0.42617 0.4343,-0.90196 0.5515,-1.41524 l 0,0 c 0.1172,-0.49687 0.1992,-1.01289 0.2649,-1.56796 l 0,0 c 0.0418,-0.52305 0.0761,-1.06094 0.0968,-1.60586 l 0,0 c 0.0168,-0.52813 0.0649,-1.04688 0.1411,-1.55391 l 0,0 c 0.0793,-0.50195 0.1898,-0.975 0.3335,-1.4293 l 0,0 c 0.1418,-0.42773 0.3387,-0.80078 0.604,-1.11679 l 0,0 0.5339,-0.637114 -4.1933,0 0,0 -0.1106,0.126953 C 94.3926,0.892188 94.2336,1.26719 94.1516,1.69492 l 0,0 C 94.082,2.10117 94.0344,2.54609 94.0133,3.03203 l 0,0 c -0.0215,0.47305 -0.041,0.97891 -0.066,1.52305 l 0,0 c -0.0211,0.52383 -0.0723,1.03398 -0.1719,1.55 l 0,0 c -0.0762,0.50976 -0.1758,0.9918 -0.2895,1.4539 l 0,0 c -0.1066,0.42813 -0.2824,0.78594 -0.5097,1.0961 l 0,0 C 92.7488,8.95781 92.4594,9.2 92.0836,9.38594 l 0,0 c -0.3375,0.17109 -0.8438,0.275 -1.5059,0.275 l -6.5976,0 0,-9.182034 -3.6387,0 0,22.267994 10.5059,0" /><path
       inkscape:connector-curvature="0"
       id="path26"
       style="fill:#7b7979;fill-opacity:1;fill-rule:nonzero;stroke:none"
       d="m 127.39,3.66211 c 0.296,0 0.689,0.025 1.161,0.07305 l 0,0 c 0.451,0.04765 0.927,0.15781 1.444,0.34492 l 0,0 c 0.509,0.17578 1.018,0.43281 1.525,0.78086 l 0,0 c 0.486,0.32812 0.928,0.78203 1.327,1.36797 l 0,0 c 0.393,0.5789 0.723,1.32421 0.989,2.22304 l 0,0 c 0.254,0.88907 0.389,1.98085 0.389,3.28325 l 0,0 c 0,1.2546 -0.124,2.3769 -0.365,3.3488 l 0,0 c -0.241,0.9719 -0.627,1.7781 -1.165,2.4398 l 0,0 c -0.53,0.6614 -1.202,1.1633 -2.056,1.5121 l 0,0 c -0.842,0.3442 -1.903,0.527 -3.194,0.527 l -4.428,0 0,-15.90079 4.373,0 m -0.242,19.08479 c 3.374,0 6.033,-0.8649 7.911,-2.6321 l 0,0 c 1.888,-1.7847 2.797,-4.4757 2.797,-7.991 l 0,0 c 0,-1.8359 -0.202,-3.47263 -0.612,-4.90896 l 0,0 c -0.417,-1.44765 -1.066,-2.66992 -1.947,-3.67265 l 0,0 c -0.889,-1 -2.023,-1.76524 -3.373,-2.28711 l 0,0 c -1.365,-0.522268 -2.957,-0.776174 -4.776,-0.776174 l -7.763,0 0,22.267994 7.763,0" /><path
       inkscape:connector-curvature="0"
       id="path28"
       style="fill:#7b7979;fill-opacity:1;fill-rule:nonzero;stroke:none"
       d="m 174.045,22.7469 0.392,0 0,-3.184 -11.986,0 0,-6.052 11.166,0 0,-3.189 -11.166,0 0,-6.65979 12.072,0 0,-3.183204 -15.707,0 0,22.267994 15.229,0" /><path
       inkscape:connector-curvature="0"
       id="path30"
       style="fill:#7b7979;fill-opacity:1;fill-rule:nonzero;stroke:none"
       d="m 200.091,10.1301 6.187,0 -3.068,8.582 -3.119,-8.582 0,0 z m 4.75,12.6168 0.265,0 8.703,-22.267994 -4,0 0,0 -2.352,6.473044 -8.554,0 -2.404,-6.473044 -3.756,0 8.67,22.267994 3.428,0" /><path
       inkscape:connector-curvature="0"
       id="path32"
       style="fill:#7b7979;fill-opacity:1;fill-rule:nonzero;stroke:none"
       d="m 242.285,0 c -2.828,0 -5.092,0.669141 -6.743,2.06016 l 0,0 c -1.663,1.40976 -2.469,3.63867 -2.469,6.57382 l 0,14.11292 3.641,0 0,-14.11292 c 0,-1.86406 0.486,-3.2039 1.413,-4.10703 l 0,0 c 0.933,-0.89804 2.288,-1.37383 4.158,-1.37812 l 0,0 c 1.757,0.00429 3.022,0.47617 3.887,1.37109 l 0,0 c 0.863,0.89727 1.324,2.24727 1.324,4.11406 l 0,14.11292 3.634,0 0,-14.11292 c 0.007,-2.81796 -0.758,-5.00312 -2.319,-6.46992 l 0,0 C 247.254,0.705859 245.066,0 242.303,0 l 0,0 c -0.011,0 -0.018,0 -0.018,0 l 0,0" /><path
       inkscape:connector-curvature="0"
       id="path34"
       style="fill:#7b7979;fill-opacity:1;fill-rule:nonzero;stroke:none"
       d="m 271.589,22.1441 -0.41,0.6028 4.38,0 5.15,-8.077 5.386,8.077 4.131,0 -7.37,-10.8328 7.824,-11.435194 -4.44,0 0,0 -5.574,8.569144 -5.749,-8.569144 -4.131,0 7.728,11.435194 -6.925,10.23" /><path
       inkscape:connector-curvature="0"
       id="path36"
       style="fill:#7b7979;fill-opacity:1;fill-rule:nonzero;stroke:none"
       d="m 9.53711,13.5109 c 1.58129,-0.0039 2.67029,0.2852 3.26249,0.7661 l 0,0 c 0.6063,0.4929 0.9168,1.2039 0.9238,2.271 l 0,0 c 0,0.7282 -0.1172,1.2641 -0.3136,1.62 l 0,0 c -0.2133,0.3832 -0.486,0.6691 -0.841,0.875 l 0,0 c -0.3719,0.2109 -0.8129,0.3511 -1.3227,0.4172 l 0,0 c -0.5344,0.0687 -1.0992,0.1027 -1.70899,0.1027 l -5.33399,0 0,-6.052 5.33399,0 M 10.9844,3.66211 c 1.1953,0.00391 2.0636,0.31797 2.6902,0.91289 l 0,0 c 0.6313,0.60703 0.9445,1.41992 0.952,2.55312 l 0,0 c 0,0.65899 -0.1246,1.16876 -0.3418,1.55391 l 0,0 c -0.2344,0.41094 -0.5305,0.72383 -0.9059,0.96485 l 0,0 c -0.393,0.24101 -0.8375,0.41332 -1.3613,0.51722 l 0,0 c -0.5336,0.1031 -1.0918,0.1578 -1.6707,0.1578 l -6.14378,0 0,-6.65979 6.78128,0 M 8.75156,22.7469 c 0.46524,0 0.96485,-0.0028 1.49844,-0.0141 l 0,0 c 0.5414,-0.0129 1.082,-0.0418 1.6094,-0.0937 l 0,0 c 0.5371,-0.0512 1.0371,-0.1262 1.5054,-0.2301 l 0,0 c 0.4891,-0.1102 0.92,-0.2719 1.2782,-0.4988 l 0,0 c 0.755,-0.4512 1.3886,-1.0793 1.9121,-1.8641 l 0,0 c 0.5418,-0.8172 0.8062,-1.8133 0.8062,-2.9563 l 0,0 c 0,-1.2019 -0.2992,-2.275 -0.8988,-3.1769 l 0,0 C 16.0316,13.2648 15.477,12.734 14.7848,12.332 l 0,0 c 0.9679,-0.3519 1.7574,-0.9172 2.3461,-1.6859 l 0,0 c 0.7613,-0.99922 1.1304,-2.21798 1.1304,-3.61016 l 0,0 c 0,-0.82696 -0.1519,-1.63711 -0.4484,-2.42578 l 0,0 C 17.5164,3.81992 17.0684,3.11406 16.4801,2.50898 l 0,0 C 15.8941,1.89414 15.1672,1.40195 14.3125,1.03711 l 0,0 C 13.4402,0.662109 12.4453,0.478906 11.343,0.478906 l -10.774641,0 0,22.267994 8.183201,0" /><path
       inkscape:connector-curvature="0"
       id="path38"
       style="fill:#f68712;fill-opacity:1;fill-rule:nonzero;stroke:none"
       d="m 258.034,314.199 -229.0297,-1.413 -1.2648,-3.373 105.9685,0.643 c 3.243,0.771 6.616,1.18 10.095,1.18 3.288,0 6.494,-0.365 9.575,-1.061 l 105.973,0.644 -1.317,3.38" /><path
       inkscape:connector-curvature="0"
       id="path40"
       style="fill:#f68712;fill-opacity:1;fill-rule:nonzero;stroke:none"
       d="m 107.884,292.223 -74.1492,31.127 0,0 1.564,2.999 74.6572,-31.334 -2.072,-2.792" /><path
       inkscape:connector-curvature="0"
       id="path42"
       style="fill:#f68712;fill-opacity:1;fill-rule:nonzero;stroke:none"
       d="m 261.583,231.373 -1.051,-3.226" /><path
       inkscape:connector-curvature="0"
       id="path44"
       style="fill:#f68712;fill-opacity:1;fill-rule:nonzero;stroke:none"
       d="m 154.953,225.846 -8.611,-81.264 -3.359,-0.024 0,0 8.515,80.521 3.455,0.767" /><path
       inkscape:connector-curvature="0"
       id="path46"
       style="fill:#f68712;fill-opacity:1;fill-rule:nonzero;stroke:none"
       d="m 160.274,308 8.52,80.538 3.326,-0.733 -8.615,-81.289 -3.231,1.484" /><path
       inkscape:connector-curvature="0"
       id="path48"
       style="fill:#7b7979;fill-opacity:1;fill-rule:nonzero;stroke:none"
       d="m 129.171,308.705 -32.112,72.932 -2.3219,-0.941 0,0 c 0.0024,0 32.1009,-72.898 32.1009,-72.898 l 2.333,0.907" /><path
       inkscape:connector-curvature="0"
       id="path50"
       style="fill:#7b7979;fill-opacity:1;fill-rule:nonzero;stroke:none"
       d="m 163.974,229.201 30.636,-75.705 -2.322,-0.938 -30.629,75.678 2.315,0.965" /><path
       inkscape:connector-curvature="0"
       id="path52"
       style="fill:#f68712;fill-opacity:1;fill-rule:nonzero;stroke:none"
       d="m 123.406,229.478 -21.331,-77.678 -3.1727,1.189 0,0 21.4927,78.255 3.011,-1.766" /><path
       inkscape:connector-curvature="0"
       id="path54"
       style="fill:#f68712;fill-opacity:1;fill-rule:nonzero;stroke:none"
       d="m 142.346,311.188 21.492,78.266 3.326,-0.588 -21.328,-77.678 -3.49,0" /><path
       inkscape:connector-curvature="0"
       id="path56"
       style="fill:#ed1c24;fill-opacity:1;fill-rule:nonzero;stroke:none"
       d="m 127.644,308.132 -65.8358,51.716 -2.4805,-2.269 0,0 64.8713,-51.013 3.445,1.566" /><path
       inkscape:connector-curvature="0"
       id="path58"
       style="fill:#ed1c24;fill-opacity:1;fill-rule:nonzero;stroke:none"
       d="m 186.081,257.902 64.887,-51.026 1.686,3.054 -65.865,51.739 -0.708,-3.767" /><path
       inkscape:connector-curvature="0"
       id="path60"
       style="fill:#f68712;fill-opacity:1;fill-rule:nonzero;stroke:none"
       d="m 133.767,225.566 -97.276,-18.428 -1.7195,3.131 0,0 92.2935,17.471 6.702,-2.174" /><path
       inkscape:connector-curvature="0"
       id="path62"
       style="fill:#f68712;fill-opacity:1;fill-rule:nonzero;stroke:none"
       d="m 174.005,236.631 92.298,17.472 -0.44,-3.519 -97.282,-18.427 5.424,4.474" /><path
       inkscape:connector-curvature="0"
       id="path64"
       style="fill:#f68712;fill-opacity:1;fill-rule:nonzero;stroke:none"
       d="m 113.04,237.174 -52.2513,-60.477 -2.5567,2.209 0,0 52.509,60.767 2.299,-2.499" /><path
       inkscape:connector-curvature="0"
       id="path66"
       style="fill:#f68712;fill-opacity:1;fill-rule:nonzero;stroke:none"
       d="m 169.654,302.7 52.164,60.373 -2.552,2.207 -52.412,-60.664 2.8,-1.916" /><path
       inkscape:connector-curvature="0"
       id="path68"
       style="fill:#ed1c24;fill-opacity:1;fill-rule:nonzero;stroke:none"
       d="m 100.911,274.583 c 0,0 -80.0868,-15.174 -80.0833,-15.174 l 0,0 0.2723,-3.385 79.407,15.023 0.404,3.536" /><path
       inkscape:connector-curvature="0"
       id="path70"
       style="fill:#ed1c24;fill-opacity:1;fill-rule:nonzero;stroke:none"
       d="m 181.253,289.804 80.106,15.174 0.996,-3.315 -79.417,-15.026 -1.685,3.167" /><path
       inkscape:connector-curvature="0"
       id="path72"
       style="fill:#f68712;fill-opacity:1;fill-rule:nonzero;stroke:none"
       d="m 101.627,278.431 -78.0911,16.522 0,0 0.6996,3.304 78.4915,-16.606 -1.1,-3.22" /><path
       inkscape:connector-curvature="0"
       id="path74"
       style="fill:#f68712;fill-opacity:1;fill-rule:nonzero;stroke:none"
       d="m 187.334,263.747 78.018,-16.504 -0.698,-3.303 -77.868,16.475 0.548,3.332" /><path
       inkscape:connector-curvature="0"
       id="path76"
       style="fill:#f68712;fill-opacity:1;fill-rule:nonzero;stroke:none"
       d="m 106.544,290.118 c 0,0 -81.2444,9.741 -81.251,9.741 l -0.6618,0.162 1.0719,3.202 82.9159,-9.966 -2.075,-3.139" /><path
       inkscape:connector-curvature="0"
       id="path78"
       style="fill:#f68712;fill-opacity:1;fill-rule:nonzero;stroke:none"
       d="m 184.026,284.194 c 40.77,-4.901 82.868,-9.962 82.868,-9.962 l 0.126,-3.351 -81.736,9.799 -1.258,3.514" /><path
       inkscape:connector-curvature="0"
       id="path80"
       style="fill:#f68712;fill-opacity:1;fill-rule:nonzero;stroke:none"
       d="m 112.705,298.116 -57.8394,55.039 0,0 5.891,5.745 58.2364,-55.449 -6.288,-5.335" /><path
       inkscape:connector-curvature="0"
       id="path82"
       style="fill:#f68712;fill-opacity:1;fill-rule:nonzero;stroke:none"
       d="m 238.847,189.335 -5.392,-6.109 -57.223,55.891 4.665,6.262 57.95,-56.044" /><path
       inkscape:connector-curvature="0"
       id="path84"
       style="fill:#f68712;fill-opacity:1;fill-rule:nonzero;stroke:none"
       d="m 137.327,224.879 -36.83,-72.5 0,0 7.804,-2.632 37.911,74.717 -8.885,0.415" /><path
       inkscape:connector-curvature="0"
       id="path86"
       style="fill:#f68712;fill-opacity:1;fill-rule:nonzero;stroke:none"
       d="m 180.215,291.473 37.901,74.689 -6.644,4.692 -36.824,-72.485 5.567,-6.882" /><path
       inkscape:connector-curvature="0"
       id="path88"
       style="fill:#ec008c;fill-opacity:1;fill-rule:nonzero;stroke:none"
       d="m 145.233,311.212 -1.698,79.864 -8.101,-0.174 0,0 c 0,0 0.842,-39.618 1.706,-80.175 l 8.093,0.485" /><path
       inkscape:connector-curvature="0"
       id="path90"
       style="fill:#ec008c;fill-opacity:1;fill-rule:nonzero;stroke:none"
       d="m 147.077,224.52 1.699,-79.865 -8.098,-0.166 -1.709,80.176 8.108,-0.145" /><path
       inkscape:connector-curvature="0"
       id="path92"
       style="fill:#ed1c24;fill-opacity:1;fill-rule:nonzero;stroke:none"
       d="m 113.817,236.416 -47.3436,-64.59 -6.1535,5.305 0,0 48.0221,65.621 5.475,-6.336" /><path
       inkscape:connector-curvature="0"
       id="path94"
       style="fill:#ed1c24;fill-opacity:1;fill-rule:nonzero;stroke:none"
       d="m 164.724,305.87 c 23.957,32.682 47.344,64.59 47.344,64.59 l -7.056,4.367 -48.033,-65.629 7.745,-3.328" /><path
       inkscape:connector-curvature="0"
       id="path96"
       style="fill:#f68712;fill-opacity:1;fill-rule:nonzero;stroke:none"
       d="m 142.115,311.201 -43.0955,71.556 -7.3425,-3.129 0,0 41.849,-69.618 8.589,1.191" /><path
       inkscape:connector-curvature="0"
       id="path98"
       style="fill:#f68712;fill-opacity:1;fill-rule:nonzero;stroke:none"
       d="m 176.239,238.955 41.746,-69.444 6.357,5.161 -42.971,71.357 -5.132,-7.074" /><path
       inkscape:connector-curvature="0"
       id="path100"
       style="fill:#f68712;fill-opacity:1;fill-rule:nonzero;stroke:none"
       d="m 103.975,250.514 -70.3574,-37.939 0,0 3.8449,-7.129 70.4145,37.974 -3.902,7.094" /><path
       inkscape:connector-curvature="0"
       id="path102"
       style="fill:#f68712;fill-opacity:1;fill-rule:nonzero;stroke:none"
       d="m 183.922,284.432 70.433,37.979 -3.839,7.131 -70.376,-37.952 3.782,-7.158" /><path
       inkscape:connector-curvature="0"
       id="path104"
       style="fill:#51ade5;fill-opacity:1;fill-rule:nonzero;stroke:none"
       d="m 104.27,285.798 -79.6388,14.223 -1.7082,-7.974 0,0 78.671,-14.008 2.676,7.759" /><path
       inkscape:connector-curvature="0"
       id="path106"
       style="fill:#51ade5;fill-opacity:1;fill-rule:nonzero;stroke:none"
       d="m 186.938,262.843 c 39.859,-7.098 78.662,-14.01 78.662,-14.01 l 0.973,7.975 -79.471,14.195 -0.164,-8.16" /><path
       inkscape:connector-curvature="0"
       id="path108"
       style="fill:#80cc28;fill-opacity:1;fill-rule:nonzero;stroke:none"
       d="m 103.564,284.151 -67.5523,43.492 0,0 4.1863,6.977 67.135,-43.234 -3.769,-7.235" /><path
       inkscape:connector-curvature="0"
       id="path110"
       style="fill:#80cc28;fill-opacity:1;fill-rule:nonzero;stroke:none"
       d="m 175.32,237.956 67.555,-43.487 4.602,6.66 -67.128,43.234 -5.029,-6.407" /><path
       inkscape:connector-curvature="0"
       id="path112"
       style="fill:#f68712;fill-opacity:1;fill-rule:nonzero;stroke:none"
       d="m 117.421,302.305 -73.0702,38.341 -4.611,-6.739 0,0 71.4112,-37.467 6.27,5.865" /><path
       inkscape:connector-curvature="0"
       id="path114"
       style="fill:#f68712;fill-opacity:1;fill-rule:nonzero;stroke:none"
       d="m 187.175,265.702 73.085,-38.353 -2.929,-7.609 -71.416,37.471 1.26,8.491" /><path
       inkscape:connector-curvature="0"
       id="path116"
       style="fill:#7b7979;fill-opacity:1;fill-rule:nonzero;stroke:none"
       d="m 171.008,126.731 4.18828,0 0,31.4441 -4.18828,0 0,-31.4441 z" /><path
       inkscape:connector-curvature="0"
       id="path118"
       style="fill:none;stroke:#7b7979;stroke-width:0.25;stroke-linecap:butt;stroke-linejoin:miter;stroke-miterlimit:4;stroke-opacity:1;stroke-dasharray:none"
       d="m 171.008,126.731 4.18828,0 0,31.4441 -4.18828,0 0,-31.4441 z" /><path
       inkscape:connector-curvature="0"
       id="path120"
       style="fill:#7b7979;fill-opacity:1;fill-rule:nonzero;stroke:none"
       d="m 203.423,143.111 c 2.378,-0.028 4.118,0.454 5.216,1.454 1.104,0.999 1.654,2.439 1.654,4.314 0,1.881 -0.55,3.314 -1.654,4.3 -1.098,0.978 -2.838,1.474 -5.216,1.474 l -8.192,0 0,-11.542 8.192,0 z m 1.407,15.064 c 3.172,0 5.574,-0.813 7.2,-2.447 1.634,-1.626 2.447,-3.914 2.447,-6.849 0,-2.936 -0.813,-5.223 -2.447,-6.871 -1.626,-1.64 -4.028,-2.446 -7.2,-2.419 l -9.599,0 0,-12.858 -4.183,0 0,31.444 13.782,0" /><path
       inkscape:connector-curvature="0"
       id="path122"
       style="fill:none;stroke:#7b7979;stroke-width:0.25;stroke-linecap:butt;stroke-linejoin:miter;stroke-miterlimit:4;stroke-opacity:1;stroke-dasharray:none"
       d="m 203.423,143.111 c 2.378,-0.028 4.118,0.454 5.216,1.454 1.104,0.999 1.654,2.439 1.654,4.314 0,1.881 -0.55,3.314 -1.654,4.3 -1.098,0.978 -2.838,1.474 -5.216,1.474 l -8.192,0 0,-11.542 8.192,0 z m 1.407,15.064 c 3.172,0 5.574,-0.813 7.2,-2.447 1.634,-1.626 2.447,-3.914 2.447,-6.849 0,-2.936 -0.813,-5.223 -2.447,-6.871 -1.626,-1.64 -4.028,-2.446 -7.2,-2.419 l -9.599,0 0,-12.858 -4.183,0 0,31.444 13.782,0 z" /><path
       inkscape:connector-curvature="0"
       id="path124"
       style="fill:#7b7979;fill-opacity:1;fill-rule:nonzero;stroke:none"
       d="m 241.061,130.253 c 1.847,0 3.295,0.496 4.335,1.494 1.041,1 1.565,2.378 1.565,4.142 0,1.027 -0.194,1.881 -0.571,2.557 -0.385,0.675 -0.89,1.206 -1.521,1.606 -0.63,0.399 -1.362,0.674 -2.181,0.833 -0.82,0.166 -1.674,0.248 -2.553,0.248 l -9.552,0 0,-10.88 10.478,0 z m -2.113,14.402 c 2.376,0 4.084,0.42 5.129,1.254 1.043,0.833 1.561,2.095 1.561,3.762 0,1.116 -0.174,1.999 -0.523,2.646 -0.356,0.648 -0.841,1.144 -1.455,1.495 -0.621,0.352 -1.331,0.579 -2.137,0.682 -0.809,0.104 -1.666,0.159 -2.575,0.159 l -8.365,0 0,-9.998 8.365,0 z m -1.146,13.52 c 0.677,0 1.399,-0.007 2.179,-0.021 0.778,-0.021 1.549,-0.062 2.311,-0.131 0.761,-0.076 1.478,-0.186 2.136,-0.331 0.661,-0.151 1.226,-0.372 1.699,-0.661 1.027,-0.621 1.899,-1.468 2.618,-2.557 0.717,-1.089 1.078,-2.419 1.078,-4.01 0,-1.668 -0.404,-3.116 -1.209,-4.335 -0.809,-1.22 -1.964,-2.122 -3.459,-2.708 l 0,-0.09 c 1.935,-0.413 3.419,-1.288 4.448,-2.639 1.028,-1.35 1.541,-2.998 1.541,-4.934 0,-1.144 -0.208,-2.26 -0.613,-3.349 -0.415,-1.082 -1.02,-2.046 -1.83,-2.88 -0.809,-0.841 -1.805,-1.516 -2.995,-2.026 -1.191,-0.517 -2.564,-0.772 -4.12,-0.772 l -15.191,0 0,31.444 11.407,0" /><path
       inkscape:connector-curvature="0"
       id="path126"
       style="fill:none;stroke:#7b7979;stroke-width:0.25;stroke-linecap:butt;stroke-linejoin:miter;stroke-miterlimit:4;stroke-opacity:1;stroke-dasharray:none"
       d="m 241.061,130.253 c 1.847,0 3.295,0.496 4.335,1.494 1.041,1 1.565,2.378 1.565,4.142 0,1.027 -0.194,1.881 -0.571,2.557 -0.385,0.675 -0.89,1.206 -1.521,1.606 -0.63,0.399 -1.362,0.674 -2.181,0.833 -0.82,0.166 -1.674,0.248 -2.553,0.248 l -9.552,0 0,-10.88 10.478,0 z m -2.113,14.402 c 2.376,0 4.084,0.42 5.129,1.254 1.043,0.833 1.561,2.095 1.561,3.762 0,1.116 -0.174,1.999 -0.523,2.646 -0.356,0.648 -0.841,1.144 -1.455,1.495 -0.621,0.352 -1.331,0.579 -2.137,0.682 -0.809,0.104 -1.666,0.159 -2.575,0.159 l -8.365,0 0,-9.998 8.365,0 z m -1.146,13.52 c 0.677,0 1.399,-0.007 2.179,-0.021 0.778,-0.021 1.549,-0.062 2.311,-0.131 0.761,-0.076 1.478,-0.186 2.136,-0.331 0.661,-0.151 1.226,-0.372 1.699,-0.661 1.027,-0.621 1.899,-1.468 2.618,-2.557 0.717,-1.089 1.078,-2.419 1.078,-4.01 0,-1.668 -0.404,-3.116 -1.209,-4.335 -0.809,-1.22 -1.964,-2.122 -3.459,-2.708 l 0,-0.09 c 1.935,-0.413 3.419,-1.288 4.448,-2.639 1.028,-1.35 1.541,-2.998 1.541,-4.934 0,-1.144 -0.208,-2.26 -0.613,-3.349 -0.415,-1.082 -1.02,-2.046 -1.83,-2.88 -0.809,-0.841 -1.805,-1.516 -2.995,-2.026 -1.191,-0.517 -2.564,-0.772 -4.12,-0.772 l -15.191,0 0,31.444 11.407,0 z" /><path
       inkscape:connector-curvature="0"
       id="path128"
       style="fill:#231f20;fill-opacity:1;fill-rule:nonzero;stroke:none"
       d="m 18.0371,102.199 0.4477,0 0,-3.7549 -14.19535,0 0,-7.1972 13.23435,0 0,-3.759 -13.23435,0 0,-7.9109 14.30235,0 0,-3.7489 -18.58828438,0 0,26.3709 18.03358438,0" /><path
       inkscape:connector-curvature="0"
       id="path130"
       style="fill:#231f20;fill-opacity:1;fill-rule:nonzero;stroke:none"
       d="m 49.7281,102.196 0.2449,0 12.7829,-19.6909 0,19.6909 4.1136,0 0,-26.3679 -0.4441,0 -3.9625,0 -12.6797,19.4797 0,-19.4797 -4.1062,0 0,26.3679 4.0511,0" /><path
       inkscape:connector-curvature="0"
       id="path132"
       style="fill:#231f20;fill-opacity:1;fill-rule:nonzero;stroke:none"
       d="m 108.356,97.8988 c -1.037,0.7582 -2.384,1.1492 -4.069,1.1492 l 0,0 c -0.685,0 -1.356,-0.0671 -2.008,-0.207 l 0,0 c -0.648,-0.1351 -1.213,-0.3492 -1.706,-0.657 l 0,0 c -0.465,-0.2918 -0.8308,-0.677 -1.1234,-1.1719 l 0,0 C 99.1812,96.5352 99.0297,95.925 99.0297,95.143 l 0,0 c 0,-0.6961 0.1961,-1.2032 0.5648,-1.595 l 0,0 c 0.4135,-0.4242 0.9715,-0.796 1.7025,-1.0921 l 0,0 c 0.737,-0.2887 1.591,-0.545 2.543,-0.7399 l 0,0 c 0.981,-0.198 1.984,-0.425 2.99,-0.6558 l 0,0 c 1.024,-0.2454 2.032,-0.5313 3.016,-0.8543 l 0,0 c 1.015,-0.3309 1.931,-0.7887 2.737,-1.3579 l 0,0 c 0.828,-0.596 1.504,-1.3339 1.993,-2.2218 l 0,0 c 0.512,-0.9203 0.751,-2.0442 0.751,-3.3563 l 0,0 c 0.006,-1.4199 -0.317,-2.673 -0.975,-3.7211 l 0,0 c -0.638,-1.0168 -1.472,-1.8539 -2.481,-2.4937 l 0,0 c -0.992,-0.634 -2.109,-1.0992 -3.329,-1.3821 l 0,0 c -1.212,-0.2789 -2.412,-0.4199 -3.614,-0.4199 l 0,0 c -1.465,0 -2.86,0.1821 -4.169,0.5528 l 0,0 c -1.3192,0.3742 -2.5012,0.9421 -3.5074,1.7 l 0,0 c -1.0196,0.7679 -1.8254,1.7543 -2.4078,2.9382 l 0,0 c -0.6036,1.2071 -0.8965,2.6118 -0.8891,4.218 l 0,0.4469 4.1098,0 0,-0.4469 c 0,-1.0199 0.1933,-1.8672 0.5695,-2.5531 l 0,0 c 0.389,-0.718 0.8918,-1.3 1.506,-1.7621 l 0,0 c 0.64,-0.4641 1.378,-0.8047 2.228,-1.0328 l 0,0 c 0.861,-0.2192 1.754,-0.3371 2.67,-0.3371 l 0,0 c 0.732,0 1.472,0.0679 2.223,0.2 l 0,0 c 0.717,0.1371 1.374,0.3652 1.94,0.6808 l 0,0 c 0.554,0.3184 0.989,0.732 1.337,1.266 l 0,0 c 0.323,0.4961 0.496,1.1684 0.496,2.0364 l 0,0 c 0,0.8058 -0.196,1.3976 -0.586,1.8468 l 0,0 c -0.407,0.4891 -0.965,0.8942 -1.689,1.2192 l 0,0 c -0.74,0.3308 -1.584,0.6 -2.539,0.8129 l 0,0 c -0.974,0.2148 -1.963,0.4339 -2.973,0.655 l 0,0 c -1.023,0.2309 -2.03,0.4957 -3.015,0.7989 l 0,0 c -1.0132,0.3 -1.9258,0.7101 -2.7355,1.2269 l 0,0 c -0.8309,0.5172 -1.4988,1.2063 -1.9981,2.043 l 0,0 c -0.514,0.8512 -0.7589,1.9133 -0.7589,3.132 l 0,0 c 0,1.3442 0.2695,2.5422 0.8445,3.5551 l 0,0 c 0.5543,0.9961 1.2961,1.826 2.2191,2.467 l 0,0 c 0.9094,0.641 1.9465,1.117 3.0969,1.42 l 0,0 c 1.148,0.31 2.322,0.468 3.533,0.463 l 0,0 c 1.343,0.005 2.59,-0.161 3.755,-0.477 l 0,0 c 1.171,-0.323 2.208,-0.841 3.101,-1.55 l 0,0 c 0.902,-0.703 1.598,-1.6019 2.122,-2.6679 l 0,0 c 0.524,-1.0742 0.799,-2.3563 0.844,-3.7961 l 0,0 0.017,-0.468 -4.082,0 -0.039,0.4031 c -0.192,1.7539 -0.799,2.9309 -1.795,3.6547 l 0,0" /><path
       inkscape:connector-curvature="0"
       id="path134"
       style="fill:#231f20;fill-opacity:1;fill-rule:nonzero;stroke:none"
       d="m 160.445,102.192 0.452,0 0,-3.7479 -14.203,0 0,-7.2011 13.238,0 0,-3.7551 -13.238,0 0,-7.9039 14.306,0 0,-3.7559 -18.588,0 0,26.3639 18.033,0" /><path
       inkscape:connector-curvature="0"
       id="path136"
       style="fill:#231f20;fill-opacity:1;fill-rule:nonzero;stroke:none"
       d="m 191.929,102.196 0.448,0 0,-26.3679 -0.448,0 -3.845,0 0,26.3679 3.845,0" /><path
       inkscape:connector-curvature="0"
       id="path138"
       style="fill:#231f20;fill-opacity:1;fill-rule:nonzero;stroke:none"
       d="m 223.756,90.4641 6.611,0 c 0.761,0 1.483,0.055 2.178,0.1648 l 0,0 c 0.655,0.1109 1.224,0.327 1.702,0.6383 l 0,0 c 0.468,0.2988 0.835,0.7058 1.128,1.2297 l 0,0 c 0.273,0.489 0.43,1.164 0.43,2.0429 l 0,0 c -0.007,1.1961 -0.328,2.1204 -0.963,2.843 l 0,0 c -0.595,0.675 -1.6,1.0531 -3.116,1.0613 l -7.97,0 0,-7.98 z m 8.145,11.7319 c 2.498,0 4.514,-0.617 5.987,-1.898 l 0,0 c 1.472,-1.264 2.205,-3.0601 2.198,-5.2242 l 0,0 c 0.007,-1.6129 -0.365,-3.0566 -1.108,-4.3 l 0,0 c -0.562,-0.9437 -1.392,-1.6597 -2.446,-2.157 l 0,0 c 0.271,-0.1168 0.52,-0.2547 0.747,-0.4129 l 0,0 c 0.513,-0.3711 0.926,-0.8199 1.237,-1.3371 l 0,0 c 0.308,-0.5027 0.514,-1.068 0.651,-1.6777 l 0,0 c 0.139,-0.5903 0.245,-1.195 0.317,-1.8461 l 0,0 c 0.05,-0.6301 0.09,-1.266 0.103,-1.9129 l 0,0 c 0.024,-0.627 0.087,-1.2371 0.176,-1.843 l 0,0 c 0.094,-0.593 0.232,-1.1551 0.401,-1.6949 l 0,0 c 0.157,-0.507 0.398,-0.9442 0.714,-1.3262 l 0,0 0.615,-0.7379 -0.954,0 -3.986,0 -0.132,0.1449 c -0.316,0.3372 -0.499,0.7848 -0.592,1.2911 l 0,0 c -0.087,0.4757 -0.141,0.9988 -0.166,1.5789 l 0,0 c -0.019,0.5601 -0.045,1.1609 -0.074,1.8011 l 0,0 c -0.025,0.627 -0.097,1.227 -0.214,1.8411 l 0,0 c -0.087,0.6097 -0.2,1.1777 -0.343,1.7226 l 0,0 c -0.134,0.5063 -0.337,0.9434 -0.6,1.3082 l 0,0 c -0.271,0.3551 -0.609,0.641 -1.063,0.861 l 0,0 c -0.404,0.2082 -1.003,0.325 -1.786,0.325 l 0,0 -7.827,0.007 0,-10.8809 -4.291,0 0,26.3679 12.436,0" /><path
       inkscape:connector-curvature="0"
       id="path140"
       style="fill:#231f20;fill-opacity:1;fill-rule:nonzero;stroke:none"
       d="m 279.189,91.243 c 1.875,-0.0071 3.163,0.3449 3.869,0.9242 l 0,0 c 0.729,0.5777 1.102,1.4316 1.106,2.693 l 0,0 c 0,0.8558 -0.141,1.4988 -0.377,1.9238 l 0,0 c -0.253,0.4609 -0.577,0.7922 -1.003,1.0398 l 0,0 c -0.448,0.2551 -0.958,0.4192 -1.559,0.4953 l 0,0 c -0.633,0.0758 -1.314,0.125 -2.036,0.125 l -6.329,0 0,-7.2011 6.329,0 m 1.72,-11.6641 c 1.413,0 2.446,0.377 3.194,1.0902 l 0,0 c 0.745,0.7168 1.127,1.684 1.137,3.027 l 0,0 c 0,0.773 -0.151,1.3828 -0.42,1.8449 l 0,0 c -0.272,0.4918 -0.623,0.8641 -1.07,1.1391 l 0,0 c -0.458,0.291 -0.997,0.498 -1.611,0.6211 l 0,0 c -0.635,0.1297 -1.296,0.1867 -1.984,0.1867 l 0,0 -7.295,0.0062 0,-7.9152 8.049,0 m -2.636,22.6131 c 0.544,0 1.134,-0.008 1.767,-0.016 l 0,0 c 0.637,-0.007 1.277,-0.044 1.903,-0.111 l 0,0 c 0.641,-0.055 1.236,-0.148 1.785,-0.269 l 0,0 c 0.579,-0.138 1.085,-0.326 1.512,-0.589 l 0,0 c 0.892,-0.54 1.644,-1.2781 2.26,-2.2082 l 0,0 c 0.645,-0.9687 0.955,-2.1476 0.948,-3.4968 l 0,0 c 0.007,-1.427 -0.34,-2.695 -1.048,-3.7559 l 0,0 c -0.509,-0.7781 -1.192,-1.4063 -2.018,-1.8891 l 0,0 c 1.158,-0.416 2.105,-1.082 2.803,-1.998 l 0,0 c 0.893,-1.184 1.34,-2.6219 1.333,-4.2719 l 0,0 c 0.007,-0.9781 -0.183,-1.9441 -0.527,-2.873 l 0,0 c -0.352,-0.9313 -0.876,-1.7723 -1.577,-2.4852 l 0,0 c -0.703,-0.7199 -1.558,-1.309 -2.573,-1.7359 l 0,0 c -1.024,-0.4539 -2.203,-0.6692 -3.512,-0.6692 l -12.75,0 0,26.3682 9.694,0" /><path
       inkscape:connector-curvature="0"
       id="path142"
       style="fill:#231f20;fill-opacity:1;fill-rule:nonzero;stroke:none"
       d="m 5.08555,62.059 0.31015,0 7.7148,-20.5692 7.7516,20.5692 5.3992,0 0,-26.3641 -0.4445,0 -3.6691,0 0,19.343 -7.2594,-19.343 -3.5184,0 -7.25974,19.336 0,-19.336 -4.11016,0 0,26.3641 5.08555,0" /><path
       inkscape:connector-curvature="0"
       id="path144"
       style="fill:#231f20;fill-opacity:1;fill-rule:nonzero;stroke:none"
       d="m 55.5996,47.1199 7.3391,0 -3.6395,10.1879 -3.6996,-10.1879 0,0 z m 5.6293,14.9461 0.3141,0 10.3023,-26.3672 -0.6617,0 -4.066,0 -2.7801,7.666 -10.1441,0 -2.8567,-7.666 -4.4336,0 10.2672,26.3672 4.0586,0" /><path
       inkscape:connector-curvature="0"
       id="path146"
       style="fill:#231f20;fill-opacity:1;fill-rule:nonzero;stroke:none"
       d="m 92.9352,58.3109 -0.4489,0 0,3.7551 21.2657,0 0,-3.7551 -8.49,0 0,-22.616 -0.444,0 -3.842,0 -0.007,22.616 -8.0338,0" /><path
       inkscape:connector-curvature="0"
       id="path148"
       style="fill:#231f20;fill-opacity:1;fill-rule:nonzero;stroke:none"
       d="m 139.48,62.066 0.303,0 7.718,-20.5762 7.755,20.5762 5.402,0 0,-26.3742 -0.45,0 -3.669,0 0,19.332 -7.268,-19.332 -3.511,0 -7.253,19.332 0,-19.332 -4.113,0 0,26.3742 5.086,0" /><path
       inkscape:connector-curvature="0"
       id="path150"
       style="fill:#231f20;fill-opacity:1;fill-rule:nonzero;stroke:none"
       d="m 199.336,62.066 0.451,0 0,-3.7551 -14.197,0 0,-7.2019 13.231,0 0,-3.7551 -13.238,0 0,-7.9039 14.314,0 0,-3.7551 -18.599,0 0,26.3711 18.038,0" /><path
       inkscape:connector-curvature="0"
       id="path152"
       style="fill:#231f20;fill-opacity:1;fill-rule:nonzero;stroke:none"
       d="m 237.369,57.6359 c -1.212,0.8539 -2.654,1.2813 -4.362,1.2813 l 0,0 c -1.465,0 -2.692,-0.2793 -3.697,-0.8024 l 0,0 c -1.024,-0.5488 -1.858,-1.2648 -2.515,-2.175 l 0,0 c -0.672,-0.9128 -1.165,-1.957 -1.485,-3.1488 l 0,0 c -0.324,-1.198 -0.478,-2.4398 -0.478,-3.7351 l 0,0 c 0,-1.4129 0.154,-2.7559 0.478,-4.0059 l 0,0 c 0.33,-1.2449 0.813,-2.3191 1.485,-3.2371 l 0,0 c 0.652,-0.909 1.497,-1.6188 2.531,-2.1699 l 0,0 c 1.01,-0.5301 2.257,-0.7989 3.718,-0.7989 l 0,0 c 1.072,0 1.993,0.175 2.801,0.5168 l 0,0 c 0.814,0.3493 1.507,0.8219 2.1,1.4262 l 0,0 c 0.581,0.6129 1.04,1.3438 1.385,2.1981 l 0,0 c 0.333,0.8546 0.548,1.7839 0.609,2.7839 l 0,0 0.03,0.42 4.307,0 -0.047,-0.495 c -0.337,-3.2882 -1.49,-5.9062 -3.456,-7.7703 l 0,0 c -1.978,-1.8769 -4.68,-2.8019 -8.014,-2.8019 l 0,0 c -2.027,0 -3.815,0.3511 -5.359,1.0609 l 0,0 c -1.535,0.7043 -2.821,1.6793 -3.843,2.9231 l 0,0 c -1.008,1.241 -1.769,2.6992 -2.268,4.3621 l 0,0 c -0.511,1.6679 -0.752,3.4461 -0.752,5.3398 l 0,0 c 0,1.8953 0.266,3.6883 0.808,5.366 l 0,0 c 0.531,1.6774 1.333,3.1582 2.381,4.4063 l 0,0 c 1.057,1.2711 2.373,2.2738 3.934,3.0008 l 0,0 c 1.589,0.73 3.377,1.0851 5.384,1.0851 l 0,0 c 1.37,0 2.674,-0.1789 3.912,-0.5512 l 0,0 c 1.23,-0.366 2.343,-0.9168 3.313,-1.6339 l 0,0 c 0.973,-0.7329 1.788,-1.6391 2.431,-2.7207 l 0,0 c 0.653,-1.0883 1.08,-2.343 1.274,-3.7551 l 0,0 0.068,-0.511 -4.274,0 -0.07,0.3618 c -0.368,1.7203 -1.142,2.9472 -2.329,3.78 l 0,0" /><path
       inkscape:connector-curvature="0"
       id="path154"
       style="fill:#231f20;fill-opacity:1;fill-rule:nonzero;stroke:none"
       d="m 273.619,47.116 7.341,0 -3.641,10.1961 -3.7,-10.1961 0,0 z m 5.635,14.9469 0.298,0 10.316,-26.3711 -0.666,0 -4.068,0 -2.777,7.6762 -10.144,0 -2.854,-7.6762 -4.441,0 10.269,26.3711 4.067,0" /></g></svg>