<?xml version="1.0" encoding="utf-8"?>
<!-- Generator: Adobe Illustrator 26.0.2, SVG Export Plug-In . SVG Version: 6.00 Build 0)  -->
<svg version="1.1" id="Calque_1" xmlns="http://www.w3.org/2000/svg" xmlns:xlink="http://www.w3.org/1999/xlink" x="0px" y="0px"
	 viewBox="0 0 528.12 412.64" style="enable-background:new 0 0 528.12 412.64;" xml:space="preserve">
<style type="text/css">
	.st0{fill:none;stroke:#000000;stroke-width:1.65;stroke-miterlimit:10;}
	.st1{fill:#0B1F65;}
	.st2{fill:#084081;}
	.st3{fill:#0860A8;}
	.st4{fill:#FFD900;}
	.st5{fill:#FD1A14;}
	.st6{fill:#B3C50F;}
	.st7{fill:#54147F;}
	.st8{fill:#FFB301;}
	.st9{fill:#BB130F;}
	.st10{fill:#8F9E0C;}
	.st11{fill:#3C1066;}
	.st12{fill:none;}
</style>
<g id="Calque_1_00000055684025866415622260000004433418041913252232_">
	<g id="Logo_Université_de_Lille">
		<line class="st0" x1="-0.58" y1="206.24" x2="528.12" y2="206.24"/>
		<path d="M87.22,334.84v-58.8h-15.1v69.2c-0.07,2.09,1.57,3.83,3.66,3.9c0.08,0,0.16,0,0.24,0h42.9l6.4-14.3L87.22,334.84z
			 M60.62,396.34c-26,0-39.9-13.3-39.9-41.4v-78.9H4.42v80.6c0,34.5,20,55.2,51.6,55.2h34.4l7-15.5H60.62z M66.42,365.24
			c-8,0-12.2-3.9-12.2-12v-77.2h-15.7v77.8c0,16.8,9.9,26.5,27.2,26.5h39l6.8-15.1H66.42z"/>
		<path d="M179.72,335.64c14.7,0,23.2-7.8,23.2-23.7v-35.9h-9v36.1c0,10.1-4.4,15.4-14.2,15.4s-14.4-5.3-14.4-15.4v-36.1h-9v35.9
			C156.42,327.84,165.02,335.64,179.72,335.64 M212.62,334.84h8.4l0.1-24.1c0-7,4-11.2,10.6-11.2c6.3,0,9.7,3.9,9.7,11.2v24.1h8.4
			v-25.9c0-10.2-5.1-16.9-15-16.9c-5.6,0-10.7,2.2-13.7,6v-5.1h-8.4v41.9L212.62,334.84z M259.52,334.84h8.4v-42h-8.4V334.84z
			 M289.22,334.84h10.6l15.9-42h-9.1l-12.1,34.9l-12.3-34.9h-9.1L289.22,334.84z M263.72,285.74c2.9,0,5.25-2.35,5.25-5.25
			c0-2.9-2.35-5.25-5.25-5.25c-2.76-0.11-5.09,2.03-5.2,4.79c-0.01,0.14-0.01,0.27,0,0.41c-0.09,2.83,2.12,5.2,4.96,5.3
			C263.56,285.74,263.64,285.74,263.72,285.74 M339.32,335.64c9.7,0,17.5-5.3,19.4-12.9h-8.9c-1.5,3.4-5.3,5.8-10.6,5.8
			c-7.2,0-11.8-3.9-12.8-11.6h32.6c0.19-1.12,0.3-2.26,0.3-3.4c0-12.8-7.4-21.5-20.3-21.5c-12.7,0-21.2,8.6-21.2,21.5
			C317.82,327.44,326.22,335.64,339.32,335.64 M326.42,310.14c1-6.7,5.4-11,12.3-11c6.9,0,12,4.7,12,11H326.42z M367.72,334.84h8.4
			v-34.4h14.8v-7.6h-12.2c-5.86-0.22-10.78,4.35-11,10.21c-0.01,0.26-0.01,0.53,0,0.79V334.84z M411.52,335.64
			c10.8,0,17.4-4.6,17.4-12.9c0-7.2-4-11.2-11.6-12.4l-9.7-1.6c-3.3-0.5-5-2.1-5-4.8c0-3.4,3.4-5.2,8.3-5.2c5.6,0,8.8,2.5,9.1,6.7
			h8.1c-0.4-8.7-6.4-13.5-17.3-13.5c-10.4,0-16.1,5-16.1,12.3c0,7,4.4,10.7,11.5,11.8l8.9,1.4c4,0.7,5.6,3.3,5.6,5.7
			c0,3.4-3.5,5.4-9.3,5.4c-6.3,0-9.2-3.1-9.7-6.5h-8.3C394.02,330.44,401.02,335.64,411.52,335.64 M437.32,334.84h8.4v-42h-8.4
			V334.84z M467.02,334.84h10.5v-7.6h-13v-26.9h13v-7.6h-13v-13.1h-8.4v44.2C456.12,330.44,460.62,334.84,467.02,334.84
			 M441.62,285.74c2.9,0,5.25-2.35,5.25-5.25c0-2.9-2.35-5.25-5.25-5.25c-2.76-0.11-5.09,2.03-5.2,4.79c-0.01,0.14-0.01,0.27,0,0.41
			c-0.09,2.83,2.12,5.2,4.96,5.3C441.46,285.74,441.54,285.74,441.62,285.74 M503.12,335.64c9.7,0,17.5-5.3,19.4-12.9h-8.9
			c-1.5,3.4-5.3,5.8-10.6,5.8c-7.2,0-11.8-3.9-12.8-11.6h32.6c0.19-1.12,0.3-2.26,0.3-3.4c0-12.8-7.4-21.5-20.3-21.5
			c-12.7,0-21.2,8.6-21.2,21.5C481.62,327.44,490.02,335.64,503.12,335.64 M490.32,310.14c1-6.7,5.4-11,12.3-11s12,4.7,12,11H490.32
			z M499.02,288.24h7.6l7.9-12.2h-9.9L499.02,288.24z M177.82,405.24c-8.6,0-13.4-6.3-13.4-14.3s5-14.3,13.4-14.3
			c8,0,13.5,6.3,13.5,14.3S186.12,405.24,177.82,405.24 M176.02,412.64c6.8,0,12-2.1,15-6.6v5.8h8.4v-58.7h-8.4v22.7
			c-3-3.9-8.4-6.7-14.9-6.7c-11.8,0-20.6,9-20.6,22S164.12,412.64,176.02,412.64 M228.42,412.64c9.7,0,17.5-5.3,19.4-12.9h-8.9
			c-1.5,3.4-5.3,5.8-10.6,5.8c-7.2,0-11.7-3.9-12.8-11.6h32.6c0.19-1.12,0.3-2.26,0.3-3.4c0-12.8-7.4-21.5-20.3-21.5
			c-12.7,0-21.2,8.6-21.2,21.5C207.02,404.44,215.32,412.64,228.42,412.64 M215.62,387.14c1-6.7,5.4-11,12.3-11s12,4.7,12,11H215.62
			z M275.62,411.84h33.9v-7.7h-24.9v-51h-9V411.84z M315.62,411.84h8.4v-42h-8.4V411.84z M345.22,411.84h8.4v-7.7h-10.8v-51h-8.4v48
			C334.32,407.84,338.32,411.84,345.22,411.84 M319.82,362.74c2.9,0,5.25-2.35,5.25-5.25s-2.35-5.25-5.25-5.25
			c-2.76-0.11-5.09,2.03-5.2,4.79c-0.01,0.14-0.01,0.27,0,0.41c-0.09,2.83,2.12,5.2,4.96,5.3
			C319.66,362.74,319.74,362.74,319.82,362.74 M369.02,411.84h8.4v-7.7h-10.8v-51h-8.4v48
			C358.22,407.84,362.12,411.84,369.02,411.84 M401.02,412.64c9.7,0,17.5-5.3,19.4-12.9h-8.9c-1.5,3.4-5.3,5.8-10.6,5.8
			c-7.2,0-11.7-3.9-12.8-11.6h32.6c0.19-1.12,0.3-2.26,0.3-3.4c0-12.8-7.4-21.5-20.3-21.5c-12.7,0-21.2,8.6-21.2,21.5
			C379.52,404.44,387.92,412.64,401.02,412.64 M388.12,387.14c1-6.7,5.4-11,12.3-11s12,4.7,12,11H388.12z"/>
	</g>
</g>
<g id="Calque_2_00000064339756067180405210000011347255574304071560_">
	<path class="st1" d="M332.15,143.05c0.06,1.17-0.45,2.29-1.38,3c-1.1,0.76-2.42,1.14-3.75,1.07c-1.35,0.07-2.7-0.16-3.95-0.66
		v-1.62c0.62,0.26,1.27,0.46,1.93,0.59c0.68,0.15,1.38,0.22,2.08,0.22c0.89,0.06,1.77-0.16,2.52-0.64c0.56-0.41,0.88-1.07,0.85-1.77
		c0.02-0.43-0.09-0.86-0.3-1.23c-0.26-0.37-0.6-0.67-1-0.88c-0.69-0.36-1.4-0.67-2.14-0.92c-1.08-0.33-2.07-0.91-2.88-1.7
		c-0.59-0.72-0.9-1.64-0.86-2.58c-0.03-1.03,0.43-2.02,1.25-2.65c0.96-0.7,2.13-1.06,3.32-1c1.36-0.02,2.7,0.25,3.95,0.79
		l-0.52,1.46c-1.09-0.48-2.27-0.73-3.47-0.75c-0.74-0.04-1.47,0.16-2.09,0.57c-0.5,0.37-0.78,0.97-0.75,1.59
		c-0.01,0.43,0.08,0.85,0.28,1.23c0.24,0.36,0.55,0.66,0.93,0.88c0.64,0.35,1.31,0.65,2,0.88c1.16,0.34,2.22,0.93,3.12,1.74
		C331.87,141.32,332.18,142.18,332.15,143.05z"/>
	<path class="st1" d="M338.77,147.09c-1.37,0.08-2.7-0.45-3.64-1.45c-0.93-1.15-1.39-2.61-1.29-4.09c-0.09-1.51,0.37-3,1.31-4.19
		c0.96-1.02,2.32-1.56,3.72-1.48c0.52,0,1.05,0.06,1.56,0.17c0.42,0.08,0.84,0.21,1.23,0.39l-0.51,1.4
		c-0.38-0.16-0.78-0.28-1.18-0.36c-0.37-0.09-0.75-0.14-1.13-0.15c-2.2,0-3.3,1.4-3.3,4.21c-0.07,1.08,0.21,2.15,0.8,3.05
		c0.57,0.73,1.47,1.13,2.39,1.07c0.95-0.01,1.89-0.21,2.77-0.58v1.46C340.65,146.93,339.71,147.12,338.77,147.09z"/>
	<path class="st1" d="M343.52,133.15c-0.04-0.3,0.07-0.6,0.28-0.82c0.18-0.18,0.43-0.28,0.69-0.27c0.25,0,0.5,0.1,0.68,0.27
		c0.39,0.48,0.39,1.16,0,1.64c-0.18,0.17-0.43,0.27-0.68,0.27c-0.26,0.01-0.51-0.09-0.69-0.27
		C343.6,133.75,343.49,133.45,343.52,133.15z M345.3,146.89h-1.64v-10.81h1.64V146.89z"/>
	<path class="st1" d="M352.93,147.09c-1.41,0.07-2.78-0.46-3.78-1.46c-0.98-1.12-1.48-2.58-1.39-4.06
		c-0.08-1.49,0.38-2.97,1.29-4.15c0.85-1.02,2.13-1.59,3.46-1.54c1.22-0.05,2.4,0.44,3.22,1.34c0.82,0.99,1.24,2.25,1.18,3.53v1
		h-7.45c-0.04,1.05,0.32,2.08,1,2.89c0.67,0.69,1.61,1.05,2.57,1c1.19,0,2.37-0.25,3.46-0.73v1.46c-0.53,0.23-1.08,0.41-1.65,0.54
		C354.21,147.03,353.57,147.09,352.93,147.09z M352.49,137.25c-0.78-0.03-1.54,0.28-2.08,0.85c-0.55,0.66-0.87,1.49-0.91,2.35h5.65
		c0.06-0.85-0.19-1.69-0.69-2.37C353.97,137.51,353.24,137.21,352.49,137.25z"/>
	<path class="st1" d="M366.7,146.89v-7c0.06-0.72-0.16-1.44-0.61-2c-0.51-0.47-1.19-0.71-1.88-0.65c-0.93-0.08-1.84,0.26-2.49,0.92
		c-0.6,0.88-0.88,1.94-0.79,3v5.67h-1.63v-10.75h1.33l0.26,1.48h0.13c0.34-0.54,0.83-0.97,1.41-1.24c0.63-0.29,1.31-0.44,2-0.44
		c1.06-0.08,2.12,0.26,2.94,0.94c0.73,0.82,1.09,1.91,1,3v7.05L366.7,146.89z"/>
	<path class="st1" d="M375.61,147.09c-1.35,0.07-2.67-0.46-3.59-1.45c-0.93-1.15-1.39-2.61-1.29-4.09c-0.09-1.51,0.37-3,1.31-4.19
		c0.96-1.02,2.32-1.56,3.72-1.48c0.52,0,1.05,0.06,1.56,0.17c0.42,0.08,0.83,0.21,1.22,0.39l-0.5,1.4
		c-0.38-0.16-0.78-0.28-1.18-0.36c-0.37-0.09-0.76-0.14-1.14-0.15c-2.19,0-3.28,1.4-3.29,4.21c-0.07,1.08,0.21,2.15,0.8,3.05
		c0.57,0.73,1.46,1.13,2.38,1.07c0.96-0.01,1.9-0.21,2.78-0.58v1.46C377.52,146.94,376.57,147.13,375.61,147.09z"/>
	<path class="st1" d="M385.08,147.09c-1.41,0.07-2.79-0.46-3.79-1.46c-0.97-1.12-1.47-2.58-1.38-4.06
		c-0.08-1.49,0.38-2.96,1.28-4.15c0.85-1.02,2.13-1.59,3.46-1.54c1.22-0.06,2.4,0.44,3.22,1.34c0.82,0.99,1.24,2.25,1.18,3.53v1
		h-7.45c-0.03,1.05,0.33,2.08,1,2.89c0.67,0.69,1.61,1.06,2.57,1c1.19,0,2.36-0.25,3.45-0.73v1.46c-0.53,0.23-1.08,0.41-1.64,0.54
		C386.35,147.03,385.72,147.09,385.08,147.09z M384.63,137.25c-0.78-0.03-1.54,0.28-2.08,0.85c-0.55,0.66-0.87,1.49-0.91,2.35h5.66
		c0.06-0.85-0.19-1.69-0.69-2.37C386.11,137.51,385.38,137.21,384.63,137.25z"/>
	<path class="st1" d="M398.41,143.94c0.05,0.92-0.38,1.79-1.12,2.33c-0.94,0.6-2.05,0.89-3.16,0.82c-1.16,0.06-2.31-0.18-3.35-0.68
		v-1.52c0.53,0.27,1.09,0.48,1.67,0.62c0.56,0.15,1.14,0.22,1.72,0.23c0.69,0.04,1.38-0.1,2-0.41c0.46-0.25,0.73-0.73,0.7-1.25
		c-0.01-0.43-0.21-0.83-0.55-1.08c-0.66-0.45-1.38-0.81-2.14-1.06c-0.74-0.26-1.46-0.6-2.14-1c-0.4-0.23-0.74-0.56-1-0.95
		c-0.22-0.39-0.32-0.83-0.31-1.28c-0.02-0.83,0.38-1.62,1.07-2.08c0.89-0.57,1.94-0.84,3-0.77c1.18,0,2.34,0.25,3.42,0.71
		l-0.59,1.33c-0.93-0.41-1.93-0.64-2.94-0.67c-0.61-0.04-1.22,0.09-1.76,0.37c-0.37,0.2-0.6,0.58-0.59,1
		c-0.01,0.26,0.07,0.52,0.22,0.74c0.19,0.24,0.44,0.44,0.71,0.59c0.62,0.31,1.25,0.57,1.9,0.8c0.96,0.28,1.85,0.76,2.6,1.41
		C398.22,142.63,398.45,143.28,398.41,143.94z"/>
	<path class="st1" d="M412.88,145.44h-0.09c-0.77,1.11-2.06,1.73-3.4,1.65c-1.26,0.06-2.48-0.47-3.29-1.45
		c-0.85-1.19-1.27-2.64-1.18-4.1c-0.09-1.48,0.32-2.95,1.18-4.16c0.8-0.99,2.02-1.54,3.29-1.48c1.32-0.06,2.59,0.54,3.38,1.6h0.13
		l-0.07-0.78v-0.76v-4.42h1.64v15.35h-1.34L412.88,145.44z M409.6,145.72c0.91,0.08,1.8-0.25,2.43-0.91
		c0.58-0.87,0.85-1.91,0.76-2.95v-0.32c0.1-1.15-0.17-2.3-0.77-3.28c-0.6-0.71-1.51-1.08-2.44-1c-0.88-0.04-1.71,0.39-2.2,1.12
		c-0.57,0.96-0.83,2.06-0.77,3.17c-0.07,1.09,0.19,2.18,0.76,3.12C407.89,145.38,408.73,145.77,409.6,145.72L409.6,145.72z"/>
	<path class="st1" d="M422.02,147.09c-1.41,0.07-2.78-0.46-3.78-1.46c-0.98-1.12-1.48-2.58-1.39-4.06
		c-0.08-1.49,0.38-2.97,1.29-4.15c0.85-1.02,2.13-1.59,3.46-1.54c1.22-0.05,2.39,0.44,3.21,1.34c0.82,0.99,1.25,2.25,1.19,3.53v1
		h-7.45c-0.04,1.05,0.32,2.08,1,2.89c0.67,0.69,1.61,1.05,2.57,1c1.19,0,2.36-0.25,3.45-0.73v1.46c-0.53,0.23-1.08,0.41-1.64,0.54
		C423.3,147.03,422.66,147.09,422.02,147.09z M421.58,137.25c-0.78-0.03-1.54,0.28-2.08,0.85c-0.56,0.66-0.88,1.49-0.91,2.35h5.65
		c0.06-0.85-0.19-1.69-0.69-2.37c-0.48-0.55-1.19-0.86-1.93-0.83H421.58z"/>
	<path class="st1" d="M441.65,143.05c0.06,1.17-0.45,2.29-1.38,3c-1.1,0.76-2.42,1.14-3.75,1.07c-1.35,0.07-2.69-0.16-3.94-0.66
		v-1.62c1.27,0.52,2.63,0.8,4,0.81c0.89,0.06,1.78-0.16,2.53-0.64c0.56-0.41,0.88-1.08,0.85-1.77c0.02-0.43-0.09-0.86-0.3-1.23
		c-0.26-0.37-0.6-0.67-1-0.88c-0.69-0.36-1.41-0.67-2.15-0.92c-1.08-0.32-2.07-0.91-2.87-1.7c-0.6-0.72-0.91-1.64-0.86-2.58
		c-0.04-1.03,0.43-2.02,1.25-2.65c0.96-0.7,2.12-1.06,3.31-1c1.37-0.02,2.74,0.25,4,0.79l-0.52,1.46c-1.1-0.48-2.28-0.73-3.48-0.75
		c-0.74-0.04-1.47,0.16-2.08,0.57c-0.5,0.37-0.78,0.97-0.75,1.59c-0.02,0.43,0.08,0.85,0.28,1.23c0.23,0.37,0.55,0.67,0.93,0.88
		c0.64,0.35,1.31,0.65,2,0.88c1.16,0.34,2.22,0.93,3.12,1.74C441.4,141.33,441.69,142.18,441.65,143.05z"/>
	<path class="st1" d="M450.6,146.89l-0.32-1.54h-0.08c-0.42,0.58-0.97,1.05-1.61,1.38c-0.64,0.26-1.32,0.38-2,0.36
		c-0.91,0.05-1.81-0.25-2.52-0.83c-0.64-0.61-0.97-1.48-0.91-2.36c0-2.18,1.74-3.33,5.23-3.43l1.84-0.06v-0.67
		c0.06-0.67-0.14-1.34-0.55-1.88c-0.47-0.44-1.11-0.67-1.75-0.61c-1.07,0.05-2.11,0.33-3.06,0.83l-0.5-1.25
		c1.13-0.6,2.38-0.92,3.66-0.93c1.03-0.08,2.05,0.23,2.87,0.86c0.68,0.74,1.02,1.74,0.93,2.75v7.38H450.6z M446.9,145.74
		c0.88,0.05,1.75-0.25,2.41-0.84c0.61-0.63,0.92-1.48,0.87-2.35v-1l-1.64,0.07c-0.98-0.03-1.94,0.18-2.82,0.61
		c-0.57,0.36-0.9,1-0.86,1.67c-0.03,0.51,0.16,1.01,0.54,1.35C445.82,145.59,446.36,145.76,446.9,145.74z"/>
	<path class="st1" d="M462.18,146.89v-7c0.06-0.72-0.16-1.43-0.6-2c-0.51-0.47-1.19-0.71-1.88-0.65c-0.93-0.08-1.84,0.26-2.49,0.92
		c-0.6,0.88-0.88,1.94-0.79,3v5.67h-1.63v-10.75h1.33l0.26,1.48h0.08c0.34-0.54,0.83-0.97,1.41-1.24c0.63-0.29,1.31-0.44,2-0.44
		c1.06-0.08,2.12,0.26,2.94,0.94c0.73,0.82,1.09,1.91,1,3v7.05L462.18,146.89z"/>
	<path class="st1" d="M470.27,145.74c0.28,0,0.56-0.02,0.84-0.07c0.22-0.03,0.43-0.07,0.64-0.13v1.25
		c-0.25,0.11-0.51,0.18-0.78,0.22c-0.31,0.05-0.62,0.07-0.93,0.08c-2.09,0-3.13-1.1-3.14-3.31v-6.43h-1.55v-0.81l1.55-0.68
		l0.69-2.31h0.95v2.51h3.14v1.27h-3.14v6.37c-0.04,0.54,0.12,1.07,0.46,1.49C469.32,145.56,469.79,145.76,470.27,145.74z"/>
	<path class="st1" d="M478.08,147.09c-1.41,0.07-2.79-0.46-3.79-1.46c-0.97-1.12-1.47-2.58-1.38-4.06
		c-0.08-1.49,0.38-2.97,1.29-4.15c0.85-1.02,2.12-1.59,3.45-1.54c1.22-0.06,2.4,0.44,3.22,1.34c0.82,0.99,1.24,2.25,1.18,3.53v1
		h-7.44c-0.04,1.05,0.32,2.08,1,2.89c0.67,0.69,1.61,1.06,2.57,1c1.19,0,2.36-0.25,3.45-0.73v1.46c-0.53,0.23-1.08,0.41-1.64,0.54
		C479.36,147.03,478.72,147.09,478.08,147.09z M477.63,137.25c-0.78-0.03-1.54,0.28-2.07,0.85c-0.55,0.66-0.87,1.49-0.92,2.35h5.66
		c0.06-0.85-0.19-1.69-0.69-2.37C479.11,137.51,478.38,137.21,477.63,137.25z M476.42,134.4c0.36-0.48,0.69-0.97,1-1.48
		c0.31-0.49,0.6-0.99,0.86-1.51h2v0.21c-0.39,0.56-0.82,1.08-1.29,1.58c-0.46,0.52-0.96,1-1.49,1.45h-1.1L476.42,134.4z"/>
	<path class="st1" d="M328.33,170.19c-1.41,0.07-2.79-0.46-3.79-1.46c-0.97-1.12-1.47-2.57-1.38-4.05c-0.08-1.5,0.38-2.97,1.29-4.16
		c0.85-1.02,2.13-1.58,3.45-1.53c1.22-0.06,2.4,0.43,3.22,1.33c0.82,0.99,1.24,2.25,1.18,3.53v1h-7.44c-0.04,1.06,0.32,2.09,1,2.9
		c0.67,0.69,1.61,1.05,2.57,1c1.19,0,2.36-0.25,3.45-0.73v1.52c-0.53,0.23-1.08,0.41-1.64,0.54
		C329.61,170.18,328.97,170.22,328.33,170.19z M327.88,160.36c-0.78-0.03-1.54,0.27-2.07,0.84c-0.56,0.66-0.88,1.49-0.91,2.35h5.65
		c0.06-0.85-0.19-1.69-0.69-2.37C329.36,160.61,328.63,160.31,327.88,160.36z"/>
	<path class="st1" d="M338.18,168.84c0.28,0,0.56-0.02,0.84-0.06c0.22-0.03,0.43-0.08,0.64-0.14v1.26c-0.25,0.1-0.51,0.17-0.78,0.21
		c-0.31,0.05-0.62,0.07-0.93,0.08c-2.09,0-3.14-1.1-3.14-3.3v-6.43h-1.55v-0.79l1.55-0.68l0.69-2.31h0.95v2.5h3.13v1.28h-3.13v6.36
		c-0.04,0.54,0.13,1.07,0.46,1.5C337.23,168.68,337.7,168.87,338.18,168.84z"/>
	<path class="st1" d="M353.62,168.54h-0.08c-0.77,1.11-2.06,1.73-3.4,1.65c-1.27,0.07-2.49-0.47-3.3-1.45
		c-0.86-1.2-1.27-2.65-1.18-4.12c-0.09-1.48,0.33-2.95,1.19-4.16c1.62-1.81,4.4-1.97,6.21-0.35c0.16,0.15,0.32,0.3,0.46,0.47h0.12
		l-0.06-0.78v-0.76v-4.4h1.63v15.35h-1.33L353.62,168.54z M350.35,168.82c0.91,0.08,1.8-0.25,2.43-0.91
		c0.58-0.87,0.85-1.91,0.76-2.95v-0.34c0.1-1.15-0.17-2.3-0.77-3.28c-0.6-0.71-1.51-1.08-2.44-1c-0.88-0.04-1.72,0.38-2.2,1.12
		c-0.57,0.95-0.83,2.05-0.77,3.16c-0.07,1.1,0.19,2.19,0.76,3.13C348.63,168.46,349.47,168.87,350.35,168.82L350.35,168.82z"/>
	<path class="st1" d="M359.78,159.18v7c-0.06,0.72,0.15,1.44,0.6,2c0.51,0.47,1.2,0.71,1.89,0.65c0.92,0.08,1.84-0.26,2.48-0.93
		c0.59-0.88,0.87-1.94,0.78-3v-5.68h1.64v10.81h-1.35l-0.24-1.45h-0.09c-0.33,0.54-0.82,0.97-1.39,1.23c-0.63,0.28-1.31,0.43-2,0.42
		c-1.08,0.09-2.16-0.24-3-0.94c-0.73-0.82-1.09-1.91-1-3v-7.08L359.78,159.18z"/>
	<path class="st1" d="M383.47,166.16c0.06,1.17-0.45,2.29-1.38,3c-1.1,0.76-2.42,1.13-3.75,1.06c-1.37,0.07-2.73-0.15-4-0.66v-1.62
		c0.63,0.26,1.28,0.46,1.94,0.6c0.68,0.14,1.37,0.21,2.07,0.21c0.89,0.06,1.77-0.16,2.52-0.63c0.56-0.41,0.88-1.08,0.85-1.77
		c0.02-0.43-0.09-0.86-0.3-1.23c-0.26-0.37-0.6-0.68-1-0.89c-0.69-0.36-1.4-0.67-2.14-0.91c-1.09-0.32-2.08-0.91-2.88-1.71
		c-0.59-0.72-0.9-1.64-0.86-2.58c-0.03-1.03,0.43-2.02,1.25-2.65c0.96-0.7,2.13-1.06,3.32-1c1.37-0.02,2.74,0.25,4,0.79l-0.52,1.46
		c-1.09-0.48-2.27-0.73-3.47-0.75c-0.74-0.04-1.47,0.16-2.08,0.58c-0.49,0.37-0.78,0.96-0.75,1.58c-0.02,0.43,0.08,0.85,0.27,1.23
		c0.24,0.36,0.55,0.66,0.93,0.88c0.64,0.36,1.31,0.65,2,0.88c1.16,0.33,2.23,0.93,3.12,1.74
		C383.19,164.43,383.5,165.28,383.47,166.16z"/>
	<path class="st1" d="M390.8,170.19c-0.66,0.01-1.32-0.12-1.93-0.39c-0.59-0.27-1.09-0.68-1.47-1.2h-0.11
		c0.07,0.6,0.11,1.2,0.11,1.8v4.45h-1.63v-15.67h1.33l0.23,1.48h0.07c0.37-0.55,0.88-0.99,1.47-1.28c0.61-0.27,1.27-0.4,1.93-0.39
		c1.28-0.07,2.51,0.48,3.32,1.47c1.57,2.53,1.57,5.73,0,8.26C393.31,169.71,392.08,170.26,390.8,170.19z M390.56,160.38
		c-0.9-0.08-1.78,0.25-2.4,0.91c-0.56,0.87-0.83,1.89-0.76,2.92v0.33c-0.09,1.14,0.17,2.28,0.76,3.26c0.61,0.7,1.51,1.08,2.44,1
		c0.88,0.03,1.71-0.4,2.2-1.13c0.57-0.94,0.85-2.03,0.79-3.13c0.07-1.09-0.21-2.17-0.79-3.1
		C392.28,160.73,391.44,160.34,390.56,160.38L390.56,160.38z"/>
	<path class="st1" d="M407.08,164.54c0.08,1.5-0.39,2.97-1.34,4.13c-0.95,1.02-2.29,1.56-3.68,1.48c-0.9,0.02-1.79-0.22-2.57-0.68
		c-0.77-0.48-1.38-1.17-1.74-2c-0.42-0.94-0.63-1.97-0.61-3c-0.09-1.49,0.38-2.96,1.32-4.12c0.95-1.01,2.29-1.54,3.67-1.47
		c1.37-0.06,2.69,0.49,3.61,1.5C406.69,161.55,407.17,163.03,407.08,164.54z M398.84,164.54c-0.08,1.12,0.21,2.23,0.83,3.16
		c1.22,1.34,3.3,1.44,4.65,0.22c0.08-0.07,0.15-0.14,0.22-0.22c0.62-0.93,0.92-2.04,0.84-3.16c0.08-1.11-0.22-2.21-0.84-3.13
		c-1.26-1.35-3.37-1.42-4.72-0.16c-0.05,0.05-0.11,0.1-0.16,0.16C399.05,162.34,398.76,163.44,398.84,164.54z"/>
	<path class="st1" d="M414.48,158.99c0.43-0.01,0.86,0.03,1.29,0.11l-0.23,1.52c-0.39-0.09-0.78-0.14-1.18-0.15
		c-0.87,0-1.7,0.39-2.25,1.07c-0.63,0.74-0.96,1.68-0.93,2.65v5.8h-1.64v-10.81h1.35l0.19,2h0.08c0.35-0.65,0.85-1.21,1.45-1.63
		C413.16,159.18,413.81,158.98,414.48,158.99z"/>
	<path class="st1" d="M420.88,168.84c0.28,0,0.56-0.02,0.84-0.06c0.22-0.03,0.43-0.08,0.64-0.14v1.26c-0.25,0.1-0.52,0.17-0.79,0.21
		c-0.31,0.05-0.62,0.08-0.93,0.08c-2.09,0-3.14-1.1-3.14-3.3v-6.43h-1.54v-0.79l1.54-0.68l0.69-2.31h1v2.5h3.14v1.28h-3.14v6.36
		c-0.03,0.54,0.13,1.08,0.47,1.5C419.97,168.66,420.42,168.85,420.88,168.84z"/>
	<polygon class="st2" points="299.24,75.25 299.89,91.86 358.08,91.86 	"/>
	<polygon class="st3" points="316.51,106.8 299.89,91.86 358.08,91.86 	"/>
	<polygon class="st4" points="377.42,80.67 358.08,91.86 376.07,36.52 	"/>
	<polygon class="st5" points="371.4,14.67 376.07,36.52 328.99,2.31 	"/>
	<polygon class="st6" points="306.76,0 328.99,2.31 281.91,36.52 	"/>
	<polygon class="st7" points="272.84,56.94 281.91,36.52 299.89,91.86 	"/>
	<polygon class="st8" points="342.09,87.35 358.08,91.86 376.07,36.52 	"/>
	<polygon class="st9" points="366.83,50.34 376.07,36.52 328.99,2.31 	"/>
	<polygon class="st10" points="339.27,15.37 328.99,2.31 281.91,36.52 	"/>
	<polygon class="st11" points="297.5,30.77 281.91,36.52 299.89,91.86 	"/>
	<path class="st1" d="M285.2,112.88c-0.09,3.68-0.93,7.31-2.46,10.66c-3.07-0.85-6.25-1.26-9.44-1.2c-2.17-0.03-4.33,0.22-6.43,0.74
		c-1.71,0.44-3.27,1.33-4.53,2.57c-1.35,1.45-2.31,3.22-2.79,5.15c-0.72,2.91-1.05,5.9-1,8.89v0.6l0,0c-4.09,0.75-8.27,0.75-12.36,0
		v-0.6c0-6.06,0.76-11.28,2.15-14.71c1.23-3.26,3.3-6.14,6-8.35c2.55-2,5.55-3.35,8.74-3.94c3.19-0.6,6.43-0.91,9.67-0.94
		c3.99-0.05,7.97,0.29,11.89,1L285.2,112.88z"/>
	<path class="st1" d="M246.22,169.35c0.01-1.84,0.23-3.67,0.68-5.45c0.38-1.81,0.98-3.57,1.78-5.24c3.07,0.85,6.25,1.26,9.44,1.2
		c2.17,0.03,4.33-0.22,6.43-0.74c1.71-0.44,3.27-1.33,4.53-2.57c1.35-1.45,2.31-3.22,2.79-5.15c0.72-2.91,1.06-5.9,1-8.89v-0.6l0,0
		c4.09-0.75,8.27-0.75,12.36,0v0.6c0,6.06-0.76,11.28-2.15,14.71c-1.22,3.25-3.27,6.13-5.95,8.34c-2.55,2.02-5.55,3.39-8.75,4
		c-3.63,0.68-7.31,1-11,0.95c-3.55-0.03-7.09-0.37-10.59-1L246.22,169.35z"/>
	<path class="st1" d="M82.32,169.45c3.57-0.66,7.32-1.52,9.92-2.26v-56c-4.09-0.75-8.28-0.75-12.37,0v47.6
		c-2.9,0.73-5.88,1.07-8.87,1c-2.17,0.03-4.33-0.22-6.43-0.75c-1.71-0.42-3.28-1.28-4.55-2.5c-1.35-1.45-2.32-3.22-2.8-5.15
		c-0.72-2.8-1.05-5.68-1-8.57v-31.6c-4.09-0.75-8.28-0.75-12.37,0l0,0v32c0,5.73,0.73,10.43,2.15,13.95c1.23,3.26,3.3,6.14,6,8.35
		c2.56,2.01,5.56,3.38,8.75,4c3.41,0.65,6.87,0.96,10.34,0.95C74.86,170.48,78.62,170.13,82.32,169.45z"/>
	<path class="st1" d="M186.33,111.67c-0.09,3.67-0.93,7.29-2.46,10.63c-2.9-0.73-5.88-1.07-8.87-1c-2.17-0.03-4.33,0.22-6.43,0.75
		c-1.71,0.42-3.28,1.27-4.55,2.49c-1.35,1.45-2.32,3.22-2.8,5.15c-0.72,2.8-1.05,5.68-1,8.57v31.6c-4.09,0.75-8.28,0.75-12.37,0l0,0
		v-32c0-5.73,0.73-10.43,2.15-13.95c1.23-3.26,3.3-6.14,6-8.35c2.56-1.99,5.56-3.35,8.75-3.95c3.41-0.65,6.87-0.96,10.34-0.95
		C178.86,110.65,182.62,110.99,186.33,111.67z"/>
	<path class="st1" d="M140.6,97.88c-2.9-0.72-5.88-1.06-8.87-1c-2.17-0.03-4.33,0.22-6.43,0.75c-1.71,0.44-3.28,1.32-4.53,2.57
		c-1.35,1.45-2.32,3.22-2.8,5.15c-0.72,2.8-1.06,5.68-1,8.57v56c-4.09,0.75-8.28,0.75-12.37,0l0,0v-56.47c0-5.74,0.73-10.43,2.15-14
		c1.23-3.26,3.3-6.14,6-8.35c2.56-2,5.56-3.35,8.75-3.95c3.41-0.66,6.87-1,10.34-1c3.76-0.01,7.52,0.32,11.22,1
		c-0.09,3.68-0.93,7.3-2.46,10.65L140.6,97.88z"/>
	<path class="st1" d="M139.92,118l-0.11-0.59h-16.62l-0.11,0.6c-0.14,0.82-0.24,1.65-0.3,2.48c-0.06,0.91-0.09,1.7-0.09,2.35
		s0,1.54,0.09,2.46s0.17,1.75,0.3,2.48l0.11,0.59h16.62l0.11-0.59c0.14-0.82,0.24-1.65,0.3-2.48c0.06-0.92,0.1-1.7,0.1-2.36
		s0-1.53-0.1-2.45C140.16,119.66,140.06,118.82,139.92,118z"/>
	<path class="st1" d="M215.42,129.96l-0.11-0.6h-16.62l-0.11,0.6c-0.14,0.82-0.24,1.65-0.29,2.48c-0.07,0.91-0.1,1.7-0.1,2.35
		s0,1.54,0.1,2.46c0.05,0.83,0.15,1.65,0.29,2.47l0.11,0.6h16.62l0.11-0.59c0.13-0.73,0.23-1.56,0.3-2.48s0.1-1.7,0.1-2.36
		s0-1.54-0.1-2.45C215.66,131.61,215.56,130.78,215.42,129.96z"/>
	<path class="st1" d="M197.39,158.65c3.05,0.85,6.21,1.24,9.38,1.18c2.17,0.03,4.33-0.22,6.43-0.75c1.71-0.44,3.28-1.32,4.53-2.57
		c1.35-1.45,2.32-3.22,2.8-5.14c0.72-2.91,1.05-5.9,1-8.89v-15.09c0.05-2.99-0.28-5.98-1-8.88c-0.48-1.93-1.45-3.7-2.8-5.15
		c-1.26-1.24-2.82-2.13-4.53-2.57c-2.1-0.53-4.26-0.78-6.43-0.75c-3.17-0.06-6.33,0.33-9.38,1.18c-0.83-1.66-1.44-3.41-1.83-5.22
		c-0.45-1.78-0.68-3.61-0.69-5.45l0.58-0.1c3.37-0.61,6.78-0.95,10.21-1c3.8-0.07,7.6,0.24,11.34,0.94c3.19,0.6,6.19,1.96,8.75,3.95
		c2.7,2.21,4.77,5.09,6,8.35c1.38,3.42,2.15,8.65,2.15,14.7V128c0,3.8-4,6.89-9,6.89c5,0,9,3.09,9,6.89v0.7
		c0,6.06-0.77,11.28-2.15,14.71c-1.23,3.26-3.3,6.14-6,8.34c-2.56,2-5.56,3.36-8.75,3.95c-7.13,1.28-14.43,1.26-21.55-0.05
		l-0.52-0.1C195,165.64,195.84,162,197.39,158.65"/>
</g>
<g id="Calque_3">
	<rect y="193.81" class="st12" width="526" height="44.07"/>
</g>
</svg>
