<?xml version="1.0" encoding="utf-8"?>
<!-- Generator: Adobe Illustrator 26.0.1, SVG Export Plug-In . SVG Version: 6.00 Build 0)  -->
<svg version="1.1" xmlns="http://www.w3.org/2000/svg" xmlns:xlink="http://www.w3.org/1999/xlink" x="0px" y="0px"
	 viewBox="0 0 824 841" style="enable-background:new 0 0 824 841;" xml:space="preserve">
<style type="text/css">
	.st0{fill:none;stroke:#000000;stroke-width:1.65;stroke-miterlimit:10;}
	.st1{fill:#AE2573;}
	.st2{fill:#B8166B;}
	.st3{fill:none;stroke:#AE2573;stroke-width:1.3415;stroke-miterlimit:10;}
	.st4{fill:#AE2672;}
	.st5{fill-rule:evenodd;clip-rule:evenodd;fill:#D1D3D4;}
	.st6{fill:#E53328;}
	.st7{fill:#1B4379;}
	.st8{fill:#005A9A;}
	.st9{fill:#0075BF;}
	.st10{fill:#FFD500;}
	.st11{fill:#E63329;}
	.st12{fill:#C6C500;}
	.st13{fill:#6E3688;}
	.st14{fill:#FEBA00;}
	.st15{fill:#B82C1E;}
	.st16{fill:#A8A900;}
	.st17{fill:#582E74;}
	.st18{fill:none;stroke:#000000;stroke-width:1.5889;stroke-miterlimit:10;}
</style>
<g id="Logo_Université_de_Lille">
</g>
<g id="Logo_université_composante">
	<g>
		<g>
			<g>
				<path d="M549.4,330.2v-56.8h-14.6v66.8c0,2.2,1.7,3.7,3.7,3.7H580l6.2-13.8H549.4z M523.8,389.6c-25.1,0-38.5-12.9-38.5-40
					v-76.2h-15.7v77.8c0,33.3,19.3,53.2,49.8,53.2h33.2l6.7-15H523.8z M529.4,359.5c-7.7,0-11.8-3.7-11.8-11.6v-74.5h-15.2v75.1
					c0,16.3,9.5,25.6,26.2,25.6h37.7l6.5-14.6H529.4z"/>
				<path d="M491,495.7c14.2,0,22.4-7.5,22.4-22.8v-34.7h-8.7V473c0,9.7-4.3,14.8-13.7,14.8c-9.3,0-13.9-5.1-13.9-14.8v-34.8h-8.7
					v34.7C468.5,488.1,476.7,495.7,491,495.7 M522.7,494.8h8.1l0.1-23.3c0-6.7,3.9-10.9,10.2-10.9c6.1,0,9.3,3.7,9.3,10.9v23.3h8.1
					v-25c0-9.8-4.9-16.3-14.5-16.3c-5.4,0-10.3,2.1-13.2,5.8v-4.9h-8.1V494.8z M568,494.8h8.1v-40.5H568V494.8z M596.7,494.8h10.2
					l15.4-40.5h-8.8L601.8,488L590,454.3h-8.8L596.7,494.8z M572.1,447.4c3,0,5-2.2,5-5c0-2.9-1.9-5.1-5-5.1c-3,0-5,2.1-5,5
					C567.1,445.3,569.2,447.4,572.1,447.4 M645,495.7c9.3,0,16.9-5.1,18.7-12.5h-8.6c-1.5,3.2-5.1,5.6-10.2,5.6
					c-7,0-11.3-3.8-12.3-11.2h31.5c0.2-1.1,0.2-2.4,0.2-3.3c0-12.4-7.1-20.7-19.6-20.7c-12.2,0-20.5,8.3-20.5,20.7
					C624.3,487.7,632.4,495.7,645,495.7 M632.6,471c1-6.5,5.2-10.6,11.9-10.6c6.8,0,11.6,4.5,11.6,10.6H632.6z M672.5,494.8h8.1
					v-33.2h14.3v-7.3h-11.7c-6.2,0-10.6,4.5-10.6,10.6V494.8z M714.8,495.7c10.5,0,16.8-4.5,16.8-12.5c0-7-3.9-10.8-11.2-12
					l-9.3-1.5c-3.2-0.5-4.9-2-4.9-4.6c0-3.2,3.3-5,8-5c5.4,0,8.5,2.4,8.8,6.5h7.9c-0.4-8.4-6.2-13-16.7-13c-10,0-15.6,4.9-15.6,11.9
					c0,6.8,4.2,10.3,11.1,11.4l8.6,1.4c3.9,0.6,5.4,3.2,5.4,5.5c0,3.2-3.4,5.2-9,5.2c-6.1,0-8.9-3-9.4-6.2h-8
					C697.9,490.6,704.6,495.7,714.8,495.7 M739.7,494.8h8.1v-40.5h-8.1V494.8z M768.4,494.8h10.1v-7.3h-12.6v-25.9h12.6v-7.3h-12.6
					v-12.6h-8.1v42.7C757.8,490.6,762.2,494.8,768.4,494.8 M743.8,447.4c3,0,5-2.2,5-5c0-2.9-1.9-5.1-5-5.1c-3,0-5,2.1-5,5
					C738.8,445.3,740.9,447.4,743.8,447.4 M803.2,495.7c9.3,0,16.9-5.1,18.7-12.5h-8.6c-1.5,3.2-5.1,5.6-10.2,5.6
					c-7,0-11.3-3.8-12.3-11.2h31.5c0.2-1.1,0.2-2.4,0.2-3.3c0-12.4-7.1-20.7-19.6-20.7c-12.2,0-20.5,8.3-20.5,20.7
					C782.5,487.7,790.6,495.7,803.2,495.7 M790.8,471c1-6.5,5.2-10.6,11.9-10.6c6.8,0,11.6,4.5,11.6,10.6H790.8z M799.2,449.9h7.3
					l7.6-11.7h-9.6L799.2,449.9z M489.2,562.9c-8.3,0-13-6.1-13-13.8c0-7.7,4.8-13.8,13-13.8c7.7,0,13,6.1,13,13.8
					C502.2,556.8,497.1,562.9,489.2,562.9 M487.4,570c6.6,0,11.6-2,14.5-6.4v5.6h8.1v-56.7h-8.1v21.9c-2.9-3.7-8.1-6.5-14.3-6.5
					c-11.4,0-19.9,8.7-19.9,21.2C467.7,561.6,475.9,570,487.4,570 M538,570c9.3,0,16.9-5.1,18.7-12.5h-8.6
					c-1.5,3.2-5.1,5.6-10.2,5.6c-7,0-11.3-3.8-12.3-11.2h31.5c0.2-1.1,0.2-2.3,0.2-3.3c0-12.4-7.1-20.7-19.6-20.7
					c-12.2,0-20.5,8.3-20.5,20.7C517.3,562.1,525.4,570,538,570 M525.6,545.4c1-6.5,5.2-10.6,11.9-10.6c6.8,0,11.6,4.5,11.6,10.6
					H525.6z M583.6,569.2h32.7v-7.5h-24.1v-49.3h-8.7V569.2z M622.1,569.2h8.1v-40.5h-8.1V569.2z M650.7,569.2h8.1v-7.5h-10.5v-49.3
					h-8.1v46.3C640.3,565.3,644.1,569.2,650.7,569.2 M626.3,521.8c3,0,5-2.2,5-5c0-2.9-1.9-5.1-5-5.1c-3,0-5,2.1-5,5
					S623.3,521.8,626.3,521.8 M673.7,569.2h8.1v-7.5h-10.5v-49.3h-8.1v46.3C663.3,565.3,667.1,569.2,673.7,569.2 M704.6,570
					c9.3,0,16.9-5.1,18.7-12.5h-8.6c-1.5,3.2-5.1,5.6-10.2,5.6c-7,0-11.3-3.8-12.3-11.2h31.5c0.2-1.1,0.2-2.3,0.2-3.3
					c0-12.4-7.1-20.7-19.6-20.7c-12.2,0-20.5,8.3-20.5,20.7C683.9,562.1,692,570,704.6,570 M692.2,545.4c1-6.5,5.2-10.6,11.9-10.6
					c6.8,0,11.6,4.5,11.6,10.6H692.2z"/>
			</g>
			<line class="st18" x1="408.2" y1="265.3" x2="408.2" y2="580"/>
		</g>
		<path d="M68,475.2c10.1,0,17.1-5.1,20.1-11.6v10.3h18v-37.9c0-24.1-19.2-37.9-44.3-37.9c-16.2,0-30.4,5.7-40.9,15.6v-24.4
			c0-4.8,2.7-7.4,7.4-7.4h42l7.3-16.4H23.8c-14.4,0-22.3,7.9-22.3,22.3v34.7h11.8c-7.4,10.9-11.8,24.8-11.8,41.1v10.4h19.3v-11.9
			c0-32,17.1-48.2,41.7-48.2c15.5,0,24.6,6.7,25.4,21.3c-3.3-6-10-10.4-19.2-10.4c-11.9,0-25.3,7.3-25.3,25.3
			C43.4,465.2,53.4,475.2,68,475.2 M75.2,461.5c-7.6,0-12.5-5.1-12.5-12.2c0-7.1,4.9-12.2,12.5-12.2c7.6,0,12.5,5.1,12.5,12.2
			C87.7,456.4,82.8,461.5,75.2,461.5 M141.5,475.3c16.8,0,27.8-7.3,27.8-22.6c0-11.6-6.5-17.3-17.6-20.4l-9.7-2.7
			c-6.8-1.9-9.2-6-9.2-10.1c0-4.2,2.7-7.6,7.9-7.6c5.4,0,8.3,3.6,8.3,10.4h18.6c0-15.5-10.1-24.4-26.8-24.4
			c-15.5,0-26.8,7.4-26.8,22c0,11.5,7,17.7,18,21l8.5,2.5c7.3,2.2,9.8,5.2,9.8,9.5c0,5.1-3.1,8-8.6,8c-6.5,0-9.8-4.9-9.8-11.8h-18.7
			C113.2,465.9,123.5,475.3,141.5,475.3 M213.5,475.3c17.7,0,31.7-9.4,36.6-26h-20.4c-2.1,7.3-8,10.7-16.2,10.7
			c-10.4,0-17.4-5.7-18.9-18h55.6c0.1-1.6,0.3-5.1,0.3-6.7c0-19-12.3-37.3-37.2-37.3c-22.9,0-38.1,16.4-38.1,38.7
			C175.2,458.9,190,475.3,213.5,475.3 M194.7,430.2c1.6-11.5,7.9-17.1,18.3-17.1c11,0,17.1,6.2,18.3,17.1H194.7z M284.7,475.3
			c16.8,0,27.8-7.3,27.8-22.6c0-11.6-6.5-17.3-17.6-20.4l-9.7-2.7c-6.8-1.9-9.2-6-9.2-10.1c0-4.2,2.7-7.6,7.9-7.6
			c5.4,0,8.3,3.6,8.3,10.4h18.6c0-15.5-10.1-24.4-26.8-24.4c-15.5,0-26.8,7.4-26.8,22c0,11.5,7,17.7,18,21l8.5,2.5
			c7.3,2.2,9.8,5.2,9.8,9.5c0,5.1-3.1,8-8.6,8c-6.5,0-9.8-4.9-9.8-11.8h-18.7C256.5,465.9,266.7,475.3,284.7,475.3 M339.9,473.8h9.5
			l6.8-15.2h-9.7c-4.8,0-7.4-2.7-7.4-7.4v-36.6h15.6v-15.2h-27.5c7.9-2.1,12.5-8.6,12.5-17.7h-19v72.8
			C320.8,467,327.4,473.8,339.9,473.8"/>
	</g>
</g>
</svg>
