<?xml version="1.0" encoding="utf-8"?>
<!-- Generator: Adobe Illustrator 14.0.0, SVG Export Plug-In . SVG Version: 6.00 Build 43363)  -->
<!DOCTYPE svg PUBLIC "-//W3C//DTD SVG 1.1//EN" "http://www.w3.org/Graphics/SVG/1.1/DTD/svg11.dtd">
<svg version="1.1" id="Calque_1" xmlns="http://www.w3.org/2000/svg" xmlns:xlink="http://www.w3.org/1999/xlink" x="0px" y="0px"
	 width="595.275px" height="311.984px" viewBox="0 0 595.275 311.984" enable-background="new 0 0 595.275 311.984"
	 xml:space="preserve">
<g>
	<path d="M307.74,281.668c-1.603-0.67-3.389-1.069-5.174-1.069c-1.747,0-3.993,0.748-3.993,3.467c0,4.313,11.13,2.488,11.13,10.848
		c0,5.457-4.399,7.525-9.534,7.525c-2.772,0-4-0.354-6.515-0.959l0.473-4.498c1.753,0.926,3.756,1.529,5.753,1.529
		c1.931,0,4.504-0.959,4.504-3.211c0-4.74-11.13-2.776-11.13-11.023c0-5.568,4.406-7.604,8.885-7.604
		c2.188,0,4.216,0.289,6.073,0.895"/>
	<polyline points="322.081,281.032 314.799,281.032 314.799,277.105 334.445,277.105 334.445,281.032 327.17,281.032 
		327.17,302.018 322.081,302.018 	"/>
	<path d="M340.382,277.105h5.496c5.463,0,11.978-0.179,11.978,6.75c0,2.922-2.004,5.345-5.246,5.777v0.065
		c1.386,0.112,2.187,1.472,2.697,2.567l4.071,9.752h-5.673l-3.062-7.788c-0.729-1.853-1.385-2.567-3.531-2.567h-1.636v10.355h-5.096
		 M345.478,287.736h1.682c2.502,0,5.385-0.354,5.385-3.46c0-2.995-2.844-3.244-5.385-3.244h-1.682V287.736z"/>
	<path d="M373.456,277.105h5.759l9.968,24.913h-5.641l-2.18-5.721H371.06l-2.226,5.721h-5.273 M376.26,282.102h-0.064l-3.678,10.275
		h7.428L376.26,282.102z"/>
	<path d="M409.236,281.668c-1.608-0.67-3.383-1.069-5.168-1.069c-1.753,0-4.006,0.748-4.006,3.467
		c0,4.313,11.137,2.488,11.137,10.848c0,5.457-4.405,7.525-9.534,7.525c-2.771,0-3.999-0.354-6.514-0.959l0.479-4.498
		c1.747,0.926,3.749,1.529,5.745,1.529c1.931,0,4.512-0.959,4.512-3.211c0-4.74-11.144-2.776-11.144-11.023
		c0-5.568,4.413-7.604,8.885-7.604c2.188,0,4.229,0.289,6.087,0.895"/>
	<path d="M418.954,277.105h8.871c3.276,0,8.202,0.926,8.202,6.389c0,2.962-2.043,5.023-5.063,5.556v0.085
		c3.454,0.315,5.831,2.602,5.831,5.667c0,6.283-5.759,7.218-8.97,7.218h-8.871 M424.05,298.09h2.403
		c2.356,0,5.232-0.569,5.232-3.467c0-3.243-2.686-3.742-5.232-3.742h-2.403V298.09z M424.05,287.165h2.075
		c2.147,0,4.807-0.467,4.807-3.033c0-2.896-2.594-3.1-4.925-3.1h-1.957V287.165L424.05,287.165z"/>
	<path d="M455.522,276.671c7.972,0,12.448,5.279,12.448,12.817c0,7.525-4.404,12.949-12.448,12.949
		c-8.149,0-12.438-5.312-12.438-12.949S447.445,276.671,455.522,276.671 M455.522,298.51c5.206,0,7.138-4.53,7.138-9.021
		c0-4.393-2.082-8.891-7.138-8.891c-5.058,0-7.132,4.498-7.132,8.891C448.392,293.98,450.322,298.51,455.522,298.51"/>
	<path d="M475.576,277.105h5.095v14.38c0,4.249,1.379,7.026,5.279,7.026c3.895,0,5.28-2.777,5.28-7.026v-14.38h5.089v15.902
		c0,6.686-3.861,9.431-10.369,9.431c-6.521,0-10.374-2.745-10.374-9.431"/>
	<path d="M504.724,277.105h5.496c5.462,0,11.971-0.179,11.971,6.75c0,2.922-1.996,5.345-5.232,5.777v0.065
		c1.385,0.112,2.18,1.472,2.686,2.567l4.084,9.752h-5.68l-3.055-7.788c-0.729-1.853-1.385-2.567-3.538-2.567h-1.635v10.355h-5.097
		 M509.819,287.736h1.675c2.514,0,5.383-0.354,5.383-3.46c0-2.995-2.836-3.244-5.383-3.244h-1.675V287.736L509.819,287.736z"/>
	<path d="M550.365,281.918c-1.969-0.887-4.519-1.319-6.553-1.319c-5.937,0-9.205,3.927-9.205,9.034c0,5.069,3.196,8.878,8.62,8.878
		c1.386,0,2.476-0.138,3.349-0.349v-6.5h-5.383v-3.927h10.256v13.421c-2.691,0.717-5.49,1.281-8.222,1.281
		c-8.229,0-13.94-4.032-13.94-12.45c0-8.529,5.32-13.316,13.94-13.316c2.947,0,5.279,0.4,7.459,1.044"/>
	<path d="M159.131,208.139h-23.56v-20.271c-9.429,14.38-26.219,22.147-46.844,22.147c-32.398,0-48.597-13.435-48.597-45.241V95.487
		h23.566v63.635c0,24.734,9.127,39.345,35.642,39.345c30.041,0,36.233-21.201,36.233-37.934V95.487h23.56"/>
	<path d="M159.131,208.139v2.547h-26.108v-22.817h2.548l2.134,1.398c-9.988,15.228-27.75,23.322-48.979,23.298
		c-16.521,0-29.365-3.402-38.164-11.354c-8.799-7.965-13.001-20.146-12.981-36.437V92.939h28.662v66.183
		c-0.007,12.082,2.266,21.294,7.289,27.322c2.521,3.027,5.739,5.352,9.961,6.973c4.209,1.622,9.442,2.502,15.844,2.502
		c14.446-0.053,22.457-4.943,27.316-11.629c4.839-6.717,6.376-15.692,6.369-23.757V92.939h28.662v117.747h-2.554L159.131,208.139
		h-2.549V98.041h-18.464v62.492c-0.007,8.668-1.562,18.655-7.328,26.726c-5.752,8.104-15.851,13.81-31.453,13.757
		c-6.855,0-12.712-0.934-17.67-2.838c-7.44-2.822-12.758-7.911-15.982-14.622c-3.244-6.704-4.531-14.926-4.538-24.434V98.041h-18.47
		v66.734c0.02,15.517,3.913,25.95,11.307,32.654c7.414,6.724,18.858,10.039,34.742,10.039c20.014-0.025,35.833-7.479,44.717-21
		l4.675-7.131v26.246h21.012L159.131,208.139h-2.549H159.131"/>
	<path d="M274.915,300.1h-23.56V95.487h23.56v23.803h0.591c5.01-8.011,14.137-25.222,49.78-25.222
		c37.999,0,59.215,25.694,59.215,53.969c0,38.656-25.931,61.979-63.628,61.979c-21.209,0-35.656-8.004-45.367-22.627h-0.591
		 M318.214,200.122c29.752,0,40.356-23.803,40.356-51.139c0-23.094-8.832-46.897-40.646-46.897c-34.178,0-43.01,30.875-43.01,52.787
		C274.915,180.087,288.172,200.122,318.214,200.122"/>
	<path d="M274.915,300.1v2.548h-26.114V92.939h28.662v26.351h-2.547v-2.548h0.591v2.548l-2.167-1.34
		c2.462-3.933,6.245-10.716,14.079-16.343c7.833-5.654,19.653-10.093,37.869-10.086c19.567-0.007,35.097,6.65,45.647,17.118
		c10.56,10.46,16.114,24.624,16.114,39.396c0.014,19.884-6.718,36.155-18.472,47.331c-11.74,11.188-28.34,17.203-47.704,17.197
		c-10.92,0-20.264-2.068-28.157-6.107c-7.893-4.038-14.275-10.04-19.331-17.649l2.121-1.418v2.555h-0.591v-2.555h2.547v115.259
		h-2.547L274.915,300.1h-2.547v-115.26h4.511l0.749,1.144c4.662,7,10.355,12.312,17.414,15.937c7.066,3.611,15.543,5.55,25.833,5.55
		c18.333-0.008,33.541-5.654,44.191-15.792c10.631-10.146,16.868-24.874,16.882-43.642c0-13.507-5.049-26.316-14.598-35.772
		c-9.561-9.448-23.639-15.627-42.062-15.635c-17.428,0.008-27.993,4.163-34.888,9.114c-6.901,4.983-10.178,10.814-12.726,14.898
		l-0.749,1.201h-4.557V98.041h-18.464v199.505h21.012L274.915,300.1h-2.547H274.915 M318.214,200.122v-2.548
		c14.203-0.06,23.245-5.503,29.233-14.203c5.955-8.727,8.582-21.038,8.575-34.388c0.007-11.235-2.188-22.472-7.933-30.646
		c-5.766-8.147-14.88-13.65-30.166-13.704c-8.162,0.008-14.643,1.832-19.87,4.826c-7.827,4.498-12.956,11.741-16.167,20.008
		c-3.211,8.241-4.432,17.447-4.426,25.405c0,12.181,3.205,22.857,9.765,30.409c6.56,7.551,16.514,12.266,30.987,12.292v5.095
		c-15.568,0.027-27.264-5.271-34.841-14.045c-7.584-8.76-11.005-20.71-11.005-33.751c0.013-11.287,2.232-24.88,9.068-35.95
		c3.421-5.528,8.038-10.407,14.079-13.875c6.048-3.479,13.487-5.516,22.411-5.51c16.527-0.052,27.736,6.356,34.35,15.878
		c6.618,9.488,8.838,21.708,8.845,33.567c-0.007,13.985-2.673,27.25-9.455,37.25c-6.757,10.034-17.894,16.495-33.449,16.436
		L318.214,200.122L318.214,200.122z"/>
	<polyline points="293.104,234.594 298.127,234.594 298.127,256.572 307.853,256.572 307.853,260.689 293.104,260.689 	"/>
	<path d="M322.102,234.141c7.859,0,12.278,5.534,12.278,13.422c0,7.887-4.354,13.579-12.278,13.579
		c-8.044,0-12.272-5.575-12.272-13.579C309.828,239.572,314.136,234.141,322.102,234.141 M322.102,257.025
		c5.129,0,7.032-4.754,7.032-9.462c0-4.604-2.049-9.306-7.032-9.306c-4.99,0-7.039,4.701-7.039,9.306
		C315.062,252.271,316.966,257.025,322.102,257.025"/>
	<path d="M338.779,234.594h5.029v15.07c0,4.445,1.359,7.36,5.2,7.36c3.842,0,5.2-2.915,5.2-7.36v-15.07h5.03v16.673
		c0,6.985-3.802,9.876-10.23,9.876c-6.428,0-10.229-2.891-10.229-9.876"/>
	<rect x="364.44" y="234.601" width="5.029" height="26.088"/>
	<path d="M388.296,239.375c-1.575-0.716-3.335-1.116-5.095-1.116c-1.721,0-3.946,0.781-3.946,3.625
		c0,4.519,10.979,2.613,10.979,11.366c0,5.721-4.342,7.894-9.396,7.894c-2.73,0-3.946-0.381-6.429-1.019l0.467-4.708
		c1.727,0.979,3.696,1.608,5.673,1.608c1.904,0,4.452-1.011,4.452-3.368c0-4.971-10.992-2.916-10.992-11.551
		c0-5.83,4.348-7.965,8.768-7.965c2.146,0,4.161,0.303,5.987,0.938"/>
	<path d="M404.331,234.594h6.35c5.457,0,10.447,1.643,10.447,7.888c0,6.094-4.274,8.3-9.659,8.3h-2.113v9.908h-5.023
		 M409.354,246.67h1.768c2.502,0,4.761-0.867,4.761-3.895c0-3.028-2.188-4.064-4.761-4.064h-1.768V246.67z"/>
	<path d="M429.23,234.594h5.674l9.836,26.096h-5.562l-2.16-5.981h-10.15l-2.193,5.981h-5.2 M431.988,239.828h-0.065l-3.625,10.77
		h7.322L431.988,239.828z"/>
	<path d="M461.419,239.375c-1.576-0.716-3.336-1.116-5.096-1.116c-1.722,0-3.946,0.781-3.946,3.625
		c0,4.519,10.979,2.613,10.979,11.366c0,5.721-4.341,7.894-9.396,7.894c-2.732,0-3.947-0.381-6.429-1.019l0.466-4.708
		c1.728,0.979,3.697,1.608,5.674,1.608c1.904,0,4.452-1.011,4.452-3.368c0-4.971-10.986-2.916-10.986-11.551
		c0-5.83,4.342-7.965,8.761-7.965c2.146,0,4.162,0.303,5.994,0.938"/>
	<polyline points="472.47,238.711 465.293,238.711 465.293,234.594 484.67,234.594 484.67,238.711 477.5,238.711 477.5,260.689 
		472.47,260.689 	"/>
	<polyline points="487.868,234.594 502.655,234.594 502.655,238.711 492.892,238.711 492.892,245.14 501.828,245.14 
		501.828,249.244 492.892,249.244 492.892,256.572 502.728,256.572 502.728,260.689 487.868,260.689 	"/>
	<path d="M507.633,234.594h5.023v15.07c0,4.445,1.365,7.36,5.213,7.36c3.834,0,5.193-2.915,5.193-7.36v-15.07h5.022v16.673
		c0,6.985-3.801,9.876-10.217,9.876c-6.428,0-10.236-2.891-10.236-9.876"/>
	<path d="M533.287,234.594h5.416c5.385,0,11.813-0.189,11.813,7.06c0,3.073-1.977,5.614-5.168,6.061v0.072
		c1.371,0.112,2.154,1.537,2.652,2.692l4.025,10.211h-5.603l-3.014-8.155c-0.715-1.938-1.359-2.686-3.48-2.686h-1.614v10.841h-5.029
		 M538.316,245.738h1.653c2.478,0,5.312-0.381,5.312-3.632c0-3.132-2.804-3.396-5.312-3.396h-1.653V245.738z"/>
	<polyline fill="#FFFFFF" points="354.046,65.091 503.745,15.778 551.26,160.868 401.475,209.918 	"/>
	<polyline fill="#FFFFFF" points="354.046,65.091 352.457,60.251 507.002,9.336 557.693,164.125 398.218,216.353 347.624,61.834 
		352.457,60.251 354.046,65.091 358.893,63.502 404.731,203.483 544.83,157.611 500.495,22.219 355.648,69.93 354.046,65.091 
		358.893,63.502 354.046,65.091 	"/>
	<polyline fill="#005A9C" points="400.161,206.379 401.271,209.78 551.049,160.73 547.602,150.198 450.67,182.241 422.1,198.939 	
		"/>
	<polyline fill="#005A9C" points="541.16,130.531 544.344,140.256 449.646,171.571 421.923,192.898 398.283,200.66 394.192,188.17 
		422.054,179.07 449.698,160.815 	"/>
	<polyline fill="#005A9C" points="426.322,157.584 388.29,170.139 392.164,181.979 424.26,171.44 451.53,150.946 538.428,122.185 
		535.086,111.988 453.775,138.876 	"/>
	<polyline fill="#005A9C" points="529.012,93.431 532.551,104.252 455.627,129.737 427.878,149.81 386.123,163.507 382.367,152.062 
		433.026,135.515 459.396,116.361 	"/>
	<polyline fill="#005A9C" points="434.654,127.15 463.304,107.195 526.682,86.314 522.959,74.941 470.9,92.066 442.035,112.619 
		376.477,134.077 380.029,144.912 	"/>
	<polyline fill="#005A9C" points="520.785,68.302 516.877,56.391 493.548,64.146 455.739,88.231 370.58,116.072 374.008,126.526 
		447.505,102.131 476.416,82.696 	"/>
	<polyline fill="#005A9C" points="477.907,61.9 512.123,41.86 514.889,50.304 497.12,56.351 463.566,76.562 367.862,107.766 
		364.703,98.113 	"/>
	<polyline fill="#005A9C" points="508.585,31.044 510.384,36.547 494.474,46.981 361.683,88.894 358.774,79.997 	"/>
	<polyline fill="#005A9C" points="353.843,64.954 356.443,72.885 506.228,23.855 503.549,15.66 	"/>
	<polyline points="193.565,26.599 193.565,208.139 217.072,208.139 217.072,18.726 	"/>
	<polyline points="193.565,26.599 196.119,26.599 196.119,205.584 214.524,205.584 214.524,22.265 194.373,29.009 193.565,26.599 
		196.119,26.599 193.565,26.599 192.757,24.183 219.62,15.187 219.62,210.686 191.017,210.686 191.017,24.767 192.757,24.183 
		193.565,26.599 	"/>
	<path d="M37.582,234.594h5.023v15.07c0,4.445,1.359,7.36,5.194,7.36c3.848,0,5.213-2.915,5.213-7.36v-15.07h5.023v16.673
		c0,6.985-3.809,9.876-10.237,9.876c-6.416,0-10.217-2.891-10.217-9.876"/>
	<polyline points="63.775,234.594 69.94,234.594 79.488,254.11 79.56,254.11 79.56,234.594 84.374,234.594 84.374,260.689 
		78.234,260.689 68.647,241.174 68.575,241.174 68.575,260.689 63.775,260.689 	"/>
	<rect x="89.856" y="234.601" width="5.03" height="26.088"/>
	<polyline points="98.077,234.594 103.455,234.594 109.883,255.075 109.949,255.075 116.305,234.594 121.289,234.594 
		112.858,260.689 106.686,260.689 	"/>
	<polyline points="124.914,234.594 139.701,234.594 139.701,238.711 129.937,238.711 129.937,245.14 138.874,245.14 
		138.874,249.244 129.937,249.244 129.937,256.572 139.767,256.572 139.767,260.689 124.914,260.689 	"/>
	<path d="M144.79,234.594h5.424c5.378,0,11.806-0.189,11.806,7.06c0,3.073-1.977,5.614-5.174,6.061v0.072
		c1.366,0.112,2.161,1.537,2.66,2.692l4.019,10.211h-5.595l-3.021-8.155c-0.709-1.938-1.359-2.686-3.48-2.686h-1.616v10.841h-5.023
		 M149.813,245.738h1.648c2.482,0,5.312-0.381,5.312-3.632c0-3.132-2.791-3.396-5.312-3.396h-1.648V245.738z"/>
	<path d="M180.958,239.375c-1.576-0.716-3.336-1.116-5.096-1.116c-1.714,0-3.946,0.781-3.946,3.625
		c0,4.519,10.979,2.613,10.979,11.366c0,5.721-4.34,7.894-9.396,7.894c-2.725,0-3.946-0.381-6.422-1.019l0.459-4.708
		c1.727,0.979,3.704,1.608,5.673,1.608c1.904,0,4.452-1.011,4.452-3.368c0-4.971-10.992-2.916-10.992-11.551
		c0-5.83,4.347-7.965,8.766-7.965c2.147,0,4.17,0.303,5.995,0.938"/>
	<rect x="187.379" y="234.601" width="5.036" height="26.088"/>
	<polyline points="202.699,238.711 195.521,238.711 195.521,234.594 214.905,234.594 214.905,238.711 207.728,238.711 
		207.728,260.689 202.699,260.689 	"/>
	<path d="M225.556,227.45h4.918l-4.918,5.457h-2.975 M218.451,234.594h14.788v4.117h-9.765v6.43h8.937v4.104h-8.937v7.328h9.836
		v4.117h-14.859V234.594z"/>
</g>
</svg>
