<?xml version="1.0" encoding="utf-8"?>
<!-- Generator: Adobe Illustrator 16.0.0, SVG Export Plug-In . SVG Version: 6.00 Build 0)  -->
<!DOCTYPE svg PUBLIC "-//W3C//DTD SVG 1.1//EN" "http://www.w3.org/Graphics/SVG/1.1/DTD/svg11.dtd">
<svg version="1.1" id="Calque_1" xmlns="http://www.w3.org/2000/svg" xmlns:xlink="http://www.w3.org/1999/xlink" x="0px" y="0px"
	 width="163.134px" height="59.459px" viewBox="0 0 163.134 59.459" enable-background="new 0 0 163.134 59.459"
	 xml:space="preserve">
<g>
	<defs>
		<rect id="SVGID_1_" width="163.134" height="59.459"/>
	</defs>
	<clipPath id="SVGID_2_">
		<use xlink:href="#SVGID_1_"  overflow="visible"/>
	</clipPath>
	<path clip-path="url(#SVGID_2_)" fill="#04BAEE" d="M15.27,28.348c-0.208,1.018-0.318,2.073-0.318,3.155
		c0,0.811,0.062,1.607,0.18,2.383c0.049,0.32,0.111,0.635,0.179,0.945c0.125,0.574,0.28,1.137,0.466,1.686
		c0.107,0.312,0.221,0.623,0.346,0.928c0.041,0.1,0.083,0.199,0.126,0.297c2.411,5.539,7.929,9.412,14.355,9.412v-2.711
		c-7.069,0-12.81-5.67-12.934-12.951h12.934V18.563V15.85c-0.27,0-0.539,0.007-0.805,0.021
		C22.596,16.235,16.677,21.471,15.27,28.348 M27.833,28.79l-4.855-0.021l-4.984,0.021c0.966-5.082,4.804-8.828,9.839-9.927V28.79z"
		/>
	<path clip-path="url(#SVGID_2_)" fill="#04BAEE" d="M43.536,28.79h-7.099l-0.002,2.722h7.194
		c-0.115,6.908-5.043,11.197-9.55,12.451V19.041c1.616,0.447,3.103,1.207,4.398,2.201V17.98c-2.123-1.24-4.561-1.997-7.168-2.113
		v0.541v2.174V44.42v1.801v0.916c8.24-0.367,14.821-7.104,14.94-15.404l-0.142-2.951C46.107,28.783,45.417,28.79,43.536,28.79"/>
	<path clip-path="url(#SVGID_2_)" fill="#0071BA" d="M29.543,10.848C29.889,10.829,29.185,10.848,29.543,10.848"/>
	<path clip-path="url(#SVGID_2_)" fill="#0071BA" d="M29.671,13.359c0.307-0.017,0.618-0.024,0.933-0.024v-2.527l-1.061,0.039
		c-9.415,0.478-17.311,7.261-19.201,16.495c-0.279,1.366-0.42,2.766-0.42,4.161c0,1.045,0.08,2.105,0.24,3.15
		c0.064,0.418,0.143,0.828,0.234,1.246c0.163,0.756,0.372,1.506,0.617,2.229c0.141,0.414,0.291,0.82,0.466,1.25l0.159,0.371
		c1.253,2.881,3.113,5.373,5.389,7.354l4.256-0.008c-3.192-1.908-5.791-4.791-7.34-8.35l-0.148-0.35
		c-0.144-0.352-0.276-0.711-0.4-1.072c-0.215-0.635-0.398-1.293-0.542-1.957c-0.078-0.365-0.15-0.727-0.206-1.096
		c-0.139-0.916-0.209-1.842-0.21-2.758h1.878c0-0.004-0.001-0.008-0.001-0.01c0-0.912,0.094-1.818,0.237-2.712h-1.889
		c0.048-0.316,0.08-0.634,0.144-0.945C14.466,19.734,21.401,13.778,29.671,13.359"/>
	<path clip-path="url(#SVGID_2_)" fill="#0071BA" d="M50.095,29.739c0-2.074,0.178-4.017,0.537-5.825
		c0.357-1.809,0.898-3.588,1.628-5.343c0.729-1.752,1.63-3.508,2.702-5.269c0.646-1.073,1.219-1.82,1.629-2.319
		c0.424-0.517,0.875-1.062,1.493-1.062c0.673,0,1.011,0.185,1.011,0.557c0,0.124-0.317,0.87-0.95,2.237
		c-0.633,1.369-1.226,2.802-1.782,4.3c-0.558,1.5-1.074,3.369-1.547,5.611c-0.475,2.239-0.713,4.61-0.713,7.113
		c0,2.475,0.234,4.82,0.701,7.035c0.467,2.211,1.13,4.129,1.728,5.754c0.598,1.621,1.066,3.076,1.666,4.361
		c0.597,1.285,0.897,1.982,0.897,2.092c0,0.371-0.338,0.557-1.011,0.557c-0.633,0-1.066-0.633-1.493-1.111
		c-0.426-0.482-0.969-1.252-1.629-2.312c-1.086-1.812-1.984-3.562-2.692-5.246c-0.709-1.686-1.246-3.436-1.618-5.25
		S50.095,31.844,50.095,29.739"/>
	<path clip-path="url(#SVGID_2_)" fill="#FAB900" d="M75.661,40.397c0,0-0.171,0.072-0.171,0.148v2.146v0.912v1.182
		c0,0.076,0.172,0.15,0.172,0.15s0.172-0.07,0.172-0.15v-1.182v-0.912v-2.146C75.833,40.469,75.661,40.397,75.661,40.397"/>
	<path clip-path="url(#SVGID_2_)" fill="#FAB900" d="M75.635,40.454l0.025-0.057L75.635,40.454z M75.551,44.788
		c0.001,0.002,0.004,0.006,0.01,0.014c0.012,0.012,0.028,0.025,0.047,0.035c0.02,0.014,0.04,0.025,0.054,0.033
		c0.01-0.008,0.024-0.012,0.037-0.021c0.034-0.02,0.067-0.049,0.072-0.061l0.002-0.002v-1.18V42.69v-2.143
		c-0.002,0-0.002-0.002-0.002-0.002c-0.002-0.004-0.005-0.008-0.01-0.014c-0.01-0.012-0.029-0.025-0.047-0.037
		c-0.021-0.012-0.04-0.023-0.052-0.031c-0.013,0.006-0.027,0.014-0.041,0.021c-0.032,0.02-0.066,0.049-0.07,0.059
		c-0.002,0.002,0,0.002,0,0.002v2.145v0.916v1.18V44.788z M75.639,44.991c-0.004,0-0.048-0.016-0.097-0.049
		c-0.045-0.033-0.109-0.07-0.114-0.156v-1.18V42.69v-2.145c0.005-0.086,0.069-0.121,0.113-0.154
		c0.048-0.031,0.093-0.049,0.094-0.049l0.025-0.012l0.023,0.012c0.003,0,0.048,0.018,0.095,0.049
		c0.046,0.033,0.109,0.068,0.116,0.154v2.145v0.916v1.18c-0.007,0.086-0.07,0.123-0.114,0.156c-0.048,0.033-0.094,0.049-0.094,0.049
		l-0.024,0.012L75.639,44.991z"/>
	<path clip-path="url(#SVGID_2_)" fill="#FAB900" d="M74.111,42.254c0,0-0.022,0.186,0.045,0.225l1.022,0.588
		c0.413,0.24,0.792,0.459,0.792,0.459l1.024,0.59c0.066,0.039,0.215-0.074,0.215-0.074s0.024-0.184-0.044-0.223l-1.022-0.592
		c0,0-0.379-0.219-0.793-0.457l-1.023-0.59C74.263,42.141,74.111,42.254,74.111,42.254"/>
	<path clip-path="url(#SVGID_2_)" fill="#FAB900" d="M77.027,44.063c0.016,0.004,0.058-0.014,0.09-0.033
		c0.012-0.008,0.025-0.016,0.034-0.021c0.002-0.01,0.002-0.023,0.002-0.035c0.001-0.043-0.011-0.098-0.016-0.102h-0.002l-1.022-0.59
		c0,0-0.38-0.221-0.793-0.459l-1.022-0.588h-0.003c-0.014-0.002-0.057,0.014-0.089,0.031c-0.014,0.01-0.025,0.016-0.036,0.023
		c0,0.008-0.001,0.021-0.001,0.035c-0.001,0.043,0.012,0.096,0.018,0.102v-0.002l1.022,0.592c0.413,0.236,0.791,0.455,0.794,0.457
		l1.021,0.59H77.027z M76.963,44.168l-1.02-0.59c0,0-0.383-0.219-0.794-0.457l-1.024-0.59c-0.043-0.027-0.056-0.07-0.067-0.105
		c-0.009-0.035-0.011-0.07-0.011-0.102c0-0.043,0.005-0.076,0.005-0.076l0.002-0.027l0.023-0.014
		c0.005-0.002,0.106-0.09,0.218-0.096c0.021,0,0.042,0.004,0.064,0.016l1.022,0.59c0.414,0.238,0.794,0.457,0.792,0.457l1.022,0.59
		c0.044,0.027,0.061,0.068,0.07,0.104c0.007,0.037,0.01,0.074,0.01,0.105c0,0.043-0.004,0.074-0.004,0.076l-0.002,0.025
		l-0.021,0.016c-0.006,0.002-0.107,0.09-0.221,0.094C77.008,44.184,76.986,44.18,76.963,44.168"/>
	<path clip-path="url(#SVGID_2_)" fill="#FAB900" d="M77.21,42.254c0,0,0.023,0.186-0.043,0.225l-1.024,0.588
		c-0.412,0.24-0.793,0.459-0.793,0.459l-1.023,0.59c-0.065,0.039-0.216-0.074-0.216-0.074s-0.022-0.184,0.045-0.223l1.022-0.592
		c0,0,0.38-0.219,0.794-0.457l1.022-0.59C77.061,42.141,77.21,42.254,77.21,42.254"/>
	<path clip-path="url(#SVGID_2_)" fill="#FAB900" d="M74.207,44.03c0.032,0.02,0.074,0.035,0.088,0.033h0.004l1.021-0.588
		c0.001-0.004,0.38-0.223,0.793-0.459l1.022-0.59c0.002,0,0.002-0.002,0.004-0.004c0.001-0.004,0.004-0.014,0.007-0.021
		c0.005-0.023,0.007-0.051,0.007-0.076c0-0.014,0-0.025-0.002-0.037c-0.009-0.006-0.021-0.012-0.034-0.02
		c-0.033-0.021-0.074-0.037-0.089-0.035h-0.004l-1.021,0.59c-0.414,0.24-0.793,0.459-0.794,0.459l-1.021,0.59
		c0,0-0.001,0-0.004,0.002c-0.001,0.004-0.003,0.014-0.007,0.023c-0.005,0.02-0.008,0.049-0.008,0.076
		c0,0.012,0.001,0.025,0.001,0.035C74.181,44.014,74.192,44.022,74.207,44.03 M74.295,44.184c-0.112-0.004-0.213-0.094-0.218-0.094
		l-0.023-0.016l-0.002-0.025c0-0.002-0.005-0.033-0.005-0.076c0-0.031,0.002-0.068,0.011-0.105c0.009-0.035,0.024-0.076,0.067-0.104
		l1.024-0.588c0,0,0.38-0.221,0.792-0.457l1.022-0.592c0.023-0.014,0.045-0.018,0.065-0.018c0.113,0.006,0.214,0.096,0.22,0.098
		l-0.037,0.047l0.037-0.047l0.021,0.016l0.002,0.023c0,0.002,0.004,0.035,0.004,0.078c0,0.031-0.003,0.066-0.01,0.104
		c-0.009,0.035-0.026,0.074-0.067,0.102l-1.023,0.592c-0.413,0.236-0.794,0.457-0.794,0.457l-1.022,0.59
		c-0.022,0.012-0.043,0.016-0.061,0.016H74.295z"/>
	<path clip-path="url(#SVGID_2_)" fill="#1D1D1B" d="M65.812,40.28l-0.924,2.861h1.845L65.812,40.28z M68.006,44.963h-0.674
		l-0.428-1.24h-2.194l-0.419,1.24h-0.675l1.746-5.162h0.897L68.006,44.963z"/>
	<path clip-path="url(#SVGID_2_)" fill="#1D1D1B" d="M68.841,41.186h0.653v3.777h-0.653V41.186z M68.841,39.645h0.653v0.939h-0.653
		V39.645z"/>
	<polygon clip-path="url(#SVGID_2_)" fill="#1D1D1B" points="70.253,44.963 71.494,43.065 70.275,41.188 70.951,41.188 
		71.85,42.575 72.75,41.188 73.423,41.188 72.201,43.065 73.447,44.963 72.767,44.963 71.85,43.561 70.943,44.963 	"/>
	<polygon clip-path="url(#SVGID_2_)" fill="#1D1D1B" points="78.851,40.776 78.752,44.963 78.107,44.963 78.286,39.801 
		79.131,39.801 80.619,43.793 82.108,39.801 82.953,39.801 83.13,44.963 82.487,44.963 82.388,40.776 81.069,44.297 80.17,44.297 	
		"/>
	<path clip-path="url(#SVGID_2_)" fill="#1D1D1B" d="M86.027,43.438h-0.962c-0.403,0-0.551,0.123-0.551,0.502
		c0,0.389,0.069,0.543,0.535,0.543c0.325,0,0.688-0.123,0.978-0.311V43.438z M86.676,44.963h-0.55l-0.038-0.279
		c-0.333,0.232-0.769,0.357-1.224,0.357c-0.707,0-1.002-0.42-1.002-1.086c0-0.783,0.396-1.062,1.155-1.062h1.009v-0.59
		c0-0.471-0.211-0.635-0.822-0.635c-0.365,0-0.719,0.037-1.012,0.098l-0.07-0.518c0.356-0.094,0.717-0.141,1.121-0.141
		c1.076,0,1.433,0.42,1.433,1.229V44.963z"/>
	<path clip-path="url(#SVGID_2_)" fill="#1D1D1B" d="M89.42,41.708c-0.356,0.17-0.769,0.436-1.078,0.652v2.604h-0.651v-3.775h0.567
		l0.037,0.527c0.279-0.217,0.668-0.449,1.041-0.605L89.42,41.708z"/>
	<path clip-path="url(#SVGID_2_)" fill="#1D1D1B" d="M91.126,45.042c-0.388,0-0.899-0.086-1.201-0.201l0.084-0.514
		c0.324,0.094,0.754,0.156,1.078,0.156c0.597,0,0.698-0.107,0.698-0.514c0-0.4-0.032-0.447-0.792-0.633
		c-0.939-0.234-1.023-0.428-1.023-1.211c0-0.697,0.312-1.018,1.303-1.018c0.365,0,0.761,0.049,1.072,0.133l-0.049,0.535
		c-0.317-0.061-0.735-0.107-1.047-0.107c-0.558,0-0.635,0.133-0.635,0.475c0,0.416,0.008,0.494,0.643,0.648
		c1.088,0.271,1.172,0.402,1.172,1.156C92.429,44.684,92.204,45.042,91.126,45.042"/>
	<path clip-path="url(#SVGID_2_)" fill="#1D1D1B" d="M93.85,42.784h1.623v-0.309c0-0.527-0.179-0.822-0.792-0.822
		c-0.611,0-0.831,0.295-0.831,0.822V42.784z M94.751,44.483c0.371,0,0.781-0.07,1.193-0.18l0.086,0.521
		c-0.357,0.131-0.861,0.217-1.334,0.217c-1.117,0-1.496-0.535-1.496-1.387V42.52c0-0.781,0.355-1.41,1.48-1.41
		c1.117,0,1.419,0.643,1.419,1.428v0.791h-2.25v0.318C93.85,44.241,94.015,44.483,94.751,44.483"/>
	<path clip-path="url(#SVGID_2_)" fill="#1D1D1B" d="M96.952,41.186h0.652v3.777h-0.652V41.186z M96.952,39.645h0.652v0.939h-0.652
		V39.645z"/>
	<polygon clip-path="url(#SVGID_2_)" fill="#1D1D1B" points="98.846,44.963 98.846,39.645 99.496,39.553 99.496,44.963 	"/>
	<polygon clip-path="url(#SVGID_2_)" fill="#1D1D1B" points="100.738,44.963 100.738,39.645 101.388,39.553 101.388,44.963 	"/>
	<path clip-path="url(#SVGID_2_)" fill="#1D1D1B" d="M102.827,42.784h1.621v-0.309c0-0.527-0.181-0.822-0.791-0.822
		c-0.612,0-0.83,0.295-0.83,0.822V42.784z M103.726,44.483c0.371,0,0.783-0.07,1.195-0.18l0.084,0.521
		c-0.356,0.131-0.861,0.217-1.332,0.217c-1.119,0-1.498-0.535-1.498-1.387V42.52c0-0.781,0.357-1.41,1.481-1.41
		c1.117,0,1.418,0.643,1.418,1.428v0.791h-2.248v0.318C102.827,44.241,102.99,44.483,103.726,44.483"/>
	<path clip-path="url(#SVGID_2_)" fill="#1D1D1B" d="M111.302,39.934v3.598c0,0.818-0.474,1.479-1.772,1.479
		c-1.3,0-1.772-0.66-1.772-1.479v-3.598h0.646v3.559c0,0.615,0.339,0.938,1.127,0.938c0.789,0,1.126-0.322,1.126-0.938v-3.559
		H111.302z"/>
	<path clip-path="url(#SVGID_2_)" fill="#1D1D1B" d="M114.804,44.936v-2.793c0-0.242-0.121-0.34-0.354-0.34
		c-0.271,0-0.832,0.166-1.225,0.367v2.766h-0.631v-3.658h0.51l0.062,0.316c0.404-0.197,1.035-0.391,1.473-0.391
		c0.586,0,0.793,0.367,0.793,0.93v2.803H114.804z"/>
	<path clip-path="url(#SVGID_2_)" fill="#1D1D1B" d="M116.597,41.28h0.632v3.658h-0.632V41.28z M116.597,39.784h0.632v0.908h-0.632
		V39.784z"/>
	<polygon clip-path="url(#SVGID_2_)" fill="#1D1D1B" points="120.527,41.278 121.149,41.278 119.94,44.934 119.099,44.934 
		117.89,41.278 118.514,41.278 119.518,44.417 	"/>
	<path clip-path="url(#SVGID_2_)" fill="#1D1D1B" d="M122.253,42.825h1.57v-0.299c0-0.512-0.174-0.797-0.768-0.797
		s-0.803,0.285-0.803,0.797V42.825z M123.126,44.469c0.358,0,0.756-0.068,1.154-0.172l0.084,0.504
		c-0.348,0.127-0.834,0.209-1.291,0.209c-1.084,0-1.451-0.518-1.451-1.344v-1.098c0-0.758,0.346-1.365,1.434-1.365
		c1.083,0,1.374,0.625,1.374,1.381v0.766h-2.177v0.309C122.253,44.239,122.412,44.469,123.126,44.469"/>
	<path clip-path="url(#SVGID_2_)" fill="#1D1D1B" d="M127.097,41.782c-0.346,0.164-0.744,0.42-1.047,0.631v2.523h-0.629v-3.658
		h0.549l0.037,0.512c0.271-0.211,0.647-0.438,1.009-0.586L127.097,41.782z"/>
	<path clip-path="url(#SVGID_2_)" fill="#1D1D1B" d="M128.75,45.01c-0.377,0-0.873-0.082-1.166-0.195l0.083-0.496
		c0.314,0.09,0.729,0.15,1.044,0.15c0.577,0,0.676-0.104,0.676-0.496c0-0.389-0.03-0.434-0.764-0.615
		c-0.912-0.225-0.993-0.412-0.993-1.17c0-0.676,0.301-0.984,1.262-0.984c0.352,0,0.735,0.045,1.037,0.127l-0.047,0.52
		c-0.307-0.061-0.712-0.105-1.014-0.105c-0.54,0-0.614,0.127-0.614,0.457c0,0.406,0.007,0.479,0.623,0.631
		c1.052,0.264,1.134,0.391,1.134,1.119C130.011,44.665,129.792,45.01,128.75,45.01"/>
	<path clip-path="url(#SVGID_2_)" fill="#1D1D1B" d="M131.033,41.28h0.63v3.658h-0.63V41.28z M131.033,39.784h0.63v0.908h-0.63
		V39.784z"/>
	<path clip-path="url(#SVGID_2_)" fill="#1D1D1B" d="M134.774,44.875c-0.228,0.084-0.499,0.135-0.769,0.135
		c-0.614,0-0.908-0.225-0.908-0.834v-2.373h-0.646v-0.525h0.646v-0.9l0.631-0.092v0.992h1.037l-0.055,0.525h-0.982v2.268
		c0,0.27,0.035,0.406,0.375,0.406c0.172,0,0.355-0.031,0.585-0.09L134.774,44.875z"/>
	<path clip-path="url(#SVGID_2_)" fill="#1D1D1B" d="M136.409,40.446c0.375-0.219,0.767-0.467,1.03-0.684l0.27,0.418
		c-0.347,0.258-0.66,0.453-1.044,0.654L136.409,40.446z M136.077,42.825h1.569v-0.301c0-0.51-0.17-0.795-0.764-0.795
		c-0.595,0-0.806,0.285-0.806,0.795V42.825z M136.95,44.469c0.358,0,0.759-0.068,1.155-0.172l0.084,0.504
		c-0.348,0.127-0.836,0.209-1.293,0.209c-1.082,0-1.447-0.518-1.447-1.344v-1.098c0-0.758,0.345-1.367,1.434-1.367
		c1.082,0,1.373,0.627,1.373,1.383v0.766h-2.179v0.309C136.077,44.237,136.235,44.469,136.95,44.469"/>
	<polygon clip-path="url(#SVGID_2_)" fill="#04BAEE" points="64.568,24.016 64.568,16.731 68.899,16.731 68.899,17.573 
		65.508,17.573 65.508,20.002 68.669,20.002 68.669,20.844 65.508,20.844 65.508,24.016 	"/>
	<path clip-path="url(#SVGID_2_)" fill="#04BAEE" d="M74.094,24.017h-0.778l-0.053-0.394c-0.472,0.327-1.083,0.503-1.73,0.503
		c-0.994,0-1.41-0.591-1.41-1.531c0-1.105,0.558-1.499,1.63-1.499h1.422v-0.831c0-0.667-0.295-0.897-1.16-0.897
		c-0.514,0-1.182,0.089-1.597,0.176l-0.097-0.733c0.501-0.131,1.18-0.229,1.749-0.229c1.52,0,2.024,0.591,2.024,1.728V24.017z
		 M73.175,21.861h-1.357c-0.568,0-0.777,0.174-0.777,0.71c0,0.548,0.099,0.767,0.756,0.767c0.459,0,0.974-0.174,1.378-0.437V21.861z
		"/>
	<path clip-path="url(#SVGID_2_)" fill="#04BAEE" d="M75.493,22.189v-1.674c0-1.224,0.459-1.936,2.122-1.936
		c0.471,0,0.996,0.077,1.268,0.164l-0.076,0.766c-0.416-0.088-0.798-0.121-1.171-0.121c-0.918,0-1.225,0.264-1.225,1.095v1.738
		c0,0.832,0.307,1.094,1.225,1.094c0.373,0,0.755-0.031,1.171-0.12l0.088,0.767c-0.274,0.086-0.809,0.163-1.28,0.163
		C75.908,24.125,75.493,23.414,75.493,22.189"/>
	<path clip-path="url(#SVGID_2_)" fill="#04BAEE" d="M81.267,18.689v4.068c0,0.351,0.175,0.492,0.514,0.492
		c0.394,0,1.214-0.24,1.783-0.535v-4.025h0.918v5.327H83.74l-0.088-0.459c-0.591,0.284-1.51,0.567-2.144,0.567
		c-0.854,0-1.161-0.535-1.161-1.355v-4.08H81.267z"/>
	<polygon clip-path="url(#SVGID_2_)" fill="#04BAEE" points="86.341,24.016 86.341,16.512 87.26,16.381 87.26,24.016 	"/>
	<path clip-path="url(#SVGID_2_)" fill="#04BAEE" d="M91.896,23.929c-0.328,0.12-0.722,0.196-1.115,0.196
		c-0.897,0-1.324-0.327-1.324-1.213v-3.456h-0.939v-0.767h0.939v-1.312l0.92-0.131v1.443h1.51l-0.078,0.767h-1.432v3.303
		c0,0.394,0.055,0.59,0.547,0.59c0.251,0,0.514-0.043,0.854-0.131L91.896,23.929z"/>
	<path clip-path="url(#SVGID_2_)" fill="#04BAEE" d="M95.175,23.338c0.526,0,1.106-0.099,1.687-0.251l0.12,0.731
		c-0.504,0.187-1.215,0.308-1.881,0.308c-1.575,0-2.111-0.755-2.111-1.958V20.57c0-1.104,0.503-1.989,2.089-1.989
		c1.575,0,2.001,0.907,2.001,2.012v1.116h-3.172v0.447C93.908,23,94.138,23.338,95.175,23.338 M93.908,20.942h2.287v-0.437
		c0-0.744-0.252-1.16-1.116-1.16s-1.171,0.416-1.171,1.16V20.942z M94.39,17.476c0.547-0.318,1.115-0.679,1.498-0.995l0.394,0.612
		c-0.504,0.372-0.963,0.656-1.521,0.952L94.39,17.476z"/>
	<path clip-path="url(#SVGID_2_)" fill="#04BAEE" d="M100.896,20.319c0-1.061,0.48-1.739,1.729-1.739
		c0.471,0,1.094,0.077,1.52,0.164v-2.232l0.919-0.131v7.635h-0.774l-0.08-0.479c-0.437,0.349-1.061,0.589-1.758,0.589
		c-1.052,0-1.555-0.557-1.555-1.628V20.319z M104.144,19.554c-0.492-0.098-1.093-0.165-1.466-0.165
		c-0.612,0-0.863,0.285-0.863,0.931v2.178c0,0.546,0.175,0.819,0.82,0.819c0.524,0,1.116-0.285,1.509-0.635V19.554z"/>
	<polygon clip-path="url(#SVGID_2_)" fill="#04BAEE" points="107.009,16.513 107.95,16.513 107.95,17.771 107.294,19.083 
		106.867,18.875 107.326,17.771 107.009,17.771 	"/>
	<path clip-path="url(#SVGID_2_)" fill="#04BAEE" d="M109.7,16.732h4.287v0.841h-3.347v2.287h3.106v0.843h-3.106v2.471h3.357v0.842
		H109.7V16.732z M111.274,15.638c0.491-0.284,0.92-0.559,1.368-0.896l0.414,0.634c-0.447,0.339-0.906,0.613-1.409,0.864
		L111.274,15.638z"/>
	<path clip-path="url(#SVGID_2_)" fill="#04BAEE" d="M115.332,22.189v-1.674c0-1.224,0.459-1.936,2.121-1.936
		c0.471,0,0.995,0.077,1.27,0.164l-0.077,0.766c-0.416-0.088-0.798-0.121-1.17-0.121c-0.918,0-1.226,0.264-1.226,1.095v1.738
		c0,0.832,0.308,1.094,1.226,1.094c0.372,0,0.754-0.031,1.17-0.12l0.088,0.767c-0.274,0.086-0.81,0.163-1.28,0.163
		C115.746,24.125,115.332,23.414,115.332,22.189"/>
	<path clip-path="url(#SVGID_2_)" fill="#04BAEE" d="M122.132,24.125c-1.553,0-2.165-0.885-2.165-2.001v-1.543
		c0-1.115,0.612-2.001,2.165-2.001c1.554,0,2.168,0.886,2.168,2.001v1.543C124.3,23.24,123.686,24.125,122.132,24.125
		 M122.132,19.378c-0.83,0-1.246,0.395-1.246,1.171v1.608c0,0.775,0.416,1.17,1.246,1.17c0.832,0,1.248-0.395,1.248-1.17v-1.608
		C123.38,19.772,122.964,19.378,122.132,19.378"/>
	<path clip-path="url(#SVGID_2_)" fill="#04BAEE" d="M129.099,24.016v-4.068c0-0.351-0.174-0.491-0.514-0.491
		c-0.394,0-1.214,0.24-1.783,0.534v4.025h-0.918v-5.326h0.744l0.088,0.46c0.59-0.284,1.51-0.569,2.143-0.569
		c0.854,0,1.16,0.536,1.16,1.356v4.079H129.099z"/>
	<path clip-path="url(#SVGID_2_)" fill="#04BAEE" d="M133.714,24.125c-1.554,0-2.166-0.885-2.166-2.001v-1.543
		c0-1.115,0.612-2.001,2.166-2.001s2.166,0.886,2.166,2.001v1.543C135.88,23.24,135.268,24.125,133.714,24.125 M133.714,19.378
		c-0.832,0-1.246,0.395-1.246,1.171v1.608c0,0.775,0.414,1.17,1.246,1.17s1.248-0.395,1.248-1.17v-1.608
		C134.962,19.772,134.546,19.378,133.714,19.378"/>
	<path clip-path="url(#SVGID_2_)" fill="#04BAEE" d="M143.898,24.016v-4.068c0-0.351-0.176-0.491-0.515-0.491
		c-0.438,0-1.215,0.24-1.784,0.534v4.025h-0.916v-4.068c0-0.351-0.178-0.491-0.516-0.491c-0.395,0-1.215,0.24-1.784,0.534v4.025
		h-0.918v-5.326h0.744l0.088,0.46c0.589-0.284,1.509-0.569,2.144-0.569c0.547,0,0.865,0.207,1.018,0.569
		c0.634-0.308,1.531-0.569,2.197-0.569c0.854,0,1.16,0.536,1.16,1.356v4.079H143.898z"/>
	<path clip-path="url(#SVGID_2_)" fill="#04BAEE" d="M146.62,16.513h0.919v1.324h-0.919V16.513z M146.62,18.689h0.919v5.327h-0.919
		V18.689z"/>
	<path clip-path="url(#SVGID_2_)" fill="#04BAEE" d="M151.311,23.338c0.525,0,1.105-0.098,1.685-0.251l0.121,0.731
		c-0.504,0.187-1.215,0.308-1.881,0.308c-1.576,0-2.113-0.756-2.113-1.958V20.57c0-1.104,0.503-1.99,2.09-1.99
		c1.574,0,2.001,0.908,2.001,2.013v1.116h-3.172v0.447C150.042,23,150.271,23.338,151.311,23.338 M150.042,20.942h2.286v-0.437
		c0-0.744-0.25-1.16-1.115-1.16s-1.171,0.416-1.171,1.16V20.942z"/>
	<path clip-path="url(#SVGID_2_)" fill="#04BAEE" d="M66.427,33.754c0.524,0,1.105-0.1,1.684-0.252l0.121,0.732
		c-0.503,0.186-1.214,0.307-1.882,0.307c-1.574,0-2.111-0.756-2.111-1.959v-1.596c0-1.105,0.504-1.992,2.09-1.992
		c1.575,0,2.001,0.908,2.001,2.013v1.115h-3.171v0.449C65.159,33.415,65.387,33.754,66.427,33.754 M65.159,31.358h2.285V30.92
		c0-0.744-0.251-1.158-1.115-1.158c-0.865,0-1.17,0.414-1.17,1.158V31.358z"/>
	<path clip-path="url(#SVGID_2_)" fill="#04BAEE" d="M72.66,34.344c-0.328,0.121-0.722,0.197-1.115,0.197
		c-0.897,0-1.324-0.328-1.324-1.215v-3.455h-0.94v-0.766h0.94v-1.313l0.919-0.131v1.444h1.509l-0.076,0.766H71.14v3.303
		c0,0.395,0.054,0.59,0.547,0.59c0.251,0,0.513-0.043,0.853-0.131L72.66,34.344z"/>
	<path clip-path="url(#SVGID_2_)" fill="#04BAEE" d="M76.291,30.735c0-1.061,0.481-1.741,1.728-1.741
		c0.47,0,1.093,0.078,1.521,0.165v-2.23l0.919-0.131v7.634h-0.777l-0.076-0.48c-0.439,0.35-1.062,0.59-1.762,0.59
		c-1.05,0-1.553-0.559-1.553-1.631V30.735z M79.54,29.969c-0.493-0.1-1.094-0.164-1.466-0.164c-0.613,0-0.864,0.285-0.864,0.93
		v2.176c0,0.547,0.175,0.82,0.819,0.82c0.526,0,1.117-0.285,1.511-0.633V29.969z"/>
	<path clip-path="url(#SVGID_2_)" fill="#04BAEE" d="M84.23,33.754c0.525,0,1.105-0.1,1.684-0.252l0.121,0.732
		c-0.504,0.186-1.215,0.307-1.881,0.307c-1.575,0-2.11-0.756-2.11-1.959v-1.596c0-1.105,0.503-1.992,2.088-1.992
		c1.573,0,2.003,0.908,2.003,2.013v1.115h-3.173v0.449C82.961,33.415,83.191,33.754,84.23,33.754 M82.961,31.358h2.286V30.92
		c0-0.744-0.252-1.158-1.116-1.158c-0.863,0-1.17,0.414-1.17,1.158V31.358z"/>
	<path clip-path="url(#SVGID_2_)" fill="#04BAEE" d="M90.978,32.342c0,0.928,0.272,1.346,1.52,1.346
		c0.383,0,0.864-0.033,1.367-0.131v-2.473h0.908v3.139c-0.711,0.209-1.553,0.318-2.309,0.318c-1.859,0-2.428-0.799-2.428-2.145
		v-3.205c0-1.476,0.732-2.155,2.548-2.155c0.623,0,1.347,0.077,2.024,0.23l-0.11,0.81c-0.698-0.121-1.356-0.186-1.958-0.186
		c-1.201,0-1.562,0.359-1.562,1.345V32.342z"/>
	<path clip-path="url(#SVGID_2_)" fill="#04BAEE" d="M98.49,33.754c0.527,0,1.105-0.1,1.686-0.252l0.121,0.732
		c-0.504,0.186-1.215,0.307-1.882,0.307c-1.575,0-2.112-0.756-2.112-1.959v-1.596c0-1.105,0.504-1.992,2.09-1.992
		c1.576,0,2.003,0.908,2.003,2.013v1.115h-3.173v0.449C97.222,33.415,97.452,33.754,98.49,33.754 M97.222,31.358h2.285V30.92
		c0-0.744-0.25-1.158-1.115-1.158c-0.864,0-1.17,0.414-1.17,1.158V31.358z"/>
	<path clip-path="url(#SVGID_2_)" fill="#04BAEE" d="M103.421,34.542c-0.547,0-1.268-0.121-1.693-0.285l0.119-0.721
		c0.459,0.131,1.062,0.219,1.521,0.219c0.84,0,0.983-0.154,0.983-0.723s-0.044-0.635-1.115-0.896
		c-1.323-0.328-1.442-0.602-1.442-1.707c0-0.986,0.436-1.433,1.836-1.433c0.514,0,1.07,0.066,1.51,0.185l-0.066,0.756
		c-0.447-0.088-1.039-0.152-1.477-0.152c-0.787,0-0.896,0.186-0.896,0.666c0,0.592,0.01,0.699,0.906,0.92
		c1.533,0.383,1.654,0.568,1.654,1.629C105.261,34.038,104.943,34.542,103.421,34.542"/>
	<path clip-path="url(#SVGID_2_)" fill="#04BAEE" d="M109.634,34.344c-0.328,0.121-0.721,0.197-1.115,0.197
		c-0.896,0-1.324-0.328-1.324-1.215v-3.455h-0.939v-0.766h0.939v-1.313l0.919-0.131v1.444h1.511l-0.078,0.766h-1.433v3.303
		c0,0.395,0.056,0.59,0.548,0.59c0.252,0,0.512-0.043,0.852-0.131L109.634,34.344z"/>
	<path clip-path="url(#SVGID_2_)" fill="#04BAEE" d="M111.001,26.928h0.918v1.322h-0.918V26.928z M111.001,29.105h0.918v5.327
		h-0.918V29.105z"/>
	<path clip-path="url(#SVGID_2_)" fill="#04BAEE" d="M115.669,34.542c-1.552,0-2.164-0.887-2.164-2.002v-1.541
		c0-1.117,0.612-2.004,2.164-2.004c1.555,0,2.168,0.887,2.168,2.004v1.541C117.837,33.655,117.224,34.542,115.669,34.542
		 M115.669,29.793c-0.831,0-1.247,0.395-1.247,1.172v1.607c0,0.775,0.416,1.17,1.247,1.17c0.832,0,1.248-0.395,1.248-1.17v-1.607
		C116.917,30.188,116.501,29.793,115.669,29.793"/>
	<path clip-path="url(#SVGID_2_)" fill="#04BAEE" d="M122.636,34.432v-4.07c0-0.35-0.175-0.492-0.514-0.492
		c-0.393,0-1.213,0.242-1.782,0.537v4.025h-0.919v-5.327h0.745l0.086,0.458c0.591-0.283,1.509-0.569,2.146-0.569
		c0.852,0,1.158,0.536,1.158,1.358v4.08H122.636z"/>
</g>
</svg>
