<?xml version="1.0" encoding="utf-8"?>
<!-- Generator: Adobe Illustrator 14.0.0, SVG Export Plug-In . SVG Version: 6.00 Build 43363)  -->
<!DOCTYPE svg PUBLIC "-//W3C//DTD SVG 1.1 Basic//EN" "http://www.w3.org/Graphics/SVG/1.1/DTD/svg11-basic.dtd">
<svg version="1.1" baseProfile="basic" id="Calque_1"
	 xmlns="http://www.w3.org/2000/svg" xmlns:xlink="http://www.w3.org/1999/xlink" x="0px" y="0px" width="173px" height="55px"
	 viewBox="0 0 173 55" xml:space="preserve">
<g>
	<path fill="#1B171B" d="M84.23,16.115c-0.674,0-1.263-0.113-1.763-0.339c-0.501-0.227-0.915-0.527-1.241-0.903
		c-0.328-0.376-0.572-0.807-0.73-1.293c-0.159-0.486-0.238-0.99-0.238-1.51V5.627h1.43v6.357c0,0.346,0.043,0.691,0.131,1.032
		c0.086,0.342,0.228,0.648,0.425,0.918c0.198,0.269,0.458,0.486,0.78,0.65c0.322,0.164,0.725,0.245,1.207,0.245
		c0.472,0,0.873-0.081,1.199-0.245c0.327-0.164,0.59-0.381,0.788-0.65c0.197-0.27,0.339-0.576,0.427-0.918
		c0.086-0.341,0.129-0.686,0.129-1.032V5.627h1.432v6.443c0,0.52-0.08,1.024-0.238,1.51c-0.16,0.486-0.404,0.917-0.73,1.293
		c-0.327,0.376-0.741,0.676-1.241,0.903C85.49,16.002,84.904,16.115,84.23,16.115"/>
</g>
<g>
	<path fill="#1B171B" d="M91.77,9.008c0.021,0.173,0.033,0.369,0.043,0.585c0.011,0.217,0.017,0.398,0.017,0.542h0.041
		c0.088-0.183,0.205-0.354,0.354-0.513c0.148-0.159,0.318-0.299,0.512-0.419c0.195-0.12,0.406-0.214,0.638-0.281
		c0.229-0.068,0.472-0.102,0.724-0.102c0.44,0,0.821,0.075,1.139,0.224c0.318,0.149,0.584,0.349,0.797,0.6
		c0.211,0.25,0.367,0.544,0.469,0.881s0.15,0.698,0.15,1.083v4.248h-1.357v-3.8c0-0.279-0.021-0.544-0.064-0.794
		s-0.123-0.472-0.237-0.665c-0.115-0.192-0.272-0.347-0.478-0.462c-0.203-0.116-0.461-0.173-0.779-0.173
		c-0.541,0-0.979,0.204-1.321,0.613c-0.342,0.41-0.513,0.956-0.513,1.64v3.641h-1.358v-5.374c0-0.183-0.004-0.42-0.015-0.708
		c-0.01-0.289-0.022-0.544-0.045-0.766H91.77z"/>
</g>
<g>
	<path fill="#1B171B" d="M100.537,6.537c0,0.251-0.09,0.458-0.266,0.621c-0.179,0.164-0.392,0.246-0.638,0.246
		c-0.25,0-0.459-0.084-0.633-0.253c-0.17-0.168-0.258-0.373-0.258-0.614c0-0.25,0.088-0.46,0.258-0.628
		c0.174-0.169,0.383-0.253,0.633-0.253c0.246,0,0.459,0.084,0.638,0.253C100.447,6.077,100.537,6.287,100.537,6.537 M100.32,15.855
		h-1.357V9.007h1.357V15.855z"/>
</g>
<g>
	<polygon fill="#1B171B" points="105.908,15.855 104.436,15.855 101.648,9.007 103.148,9.007 105.158,14.396 105.188,14.396 
		107.209,9.007 108.652,9.007 	"/>
</g>
<g>
	<path fill="#1B171B" d="M116.367,12.374v0.231l-0.016,0.231h-5.445c0.01,0.288,0.074,0.558,0.195,0.811s0.28,0.473,0.483,0.66
		c0.201,0.187,0.437,0.333,0.701,0.438c0.264,0.105,0.545,0.157,0.844,0.157c0.461,0,0.863-0.101,1.199-0.303
		c0.336-0.202,0.603-0.448,0.795-0.737l0.953,0.766c-0.367,0.485-0.798,0.842-1.293,1.072c-0.496,0.229-1.048,0.344-1.654,0.344
		c-0.521,0-1.002-0.087-1.442-0.26c-0.443-0.174-0.824-0.417-1.144-0.73s-0.567-0.691-0.75-1.134
		c-0.187-0.443-0.274-0.934-0.274-1.474c0-0.529,0.088-1.018,0.268-1.466c0.18-0.448,0.428-0.831,0.746-1.148
		c0.318-0.319,0.695-0.566,1.129-0.744c0.434-0.179,0.902-0.268,1.402-0.268c0.502,0,0.959,0.082,1.369,0.246
		c0.409,0.164,0.758,0.399,1.043,0.708c0.282,0.308,0.504,0.681,0.657,1.12C116.289,11.332,116.367,11.825,116.367,12.374
		 M114.979,11.825c-0.008-0.27-0.055-0.522-0.137-0.758c-0.082-0.237-0.201-0.441-0.361-0.614c-0.157-0.174-0.354-0.311-0.592-0.412
		c-0.236-0.101-0.512-0.152-0.83-0.152c-0.289,0-0.561,0.051-0.815,0.152c-0.257,0.101-0.478,0.238-0.664,0.412
		c-0.188,0.173-0.343,0.377-0.461,0.614c-0.121,0.236-0.191,0.488-0.211,0.758H114.979z"/>
</g>
<g>
	<path fill="#1B171B" d="M118.229,9.773c-0.01-0.289-0.022-0.544-0.043-0.766h1.287c0.019,0.174,0.033,0.374,0.043,0.6
		c0.008,0.226,0.014,0.411,0.014,0.556h0.044c0.192-0.404,0.475-0.73,0.846-0.975c0.371-0.246,0.787-0.369,1.25-0.369
		c0.211,0,0.39,0.02,0.533,0.058l-0.06,1.257c-0.19-0.048-0.397-0.072-0.619-0.072c-0.328,0-0.612,0.06-0.854,0.181
		c-0.242,0.12-0.441,0.281-0.6,0.484c-0.158,0.202-0.275,0.435-0.354,0.7c-0.077,0.265-0.114,0.542-0.114,0.831v3.597h-1.357v-5.374
		C118.244,10.298,118.24,10.062,118.229,9.773"/>
</g>
<g>
	<path fill="#1B171B" d="M127.17,10.741c-0.154-0.25-0.371-0.455-0.65-0.614c-0.278-0.159-0.592-0.238-0.938-0.238
		c-0.154,0-0.309,0.017-0.463,0.05c-0.154,0.034-0.291,0.087-0.412,0.159c-0.119,0.072-0.217,0.164-0.289,0.275
		c-0.072,0.11-0.107,0.248-0.107,0.411c0,0.289,0.129,0.504,0.392,0.643c0.26,0.14,0.647,0.268,1.17,0.383
		c0.325,0.077,0.629,0.169,0.91,0.275c0.276,0.105,0.521,0.238,0.729,0.396c0.207,0.159,0.367,0.349,0.484,0.571
		c0.114,0.221,0.174,0.481,0.174,0.78c0,0.404-0.078,0.746-0.231,1.026c-0.154,0.279-0.359,0.508-0.613,0.686
		c-0.256,0.178-0.547,0.306-0.875,0.382c-0.326,0.077-0.662,0.116-1.012,0.116c-0.521,0-1.027-0.101-1.521-0.303
		c-0.496-0.203-0.908-0.511-1.234-0.925l0.967-0.824c0.185,0.27,0.437,0.497,0.759,0.68c0.321,0.183,0.676,0.274,1.062,0.274
		c0.172,0,0.338-0.016,0.498-0.05c0.158-0.034,0.303-0.09,0.432-0.167c0.131-0.076,0.234-0.178,0.312-0.303
		c0.076-0.125,0.113-0.284,0.113-0.477c0-0.318-0.15-0.553-0.453-0.708c-0.305-0.154-0.75-0.298-1.336-0.433
		c-0.23-0.058-0.467-0.128-0.701-0.209c-0.236-0.082-0.449-0.196-0.643-0.34c-0.191-0.145-0.351-0.325-0.472-0.542
		c-0.118-0.216-0.18-0.484-0.18-0.801c0-0.366,0.073-0.682,0.226-0.947c0.147-0.264,0.344-0.481,0.584-0.65
		c0.241-0.168,0.516-0.293,0.823-0.375s0.625-0.123,0.953-0.123c0.49,0,0.965,0.096,1.422,0.289s0.812,0.472,1.062,0.838
		L127.17,10.741z"/>
</g>
<g>
	<path fill="#1B171B" d="M131.473,6.537c0,0.251-0.088,0.458-0.264,0.621c-0.178,0.164-0.389,0.246-0.639,0.246
		c-0.248,0-0.457-0.084-0.629-0.253c-0.174-0.168-0.26-0.373-0.26-0.614c0-0.25,0.086-0.46,0.26-0.628
		c0.172-0.169,0.381-0.253,0.629-0.253c0.25,0,0.461,0.084,0.639,0.253C131.385,6.077,131.473,6.287,131.473,6.537 M131.256,15.855
		h-1.357V9.007h1.357V15.855z"/>
</g>
<g>
	<path fill="#1B171B" d="M136.977,10.12h-1.819v3.557c0,0.413,0.075,0.709,0.231,0.886c0.152,0.178,0.398,0.267,0.734,0.267
		c0.127,0,0.262-0.013,0.404-0.04c0.145-0.026,0.277-0.066,0.391-0.119l0.043,1.112c-0.162,0.058-0.344,0.103-0.541,0.137
		s-0.4,0.051-0.613,0.051c-0.646,0-1.139-0.178-1.479-0.535c-0.343-0.356-0.515-0.89-0.515-1.603V10.12h-1.313V9.008h1.313V7.043
		h1.345v1.965h1.819V10.12L136.977,10.12z"/>
</g>
<g>
	<path fill="#1B171B" d="M144.775,12.374v0.231l-0.015,0.231h-5.444c0.008,0.288,0.074,0.557,0.194,0.811
		c0.119,0.253,0.279,0.473,0.482,0.66c0.2,0.187,0.438,0.333,0.7,0.438c0.264,0.105,0.548,0.157,0.845,0.157
		c0.463,0,0.862-0.101,1.198-0.303c0.339-0.202,0.604-0.448,0.796-0.737l0.952,0.766c-0.364,0.485-0.797,0.842-1.291,1.072
		c-0.498,0.229-1.049,0.344-1.655,0.344c-0.521,0-1.002-0.087-1.44-0.26c-0.445-0.174-0.824-0.417-1.144-0.73
		s-0.568-0.691-0.75-1.134c-0.187-0.443-0.274-0.934-0.274-1.474c0-0.529,0.088-1.018,0.268-1.466
		c0.178-0.448,0.426-0.83,0.746-1.149c0.317-0.317,0.695-0.565,1.129-0.743c0.434-0.179,0.902-0.268,1.404-0.268
		c0.5,0,0.957,0.082,1.366,0.246c0.408,0.164,0.759,0.4,1.044,0.708c0.282,0.308,0.504,0.681,0.655,1.119
		C144.699,11.332,144.775,11.825,144.775,12.374 M143.389,11.825c-0.01-0.269-0.057-0.522-0.139-0.758
		c-0.08-0.236-0.199-0.441-0.359-0.614c-0.16-0.174-0.356-0.311-0.592-0.412c-0.236-0.101-0.514-0.151-0.83-0.151
		c-0.289,0-0.561,0.05-0.816,0.151s-0.477,0.238-0.663,0.412c-0.189,0.173-0.343,0.378-0.464,0.614
		c-0.121,0.236-0.19,0.489-0.209,0.758H143.389z M141.863,7.708h-1.111l1.443-2.081h1.631L141.863,7.708z"/>
</g>
<g>
	<path fill="#1B171B" d="M84.214,30.956h-4.207V20.459h4.207c0.4,0,0.819,0.042,1.241,0.125c0.426,0.085,0.818,0.231,1.168,0.435
		c0.354,0.208,0.646,0.491,0.869,0.846c0.225,0.358,0.338,0.813,0.338,1.356c0,0.598-0.166,1.102-0.492,1.494
		c-0.246,0.297-0.553,0.531-0.916,0.703c0.164,0.049,0.324,0.113,0.477,0.19c0.271,0.138,0.504,0.313,0.701,0.526
		c0.197,0.214,0.357,0.466,0.476,0.748c0.114,0.285,0.176,0.609,0.176,0.961c0,0.58-0.119,1.078-0.353,1.478
		c-0.229,0.396-0.541,0.721-0.924,0.963c-0.379,0.238-0.812,0.412-1.293,0.516C85.207,30.902,84.712,30.956,84.214,30.956
		 M82.659,28.693h1.253c0.186,0,0.38-0.018,0.578-0.049c0.191-0.031,0.367-0.088,0.523-0.168c0.148-0.076,0.271-0.186,0.361-0.322
		c0.09-0.137,0.137-0.317,0.137-0.541c0-0.372-0.133-0.62-0.404-0.762c-0.296-0.153-0.706-0.229-1.208-0.229H82.66L82.659,28.693
		L82.659,28.693z M82.659,24.533h1.194c0.432,0,0.767-0.086,0.998-0.256c0.221-0.162,0.329-0.399,0.329-0.724
		c0-0.299-0.109-0.508-0.333-0.643c-0.244-0.146-0.615-0.219-1.108-0.219h-1.08V24.533z"/>
</g>
<g>
	<path fill="#1B171B" d="M94.83,31.229c-0.811,0-1.572-0.135-2.264-0.397c-0.693-0.267-1.303-0.647-1.808-1.136
		c-0.508-0.485-0.907-1.079-1.192-1.764c-0.285-0.683-0.43-1.445-0.43-2.27c0-0.832,0.145-1.596,0.43-2.268
		c0.285-0.676,0.688-1.257,1.192-1.73c0.507-0.471,1.113-0.839,1.81-1.096c0.688-0.255,1.451-0.384,2.262-0.384
		c0.812,0,1.576,0.129,2.271,0.384c0.696,0.255,1.307,0.624,1.813,1.096c0.506,0.474,0.91,1.055,1.194,1.729
		c0.285,0.674,0.431,1.438,0.431,2.27c0,0.823-0.146,1.587-0.431,2.269c-0.284,0.686-0.688,1.278-1.192,1.766
		c-0.508,0.486-1.119,0.869-1.813,1.135C96.406,31.096,95.643,31.229,94.83,31.229 M94.83,22.677c-0.412,0-0.791,0.076-1.129,0.227
		c-0.338,0.151-0.635,0.36-0.881,0.621c-0.246,0.258-0.439,0.576-0.572,0.942c-0.133,0.37-0.201,0.772-0.201,1.196
		c0,0.444,0.07,0.858,0.207,1.231c0.141,0.373,0.334,0.695,0.574,0.961c0.24,0.265,0.535,0.474,0.873,0.625
		c0.676,0.302,1.586,0.302,2.26,0c0.338-0.151,0.635-0.36,0.881-0.627c0.246-0.264,0.441-0.586,0.578-0.959
		c0.141-0.371,0.209-0.787,0.209-1.231c0-0.426-0.068-0.827-0.209-1.194c-0.137-0.366-0.328-0.687-0.57-0.946
		c-0.242-0.259-0.539-0.469-0.881-0.619C95.625,22.754,95.242,22.677,94.83,22.677"/>
</g>
<g>
	<path fill="#1B171B" d="M110.639,30.954h-3.205l-2.221-4.06h-0.629v4.06h-2.68V20.459h4.033c0.498,0,0.992,0.051,1.465,0.154
		c0.481,0.104,0.92,0.283,1.303,0.532c0.387,0.251,0.699,0.588,0.932,1c0.23,0.414,0.35,0.932,0.35,1.539
		c0,0.721-0.198,1.338-0.594,1.831c-0.358,0.452-0.85,0.79-1.461,1.002L110.639,30.954z M104.57,24.837h1.041
		c0.195,0,0.4-0.018,0.604-0.049c0.199-0.032,0.381-0.088,0.541-0.168c0.154-0.078,0.279-0.188,0.379-0.332
		c0.094-0.139,0.143-0.328,0.143-0.561c0-0.211-0.043-0.383-0.129-0.51c-0.09-0.131-0.2-0.23-0.342-0.303
		c-0.146-0.074-0.313-0.127-0.496-0.152c-0.192-0.027-0.379-0.043-0.553-0.043h-1.188V24.837L104.57,24.837z"/>
</g>
<g>
	<path fill="#1B171B" d="M115.428,30.956h-3.947V20.459h3.832c0.729,0,1.459,0.086,2.17,0.257c0.718,0.172,1.363,0.461,1.925,0.858
		c0.562,0.401,1.022,0.945,1.368,1.616c0.347,0.672,0.521,1.509,0.521,2.488c0,0.912-0.174,1.712-0.514,2.38
		c-0.34,0.662-0.795,1.217-1.352,1.646c-0.558,0.428-1.189,0.746-1.888,0.947C116.854,30.854,116.139,30.956,115.428,30.956
		 M114.16,28.55h1.037c0.428,0,0.848-0.051,1.246-0.147c0.391-0.096,0.738-0.256,1.035-0.478c0.295-0.217,0.533-0.512,0.711-0.875
		c0.178-0.364,0.268-0.825,0.268-1.371c0-0.555-0.09-1.018-0.268-1.379c-0.178-0.358-0.414-0.647-0.709-0.86
		c-0.299-0.215-0.642-0.37-1.021-0.462c-0.389-0.094-0.793-0.141-1.203-0.141h-1.096V28.55z"/>
</g>
<g>
	<polygon fill="#1B171B" points="130.062,30.955 122.66,30.955 122.66,20.459 129.805,20.459 129.805,22.808 125.311,22.808 
		125.311,24.476 129.557,24.476 129.557,26.723 125.311,26.723 125.311,28.578 130.062,28.578 	"/>
</g>
<g>
	<path fill="#1B171B" d="M141.438,30.956h-3.035l-0.793-2.009h-3.774l-0.75,2.009h-2.979l4.399-10.497h2.576l0.035,0.082
		L141.438,30.956z M134.641,26.7h2.189l-1.082-2.988L134.641,26.7z"/>
</g>
<g>
	<path fill="#1B171B" d="M146.09,31.229c-0.688,0-1.314-0.104-1.865-0.312c-0.553-0.205-1.029-0.5-1.418-0.873
		s-0.69-0.828-0.899-1.349c-0.207-0.516-0.312-1.1-0.312-1.731V20.46h2.723v6.304c0,0.266,0.033,0.521,0.104,0.756
		c0.068,0.235,0.173,0.446,0.31,0.629c0.137,0.18,0.317,0.324,0.543,0.43c0.229,0.105,0.506,0.16,0.832,0.16
		c0.324,0,0.604-0.055,0.83-0.16c0.227-0.105,0.412-0.252,0.551-0.432c0.145-0.185,0.248-0.394,0.309-0.625
		c0.064-0.238,0.098-0.496,0.098-0.758V20.46h2.738v6.504c0,0.632-0.109,1.216-0.322,1.734c-0.213,0.521-0.522,0.975-0.92,1.346
		c-0.396,0.373-0.881,0.666-1.438,0.873S146.77,31.229,146.09,31.229"/>
</g>
<g>
	<polygon fill="#1B171B" points="161.957,30.955 158.582,30.955 156.42,27.467 154.342,30.955 151.07,30.955 154.74,25.42 
		151.354,20.459 154.658,20.459 156.488,23.511 158.291,20.459 161.494,20.459 158.168,25.418 	"/>
</g>
<g>
	<polygon fill="#1B171B" points="91.977,45.921 89.279,45.921 89.334,39.195 86.865,45.921 84.945,45.921 82.548,39.214 
		82.602,45.921 80.007,45.921 80.007,35.425 83.75,35.425 86.012,41.792 88.174,35.425 91.977,35.425 	"/>
</g>
<g>
	<path fill="#1B171B" d="M99.02,46.193c-0.811,0-1.571-0.135-2.264-0.397c-0.693-0.267-1.301-0.646-1.809-1.133
		c-0.508-0.488-0.908-1.082-1.193-1.767c-0.283-0.68-0.428-1.442-0.428-2.269c0-0.835,0.145-1.599,0.428-2.269
		c0.287-0.674,0.688-1.256,1.195-1.729c0.507-0.473,1.115-0.841,1.807-1.097c0.691-0.254,1.453-0.385,2.264-0.385
		c0.812,0,1.574,0.131,2.271,0.385c0.698,0.256,1.31,0.625,1.815,1.097c0.506,0.474,0.908,1.054,1.193,1.729
		c0.285,0.674,0.43,1.437,0.43,2.269c0,0.823-0.145,1.586-0.43,2.269c-0.285,0.686-0.686,1.277-1.193,1.767
		c-0.506,0.485-1.114,0.866-1.813,1.133C100.594,46.061,99.83,46.193,99.02,46.193 M99.02,37.645c-0.412,0-0.793,0.076-1.131,0.227
		s-0.635,0.359-0.881,0.619c-0.246,0.261-0.439,0.578-0.57,0.943c-0.135,0.365-0.201,0.77-0.201,1.195
		c0,0.444,0.068,0.857,0.209,1.23c0.138,0.375,0.33,0.697,0.572,0.961c0.24,0.267,0.533,0.477,0.871,0.625
		c0.674,0.303,1.582,0.304,2.262,0c0.339-0.148,0.634-0.36,0.882-0.625c0.245-0.266,0.44-0.588,0.577-0.961
		c0.14-0.373,0.209-0.786,0.209-1.23c0-0.425-0.069-0.827-0.209-1.193c-0.137-0.367-0.33-0.686-0.571-0.947
		c-0.242-0.26-0.537-0.467-0.881-0.617C99.816,37.721,99.432,37.645,99.02,37.645"/>
</g>
<g>
	<polygon fill="#1B171B" points="115.662,45.921 112.652,45.921 108.705,39.507 108.76,45.921 106.092,45.921 106.092,35.425 
		109.119,35.425 113.053,41.825 112.996,35.425 115.662,35.425 	"/>
</g>
<g>
	<polygon fill="#1B171B" points="122.148,45.921 119.41,45.921 119.41,37.802 116.521,37.802 116.521,35.425 125.037,35.425 
		125.037,37.802 122.148,37.802 	"/>
</g>
<g>
	<path fill="#1B171B" d="M135.039,45.921h-3.033l-0.795-2.008h-3.773l-0.752,2.008h-2.979l4.399-10.496h2.578l0.033,0.082
		L135.039,45.921z M128.242,41.665h2.189l-1.084-2.987L128.242,41.665z"/>
</g>
<g>
	<rect x="135.557" y="35.425" fill="#1B171B" width="2.752" height="10.496"/>
</g>
<g>
	<path fill="#1B171B" d="M145.426,46.182c-0.83,0-1.607-0.136-2.307-0.398c-0.703-0.266-1.314-0.645-1.822-1.127
		s-0.908-1.068-1.193-1.742c-0.285-0.672-0.43-1.432-0.43-2.254c0-0.834,0.146-1.602,0.438-2.279
		c0.289-0.676,0.695-1.262,1.207-1.74c0.513-0.479,1.119-0.85,1.81-1.104c0.687-0.254,1.437-0.384,2.228-0.384
		c0.819,0,1.594,0.125,2.299,0.375c0.707,0.25,1.291,0.595,1.736,1.021l0.094,0.088l-1.746,1.988l-0.1-0.115
		c-0.228-0.262-0.531-0.481-0.908-0.651c-0.375-0.17-0.81-0.256-1.287-0.256c-0.414,0-0.799,0.075-1.146,0.229
		c-0.348,0.15-0.652,0.363-0.91,0.633c-0.256,0.271-0.457,0.596-0.6,0.967c-0.143,0.373-0.215,0.787-0.215,1.232
		c0,0.455,0.066,0.879,0.195,1.256c0.127,0.375,0.317,0.703,0.569,0.971c0.25,0.269,0.563,0.48,0.937,0.633
		c0.371,0.151,0.803,0.228,1.285,0.228c0.28,0,0.551-0.021,0.803-0.062c0.215-0.037,0.42-0.092,0.609-0.166V41.88h-1.949v-2.262
		h4.481v5.633l-0.069,0.037c-0.509,0.264-1.107,0.479-1.785,0.646C146.97,46.1,146.221,46.182,145.426,46.182"/>
</g>
<g>
	<polygon fill="#1B171B" points="160.826,45.921 157.816,45.921 153.869,39.507 153.924,45.921 151.256,45.921 151.256,35.425 
		154.283,35.425 158.217,41.825 158.16,35.425 160.826,35.425 	"/>
</g>
<g>
	<polygon fill="#1B171B" points="170.07,45.921 162.668,45.921 162.668,35.425 169.811,35.425 169.811,37.773 165.318,37.773 
		165.318,39.439 169.564,39.439 169.564,41.688 165.318,41.688 165.318,43.544 170.07,43.544 	"/>
</g>
<g>
	<path fill="#1B171B" d="M2.672,49.527c0,0,3.388-27.286,27.234-45.593c0,0-1.577,24.201,8.112,32.016
		c-5.869,7.483-9.981,13.069-9.981,13.069s-6.885-5.422-9.815-18.17C14.041,37.146,2.672,49.527,2.672,49.527"/>
</g>
<g>
	<path fill="#1B171B" d="M54.414,4.635c7.732,0,11.991,8.255,8.625,17.653c-2.822,7.885-3.082,15.155,2.945,18.101
		c6.032,2.944,10.621-2.947,10.621-2.947s-2.663,9.746-13.674,9.746c-10.909,0-25.123-12.041-20.774-31.227
		C44.255,7.727,49.304,4.635,54.414,4.635"/>
</g>
</svg>
