<?xml version="1.0" encoding="utf-8"?>
<!-- Generator: Adobe Illustrator 22.0.0, SVG Export Plug-In . SVG Version: 6.00 Build 0)  -->
<svg version="1.1" id="Calque_1" xmlns="http://www.w3.org/2000/svg" xmlns:xlink="http://www.w3.org/1999/xlink" x="0px" y="0px"
	 viewBox="0 0 364.8 189.2" style="enable-background:new 0 0 364.8 189.2;" xml:space="preserve">
<style type="text/css">
	.st0{fill:#123274;}
	.st1{fill:#EE7203;}
	.st2{fill:#BDC5E6;}
	.st3{fill:#1FA138;}
</style>
<g>
	<path class="st0" d="M20.7,168.1l-0.3,8.9c-0.1,5.4-0.4,6.3-2.3,8.2c-1.5,1.5-3.8,2.3-6.6,2.3c-2.2,0-4.1-0.5-5.6-1.6
		c-0.8-0.5-1.5-1.3-2-2.1c-1-1.5-1.3-2.9-1.3-6v-9.3c0-3.1-0.4-3.8-2.6-4.6v-0.7h9.2v0.7c-3,0.5-3.6,1.2-3.6,4.1v9.3
		c0,2.9,0.6,4.5,2,6c1.3,1.3,2.9,1.9,4.7,1.9c1.8,0,3.4-0.7,4.5-1.9c1.2-1.3,1.5-2.6,1.5-5.8v-0.9l-0.3-8.7c-0.1-3-0.6-3.6-3.3-4.1
		v-0.7h8.7v0.7C21.2,164.8,20.7,165.4,20.7,168.1z"/>
	<path class="st0" d="M46.9,168.1l-0.5,18.4l-1.4,1.3l-14.2-19.6l0.3,13.9c0.1,3.1,0.7,3.7,3.9,4.1v0.8h-10v-0.8
		c3-0.4,3.4-1,3.6-4.1l0.5-12c0-4.2-0.5-5.1-3.6-6.1v-0.7h5.5l13.6,18.9l-0.3-14c-0.1-3-0.6-3.6-3.6-4.1v-0.7h9.7v0.7
		C47.5,164.5,46.9,165.1,46.9,168.1z"/>
	<path class="st0" d="M52.1,187v-0.8c3-0.4,3.6-1.1,3.6-4.1v-14c0-2.9-0.6-3.6-3.3-4.1v-0.7h10v0.7c-3,0.5-3.6,1.2-3.6,4.1v14
		c0,2.9,0.6,3.6,3.6,4.1v0.8H52.1z"/>
	<path class="st0" d="M81.8,167.1l-6.4,17.1c-0.5,1.3-0.9,2-2,3.4L66,166.5c-0.4-1.1-1-1.7-2.6-2.4v-0.7h7.9v0.7
		c-1.6,0.2-2.1,0.6-2.1,1.6c0,0.5,0.3,1.7,0.5,2.4l4.9,13.8l4.1-12.5c0.3-1,0.5-2,0.5-2.7c0-1.3-0.6-1.8-2.8-2.5v-0.7h8.2v0.6
		C82.9,164.8,82.5,165.4,81.8,167.1z"/>
	<path class="st0" d="M102,187H85.7v-0.8c3-0.4,3.6-1.1,3.6-4.1v-13.6c0-3.1-0.4-3.8-2.6-4.6v-0.7h14.8l0.5,5.6l-0.8,0.3
		c-1.5-3.1-2.8-4.2-5.1-4.3l-3.8-0.3v9.7l3.6-0.1c2.6-0.1,3.3-0.6,4.1-3h0.8v7.7H100c-0.6-2.6-1.1-3.1-4.1-3.2l-3.6-0.1v6.4
		c0,2.7,0.8,3.5,3.7,3.5c3,0,4.6-1.2,6.6-4.9l0.8,0.2L102,187z"/>
	<path class="st0" d="M120,170.5c0,1.9-0.7,3.4-2.3,4.9c-0.8,0.2-1.1,0.3-2,0.3c-1.2,0-1.7-0.1-2.9-0.5v-10.6c2.1,0,3,0.2,4.1,0.8
		c0.6,0.3,1.1,0.7,1.6,1.1C119.5,167.5,120,168.9,120,170.5z M131,188.8v-0.6c-1.9-0.1-2.6-0.4-3.6-1c-0.5-0.3-0.9-0.7-1.3-1
		c-1.4-1.4-3-3.6-7.4-10.1c2-1.9,2.7-2.7,3.3-4.1c0.5-1,0.8-2.2,0.8-3.4c0-3.3-2.4-5.6-6-5.6c-1.3,0-1.9,0.1-4.5,0.5l-5.6-0.4v0.8
		c2.5,1,3.1,1.9,3.1,4.7v13.6c0,2.9-0.6,3.6-3.6,4.1v0.8h10.2v-0.8c-3-0.4-3.6-1.1-3.6-4.1V177c0.7,0.1,1.2,0.1,1.5,0.1
		c0.4,0,0.9,0,1.6-0.1c3.1,5.7,4.3,7.5,6.4,9.6c1.7,1.7,4.1,2.7,6.3,2.7C129.4,189.2,129.9,189.1,131,188.8z"/>
	<path class="st0" d="M137.7,187.6c-2,0-3.4-0.3-6.4-1.6l-0.5-6.1l0.8-0.4c0.9,2.4,1.5,3.4,2.6,4.6c1.2,1.3,2.7,2,4,2
		c2.1,0,3.9-1.8,3.9-4c0-1.6-0.7-2.5-2.8-3.9c-3.2-2.1-4.4-3-5.6-4.2c-1.5-1.4-2-2.7-2-4.7c0-3.8,2.8-6.5,6.9-6.5
		c1.6,0,2.8,0.3,5.3,1.3l0.8,5.4l-0.8,0.4c-0.6-1.1-1.2-2-1.7-2.9c-1.2-1.8-2.7-2.7-4.4-2.7c-2,0-3.6,1.5-3.6,3.6
		c0,1,0.5,2.3,1.3,3.2c1,1,2,1.8,5.9,4.3c1,0.6,1.8,1.2,2.3,1.8c1,1,1.5,2.5,1.5,4.2C145.1,184.9,142,187.6,137.7,187.6z"/>
	<path class="st0" d="M148.3,187v-0.8c3-0.4,3.6-1.1,3.6-4.1v-14c0-2.9-0.6-3.6-3.3-4.1v-0.7h10v0.7c-3,0.5-3.6,1.2-3.6,4.1v14
		c0,2.9,0.6,3.6,3.6,4.1v0.8H148.3z"/>
	<path class="st0" d="M179.9,168.6c-1.8-2.8-3.1-3.7-5.6-3.7h-2.6v17.3c0,2.5,1.2,3.6,4.6,4.1v0.8h-12v-0.8c3.3-0.6,4.3-1.6,4.3-4.1
		v-17.3H166c-2.2,0-3.6,0.9-5.7,3.7l-0.7-0.4l1.2-5.4c3.3,0.9,4.3,1,9.3,1c4.9,0,5.9-0.1,9.2-1l1.3,5.4L179.9,168.6z"/>
	<path class="st0" d="M195,158.5l-7.4,1.5l-0.3-0.5l6.7-3.6l1.5,1L195,158.5z M198.1,187h-16.3v-0.8c3-0.4,3.6-1.1,3.6-4.1v-13.6
		c0-3.1-0.4-3.8-2.6-4.6v-0.7h14.8l0.5,5.6l-0.8,0.3c-1.5-3.1-2.8-4.2-5.1-4.3l-3.8-0.3v9.7l3.6-0.1c2.6-0.1,3.3-0.6,4.1-3h0.8v7.7
		H196c-0.6-2.6-1.1-3.1-4.1-3.2l-3.6-0.1v6.4c0,2.7,0.8,3.5,3.7,3.5c3,0,4.6-1.2,6.6-4.9l0.8,0.2L198.1,187z"/>
	<path class="st0" d="M230.1,174.8c0,6.4-3.7,10.8-9.2,10.8c-2.7,0-3.9-1.2-3.9-4v-17.4c3.8,0.1,5.4,0.4,7.7,1.7
		c1.1,0.6,2.2,1.4,3.1,2.4C229.4,170.2,230.1,172.1,230.1,174.8z M233.6,175.3c0-7.3-5.6-12.3-14-12.3c-1.6,0-3.4,0.1-5.4,0.3
		l-3.1,0.3v0.7c2.5,0.5,2.8,1,2.8,4.3v13.6c0,2.9-0.6,3.6-3.6,4.1v0.8h6.1c2.2,0.2,3.9,0.3,5.3,0.3
		C228.9,187.3,233.6,182.4,233.6,175.3z"/>
	<path class="st0" d="M238.9,173.4l-1-1.1c0.4-0.3,0.8-0.6,1-0.8c0.9-0.8,1.5-2,1.5-3c0-0.6-0.3-1.2-0.8-1.4l-0.7-0.4
		c-0.6-0.3-1-0.9-1-1.6c0-1.2,1-2.2,2.2-2.2c1.5,0,2.7,1.7,2.7,4C242.7,168.7,241.9,170,238.9,173.4z"/>
	<path class="st0" d="M257.2,177.3h-7.4l3.6-10.9L257.2,177.3z M265.2,187v-0.8c-1.4-0.7-1.9-1.2-2.3-2.3l-7.4-20.7h-2.3l-6.9,18.9
		c-1.1,3-1.3,3.3-3.6,4.1v0.8h8.4v-0.8c-2.1-0.3-2.9-0.9-2.9-2.1c0-0.4,0.1-1.2,0.4-2.2l0.7-3.1h8.4l1.5,4.1
		c0.2,0.4,0.3,0.9,0.3,1.3c0,1-0.4,1.6-1.8,2v0.8H265.2z"/>
	<path class="st0" d="M280.1,170.5c0,1.9-0.7,3.4-2.3,4.9c-0.8,0.2-1.1,0.3-2,0.3c-1.2,0-1.7-0.1-2.9-0.5v-10.6c2.1,0,3,0.2,4.1,0.8
		c0.6,0.3,1.1,0.7,1.6,1.1C279.6,167.5,280.1,168.9,280.1,170.5z M291.1,188.8v-0.6c-1.9-0.1-2.6-0.4-3.6-1c-0.5-0.3-0.9-0.7-1.3-1
		c-1.4-1.4-3-3.6-7.4-10.1c2-1.9,2.7-2.7,3.3-4.1c0.5-1,0.8-2.2,0.8-3.4c0-3.3-2.4-5.6-6-5.6c-1.3,0-1.9,0.1-4.5,0.5l-5.6-0.4v0.8
		c2.5,1,3.1,1.9,3.1,4.7v13.6c0,2.9-0.6,3.6-3.6,4.1v0.8h10.2v-0.8c-3-0.4-3.6-1.1-3.6-4.1V177c0.7,0.1,1.2,0.1,1.5,0.1
		c0.4,0,0.9,0,1.6-0.1c3.1,5.7,4.3,7.5,6.4,9.6c1.7,1.7,4.1,2.7,6.3,2.7C289.5,189.2,290,189.1,291.1,188.8z"/>
	<path class="st0" d="M309.1,168.6c-1.8-2.8-3.2-3.7-5.6-3.7h-2.6v17.3c0,2.5,1.2,3.6,4.6,4.1v0.8h-12v-0.8c3.3-0.6,4.3-1.6,4.3-4.1
		v-17.3h-2.6c-2.2,0-3.6,0.9-5.7,3.7l-0.7-0.4l1.2-5.4c3.3,0.9,4.3,1,9.3,1c4.9,0,5.9-0.1,9.2-1l1.3,5.4L309.1,168.6z"/>
	<path class="st0" d="M330.9,175.7c0,6.2-2.9,10.3-7.3,10.3c-4.7,0-8.3-4.9-8.3-11.4c0-6.2,2.9-10.3,7.2-10.3
		C327.3,164.3,330.9,169.2,330.9,175.7z M334.7,175.2c0-3.7-1.4-7.1-3.8-9.5c-2-2-4.6-2.9-7.9-2.9c-6.8,0-11.6,5.1-11.6,12.4
		c0,7.2,4.9,12.3,11.6,12.3C329.9,187.6,334.7,182.5,334.7,175.2z"/>
	<path class="st0" d="M337.2,187v-0.8c3-0.4,3.6-1.1,3.6-4.1v-14c0-2.9-0.6-3.6-3.3-4.1v-0.7h10v0.7c-3,0.5-3.6,1.2-3.6,4.1v14
		c0,2.9,0.6,3.6,3.6,4.1v0.8H337.2z"/>
	<path class="st0" d="M357.5,187.6c-2,0-3.4-0.3-6.4-1.6l-0.5-6.1l0.8-0.4c0.9,2.4,1.5,3.4,2.6,4.6c1.2,1.3,2.7,2,4,2
		c2.2,0,3.9-1.8,3.9-4c0-1.6-0.7-2.5-2.8-3.9c-3.2-2.1-4.4-3-5.6-4.2c-1.5-1.4-2-2.7-2-4.7c0-3.8,2.8-6.5,6.9-6.5
		c1.6,0,2.8,0.3,5.3,1.3l0.8,5.4l-0.8,0.4c-0.6-1.1-1.2-2-1.7-2.9c-1.2-1.8-2.7-2.7-4.4-2.7c-2,0-3.6,1.5-3.6,3.6
		c0,1,0.5,2.3,1.3,3.2c1,1,2,1.8,5.9,4.3c1,0.6,1.8,1.2,2.3,1.8c1,1,1.5,2.5,1.5,4.2C364.8,184.9,361.7,187.6,357.5,187.6z"/>
	<path class="st0" d="M196.2,9.4c0,0-22.8-6-35.9,29.5c-9,20.4-7.5,18.9-12.7,29.8c-5.6,11.8-11,16-9.4,15.1c0,0,19.7,3.4,36.1-29.7
		c9-18.3,11.8-40.7,22.7-44.8"/>
	<g>
		<path class="st1" d="M134.4,89.6c1.2-1.3,1.8-2.1,1.8-2.1c-14.8,7.9-17.3,3.4-18.5-2.1c-1.2-5.5,6.7-25.9,12.6-45.2
			c5.9-19.3-1.8-25.9-7-25.2c-5.2,0.8-14.7,3.1-14.7,3.1s3.2-0.4,5.7,6.3c2,5.3-10.8,41.7-10.8,41.7s-8.2,23.6,0.3,31.1
			C115.6,105.2,129,94.5,134.4,89.6z"/>
	</g>
	<g>
		<path class="st2" d="M363.8,60c-51.6-9.5-102.4-2.5-145.9,10c-0.9,2.6-1.6,4.9-2.3,7C304.2,52.1,363.8,60,363.8,60z"/>
		<path class="st2" d="M192.1,78.4C131.6,100,90.4,129.1,90.4,129.1c35.2-19.6,68.6-33.8,99.3-44.1c0.2-0.5,0.4-1.1,0.6-1.6
			C190.9,81.7,191.5,80,192.1,78.4z"/>
		<path class="st3" d="M207.2,125.5c-7.1-7.1,2.3-31.1,5.3-39.4c0.6-1.6,1.7-4.8,3.1-9.1c0.7-2.1,1.5-4.4,2.3-7
			c4.1-12.3,9.7-29.4,14.9-45.4C238.2,7,233.1,0,222.3,0c-7.7,2.4-19.8,4.7-19.8,4.7s13.9,0.3,8.3,18.1c-3.4,10.9-9.6,30-18.6,55.6
			c-0.6,1.7-1.2,3.4-1.8,5.1c-0.2,0.5-0.4,1-0.6,1.6c-6.7,19.2-13.6,45.2,5,52.5c13.6,5.3,35.2-7.6,47-22.7
			C224,126.9,214.3,132.6,207.2,125.5z"/>
	</g>
</g>
</svg>
