<?xml version="1.0" encoding="UTF-8" standalone="no"?>
<!-- Created with Inkscape (http://www.inkscape.org/) -->
<svg
   xmlns:dc="http://purl.org/dc/elements/1.1/"
   xmlns:cc="http://creativecommons.org/ns#"
   xmlns:rdf="http://www.w3.org/1999/02/22-rdf-syntax-ns#"
   xmlns:svg="http://www.w3.org/2000/svg"
   xmlns="http://www.w3.org/2000/svg"
   xmlns:sodipodi="http://sodipodi.sourceforge.net/DTD/sodipodi-0.dtd"
   xmlns:inkscape="http://www.inkscape.org/namespaces/inkscape"
   id="svg2"
   sodipodi:version="0.32"
   inkscape:version="0.46"
   width="251.98875"
   height="145.50999"
   xml:space="preserve"
   sodipodi:docname="Université de Bretagne occidentale.svg"
   version="1.0"
   inkscape:output_extension="org.inkscape.output.svg.inkscape"><metadata
     id="metadata7"><rdf:RDF><cc:Work
         rdf:about=""><dc:format>image/svg+xml</dc:format><dc:type
           rdf:resource="http://purl.org/dc/dcmitype/StillImage" /></cc:Work></rdf:RDF></metadata><defs
     id="defs5"><inkscape:perspective
       sodipodi:type="inkscape:persp3d"
       inkscape:vp_x="0 : 526.18109 : 1"
       inkscape:vp_y="0 : 1000 : 0"
       inkscape:vp_z="744.09448 : 526.18109 : 1"
       inkscape:persp3d-origin="372.04724 : 350.78739 : 1"
       id="perspective9" /><clipPath
       clipPathUnits="userSpaceOnUse"
       id="clipPath19"><path
         d="M 0,1164.08 L 0,0 L 2015.91,0 L 2015.91,1164.08 L 0,1164.08 z"
         id="path21" /></clipPath></defs><sodipodi:namedview
     inkscape:window-height="726"
     inkscape:window-width="1017"
     inkscape:pageshadow="2"
     inkscape:pageopacity="0.0"
     guidetolerance="10.0"
     gridtolerance="10.0"
     objecttolerance="10.0"
     borderopacity="1.0"
     bordercolor="#666666"
     pagecolor="#ffffff"
     id="base"
     showgrid="false"
     inkscape:zoom="3.3949557"
     inkscape:cx="125.99438"
     inkscape:cy="72.754995"
     inkscape:window-x="0"
     inkscape:window-y="25"
     inkscape:current-layer="g11" /><g
     id="g11"
     inkscape:groupmode="layer"
     inkscape:label="UBO-Hor-noir"
     transform="matrix(1.25,0,0,-1.25,0,145.51)"><g
       id="g13"
       transform="scale(0.1,0.1)"><g
         id="g15"><g
           id="g17"
           clip-path="url(#clipPath19)"><path
             d="M 713.496,418.98 L 713.496,616.84 C 713.496,644.223 691.379,666.438 663.938,666.438 C 636.66,666.438 614.512,644.223 614.512,616.84 L 614.512,418.98 C 614.512,391.648 636.66,369.488 663.938,369.488 C 691.379,369.488 713.496,391.648 713.496,418.98 z M 446.594,865.688 C 419.258,865.688 397.062,843.523 397.062,816.027 L 397.062,583.539 C 397.062,583.539 399,535.844 365.934,507.387 C 320.445,466.742 248.074,468.641 248.074,468.641 C 248.074,468.641 175.918,466.742 130.383,507.387 C 97.1992,535.844 99.3203,583.539 99.3203,583.539 L 99.3203,816.027 C 99.3203,843.523 77.0547,865.688 49.6719,865.688 C 22.1641,865.688 0,843.523 0,816.027 L 0,550.695 C 0,500.43 35.8477,434.34 95.4297,405.285 C 151.816,377.781 199.758,369.488 248.074,369.488 C 296.609,369.488 344.492,377.781 401.055,405.285 C 460.398,434.34 496.145,500.43 496.145,550.695 L 496.145,816.027 C 496.145,843.523 474.148,865.688 446.594,865.688 z M 1129.67,505.379 C 1129.67,591.281 1058.36,623.742 1058.36,623.742 C 1091.37,646.891 1110.63,694.555 1108.96,726.785 C 1102.64,857.219 978.977,864.684 978.977,864.684 L 663.605,864.684 C 636.484,864.684 614.512,842.465 614.512,815.301 C 614.512,788.133 636.484,766.039 663.605,766.039 L 957.441,766.039 C 985.215,766.039 1007.59,743.773 1007.59,716.043 C 1007.59,688.371 985.215,665.93 957.441,665.93 L 846.98,665.93 C 819.602,665.93 797.551,643.891 797.551,616.555 C 797.551,589.109 819.602,566.898 846.98,566.898 L 981.484,566.898 C 1008.59,566.898 1030.63,544.91 1030.63,517.797 C 1030.63,490.57 1008.59,468.641 981.484,468.641 L 846.367,468.641 C 819.082,468.641 796.816,446.477 796.816,419.09 C 796.816,391.809 819.082,369.488 846.367,369.488 L 987.051,369.488 C 1064.43,369.488 1129.67,423.656 1129.67,505.379 z M 1523.33,650.242 C 1508.48,664.875 1484.64,664.262 1484.64,664.262 C 1484.64,664.262 1460.94,664.875 1446.01,650.242 C 1435.1,639.988 1435.76,622.613 1435.76,622.613 L 1435.76,597.797 C 1435.76,597.797 1435.1,580.598 1446.01,570.297 C 1460.94,555.707 1484.64,556.492 1484.64,556.492 C 1484.64,556.492 1508.48,555.707 1523.33,570.297 C 1534.2,580.598 1533.57,597.797 1533.57,597.797 L 1533.57,622.613 C 1533.57,622.613 1534.2,639.988 1523.33,650.242 z M 247.961,564.281 C 275.465,564.281 297.562,580.754 297.562,608.094 L 297.562,816.027 C 297.562,843.523 275.465,865.688 247.961,865.688 C 220.574,865.688 198.48,843.523 198.48,816.027 L 198.48,608.094 C 198.48,580.754 220.574,564.281 247.961,564.281 z M 1601,500.48 C 1555.68,459.895 1483.3,461.672 1483.3,461.672 C 1483.3,461.672 1411.26,459.895 1365.62,500.48 C 1332.66,528.816 1334.82,576.473 1334.82,576.473 L 1334.82,645.617 C 1334.82,645.617 1332.66,693.605 1365.62,721.832 C 1411.26,762.422 1483.3,760.52 1483.3,760.52 C 1483.3,760.52 1555.68,762.422 1601,721.832 C 1634.06,693.605 1631.95,645.617 1631.95,645.617 L 1631.95,576.473 C 1631.95,576.473 1634.06,528.816 1601,500.48 z M 1635.9,823.645 C 1579.56,851.215 1531.67,859.613 1483.3,859.613 C 1435.1,859.613 1387.23,851.215 1330.82,823.645 C 1271.53,794.77 1235.68,728.734 1235.68,678.516 L 1235.68,543.625 C 1235.68,493.41 1271.53,427.496 1330.82,398.605 C 1387.23,371.055 1435.1,362.859 1483.3,362.859 C 1531.67,362.859 1579.56,371.055 1635.9,398.605 C 1695.2,427.496 1731.04,493.41 1731.04,543.625 L 1731.04,678.516 C 1731.04,728.734 1695.2,794.77 1635.9,823.645 z M 1253.94,21.6016 C 1253.94,14.0781 1247.99,7.78906 1240.96,7.78906 C 1233.79,8.07031 1227.89,14.1484 1227.89,21.7109 L 1227.89,38.3516 C 1227.89,45.8086 1233.79,51.7695 1240.96,51.7695 C 1247.99,51.7109 1253.94,45.6406 1253.94,38.1289 L 1253.94,21.6016 z M 1245.7,85.8516 C 1245.7,83.5586 1247.15,81.8398 1249.16,81.7891 L 1249.43,81.7891 L 1254.5,82.0586 L 1253.94,52.1016 C 1253,53 1252.27,53.7812 1251.48,54.5 C 1247.87,58.8984 1244.53,59.9609 1240.96,59.9609 C 1229.34,59.8516 1219.86,50.0508 1219.86,38.1289 L 1219.86,21.6016 C 1219.86,9.69922 1229.34,0.0585938 1240.96,0.0585938 C 1248.26,0.0585938 1252.1,2.83984 1254.15,6 C 1254.55,6.55859 1255.28,6.83984 1255.95,6.83984 C 1257.17,6.83984 1258.07,5.55078 1258.07,4.55859 L 1258.07,2.51172 C 1258.16,1.55078 1259.06,0.949219 1260.06,0.949219 C 1260.84,0.949219 1261.74,1.83984 1261.74,3.10938 L 1261.74,89.0703 L 1249.49,89.7891 C 1247.36,89.7891 1245.7,87.8984 1245.7,85.8516 z M 1339.24,37.5781 L 1312.95,37.5781 C 1313.16,37.6797 1313.16,37.9609 1313.16,38.1289 C 1313.16,44.6406 1317.02,48.6484 1317.02,48.6484 C 1319.51,51.2188 1322.66,52.7188 1326.32,52.7188 C 1329.43,52.7188 1332.77,51.2188 1335.21,48.6484 C 1335.66,48.5391 1339.24,44.5391 1339.24,38.1289 L 1339.24,37.5781 z M 1326.19,60.7383 C 1314.63,60.7383 1305.27,51.0391 1305.27,38.8711 L 1305.27,22.1094 C 1305.27,9.78906 1314.63,0 1326.32,0 C 1333.67,0 1340.62,3.67969 1344.91,9.62891 C 1345.23,10.4609 1345.58,11.2383 1345.58,11.9688 C 1345.58,13.25 1345.14,14.4688 1344.13,15.1992 C 1343.18,15.8711 1342.23,16.1406 1341.56,16.1406 C 1340.33,16.1406 1339.06,15.5898 1338.16,14.3594 C 1335.66,10.5312 1331.21,8.30078 1326.32,8.30078 C 1318.91,8.30078 1313.16,14.3594 1313.16,22.1094 L 1313.16,29.9609 L 1314.57,29.9609 L 1343.13,29.4414 C 1345.35,29.4414 1347.14,31.3516 1347.14,33.4102 L 1347.14,38.8711 C 1346.92,51.0391 1337.68,60.7383 1326.19,60.7383 z M 947.852,21.9883 C 947.852,14.3594 942.07,8.30078 934.883,8.30078 C 934.707,8.35156 934.492,8.35156 934.492,8.35156 C 927.422,8.35156 921.699,14.3594 921.699,21.8789 L 921.699,39.1914 C 921.699,46.7695 927.539,53 934.707,53 C 942.07,53 947.852,46.7695 947.852,39.1914 L 947.852,21.9883 z M 955.098,22.6094 L 954.883,22.6094 L 954.883,23.4805 L 955.527,39.1914 C 955.488,51.3281 946.086,61.1289 934.492,61.1289 C 923.145,61.1289 913.906,51.3281 913.906,39.1914 L 913.906,21.9883 C 913.906,9.78906 923.145,0.0585938 934.707,0.0585938 C 940.281,0.0585938 945.527,2.32812 949.473,6.51172 C 953.438,10.5312 955.652,16.1406 955.652,21.9883 L 955.098,21.9883 L 955.098,22.6094 z M 1173.22,86.0195 C 1173.22,86.3906 1172.89,86.6914 1172.71,87.0117 C 1172.71,88.6211 1171.32,90.1211 1169.21,90.1211 C 1166.64,90.1211 1164.64,87.8984 1164.64,85.3398 C 1164.86,82.8398 1166.76,80.6602 1169.53,80.6602 C 1171.99,80.8281 1174.34,83.0117 1174.34,85.6211 L 1173.44,85.6211 L 1173.22,86.0195 z M 1029.59,46.5898 C 1030.25,45.4883 1031.53,44.8711 1032.7,44.8711 C 1033.48,44.8711 1034.26,45.1016 1035.04,45.4883 C 1036,46.4805 1036.48,47.6094 1036.48,49.0391 C 1036.48,49.6992 1036.48,50.3906 1036.04,51.2188 C 1032.03,57.1719 1025.68,61 1018.79,61 C 1007.15,60.7383 997.793,51.0391 997.793,38.8711 L 997.793,21.9883 C 997.793,9.96094 1007.15,0.0585938 1018.79,0.0585938 C 1025.68,0.0585938 1032.03,3.73047 1036.04,9.62891 C 1036.48,10.4609 1036.48,11.1797 1036.48,11.9688 C 1036.48,13.3086 1036,14.5781 1034.86,15.3711 C 1034.26,16.0312 1033.38,16.2617 1032.6,16.2617 C 1031.53,16.2617 1030.25,15.5898 1029.59,14.3594 C 1027.01,10.5312 1023.03,8.35156 1018.79,8.35156 C 1011.43,8.35156 1005.64,14.3594 1005.64,21.9883 L 1005.64,38.8711 C 1005.64,46.4805 1011.43,52.6211 1018.61,52.6211 L 1019,53.0508 L 1019,52.7188 C 1023.35,52.7188 1027.19,50.3906 1029.59,46.5898 z M 1111.52,46.7109 C 1112.09,45.4883 1113.31,44.8711 1114.55,44.8711 C 1115.43,44.8711 1116.21,45.1992 1116.99,45.4883 C 1117.92,46.4805 1118.44,47.6992 1118.44,49.0391 C 1118.44,49.6602 1118.38,50.5 1117.99,51.2188 C 1113.98,57.3398 1107.64,61 1100.74,61 C 1089.04,60.7383 1079.75,51.0391 1079.75,38.8711 L 1079.75,21.9883 C 1079.79,9.96094 1089.04,0.0585938 1100.74,0.0585938 C 1107.64,0.0585938 1113.98,3.73047 1117.99,9.62891 C 1118.32,10.4609 1118.44,11.2383 1118.44,11.9219 C 1118.44,13.3086 1117.92,14.5781 1116.88,15.3711 C 1116.08,16.0312 1115.43,16.2617 1114.55,16.2617 C 1113.31,16.2617 1112.21,15.5898 1111.52,14.3594 C 1108.96,10.5312 1104.96,8.35156 1100.74,8.35156 C 1093.28,8.35156 1087.49,14.3594 1087.49,21.9883 L 1087.49,38.8711 C 1087.49,46.4805 1093.38,52.6211 1100.51,52.6211 L 1100.96,53 L 1100.96,52.7188 C 1105.2,52.7188 1109.08,50.3906 1111.52,46.7109 z M 1157.73,56.5117 C 1157.73,54.1602 1159.39,52.2695 1161.62,52.2695 L 1166.64,52.2695 L 1166.04,2.05859 L 1166.64,2.05859 L 1166.64,1.48828 L 1173.32,1.48828 L 1173.77,59.8516 L 1161.62,60.5195 C 1159.39,60.5195 1157.73,58.6797 1157.73,56.5117 z M 1645.2,8.51953 C 1643.76,8.51953 1642.7,9.25 1641.97,9.69922 C 1641.08,10.4609 1640.63,11.8398 1640.63,13.1406 L 1640.63,89.0703 L 1628.61,89.7891 C 1626.21,89.7891 1624.49,87.8984 1624.49,85.7305 C 1624.59,83.5586 1626.16,81.7891 1628.16,81.7891 L 1628.38,81.7891 L 1633.5,82.0586 L 1632.83,13.0312 C 1632.83,9.46094 1634.11,5.85156 1636.41,3.39844 C 1638.61,1.33984 1641.75,0.671875 1644.98,0.671875 C 1645.24,0.671875 1645.2,0.671875 1645.2,0.671875 C 1647.42,0.671875 1648.87,2.39062 1648.87,4.55859 L 1648.52,4.55859 C 1648.87,6.96094 1647.21,8.51953 1645.2,8.51953 z M 1723.3,37.5781 L 1696.97,37.5781 C 1697.13,37.6797 1697.13,37.9609 1697.13,38.1914 C 1697.13,44.5391 1701.09,48.6484 1701.09,48.6484 C 1703.44,51.2188 1706.77,52.7812 1710.33,52.7812 C 1713.61,52.7812 1716.8,51.2188 1719.3,48.6484 C 1719.79,48.4805 1723.3,44.5391 1723.3,38.1914 L 1723.3,37.5781 z M 1710.21,60.7383 C 1698.59,60.7383 1689.3,51.1016 1689.3,38.8711 L 1689.3,21.9883 C 1689.3,9.96094 1698.59,0.0585938 1710.33,0.0585938 C 1717.68,0.0585938 1724.63,3.67969 1728.87,9.62891 C 1729.47,10.4102 1729.59,11.2383 1729.59,11.9688 C 1729.59,13.25 1729.08,14.4688 1728.04,15.1992 C 1727.31,15.8711 1726.42,16.0312 1725.53,16.0312 C 1724.37,16.0312 1723.09,15.5898 1722.36,14.3594 C 1719.79,10.5312 1715.19,8.35156 1710.33,8.35156 C 1702.97,8.35156 1697.13,14.3594 1697.13,21.9883 L 1697.13,29.9609 L 1698.59,29.9609 L 1727.03,29.4414 C 1729.47,29.4414 1731.04,31.3516 1731.04,33.4102 L 1731.04,38.8711 C 1731.04,51.1016 1721.68,60.7383 1710.21,60.7383 z M 1497.77,8.46094 L 1495.05,8.35156 C 1492.89,8.35156 1490.76,9.96094 1490.76,12.9219 L 1490.76,52.5508 L 1491.15,52.5508 L 1497.56,51.7695 C 1499.79,51.7695 1501.5,53.7812 1501.5,56 C 1501.5,58.1719 1499.79,59.9609 1497.56,59.9609 L 1490.2,59.9609 L 1490.2,60.6211 L 1490.76,75.1094 L 1490.2,74.8203 L 1490.2,75.1094 L 1488.65,74.2109 L 1483.2,72.2695 L 1482.73,59.2891 L 1476.07,59.9609 L 1475.4,52.5508 L 1483.3,51.7695 L 1482.73,12.9219 C 1482.73,6.33984 1487.75,0.160156 1495.12,0.160156 L 1497.77,0.160156 C 1500,0.160156 1501.68,2.05859 1501.68,4.23047 C 1501.68,6.55859 1500,8.46094 1497.77,8.46094 z M 1428.85,54.5 C 1424.83,58.6211 1419.83,61 1414.16,61 C 1411.26,61 1407.03,60.3984 1404.92,58.1719 C 1404.7,57.9609 1403.92,57.4492 1403.25,57.4492 C 1402.13,57.4492 1401.13,58.8984 1401.13,60.0117 L 1388.89,60.5195 C 1386.66,60.5195 1385,58.6797 1385,56.5117 C 1385,54.1602 1386.66,52.3906 1388.93,52.3906 L 1393.91,52.3906 L 1393.22,1.89062 L 1400.58,1.33984 L 1400.58,3.17188 L 1401.13,39.0195 C 1401.13,46.7109 1407.03,52.7188 1414.16,52.7188 C 1421.46,52.7188 1427.19,46.7109 1427.19,39.0195 L 1427.19,4.67969 C 1427.19,2.32812 1428.75,0.449219 1431.2,0.449219 C 1433.3,0.449219 1435.1,2.32812 1435.1,4.55859 L 1435.04,4.55859 L 1435.1,39.0195 C 1435.1,48.4805 1430.3,53.2695 1428.85,54.5 z M 1576.6,19.3711 C 1576.6,16.0312 1573.28,9.30078 1566.7,9.30078 L 1560.8,9.19141 C 1555.23,9.19141 1551.23,14.6406 1551.23,19.6602 C 1551.23,24.9414 1555.47,30.1211 1560.8,30.1211 C 1560.8,30.1211 1562.36,30.1211 1565.25,30.1211 L 1576.6,30.1211 L 1576.6,19.3711 z M 1563.52,60.6211 L 1549.55,60.5195 C 1546.99,60.5195 1545.7,58.5586 1545.7,56.5117 C 1545.7,54.5 1546.99,52.4883 1549.66,52.4883 L 1563.91,52.6211 C 1570.1,52.5508 1576.72,48.8281 1576.78,37.8594 L 1560.8,38.4688 C 1551.88,38.4688 1543.43,30.5117 1543.43,20.0508 C 1543.43,7.23047 1553.55,1.16016 1560.35,1.16016 L 1568.36,1.16016 C 1571.37,1.16016 1574.94,2.71875 1576.88,4.89062 C 1577.38,5.23828 1577.83,5.67969 1578.73,5.67969 L 1578.84,6.33984 L 1578.84,5.73047 C 1579.84,5.73047 1580.78,4.17969 1580.78,3.05859 C 1580.63,3.10938 1581.01,2.71875 1580.78,2.71875 C 1580.78,1.83984 1581.72,0.949219 1582.58,0.949219 C 1583.63,0.949219 1584.41,1.89062 1584.41,3.05859 L 1584.41,39.1914 C 1584.41,53.5391 1573.71,60.6211 1563.52,60.6211 z M 1629.61,221.512 C 1626.65,221.512 1622.31,220.848 1620.25,218.785 C 1619.92,218.34 1619.36,217.898 1618.69,217.898 C 1617.47,217.898 1616.58,219.402 1616.58,220.691 L 1604.23,221.07 C 1602.05,221.07 1600.43,219.285 1600.43,217.012 C 1600.43,214.781 1602.05,212.828 1604.23,212.828 L 1609.23,212.828 L 1608.52,162.449 L 1616.03,161.891 L 1616.58,199.578 C 1616.58,207.32 1622.48,213.328 1629.61,213.328 C 1636.79,213.328 1642.46,207.32 1642.46,199.578 L 1642.46,165.184 C 1642.46,162.961 1644.14,161.051 1646.54,161.051 C 1648.65,161.051 1650.38,162.961 1650.38,165.008 L 1650.43,199.578 C 1650.43,208.934 1645.64,213.719 1644.32,215.047 C 1640.29,219.234 1635.07,221.512 1629.61,221.512 z M 1393.12,160.781 C 1395.35,160.781 1397.23,162.609 1397.23,164.891 C 1397.23,167.02 1395.35,169.02 1393.12,169.02 L 1390.55,168.855 C 1388.5,168.855 1386.45,170.574 1386.45,173.414 L 1386.45,213.055 L 1386.66,213.055 L 1393.01,212.332 C 1395.35,212.332 1396.89,214.219 1396.89,216.453 C 1396.89,218.719 1395.35,220.457 1393.01,220.457 L 1385.75,220.457 L 1386.45,235.652 L 1385.75,235.379 L 1385.75,235.652 L 1384.38,234.988 L 1378.77,232.82 L 1378.32,219.793 L 1371.63,220.457 L 1370.96,213.113 L 1379.02,212.332 L 1378.32,173.414 C 1378.32,166.844 1383.31,160.781 1390.67,160.781 L 1393.12,160.781 z M 1033.93,198.074 L 1007.71,198.074 C 1007.75,198.133 1007.75,198.523 1007.75,198.641 C 1007.75,205.203 1011.77,209.148 1011.77,209.148 C 1014.12,211.941 1017.34,213.328 1020.84,213.328 C 1024.24,213.328 1027.58,211.941 1030.02,209.148 C 1030.47,208.98 1033.93,205.086 1033.93,198.641 L 1033.93,198.074 z M 1020.8,221.465 C 1009.38,221.465 1000.02,211.492 1000.02,199.352 L 1000.02,182.488 C 1000.02,170.406 1009.38,160.5 1020.84,160.5 C 1028.24,160.5 1035.25,164.18 1039.67,170.242 C 1039.99,170.953 1040.27,171.805 1040.27,172.469 C 1040.27,173.738 1039.77,174.969 1038.71,175.867 C 1037.93,176.355 1037.05,176.805 1036.27,176.805 C 1035.04,176.805 1033.69,176.023 1033.09,174.969 C 1030.47,171.188 1025.68,168.855 1020.84,168.855 C 1013.55,168.855 1007.75,174.871 1007.75,182.488 L 1007.75,190.555 L 1009.38,190.555 L 1037.83,189.996 C 1039.99,189.996 1041.72,191.785 1041.72,194.012 L 1041.72,199.352 C 1041.54,211.492 1032.37,221.465 1020.8,221.465 z M 1723.18,198.074 L 1696.91,198.074 C 1697.08,198.133 1697.08,198.523 1697.08,198.746 C 1697.08,205.086 1701.09,209.148 1700.97,209.148 C 1703.32,211.941 1706.54,213.328 1710.21,213.328 C 1713.44,213.328 1716.8,211.941 1719.24,209.148 C 1719.69,208.934 1723.18,204.93 1723.18,198.746 L 1723.18,198.074 z M 1710,221.465 C 1698.47,221.465 1689.17,211.492 1689.17,199.352 L 1689.17,182.547 C 1689.17,170.406 1698.47,160.5 1710.21,160.5 C 1717.63,160.5 1724.58,164.18 1728.87,170.242 C 1729.26,170.953 1729.59,171.805 1729.59,172.469 C 1729.59,173.738 1729.08,174.969 1728.04,175.75 C 1727.2,176.355 1726.2,176.707 1725.53,176.707 C 1724.37,176.707 1723.09,176.082 1722.25,174.969 C 1719.69,171.188 1715.06,168.855 1710.21,168.855 C 1702.93,168.855 1697.08,174.969 1697.08,182.547 L 1697.08,190.555 L 1698.59,190.555 L 1727.03,189.996 C 1729.26,189.996 1731.04,191.785 1731.04,194.012 L 1731.04,199.352 C 1730.82,211.492 1721.68,221.465 1710,221.465 z M 1471.29,198.289 C 1471.29,198.797 1471.15,199.188 1471.15,199.684 C 1471.15,199.188 1471.39,198.797 1471.39,198.289 L 1471.29,198.289 z M 1470.63,179.871 C 1470.63,176.59 1467.39,169.793 1460.64,169.793 L 1454.79,169.684 C 1449.01,169.684 1445.21,175.145 1445.21,180.203 C 1445.21,185.547 1449.36,190.672 1454.79,190.672 C 1454.79,190.672 1456.36,190.672 1459.2,190.672 L 1470.63,190.672 L 1470.63,179.871 z M 1476.51,161.391 C 1477.52,161.391 1478.28,162.328 1478.28,163.449 L 1478.28,199.684 C 1478.28,214.109 1467.62,221.18 1457.52,221.18 L 1443.55,221.07 C 1440.9,221.07 1439.66,219.109 1439.66,217.059 C 1439.66,215.047 1440.9,212.996 1443.55,212.996 L 1457.7,213.113 C 1464.04,212.996 1470.72,209.383 1470.72,198.289 L 1454.79,198.973 C 1445.78,198.973 1437.36,191.121 1437.36,180.711 C 1437.36,167.723 1447.5,161.828 1454.36,161.672 L 1462.48,161.672 C 1465.21,161.828 1468.83,163.391 1470.84,165.574 C 1471.39,165.848 1471.93,166.285 1472.68,166.285 L 1472.71,166.844 L 1472.71,166.402 C 1473.95,166.402 1474.95,164.676 1474.95,163.449 C 1474.61,163.66 1474.95,163.352 1474.95,163.352 C 1474.95,162.328 1475.51,161.391 1476.51,161.391 z M 1299.03,198.641 C 1299.03,205.203 1302.92,209.148 1302.92,209.148 C 1305.31,211.941 1308.6,213.328 1312.01,213.328 C 1315.41,213.328 1318.68,211.941 1321.07,209.148 C 1321.52,208.98 1324.96,205.086 1324.96,198.641 L 1324.96,198.074 L 1298.81,198.074 C 1299.03,198.133 1299.03,198.465 1299.03,198.641 z M 1330.7,170.242 C 1331.21,170.953 1331.27,171.805 1331.27,172.469 C 1331.27,173.738 1330.88,174.969 1329.99,175.75 C 1329.1,176.355 1328.25,176.707 1327.36,176.707 C 1326.19,176.707 1324.87,176.082 1324.32,174.969 C 1321.52,171.082 1316.96,168.855 1312.01,168.855 C 1304.82,168.855 1298.91,174.969 1298.91,182.488 L 1298.91,190.555 L 1328.87,189.996 C 1331.21,189.996 1332.87,191.902 1332.87,194.012 L 1332.87,199.352 C 1332.87,211.492 1323.54,221.465 1311.89,221.465 C 1300.38,221.465 1291.01,211.492 1291.01,199.352 L 1291.01,182.488 C 1291.01,170.406 1300.38,160.5 1312.01,160.5 C 1319.51,160.5 1326.48,164.18 1330.7,170.242 z M 1169.65,182.039 C 1169.65,174.578 1163.75,168.406 1156.64,168.406 C 1149.39,168.57 1143.59,174.695 1143.59,182.215 L 1143.59,198.797 C 1143.59,206.316 1149.39,212.332 1156.46,212.332 C 1163.87,212.215 1169.65,206.207 1169.65,198.641 L 1169.65,182.039 z M 1142.98,211.824 L 1142.98,212.215 C 1143.94,213.328 1144.88,214.004 1145.72,214.781 C 1144.88,213.824 1143.94,212.996 1142.98,211.824 z M 1176.89,182.762 L 1176.78,182.762 L 1177.44,198.797 C 1177.34,210.66 1167.99,220.398 1156.39,220.398 C 1152.29,220.398 1148.38,219.109 1142.98,212.723 L 1142.88,229.363 L 1143.5,249.734 L 1131.29,250.457 C 1129,250.457 1127.34,248.406 1127.34,246.355 C 1127.46,244.18 1129,242.273 1130.8,242.273 L 1131.19,242.273 L 1136.25,242.664 L 1135.74,163.719 C 1135.74,162.328 1136.46,161.391 1137.48,161.391 C 1138.44,161.391 1139.26,162.328 1139.26,163.391 L 1139.26,165.184 C 1139.26,166.18 1140.14,167.457 1141.48,167.457 C 1142.1,167.457 1142.71,167.176 1143.15,166.453 C 1145.27,163.391 1149.22,160.5 1156.39,160.5 C 1162.19,160.5 1167.38,162.781 1171.32,166.844 C 1175.39,170.953 1177.44,176.355 1177.44,182.039 L 1176.89,182.039 L 1176.89,182.762 z M 1226.54,212.828 L 1225.82,162.449 L 1233.11,161.891 L 1233.56,195.848 C 1233.56,201.355 1235.95,206.148 1238.13,208.816 C 1241.35,212.723 1248.26,213.387 1252.22,213.387 C 1254.5,213.387 1256.16,215.223 1256.16,217.508 L 1256.05,217.508 C 1256.05,219.949 1254.44,221.629 1252.38,221.629 C 1247.66,221.629 1239.51,221.07 1233.11,213.387 L 1233.11,216.395 L 1233.56,220.398 L 1221.6,221.07 C 1219.31,221.07 1217.7,219.234 1217.7,217.012 C 1217.7,214.781 1219.31,212.828 1221.6,212.828 L 1226.54,212.828 z M 1527.17,199.969 C 1527.52,208.27 1534.3,213.504 1540.41,213.504 C 1548.11,213.504 1553.33,207.039 1553.33,199.969 C 1553.33,192.742 1547.56,186.492 1540.41,186.492 C 1533.24,186.492 1527.17,192.742 1527.17,199.969 z M 1561.46,155.602 L 1561.46,169.188 L 1543.71,169.91 L 1543.71,170.406 L 1544.38,179.371 C 1552.4,180.594 1561.46,187.508 1561.46,199.969 C 1561.46,204.195 1560.13,208.27 1557.57,212.496 L 1560.23,214.781 C 1561.13,215.496 1561.52,216.617 1561.52,217.508 C 1561.52,218.504 1561.13,219.461 1560.23,220.34 C 1559.45,221.297 1558.34,221.629 1557.23,221.629 C 1556.24,221.629 1555.47,221.297 1554.67,220.398 L 1551.88,217.398 C 1548.32,220.398 1544.38,221.629 1540.32,221.629 C 1528.74,221.629 1519.49,212 1519.49,200.203 C 1519.49,188.895 1527.52,180.926 1537.03,178.699 L 1536.52,162.57 L 1537.19,162.449 L 1537.3,162.449 L 1554.06,161.891 L 1553.33,155.32 C 1553.33,147.922 1547.56,141.84 1540.41,141.84 C 1532.73,141.961 1527.52,148.422 1527.52,155.711 C 1527.52,157.891 1525.72,159.77 1523.51,159.77 C 1521.22,159.77 1519.61,157.891 1519.61,155.602 C 1519.26,155.711 1519.61,155.371 1519.61,155.32 C 1519.61,143.629 1528.28,133.891 1540.41,133.84 C 1550.66,133.891 1561.46,142.07 1561.46,155.602 z M 640.059,246.355 C 640.059,246.57 639.766,246.902 639.551,247.117 C 639.668,248.855 638.391,250.457 636.211,250.457 C 633.547,250.457 631.484,248.238 631.484,245.562 C 631.758,243.113 633.816,240.945 636.316,240.945 C 639.004,241.109 641.113,243.277 641.113,245.84 L 640.449,245.84 L 640.059,246.355 z M 950.859,211.941 C 950.645,212.039 950.527,212.215 950.422,212.332 L 950.859,225.359 L 950.859,211.941 z M 950.195,182.039 C 950.195,174.578 944.258,168.406 937.18,168.406 C 930.039,168.406 924.188,174.695 924.188,182.215 L 924.188,198.797 C 924.188,206.426 930.039,212.332 937.18,212.332 C 944.258,212.215 950.195,206.207 950.195,198.641 L 950.195,182.039 z M 941.953,246.355 C 942.07,244.117 943.613,242.273 945.41,242.273 L 945.754,242.273 L 950.859,242.605 L 950.195,212.605 C 949.316,213.504 948.469,214.391 947.754,215.176 C 944.258,219.461 940.852,220.562 937.18,220.562 C 925.645,220.34 916.348,210.66 916.348,198.641 L 916.348,182.039 C 916.348,170.242 925.645,160.5 937.18,160.5 L 937.449,160.5 C 944.629,160.5 948.418,163.449 950.527,166.57 C 950.977,167.176 951.641,167.457 952.207,167.457 C 953.535,167.457 954.492,166.18 954.492,165.008 L 954.492,163.051 C 954.531,162.121 955.266,161.391 956.316,161.391 C 957.227,161.391 958.059,162.328 958.059,163.66 L 958.059,249.637 L 945.84,250.301 C 943.613,250.301 941.953,248.523 941.953,246.355 z M 399.391,197.137 L 399.27,197.137 L 399.27,197.234 L 399.391,197.234 L 399.391,197.137 z M 398.727,197.801 L 372.324,197.801 C 372.559,197.918 372.559,198.133 372.559,198.523 C 372.559,204.812 376.34,208.816 376.34,208.816 C 378.906,211.434 382.012,212.996 385.684,212.996 C 388.918,212.996 392.145,211.434 394.711,208.816 C 395.156,208.758 398.727,204.754 398.727,198.523 L 398.727,197.801 z M 385.465,220.953 C 374.008,220.953 364.664,211.16 364.664,199.078 L 364.664,182.215 C 364.664,170.074 374.008,160.281 385.684,160.281 C 393.047,160.281 400.051,163.891 404.285,169.949 C 404.617,170.691 405.062,171.355 405.062,172.305 C 405.062,173.414 404.508,174.578 403.5,175.477 C 402.617,176.141 401.734,176.355 401.055,176.355 C 399.609,176.355 398.508,175.75 397.773,174.578 C 395.156,170.801 390.531,168.57 385.684,168.57 C 378.391,168.57 372.559,174.578 372.559,182.215 L 372.559,190.223 L 374.008,190.223 L 402.617,189.676 C 404.617,189.676 406.508,191.512 406.508,193.68 L 406.508,199.078 C 406.406,211.16 397.164,220.953 385.465,220.953 z M 472.312,212.215 L 472.312,212.723 C 473.32,213.824 474.543,214.781 475.762,215.496 C 474.543,214.559 473.215,213.504 472.312,212.215 z M 465.703,162.961 L 465.527,162.961 L 465.703,167.625 L 465.703,162.961 z M 491.57,221.336 C 486.797,221.336 478.496,220.848 472.312,213.113 L 472.312,216.004 L 472.871,219.949 L 460.637,220.73 C 458.516,220.73 456.836,218.953 456.836,216.727 C 456.836,214.391 458.516,212.605 460.637,212.605 L 465.527,212.605 L 464.961,162.121 L 472.312,161.672 L 472.871,195.457 C 472.871,201.082 475.098,205.75 477.324,208.426 C 480.559,212.496 487.363,213.113 491.348,213.113 C 493.574,213.113 495.254,214.891 495.254,217.234 C 495.254,219.734 493.523,221.336 491.57,221.336 z M 556.223,199.969 C 554.766,201.141 553.77,203.191 553.77,205.359 C 553.77,205.535 553.77,205.652 553.77,205.652 C 553.77,209.773 557.051,212.996 561.055,212.996 C 561.387,213.113 561.719,213.113 561.719,213.113 C 563.391,213.113 565.078,212.215 566.406,210.66 C 567.012,209.773 568.281,209.148 569.285,209.148 C 570.293,209.148 571.121,209.422 572.07,210.203 C 572.734,210.984 573.301,212.215 573.301,213.211 C 573.301,214.168 572.961,215.113 572.422,215.84 L 572.344,215.84 C 569.188,219.461 565.176,221.336 560.84,221.336 C 552.598,221.297 545.918,214.168 545.918,205.535 L 546.094,205.086 C 546.016,200.809 547.695,196.402 551.152,193.465 L 563.164,183.047 C 564.961,181.531 565.957,179.207 565.957,176.805 C 565.957,174.578 565.176,172.742 563.73,170.953 C 562.168,169.344 560.059,168.57 558.152,168.57 C 557.051,168.57 555.93,169.02 555.039,169.344 C 554.602,169.684 554.16,169.949 553.652,170.406 C 552.703,170.953 552.09,171.414 551.594,172.469 C 550.645,173.738 549.473,174.402 548.098,174.402 C 547.148,174.402 546.633,174.188 546.016,173.738 C 544.688,173.133 544.133,171.805 544.133,170.469 C 544.133,169.734 544.402,169.02 544.688,168.238 C 547.578,163.449 552.48,160.391 557.832,160.391 L 558.27,160.391 C 562.5,160.391 566.406,162.219 569.285,165.281 C 572.297,168.57 573.867,172.742 573.867,176.707 C 573.867,181.375 571.855,186.16 568.066,189.441 C 567.852,189.996 557.605,198.582 556.223,199.969 z M 293.887,172.352 L 293.621,173.309 L 301.062,195.848 L 293.887,172.352 z M 313.984,219.461 C 313.547,220.398 313.32,221.465 312.312,221.734 C 311.93,222.02 311.316,222.02 311.148,222.02 C 309.43,222.02 307.867,220.848 307.422,219.109 L 293.5,173.582 L 287.039,194.566 L 280.137,219.109 C 279.805,219.949 278.746,220.289 278.031,220.73 C 278.031,220.73 277.914,220.906 277.793,220.906 C 277.184,221.18 277.031,222.02 276.348,222.02 C 275.906,222.02 275.465,221.852 275.129,221.734 C 273.461,221.336 272.23,219.461 272.23,217.84 C 272.23,217.398 272.461,217.012 272.578,216.617 L 289.164,163.391 C 289.488,161.828 291.152,160.5 292.836,160.5 L 294.895,160.5 C 296.461,160.5 298.07,161.828 298.516,163.391 L 314.887,216.617 C 314.988,217.059 315.105,217.398 315.105,217.84 C 315.105,218.504 314.375,218.719 314.105,219.402 C 313.984,219.402 313.984,219.461 313.984,219.461 z M 47.207,170.953 C 45.9805,172.305 45.3164,173.414 44.9766,175.309 C 44.9258,176.922 44.9258,179.312 44.9258,182.879 L 44.9766,219.949 L 38.0781,220.848 L 37.5352,182.215 C 37.5352,174.805 31.5625,168.68 24.3945,168.68 C 24.5469,168.727 24.168,168.68 24.168,168.68 C 16.6602,168.727 11.0312,174.969 11.0312,182.273 L 11.2031,217.625 C 11.2031,219.898 9.47266,221.797 7.36328,221.797 C 4.96484,221.797 3.29688,219.898 3.29688,217.723 L 3.125,182.215 C 3.125,171.355 11.4727,160.391 24.168,160.391 C 24.5469,160.5 24.6133,160.391 24.6133,160.391 C 29.168,160.391 34.9648,162.328 39.6406,168.238 L 40.6445,167.344 L 45.0977,161.672 C 45.7617,160.891 46.7617,160.391 47.8867,160.391 C 48.9414,160.391 49.9883,160.828 50.7227,161.672 C 51.4336,162.328 51.8945,163.449 51.8945,164.402 C 51.8945,165.574 51.4336,166.453 50.7227,167.344 L 47.207,170.953 z M 129.496,221.297 C 126.602,221.121 122.258,220.621 120.316,218.504 C 119.926,218.016 119.363,217.625 118.707,217.625 C 117.41,217.625 116.578,219.109 116.578,220.34 L 104.336,220.848 C 102.109,220.848 100.328,218.953 100.328,216.727 C 100.328,214.391 101.992,212.496 104.336,212.496 L 109.332,212.496 L 108.555,162.219 L 115.918,161.672 L 116.578,199.188 C 116.578,206.883 122.371,212.996 129.496,212.996 C 136.672,212.996 142.637,206.883 142.637,199.188 L 142.637,164.949 C 142.637,162.66 144.184,160.781 146.527,160.781 C 148.754,160.781 150.371,162.609 150.371,164.793 L 150.492,199.188 C 150.492,208.543 145.645,213.504 144.309,214.781 C 140.188,218.895 135.059,221.297 129.496,221.297 z M 217.566,246.238 C 217.566,246.57 217.348,246.902 217.18,247.117 C 217.18,248.855 215.898,250.301 213.777,250.301 C 211.23,250.301 209.105,248.121 209.105,245.562 C 209.219,243.113 211.379,240.945 213.895,240.945 C 216.445,241.109 218.621,243.277 218.621,245.84 L 218.008,245.84 L 217.566,246.238 z M 201.758,216.727 C 201.758,214.391 203.43,212.496 205.766,212.496 L 210.766,212.496 L 210.105,162.328 L 210.766,162.328 L 210.766,161.672 L 217.297,161.672 L 217.906,220.125 L 205.766,220.848 C 203.473,220.848 201.758,218.895 201.758,216.727 z M 624.199,216.727 C 624.199,214.391 625.957,212.605 628.184,212.605 L 633.152,212.605 L 632.422,162.328 L 633.152,162.328 L 633.152,161.672 L 639.766,161.672 L 640.332,220.125 L 628.184,220.848 C 625.957,220.848 624.199,218.895 624.199,216.727 z M 710.879,234.656 L 711.145,234.656 L 710.879,230.594 L 710.879,234.656 z M 718.496,168.727 L 715.82,168.57 C 713.594,168.57 711.582,170.242 711.582,173.133 L 711.582,212.723 L 711.926,212.723 L 718.262,212.215 C 720.613,212.215 722.285,214.004 722.285,216.172 C 722.285,218.289 720.613,220.289 718.262,220.289 L 710.879,220.289 L 710.879,220.906 L 711.582,235.262 L 710.879,235.098 L 710.879,235.262 L 709.426,234.656 L 703.855,232.535 L 703.684,219.461 L 696.895,220.289 L 696.23,212.723 L 704.297,212.215 L 704.297,210.43 L 703.684,173.133 C 703.684,166.57 708.574,160.391 715.82,160.391 L 718.496,160.391 C 720.613,160.391 722.285,162.328 722.285,164.402 C 722.285,166.727 720.613,168.727 718.496,168.727 z M 806.902,242.559 C 807.676,243.504 808.176,244.5 808.176,245.508 C 808.176,246.512 807.781,247.566 806.902,248.406 L 806.406,247.801 L 806.113,247.801 C 806.016,248.016 805.801,248.016 805.559,248.074 C 805.559,248.855 805.02,249.246 804.109,249.246 C 803.059,249.246 802.109,248.855 801.395,248.121 L 798.555,245.34 L 787.859,231.426 L 789.426,229.09 L 804.23,239.891 L 806.902,242.559 z M 810.137,197.918 L 783.848,197.918 C 783.965,197.918 783.965,198.289 783.965,198.523 C 783.965,204.93 787.98,209.109 787.98,209.109 C 790.43,211.609 793.535,213.113 797.109,213.113 C 800.438,213.113 803.672,211.609 806.113,209.109 C 806.68,208.816 810.137,204.812 810.137,198.582 L 810.137,197.918 z M 796.934,221.297 C 785.637,221.297 776.113,211.336 776.113,199.188 L 776.113,182.383 C 776.113,170.242 785.637,160.391 797.109,160.391 C 804.629,160.391 811.57,164.109 815.762,170.074 C 816.25,170.801 816.582,171.629 816.582,172.352 C 816.582,173.582 815.977,174.805 815.02,175.594 C 814.141,176.258 813.242,176.473 812.402,176.473 C 811.25,176.473 810.012,175.977 809.246,174.695 C 806.68,171.082 802.012,168.727 797.109,168.727 C 789.863,168.727 783.965,174.695 783.965,182.383 L 783.965,190.445 L 814.023,189.773 C 816.25,189.773 817.812,191.668 817.812,193.836 L 817.812,199.188 C 817.812,211.336 808.562,221.297 796.934,221.297"
             style="fill:#231f20;fill-opacity:1;fill-rule:nonzero;stroke:none"
             id="path23" /><path
             d="M 1842.66,1154.22 C 1882.64,1154.22 1920.1,1134.63 1943.14,1101.73 L 1951.16,1107.29 C 1926.35,1142.87 1885.82,1164.08 1842.66,1164.08 C 1799.4,1164.08 1758.87,1142.77 1734.05,1107.07 L 1742.05,1101.51 C 1765.06,1134.57 1802.64,1154.22 1842.66,1154.22 z M 1842.66,909.387 C 1802.42,909.387 1764.79,929.262 1741.84,962.492 L 1733.75,956.984 C 1758.54,921.02 1799.19,899.59 1842.66,899.59 C 1886.04,899.59 1926.66,920.969 1951.5,956.762 L 1943.38,962.332 C 1920.43,929.148 1882.8,909.387 1842.66,909.387 z M 1991.13,997.344 L 1966.31,997.344 L 1966.31,1028.19 L 1991.13,1028.19 L 1991.13,997.344 z M 1966.31,1052.96 L 1966.31,1092.26 L 1941.47,1092.26 L 1941.47,972.57 L 2015.91,972.57 L 2015.91,1052.96 L 1966.31,1052.96 z M 1803.87,1042.88 C 1806.48,1063.82 1821.55,1077.84 1844.39,1077.84 C 1867.1,1077.84 1880.9,1063.82 1881.63,1042.88 L 1803.87,1042.88 z M 1903.9,1032.09 C 1903.9,1073.12 1880.02,1096.94 1845.17,1096.94 C 1808.54,1096.94 1781.59,1070.16 1781.59,1031.8 C 1781.59,995.793 1805.41,966.727 1844.39,966.727 C 1867.37,966.727 1884.86,973.523 1899.39,992.336 L 1883.81,1004.59 C 1873.95,992.055 1862.09,985.715 1844.39,985.715 C 1821.84,985.715 1805.41,1004.02 1803.87,1025.41 L 1903.9,1025.41 L 1903.9,1032.09 z M 1756.19,989.273 L 1756.19,996.234 C 1753.8,994.117 1747.46,989.559 1744.13,989.559 C 1739.82,989.559 1739.55,995.012 1740.72,1001.96 L 1754.97,1083.41 L 1738.07,1083.41 L 1730.25,1038.27 C 1724.41,1006.87 1707.16,992 1697.2,992 C 1682.61,992 1680.56,1004.7 1684.16,1024.4 L 1691.74,1066.44 C 1693.85,1078.57 1689.3,1087.37 1678.71,1087.37 C 1672.92,1087.37 1664.79,1083.13 1659,1077.07 L 1659,1069.77 C 1661.17,1072.22 1667.58,1076.79 1671.13,1076.79 C 1675.1,1076.79 1675.7,1071.34 1674.49,1064.1 L 1666.89,1022.84 C 1662.34,997.18 1668.13,977.469 1688.39,977.469 C 1701.7,977.469 1715.01,987.766 1723.81,1002.3 L 1723.24,999.855 C 1721.46,987.766 1725.63,978.688 1736.28,978.688 C 1741.62,978.688 1750.2,983.199 1756.19,989.273"
             style="fill:#231f20;fill-opacity:1;fill-rule:nonzero;stroke:none"
             id="path25" /></g></g></g></g></svg>