<?xml version="1.0" encoding="utf-8"?>
<!-- Generator: Adobe Illustrator 19.2.0, SVG Export Plug-In . SVG Version: 6.00 Build 0)  -->
<svg version="1.1" id="Calque_1" xmlns="http://www.w3.org/2000/svg" xmlns:xlink="http://www.w3.org/1999/xlink" x="0px" y="0px"
	 viewBox="0 0 304 154.8" style="enable-background:new 0 0 304 154.8;" xml:space="preserve">
<style type="text/css">
	.st0{fill:#E9530E;}
</style>
<g>
	<polygon class="st0" points="74.1,44.2 74.1,29.5 30,29.4 30,44.1 41.8,51.6 30,58.9 30,73.6 74.1,73.7 74.1,59 48.7,59 48.6,58.9 
		59.4,51.6 48.6,44.3 48.7,44.2 	"/>
	<g>
		<path class="st0" d="M88.7,29.5v73.3c0,20.2-16.5,36.7-36.7,36.7c-20.2,0-36.7-16.5-36.7-36.7V29.5H0v73.3c0,28.7,23.3,52,52,52
			c28.7,0,52-23.3,52-52V29.5H88.7z"/>
	</g>
	<rect width="104" height="14.7"/>
	<path class="st0" d="M52,81.1H29.9v14.7H52c4.1,0,7.4,3.3,7.4,7.4c0,4.1-3.3,7.4-7.4,7.4h-7.4v14.7H52c12.2,0,22.1-9.9,22.1-22.1
		C74.1,91,64.2,81.1,52,81.1z"/>
	<g>
		<g>
			<path class="st0" d="M126.2,45.8V29.6h6.2v16.2c0,0.8,0.3,1.2,1.2,1.2c0.9,0,1.2-0.4,1.2-1.2V29.6h6.2v16.1
				c0,3.7-2.2,6.2-7.4,6.2C128.4,52,126.2,49.4,126.2,45.8z"/>
			<path class="st0" d="M144.5,29.6h6.1l3.8,9v-9h6v22h-6.1l-3.8-9v9h-6V29.6z"/>
			<path class="st0" d="M164.1,29.6h6.2v22h-6.2V29.6z"/>
			<path class="st0" d="M185,51.6h-8.1l-4-22h6.7l1.3,14.3l1.3-14.3h6.7L185,51.6z"/>
			<path class="st0" d="M191.6,29.6h12v5h-5.8V38h5.2v5h-5.2v3.5h5.8v5h-12V29.6z"/>
			<path class="st0" d="M213.5,44.6H213v7h-6.1v-22h8.9c4.3,0,5.8,2,5.8,5.5v4c0,2.1-0.6,3.5-2,4.4l2.8,8.1h-6.5L213.5,44.6z
				 M214.3,39.8c0.7,0,1-0.3,1-1v-3.2c0-0.7-0.3-1-1-1H213v5.2H214.3z"/>
			<path class="st0" d="M224.8,51.3l0.7-5.4c1.2,0.4,2.7,0.6,3.8,0.6c1.5,0,2-0.3,2-1.3s-0.2-1.2-1.8-1.5c-4.5-0.9-4.9-2.8-4.9-7.3
				c0-5.3,1.9-7.3,6.9-7.3c1.6,0,3.8,0.3,4.9,0.7l-0.6,5.2c-0.8-0.2-2.1-0.5-3.3-0.5c-1.4,0-1.7,0.2-1.7,1.2c0,0.9,0.1,1.1,2.2,1.7
				c3.4,0.9,4.5,1.8,4.5,7.1c0,4.8-1.9,7.4-7,7.4C228.9,52,226.6,51.8,224.8,51.3z"/>
			<path class="st0" d="M240.4,29.6h6.2v22h-6.2V29.6z"/>
			<path class="st0" d="M253,34.7h-3.6v-5.1h13.4v5.1h-3.6v16.9H253V34.7z"/>
			<path class="st0" d="M265.5,29.6h12v5h-5.8V38h5.2v5h-5.2v3.5h5.8v5h-12V29.6z M268.5,28.7l1.9-5.4l6.5,1.1l-2.6,4.3H268.5z"/>
		</g>
	</g>
	<g>
		<g>
			<path class="st0" d="M124.3,84.2c1-1,1.8-1.8,1.8-3.4V59.2h6.2v21.7c0,3.6-1.5,5-4.6,7.1L124.3,84.2z"/>
			<path class="st0" d="M135.9,59.2h12v5h-5.8v3.4h5.2v5h-5.2v3.5h5.8v5h-12V59.2z"/>
			<path class="st0" d="M167,81.2h-6.5l-0.4-3.9h-2.7l-0.4,3.9h-6.5l4.4-22h7.8L167,81.2z M157.9,72.3h1.7l-0.9-8.2L157.9,72.3z"/>
			<path class="st0" d="M169.6,59.2h6.1l3.8,9v-9h6v22h-6.1l-3.8-9v9h-6V59.2z"/>
			<path class="st0" d="M216.1,81.2h-5.8l-0.2-8.8l-1.4,4.4h-5.1l-1.4-4.4l-0.2,8.8h-5.8l0.8-22h6l3.1,10.3l3.1-10.3h6L216.1,81.2z"
				/>
			<path class="st0" d="M219.1,74.7v-9.1c0-4.1,2-6.8,7.4-6.8s7.4,2.7,7.4,6.8v9.1c0,4.1-2,6.8-7.4,6.8S219.1,78.8,219.1,74.7z
				 M227.6,75.3V65c0-0.8-0.3-1.3-1.2-1.3s-1.2,0.5-1.2,1.3v10.3c0,0.8,0.3,1.3,1.2,1.3S227.6,76.1,227.6,75.3z"/>
			<path class="st0" d="M237.1,59.2h6.1l3.8,9v-9h6v22H247l-3.8-9v9h-6V59.2z"/>
			<path class="st0" d="M256.7,59.2h6.1l3.8,9v-9h6v22h-6.1l-3.8-9v9h-6V59.2z"/>
			<path class="st0" d="M276.2,59.2h12v5h-5.8v3.4h5.2v5h-5.2v3.5h5.8v5h-12V59.2z"/>
			<path class="st0" d="M294.2,64.3h-3.6v-5.1H304v5.1h-3.6v16.9h-6.2V64.3z"/>
		</g>
	</g>
	<g>
		<g>
			<path d="M131.1,110.8c-1.6,0-3.5-0.3-5.1-0.9l0.3-1.3c1.6,0.5,3.3,0.7,4.8,0.7c3.1,0,3.9-0.9,3.9-3.2c0-2.8,0-3.1-4-4
				c-4.3-1-4.8-1.8-4.8-5.4c0-2.9,1.1-4.5,5.6-4.5c1.6,0,3.4,0.3,4.6,0.6l-0.2,1.3c-1.3-0.3-3-0.5-4.4-0.5c-3.6,0-4,0.9-4,3.1
				c0,2.9,0.1,3.1,3.9,4c4.7,1.2,5,1.9,5,5.3C136.6,109.1,135.6,110.8,131.1,110.8z"/>
			<path d="M150.7,105.9h-8.4l-1.7,4.7H139l6.3-18h2.3l6.3,18h-1.6L150.7,105.9z M142.8,104.5h7.4l-3.7-11L142.8,104.5z"/>
			<path d="M158.5,110.6h-1.6v-18h1.6V110.6z"/>
			<path d="M164.4,94.2v16.4h-1.5v-18h2.3l8.5,16.4V92.6h1.5v18H173L164.4,94.2z"/>
			<path d="M183.4,94h-5.5v-1.4h12.7V94H185v16.5h-1.6V94z"/>
			<path d="M190.3,102.3h6.3v1.3h-6.3V102.3z"/>
			<path d="M200.2,92.6h10.1V94h-8.5v6.7h7.9v1.4h-7.9v7h8.6v1.4h-10.1V92.6z M203.9,90.1c1.1-0.6,2.2-1.3,3.3-2.2l0.8,1.2
				c-1,0.7-2.2,1.5-3.3,2.1L203.9,90.1z"/>
			<path d="M217.9,94h-5.5v-1.4H225V94h-5.5v16.5h-1.6V94z"/>
			<path d="M229.3,110.6h-1.6v-18h1.6V110.6z"/>
			<path d="M233.8,92.6h10.1V94h-8.5v6.7h7.9v1.4h-7.9v7h8.6v1.4h-10.1V92.6z"/>
			<path d="M249.2,94.2v16.4h-1.5v-18h2.3l8.5,16.4V92.6h1.5v18h-2.3L249.2,94.2z"/>
			<path d="M265.9,94.2v16.4h-1.5v-18h2.3l8.5,16.4V92.6h1.5v18h-2.3L265.9,94.2z"/>
			<path d="M281.1,92.6h10.1V94h-8.5v6.7h7.9v1.4h-7.9v7h8.6v1.4h-10.1V92.6z"/>
		</g>
	</g>
</g>
</svg>
