<?xml version="1.0" encoding="UTF-8" standalone="no"?>
<!-- Created with Inkscape (http://www.inkscape.org/) -->

<svg
   xmlns:dc="http://purl.org/dc/elements/1.1/"
   xmlns:cc="http://creativecommons.org/ns#"
   xmlns:rdf="http://www.w3.org/1999/02/22-rdf-syntax-ns#"
   xmlns:svg="http://www.w3.org/2000/svg"
   xmlns="http://www.w3.org/2000/svg"
   xmlns:sodipodi="http://sodipodi.sourceforge.net/DTD/sodipodi-0.dtd"
   xmlns:inkscape="http://www.inkscape.org/namespaces/inkscape"
   version="1.1"
   id="svg2"
   xml:space="preserve"
   width="16.143999cm"
   height="20cm"
   viewBox="0 0 610.1669 755.90549"
   sodipodi:docname="Université d'Avignon (logo 2018).svg"
   inkscape:version="0.92.3 (2405546, 2018-03-11)"><metadata
     id="metadata8"><rdf:RDF><cc:Work
         rdf:about=""><dc:format>image/svg+xml</dc:format><dc:type
           rdf:resource="http://purl.org/dc/dcmitype/StillImage" /><dc:title></dc:title></cc:Work></rdf:RDF></metadata><defs
     id="defs6"><clipPath
       clipPathUnits="userSpaceOnUse"
       id="clipPath34"><path
         d="m 153.917,89.357 h 588.76 v 237.099 h -588.76 z"
         id="path32"
         inkscape:connector-curvature="0" /></clipPath><clipPath
       clipPathUnits="userSpaceOnUse"
       id="clipPath272"><path
         d="M 0,0 H 841.89 V 595.276 H 0 Z"
         id="path270"
         inkscape:connector-curvature="0" /></clipPath><clipPath
       clipPathUnits="userSpaceOnUse"
       id="clipPath306"><path
         d="M 0,0 H 841.89 V 595.276 H 0 Z"
         id="path304"
         inkscape:connector-curvature="0" /></clipPath><clipPath
       clipPathUnits="userSpaceOnUse"
       id="clipPath322"><path
         d="M 0,0 H 841.89 V 595.276 H 0 Z"
         id="path320"
         inkscape:connector-curvature="0" /></clipPath><clipPath
       clipPathUnits="userSpaceOnUse"
       id="clipPath338"><path
         d="M 0,0 H 841.89 V 595.276 H 0 Z"
         id="path336"
         inkscape:connector-curvature="0" /></clipPath><clipPath
       clipPathUnits="userSpaceOnUse"
       id="clipPath364"><path
         d="M 0,0 H 841.89 V 595.276 H 0 Z"
         id="path362"
         inkscape:connector-curvature="0" /></clipPath><clipPath
       clipPathUnits="userSpaceOnUse"
       id="clipPath398"><path
         d="M 0,0 H 841.89 V 595.276 H 0 Z"
         id="path396"
         inkscape:connector-curvature="0" /></clipPath><clipPath
       clipPathUnits="userSpaceOnUse"
       id="clipPath432"><path
         d="M 0,0 H 841.89 V 595.276 H 0 Z"
         id="path430"
         inkscape:connector-curvature="0" /></clipPath><clipPath
       clipPathUnits="userSpaceOnUse"
       id="clipPath448"><path
         d="M 0,0 H 841.89 V 595.276 H 0 Z"
         id="path446"
         inkscape:connector-curvature="0" /></clipPath><clipPath
       clipPathUnits="userSpaceOnUse"
       id="clipPath464"><path
         d="M 0,0 H 841.89 V 595.276 H 0 Z"
         id="path462"
         inkscape:connector-curvature="0" /></clipPath><clipPath
       clipPathUnits="userSpaceOnUse"
       id="clipPath490"><path
         d="M 0,0 H 841.89 V 595.276 H 0 Z"
         id="path488"
         inkscape:connector-curvature="0" /></clipPath></defs><sodipodi:namedview
     pagecolor="#ffffff"
     bordercolor="#666666"
     borderopacity="1"
     objecttolerance="10"
     gridtolerance="10"
     guidetolerance="10"
     inkscape:pageopacity="0"
     inkscape:pageshadow="2"
     inkscape:window-width="1920"
     inkscape:window-height="1017"
     id="namedview4"
     showgrid="false"
     units="cm"
     inkscape:zoom="1.1"
     inkscape:cx="305.08345"
     inkscape:cy="377.95276"
     inkscape:window-x="-8"
     inkscape:window-y="-8"
     inkscape:window-maximized="1"
     inkscape:current-layer="g10" /><g
     id="g10"
     inkscape:groupmode="layer"
     inkscape:label="guide_utilisation_logo_avignon_universite"
     transform="matrix(1.3333333,0,0,-1.3333333,0,755.90549)"><g
       id="g1665"
       transform="matrix(3.2485,0,0,3.2484941,-600.60119,-391.91944)"><g
         id="g1549"><g
           id="g1538"><g
             transform="translate(213.0607,281.0791)"
             id="g36"><path
               inkscape:connector-curvature="0"
               id="path38"
               style="fill:#eb4245;fill-opacity:1;fill-rule:nonzero;stroke:none"
               d="m 0,0 c 0,-7.78 -6.307,-14.087 -14.087,-14.087 -7.78,0 -14.088,6.307 -14.088,14.087 0,7.78 6.308,14.088 14.088,14.088 C -6.307,14.088 0,7.78 0,0" /></g><g
             transform="translate(213.0607,182.4686)"
             id="g40"><path
               inkscape:connector-curvature="0"
               id="path42"
               style="fill:#eb4245;fill-opacity:1;fill-rule:nonzero;stroke:none"
               d="m 0,0 c -15.56,0 -28.175,12.615 -28.175,28.175 0,15.56 12.615,28.174 28.175,28.174 z" /></g><g
             transform="translate(269.4097,238.8176)"
             id="g44"><path
               inkscape:connector-curvature="0"
               id="path46"
               style="fill:#eb4245;fill-opacity:1;fill-rule:nonzero;stroke:none"
               d="m 0,0 v -56.349 c -15.561,0 -28.175,12.614 -28.175,28.174 V 0 56.349 C -12.614,56.349 0,43.735 0,28.175 Z" /></g></g><g
           id="g48"
           transform="translate(297.5837,238.8176)"><path
             d="m 0,0 v -56.349 c 15.56,0 28.175,12.614 28.175,28.174 V 0 56.349 C 12.614,56.349 0,43.735 0,28.175 Z"
             style="fill:#f19d1b;fill-opacity:1;fill-rule:nonzero;stroke:none"
             id="path50"
             inkscape:connector-curvature="0" /></g></g><g
         id="g1619"><g
           id="g1564"><g
             transform="translate(195.6048,152.9352)"
             id="g52"><path
               inkscape:connector-curvature="0"
               id="path54"
               style="fill:#eb4245;fill-opacity:1;fill-rule:nonzero;stroke:none"
               d="M 0,0 -2.409,7.18 -4.819,0 Z m 1.08,-3.239 h -7.004 l -1.055,-3.162 h -3.739 l 6.15,17.571 h 4.292 L 5.899,-6.401 H 2.133 Z" /></g><g
             transform="translate(205.676,164.1053)"
             id="g56"><path
               inkscape:connector-curvature="0"
               id="path58"
               style="fill:#eb4245;fill-opacity:1;fill-rule:nonzero;stroke:none"
               d="M 0,0 H 3.766 L 8.058,-13.505 12.326,0 h 3.789 L 10.191,-17.571 H 5.899 Z" /></g><path
             inkscape:connector-curvature="0"
             id="path60"
             style="fill:#eb4245;fill-opacity:1;fill-rule:nonzero;stroke:none"
             d="m 231.963,146.534 h -3.464 v 17.571 h 3.464 z" /><g
             transform="translate(257.495,154.6169)"
             id="g62"><path
               inkscape:connector-curvature="0"
               id="path64"
               style="fill:#eb4245;fill-opacity:1;fill-rule:nonzero;stroke:none"
               d="m 0,0 c 0,-2.51 -0.804,-4.543 -2.41,-6.1 -1.607,-1.557 -3.682,-2.335 -6.226,-2.335 -2.711,0 -4.957,0.884 -6.74,2.649 -1.782,1.766 -2.673,3.92 -2.673,6.464 0,2.561 0.883,4.727 2.648,6.501 1.765,1.775 3.954,2.662 6.564,2.662 1.64,0 3.138,-0.373 4.494,-1.118 1.355,-0.745 2.409,-1.736 3.163,-2.974 L -4.143,4.041 c -0.418,0.72 -1.049,1.306 -1.894,1.758 -0.845,0.451 -1.787,0.678 -2.825,0.678 -1.673,0 -3.049,-0.549 -4.128,-1.645 -1.08,-1.096 -1.62,-2.481 -1.62,-4.154 0,-1.657 0.548,-3.025 1.644,-4.105 1.097,-1.078 2.548,-1.619 4.355,-1.619 1.34,0 2.449,0.298 3.327,0.891 0.878,0.594 1.477,1.41 1.794,2.448 H -8.811 V 1.355 H 0 Z" /></g><g
             transform="translate(278.6112,164.1053)"
             id="g66"><path
               inkscape:connector-curvature="0"
               id="path68"
               style="fill:#eb4245;fill-opacity:1;fill-rule:nonzero;stroke:none"
               d="m 0,0 v -17.571 h -2.636 l -7.531,10.744 V -17.571 H -13.63 V 0 h 2.635 l 7.53,-10.718 V 0 Z" /></g><g
             transform="translate(299.2503,151.1908)"
             id="g70"><path
               inkscape:connector-curvature="0"
               id="path72"
               style="fill:#eb4245;fill-opacity:1;fill-rule:nonzero;stroke:none"
               d="M 0,0 C 1.089,1.08 1.631,2.456 1.631,4.13 1.631,5.803 1.089,7.182 0,8.271 -1.088,9.358 -2.435,9.903 -4.042,9.903 -5.649,9.903 -6.995,9.358 -8.083,8.271 -9.171,7.182 -9.715,5.803 -9.715,4.13 c 0,-1.674 0.544,-3.05 1.632,-4.13 1.088,-1.08 2.434,-1.62 4.041,-1.62 1.607,0 2.954,0.54 4.042,1.62 m -10.506,-2.359 c -1.764,1.765 -2.648,3.927 -2.648,6.489 0,2.56 0.884,4.723 2.648,6.489 1.766,1.764 3.922,2.647 6.464,2.647 2.544,0 4.702,-0.883 6.476,-2.647 C 4.209,8.853 5.095,6.69 5.095,4.13 5.095,1.568 4.209,-0.594 2.434,-2.359 0.66,-4.125 -1.498,-5.008 -4.042,-5.008 c -2.542,0 -4.698,0.883 -6.464,2.649" /></g><g
             transform="translate(325.438,164.1053)"
             id="g74"><path
               inkscape:connector-curvature="0"
               id="path76"
               style="fill:#eb4245;fill-opacity:1;fill-rule:nonzero;stroke:none"
               d="m 0,0 v -17.571 h -2.636 l -7.531,10.744 V -17.571 H -13.63 V 0 h 2.635 l 7.53,-10.718 V 0 Z" /></g></g><g
           id="g1584"><g
             transform="translate(187.9447,122.0033)"
             id="g78"><path
               inkscape:connector-curvature="0"
               id="path80"
               style="fill:#f19d1b;fill-opacity:1;fill-rule:nonzero;stroke:none"
               d="m 0,0 c -0.984,0.904 -1.477,2.114 -1.477,3.628 v 9.345 H 0.392 V 3.708 C 0.392,2.716 0.686,1.929 1.277,1.347 1.866,0.763 2.71,0.472 3.809,0.472 c 1.099,0 1.943,0.291 2.532,0.875 0.59,0.582 0.885,1.369 0.885,2.361 v 9.265 H 9.075 V 3.628 C 9.075,2.114 8.586,0.904 7.608,0 6.63,-0.905 5.363,-1.356 3.809,-1.356 2.255,-1.356 0.985,-0.905 0,0" /></g><g
             transform="translate(214.5086,134.9762)"
             id="g82"><path
               inkscape:connector-curvature="0"
               id="path84"
               style="fill:#f19d1b;fill-opacity:1;fill-rule:nonzero;stroke:none"
               d="m 0,0 v -14.069 h -1.507 l -7.235,10.512 v -10.512 h -1.869 V 0 h 1.507 l 7.235,-10.49 V 0 Z" /></g><path
             inkscape:connector-curvature="0"
             id="path86"
             style="fill:#f19d1b;fill-opacity:1;fill-rule:nonzero;stroke:none"
             d="m 223.416,120.907 h -1.87 v 14.069 h 1.87 z" /><g
             transform="translate(229.1063,134.9762)"
             id="g88"><path
               inkscape:connector-curvature="0"
               id="path90"
               style="fill:#f19d1b;fill-opacity:1;fill-rule:nonzero;stroke:none"
               d="M 0,0 H 2.01 L 6.089,-11.737 10.15,0 h 2.03 L 7.135,-14.069 h -2.11 z" /></g><g
             transform="translate(255.3587,122.676)"
             id="g92"><path
               inkscape:connector-curvature="0"
               id="path94"
               style="fill:#f19d1b;fill-opacity:1;fill-rule:nonzero;stroke:none"
               d="M 0,0 V -1.768 H -8.402 V 12.3 h 8.301 V 10.531 H -6.532 V 6.21 h 5.929 V 4.462 H -6.532 V 0 Z" /></g><g
             transform="translate(263.5021,127.9822)"
             id="g96"><path
               inkscape:connector-curvature="0"
               id="path98"
               style="fill:#f19d1b;fill-opacity:1;fill-rule:nonzero;stroke:none"
               d="m 0,0 h 3.758 c 0.697,0 1.29,0.258 1.78,0.773 0.488,0.517 0.733,1.137 0.733,1.86 0,0.723 -0.245,1.34 -0.733,1.849 -0.49,0.509 -1.083,0.764 -1.78,0.764 H 0 Z M 3.316,-1.688 H 0 V -7.075 H -1.87 V 6.994 H 3.758 C 4.964,6.994 5.996,6.569 6.854,5.718 7.711,4.867 8.14,3.839 8.14,2.633 8.14,1.722 7.868,0.891 7.326,0.141 6.784,-0.61 6.083,-1.138 5.226,-1.447 l 3.315,-5.628 h -2.07 z" /></g><g
             transform="translate(278.8911,121.5705)"
             id="g100"><path
               inkscape:connector-curvature="0"
               id="path102"
               style="fill:#f19d1b;fill-opacity:1;fill-rule:nonzero;stroke:none"
               d="m 0,0 c -0.931,0.616 -1.584,1.461 -1.96,2.533 l 1.608,0.925 c 0.55,-1.702 1.803,-2.553 3.759,-2.553 0.965,0 1.702,0.197 2.211,0.593 0.509,0.395 0.763,0.921 0.763,1.577 0,0.67 -0.254,1.172 -0.763,1.508 C 5.109,4.917 4.258,5.273 3.065,5.648 2.475,5.837 2.027,5.987 1.719,6.1 1.411,6.214 1.025,6.388 0.562,6.622 0.101,6.857 -0.244,7.099 -0.472,7.347 -0.7,7.594 -0.904,7.919 -1.085,8.321 c -0.181,0.402 -0.271,0.858 -0.271,1.368 0,1.218 0.429,2.186 1.286,2.903 0.857,0.717 1.902,1.075 3.135,1.075 1.113,0 2.08,-0.281 2.904,-0.844 0.824,-0.562 1.444,-1.306 1.859,-2.231 L 6.261,9.689 c -0.603,1.446 -1.669,2.169 -3.196,2.169 -0.764,0 -1.38,-0.187 -1.848,-0.563 C 0.747,10.921 0.513,10.411 0.513,9.769 0.513,9.152 0.733,8.683 1.176,8.362 1.618,8.039 2.382,7.705 3.467,7.357 3.855,7.237 4.13,7.148 4.292,7.095 4.452,7.042 4.703,6.948 5.045,6.814 5.387,6.68 5.638,6.573 5.798,6.492 5.959,6.412 6.177,6.298 6.452,6.15 6.727,6.003 6.93,5.862 7.064,5.729 7.198,5.595 7.356,5.431 7.537,5.237 7.718,5.042 7.848,4.843 7.929,4.644 8.009,4.442 8.079,4.211 8.14,3.95 8.2,3.689 8.231,3.41 8.231,3.116 8.231,1.882 7.782,0.902 6.884,0.171 5.986,-0.559 4.814,-0.924 3.367,-0.924 2.053,-0.924 0.932,-0.615 0,0" /></g><path
             inkscape:connector-curvature="0"
             id="path104"
             style="fill:#f19d1b;fill-opacity:1;fill-rule:nonzero;stroke:none"
             d="m 295.125,120.907 h -1.87 v 14.069 h 1.87 z" /><g
             transform="translate(311.1645,133.2075)"
             id="g106"><path
               inkscape:connector-curvature="0"
               id="path108"
               style="fill:#f19d1b;fill-opacity:1;fill-rule:nonzero;stroke:none"
               d="M 0,0 H -4.16 V -12.3 H -6.009 V 0 H -10.15 V 1.768 H 0 Z" /></g><g
             transform="translate(321.6797,136.3433)"
             id="g110"><path
               inkscape:connector-curvature="0"
               id="path112"
               style="fill:#f19d1b;fill-opacity:1;fill-rule:nonzero;stroke:none"
               d="m 0,0 h -1.688 l 1.608,2.653 h 2.11 z m 3.758,-13.667 v -1.769 h -8.401 v 14.069 h 8.301 v -1.768 h -6.432 v -4.322 h 5.929 v -1.748 h -5.929 v -4.462 z" /></g></g></g></g></g></svg>