<svg xmlns="http://www.w3.org/2000/svg" width="600" height="489.702" viewBox="0 0 600 489.702"><path d="M75.164 284.344c18.041 0 34.569-6.984 46.79-18.623-18.623-2.444-32.706-8.147-40.272-11.872-2.095.465-4.306.582-6.518.582-23.394 0-42.482-19.088-42.482-42.367V98.001H6.377v117.672c0 37.827 30.96 68.67 68.787 68.67zm181.338 0c8.03 0 15.713-1.397 22.93-4.074l-16.296-26.42c-2.095.348-4.423.581-6.634.581-14.433 0-27.235-7.216-34.918-18.274a881.531 881.531 0 0 1-24.791 13.27c11.756 20.833 34.103 34.917 59.709 34.917zm-72.163-43.53c2.212-1.28 4.423-2.678 6.751-4.075 7.333-4.538 15.364-9.776 23.977-15.363 10.94-7.217 22.929-15.015 35.382-23.162 10.592-6.867 21.533-13.85 32.706-20.95 10.01-6.169 20.253-12.454 30.495-18.506h.116c19.67-11.407 39.108-21.882 57.614-29.913 11.755-5.238 23.046-9.428 33.52-12.337 9.894-2.561 18.972-4.074 27.236-4.074 20.485 0 36.314-.582 48.652-.699h.116c4.19-.116 7.915-.116 11.406 0 18.507.233 27.585 3.027 35.616 13.618l.117.116c10.474.699 20.019 5.238 27.002 12.222 6.984 6.983 11.407 16.294 12.221 26.537v52.143c-1.63 21.65-19.786 38.875-41.9 38.875-23.163 0-42.018-18.972-42.018-42.017V167.37c0-20.718 15.247-38.06 35.034-41.436-11.523-6.867-26.653-8.612-41.9-8.612-.699-.117-1.397 0-1.98 0-.349.348-.698.698-.93 1.047-12.338 12.802-19.904 30.145-19.904 49.233v45.393c0 39.224 32.125 71.348 71.348 71.348h.699c38.06 0 69.486-30.262 71.231-67.973v-52.143c-1.745-37.71-33.171-67.973-71.231-67.973h-.699l-56.566.931h-.581c-25.025.117-49.35 4.423-72.396 11.64A70.613 70.613 0 0 0 355.2 96.254h-.698c-38.176 0-69.602 30.379-71.231 68.09-23.86 15.828-44.345 31.309-60.64 42.715-1.28.814-2.444 1.746-3.608 2.444l-5.005 1.746V0h-26.304v215.673c0 1.63.116 3.259.232 4.888.117 2.212.35 4.423.815 6.518-22.463 10.941-39.806 14.316-50.281 15.248.582-1.514 1.164-3.027 1.63-4.54 2.444-6.983 3.724-14.432 3.724-22.114V98h-26.304v114.063c0 16.877-10.01 31.426-24.326 38.177 9.311 3.608 21.765 6.867 36.547 6.867 16.062-.116 34.568-4.19 54.587-16.295zm167.487-115.345c-10.126 4.656-19.67 9.661-29.098 14.899 7.1-8.497 17.46-14.084 29.098-14.899zm3.375 158.875c38.06 0 69.486-30.262 71.232-67.973h-29.68c-1.629 21.65-19.786 38.875-41.9 38.875-23.162 0-42.018-18.972-42.018-42.017v-34.685c-9.893 7.216-19.903 14.083-29.68 20.368v14.084c0 39.224 32.124 71.348 71.348 71.348h.698zM20.181 411.479c5.33 2.887 12.185 4.33 20.567 4.33 8.627 0 15.595-1.66 20.903-4.967 5.308-3.319 8.98-7.627 11.02-12.912 2.029-5.285 3.046-12.423 3.046-21.425v-51.683H63.879v51.626c0 11.23-1.853 18.822-5.553 22.767-3.705 3.944-9.905 5.921-18.612 5.921-5.086 0-9.389-1-12.907-2.989-3.523-2-6.007-4.83-7.45-8.525-1.444-3.671-2.165-9.4-2.165-17.174v-51.626H5.354v51.683c0 9.48 1.136 16.958 3.415 22.437 2.28 5.467 6.081 9.65 11.412 12.537zm132.514 2.807v-39.85c0-5.092-.204-8.65-.608-10.684-.653-3.126-1.79-5.831-3.421-8.116-1.626-2.273-4.075-4.115-7.354-5.524-3.274-1.398-6.865-2.103-10.77-2.103-8.99 0-15.867 3.558-20.63 10.685v-9.219h-9.883v64.811h10.986v-35.394c0-8.298 1.694-13.936 5.092-16.902 3.399-2.978 7.44-4.456 12.117-4.456 2.926 0 5.484.66 7.66 1.978 2.177 1.318 3.689 3.092 4.547 5.308.852 2.216 1.279 5.57 1.279 10.037v39.43h10.985zm33.889-89.464h-10.986v12.628h10.986v-12.628zm-10.986 89.464h10.986v-64.81h-10.986v64.81zm60.81-25.267c-1.75 4.808-3.114 8.911-4.092 12.332a186.224 186.224 0 0 0-4.148-13.06l-13.913-38.816h-11.6l24.66 64.811h10.253l24.534-64.81h-11.293l-14.4 39.543zm97.472-7.263c0-10.696-2.74-18.993-8.24-24.892-5.49-5.9-12.56-8.855-21.233-8.855-8.95 0-16.236 3.012-21.851 9.036-5.615 6.013-8.423 14.481-8.423 25.381 0 10.537 2.78 18.732 8.332 24.563 5.552 5.842 13.07 8.764 22.55 8.764 7.525 0 13.714-1.83 18.556-5.49 4.842-3.672 8.15-8.81 9.945-15.447l-11.355-1.398c-1.659 4.637-3.92 8.013-6.762 10.127-2.86 2.114-6.292 3.171-10.321 3.171-5.41 0-9.929-1.887-13.549-5.671-3.62-3.785-5.637-9.241-6.041-16.357h48.335c.034-1.307.057-2.284.057-2.932zm-47.784-6.104c.37-5.649 2.268-10.173 5.706-13.549s7.678-5.058 12.725-5.058c5.575 0 10.11 2.115 13.61 6.343 2.274 2.728 3.66 6.82 4.15 12.264h-36.19zm102.308-24.108c-3.819-2.353-7.58-3.535-11.286-3.535-2.57 0-4.91.728-7.047 2.194s-4.467 4.501-6.99 9.093v-9.82h-9.89v64.81h10.992v-33.928c0-4.638.602-8.911 1.83-12.821.807-2.558 2.17-4.57 4.08-6.013 1.921-1.444 4.07-2.16 6.48-2.16 2.682 0 5.364.784 8.046 2.376l3.785-10.196zm58.753 54.047c2.137-3.24 3.205-6.683 3.205-10.343 0-3.751-.875-6.877-2.625-9.4-1.75-2.524-4.16-4.444-7.23-5.763-3.068-1.33-8.49-3.023-16.265-5.103-5.376-1.467-8.604-2.399-9.706-2.808-1.91-.773-3.32-1.75-4.206-2.932-.898-1.137-1.341-2.41-1.341-3.842 0-2.24 1.068-4.183 3.228-5.854 2.16-1.67 5.763-2.5 10.81-2.5 4.262 0 7.57.932 9.91 2.807 2.342 1.864 3.752 4.467 4.24 7.809l10.742-1.467c-.694-4.194-1.955-7.536-3.785-10.036s-4.66-4.49-8.514-5.956c-3.842-1.466-8.309-2.194-13.39-2.194-3.375 0-6.546.432-9.49 1.307-2.955.876-5.286 1.944-6.99 3.206a17.744 17.744 0 0 0-5.4 6.137c-1.33 2.467-1.989 5.138-1.989 8.025 0 3.171.807 6.07 2.41 8.695 1.614 2.626 3.967 4.683 7.081 6.16 3.115 1.49 8.695 3.252 16.754 5.286 5.979 1.5 9.73 2.74 11.23 3.717 2.16 1.432 3.24 3.387 3.24 5.865 0 2.762-1.228 5.172-3.672 7.229-2.432 2.057-6.183 3.08-11.218 3.08-5.013 0-8.912-1.16-11.696-3.478-2.785-2.319-4.479-5.649-5.092-10.002l-10.867 1.705c1.228 6.876 4.035 12.06 8.457 15.56 4.41 3.501 10.832 5.252 19.254 5.252 5.081 0 9.64-.887 13.674-2.66 4.024-1.762 7.104-4.274 9.241-7.502zm22.323-68.141h10.992v-12.628H469.48v12.628zm0 76.836h10.992v-64.81H469.48v64.81zm59.287-.125l-1.591-9.695c-1.99.284-3.603.42-4.82.42-1.625 0-2.875-.261-3.75-.795-.875-.523-1.512-1.24-1.898-2.137-.387-.887-.58-2.899-.58-6.036v-37.895h11.048v-8.548h-11.048v-22.641l-10.923 6.592v16.05h-8.059v8.547h8.059v37.282c0 6.592.443 10.911 1.341 12.968.898 2.058 2.444 3.717 4.638 4.979 2.205 1.262 5.296 1.887 9.274 1.887 2.444 0 5.218-.33 8.31-.978zM600 381.756c0-10.696-2.74-18.993-8.24-24.892-5.49-5.9-12.572-8.855-21.233-8.855-8.957 0-16.231 3.012-21.846 9.036-5.615 6.013-8.422 14.481-8.422 25.381 0 10.537 2.773 18.732 8.331 24.563 5.547 5.842 13.06 8.764 22.55 8.764 7.525 0 13.709-1.83 18.55-5.49 4.843-3.672 8.15-8.81 9.946-15.447l-11.355-1.398c-1.66 4.637-3.921 8.013-6.774 10.127-2.842 2.114-6.286 3.171-10.31 3.171-5.41 0-9.933-1.887-13.548-5.671-3.626-3.785-5.638-9.241-6.047-16.357h48.341c.034-1.307.057-2.284.057-2.932zm-47.784-6.104c.364-5.649 2.273-10.173 5.706-13.549 3.444-3.375 7.683-5.058 12.73-5.058 5.57 0 10.105 2.115 13.606 6.343 2.273 2.728 3.66 6.82 4.148 12.264h-36.19zm11.844-34.235h9.093l13.423-17.084h-14.4l-8.116 17.084zM5.78 433.882H0v43.692h27.296v-5.16H5.78v-38.532zm30.183 6.172h5.365v-6.172h-5.365v6.172zm0 37.52h5.365V445.93h-5.365v31.644zm25.324-4.592c-.79 0-1.404-.125-1.83-.386a2.26 2.26 0 0 1-.926-1.046c-.188-.432-.279-1.42-.279-2.944v-18.504h5.394v-4.172h-5.394v-11.06l-5.336 3.217v7.843h-3.933v4.172h3.933v18.208c0 3.217.216 5.331.654 6.331s1.193 1.808 2.267 2.422c1.074.625 2.58.932 4.53.932 1.193 0 2.54-.16 4.052-.478l-.773-4.74c-.978.137-1.762.205-2.359.205zm19.403 0c-.79 0-1.404-.125-1.83-.386a2.26 2.26 0 0 1-.927-1.046c-.187-.432-.278-1.42-.278-2.944v-18.504h5.393v-4.172h-5.393v-11.06l-5.337 3.217v7.843h-3.932v4.172h3.932v18.208c0 3.217.216 5.331.654 6.331.437 1 1.193 1.808 2.267 2.422 1.075.625 2.58.932 4.53.932 1.193 0 2.54-.16 4.052-.478l-.773-4.74c-.977.137-1.762.205-2.358.205zm22.886-27.768c-3.916 0-7.235 1.17-9.952 3.512-3.262 2.82-4.887 7.161-4.887 13.026 0 5.342 1.364 9.434 4.097 12.276 2.728 2.841 6.309 4.262 10.742 4.262 2.762 0 5.308-.648 7.644-1.932 2.335-1.296 4.114-3.115 5.336-5.445 1.216-2.33 1.83-5.535 1.83-9.616 0-5.024-1.381-8.956-4.143-11.81-2.762-2.852-6.32-4.273-10.667-4.273zm6.643 25.62c-1.767 2.034-3.984 3.046-6.643 3.046-2.683 0-4.91-1.012-6.678-3.023-1.768-2.024-2.648-5.059-2.648-9.105 0-4.058.88-7.081 2.648-9.093 1.767-2 3.995-3.012 6.678-3.012 2.642 0 4.853 1.012 6.632 3.023 1.773 2.024 2.665 4.99 2.665 8.9 0 4.149-.886 7.24-2.654 9.264zm25.074-24.551c-1.04.716-2.176 2.193-3.41 4.444v-4.797h-4.83v31.644h5.365v-16.572c0-2.262.3-4.353.898-6.252.392-1.25 1.062-2.227 1.994-2.943a5.102 5.102 0 0 1 3.16-1.058c1.307 0 2.62.387 3.933 1.171l1.847-4.978c-1.87-1.16-3.705-1.728-5.513-1.728a5.96 5.96 0 0 0-3.444 1.069zm40.22 18.027v-7.15c0-2.387-.09-4.035-.273-4.944-.318-1.467-.875-2.694-1.67-3.649-.796-.966-2.035-1.762-3.717-2.398-1.694-.637-3.888-.955-6.593-.955-2.716 0-5.115.364-7.172 1.114-2.074.75-3.654 1.807-4.745 3.194-1.092 1.375-1.881 3.194-2.353 5.433l5.24.716c.58-2.25 1.472-3.808 2.676-4.694 1.194-.887 3.058-1.33 5.581-1.33 2.706 0 4.74.614 6.104 1.819 1.023.897 1.523 2.432 1.523 4.626 0 .193-.011.659-.023 1.398-2.057.716-5.24 1.33-9.57 1.841-2.126.261-3.717.534-4.774.807a13.11 13.11 0 0 0-3.853 1.762c-1.142.773-2.069 1.807-2.773 3.08-.705 1.284-1.058 2.705-1.058 4.251 0 2.637.932 4.808 2.802 6.513 1.864 1.694 4.541 2.546 8.02 2.546 2.102 0 4.068-.352 5.91-1.046 1.841-.693 3.75-1.886 5.74-3.569.159 1.49.511 2.785 1.068 3.899h5.604a12.064 12.064 0 0 1-1.353-3.796c-.227-1.33-.34-4.479-.34-9.468zm-5.422-.648c0 2.364-.295 4.148-.863 5.365-.762 1.568-1.944 2.796-3.547 3.705-1.614.91-3.455 1.353-5.524 1.353-2.08 0-3.66-.478-4.75-1.433-1.08-.943-1.62-2.136-1.62-3.569 0-.932.244-1.784.744-2.546.494-.773 1.193-1.352 2.114-1.75.91-.398 2.478-.75 4.683-1.069 3.887-.557 6.808-1.238 8.763-2.023v1.967zm16.05 13.912h5.365v-43.692h-5.365v43.692zm62.821-7.002c-2.25 1.864-4.99 2.796-8.229 2.796-2.66 0-5.137-.682-7.422-2.057-2.285-1.364-3.967-3.432-5.047-6.206-1.09-2.773-1.625-6.013-1.625-9.73 0-2.886.455-5.683 1.364-8.388.92-2.716 2.5-4.876 4.762-6.49 2.25-1.603 5.058-2.41 8.411-2.41 2.922 0 5.343.728 7.275 2.171 1.92 1.455 3.398 3.774 4.41 6.945l5.695-1.341c-1.171-4.024-3.251-7.16-6.23-9.377-2.977-2.228-6.66-3.342-11.025-3.342-3.853 0-7.388.875-10.593 2.637-3.217 1.762-5.683 4.33-7.422 7.718-1.74 3.387-2.614 7.354-2.614 11.9 0 4.172.772 8.082 2.318 11.719 1.535 3.637 3.785 6.41 6.73 8.331 2.954 1.91 6.785 2.876 11.49 2.876 4.547 0 8.4-1.25 11.549-3.74 3.148-2.5 5.33-6.114 6.535-10.866l-5.774-1.466c-.795 3.683-2.318 6.456-4.558 8.32zm22.62-28.575h6.137l3.365-5.069 3.284 5.07h6.07l-6.695-8.355h-5.728l-6.434 8.354zm9.445 3.217c-3.91 0-7.23 1.17-9.957 3.512-3.25 2.82-4.888 7.161-4.888 13.026 0 5.342 1.364 9.434 4.104 12.276 2.727 2.841 6.308 4.262 10.74 4.262 2.763 0 5.309-.648 7.639-1.932 2.341-1.296 4.115-3.115 5.342-5.445 1.216-2.33 1.83-5.535 1.83-9.616 0-5.024-1.387-8.956-4.137-11.81-2.762-2.852-6.32-4.273-10.673-4.273zm6.65 25.62c-1.774 2.034-3.99 3.046-6.65 3.046-2.683 0-4.91-1.012-6.672-3.023-1.773-2.024-2.66-5.059-2.66-9.105 0-4.058.887-7.081 2.66-9.093 1.762-2 3.99-3.012 6.672-3.012 2.637 0 4.853 1.012 6.626 3.023 1.785 2.024 2.671 4.99 2.671 8.9 0 4.149-.886 7.24-2.648 9.264zm26.244 2.148c-.796 0-1.398-.125-1.83-.386-.432-.262-.739-.603-.92-1.046-.194-.432-.285-1.42-.285-2.944v-18.504h5.388v-4.172h-5.388v-11.06l-5.342 3.217v7.843h-3.933v4.172h3.933v18.208c0 3.217.227 5.331.66 6.331.442 1 1.193 1.808 2.261 2.422 1.08.625 2.592.932 4.535.932 1.194 0 2.546-.16 4.047-.478l-.773-4.74c-.966.137-1.75.205-2.353.205zm23.028-27.768c-4.365 0-7.922 1.466-10.673 4.41-2.74 2.933-4.103 7.07-4.103 12.39 0 5.148 1.352 9.15 4.069 12.002 2.705 2.853 6.377 4.274 11.003 4.274 3.682 0 6.694-.898 9.059-2.682s3.99-4.297 4.864-7.536l-5.546-.694c-.819 2.274-1.921 3.922-3.308 4.956-1.387 1.023-3.069 1.546-5.035 1.546-2.649 0-4.854-.92-6.615-2.773-1.774-1.842-2.751-4.513-2.956-7.991h23.608c.011-.636.023-1.103.023-1.42 0-5.23-1.341-9.287-4.024-12.163-2.682-2.887-6.138-4.319-10.366-4.319zm-8.934 13.492c.17-2.762 1.103-4.967 2.785-6.615 1.67-1.648 3.75-2.467 6.206-2.467 2.728 0 4.944 1.035 6.65 3.092 1.113 1.341 1.784 3.33 2.022 5.99h-17.663zm71.904-9.15c-.932-1.284-2.149-2.33-3.638-3.137s-3.182-1.205-5.092-1.205c-2.603 0-4.956.682-7.07 2.057-2.102 1.364-3.682 3.342-4.74 5.91-1.045 2.57-1.568 5.445-1.568 8.594 0 3.24.58 6.104 1.74 8.604 1.158 2.49 2.795 4.433 4.92 5.82a12.347 12.347 0 0 0 6.957 2.091c3.887 0 6.842-1.568 8.843-4.706v3.99h4.978v-43.692h-5.33v15.674zm-2.012 21.448c-1.637 1.921-3.638 2.876-5.979 2.876-2.319 0-4.342-1-6.047-3.012-1.705-2-2.557-5.035-2.557-9.093 0-4.183.795-7.252 2.398-9.207 1.591-1.944 3.592-2.921 5.967-2.921 2.444 0 4.501 1.012 6.172 3.046 1.671 2.023 2.5 5.206 2.5 9.536 0 3.933-.818 6.854-2.454 8.775zm17.89-31.337h2.808c-.068 1.648-.353 2.944-.887 3.888-.523.943-1.318 1.636-2.398 2.068l1.318 2.126c1.808-.819 3.138-2.035 3.99-3.637.614-1.171.92-3.092.92-5.752v-4.921h-5.75v6.228zm47.091-3.66c-3.24-1.932-6.877-2.898-10.912-2.898-6.16 0-11.184 2.057-15.083 6.16-3.887 4.104-5.83 9.776-5.83 17.027 0 3.83.829 7.468 2.5 10.912 1.67 3.433 4.114 6.15 7.354 8.127 3.24 1.989 6.922 2.99 11.025 2.99 3.797 0 7.331-.91 10.616-2.706 3.274-1.796 5.809-4.444 7.593-7.934 1.796-3.5 2.683-7.467 2.683-11.9 0-4.365-.842-8.275-2.547-11.719-1.693-3.444-4.16-6.138-7.399-8.059zm-.227 32.78c-2.808 3.058-6.388 4.581-10.742 4.581-4.273 0-7.82-1.511-10.65-4.546-2.841-3.024-4.25-7.172-4.25-12.435 0-6.58 1.477-11.275 4.42-14.083 2.956-2.807 6.48-4.217 10.571-4.217 2.876 0 5.479.728 7.786 2.194 2.32 1.455 4.08 3.512 5.274 6.172 1.205 2.648 1.808 5.751 1.808 9.309 0 5.615-1.41 9.957-4.217 13.026zm40.6-21.493c-2.068-1.387-4.455-2.08-7.16-2.08-2.058 0-3.82.398-5.275 1.205-1.443.807-2.75 2.012-3.898 3.614v-4.103h-4.888v43.772h5.365V474.3c.91 1.147 2.08 2.102 3.501 2.852 1.42.762 3.023 1.137 4.808 1.137 2.444 0 4.774-.693 6.99-2.069 2.217-1.386 3.91-3.375 5.07-5.967s1.739-5.501 1.739-8.74c0-3.024-.523-5.797-1.58-8.332-1.046-2.535-2.615-4.49-4.672-5.888zm-1.773 23.563c-1.705 2.011-3.74 3.023-6.126 3.023-2.342 0-4.342-.978-5.99-2.921-1.649-1.944-2.478-4.956-2.478-9.025 0-4.08.886-7.184 2.637-9.32 1.761-2.137 3.785-3.206 6.07-3.206 2.307 0 4.284 1.012 5.944 3.012 1.66 2.012 2.49 5.024 2.49 9.06 0 4.239-.853 7.353-2.547 9.377zm42.567-6.547v-7.15c0-2.387-.091-4.035-.273-4.944-.318-1.467-.875-2.694-1.67-3.649-.796-.966-2.035-1.762-3.717-2.398-1.694-.637-3.888-.955-6.593-.955-2.716 0-5.115.364-7.183 1.114s-3.638 1.807-4.74 3.194c-1.091 1.375-1.876 3.194-2.353 5.433l5.251.716c.568-2.25 1.466-3.808 2.66-4.694 1.205-.887 3.069-1.33 5.592-1.33 2.705 0 4.74.614 6.104 1.819 1.023.897 1.523 2.432 1.523 4.626 0 .193-.011.659-.023 1.398-2.057.716-5.24 1.33-9.57 1.841-2.126.261-3.717.534-4.774.807-1.42.398-2.717.989-3.853 1.762-1.148.773-2.069 1.807-2.774 3.08-.704 1.284-1.057 2.705-1.057 4.251 0 2.637.932 4.808 2.796 6.513 1.876 1.694 4.547 2.546 8.025 2.546 2.103 0 4.07-.352 5.91-1.046 1.842-.693 3.751-1.886 5.74-3.569.16 1.49.512 2.785 1.069 3.899h5.604a12.062 12.062 0 0 1-1.353-3.796c-.227-1.33-.341-4.479-.341-9.468zm-5.422-.648c0 2.364-.295 4.148-.864 5.365-.761 1.568-1.943 2.796-3.546 3.705-1.614.91-3.455 1.353-5.524 1.353-2.08 0-3.66-.478-4.751-1.433-1.08-.943-1.625-2.136-1.625-3.569 0-.932.25-1.784.75-2.546.5-.773 1.205-1.352 2.114-1.75.91-.398 2.478-.75 4.683-1.069 3.887-.557 6.808-1.238 8.763-2.023v1.967zm16.05 13.912h5.364v-43.692h-5.365v43.692zm29.12-32.36c-4.365 0-7.922 1.466-10.673 4.41-2.74 2.933-4.103 7.07-4.103 12.39 0 5.148 1.352 9.15 4.069 12.002 2.705 2.853 6.376 4.274 11.003 4.274 3.682 0 6.694-.898 9.058-2.682s3.99-4.297 4.865-7.536l-5.547-.694c-.818 2.274-1.92 3.922-3.307 4.956-1.387 1.023-3.069 1.546-5.035 1.546-2.649 0-4.854-.92-6.616-2.773-1.773-1.842-2.75-4.513-2.955-7.991h23.608c.011-.636.023-1.103.023-1.42 0-5.23-1.341-9.287-4.024-12.163-2.682-2.887-6.138-4.319-10.366-4.319zm-8.934 13.492c.17-2.762 1.103-4.967 2.785-6.615 1.67-1.648 3.75-2.467 6.206-2.467 2.728 0 4.944 1.035 6.65 3.092 1.113 1.341 1.784 3.33 2.022 5.99H574.87zM419.915 137.574c-2.794-5.82-6.285-11.29-10.592-16.178-8.264 1.978-17.342 5.703-29.446 12.337a37.94 37.94 0 0 1 4.655 3.958c2.91 2.91 5.354 6.285 7.333 9.893 2.677 5.005 4.423 10.708 4.888 16.644h29.68c-.466-9.428-2.794-18.507-6.518-26.654z" fill="#3d7baa"/></svg>