<?xml version="1.0" encoding="UTF-8" standalone="no"?>
<svg
   viewBox="0 0 499.99999 242.10666"
   height="242.10666"
   width="500"
   xml:space="preserve"
   id="svg2"
   version="1.1"
   sodipodi:docname="logo-UVSQ-2020-RVB.svg"
   inkscape:version="1.1.1 (3bf5ae0d25, 2021-09-20)"
   xmlns:inkscape="http://www.inkscape.org/namespaces/inkscape"
   xmlns:sodipodi="http://sodipodi.sourceforge.net/DTD/sodipodi-0.dtd"
   xmlns="http://www.w3.org/2000/svg"
   xmlns:svg="http://www.w3.org/2000/svg"
   xmlns:rdf="http://www.w3.org/1999/02/22-rdf-syntax-ns#"
   xmlns:cc="http://creativecommons.org/ns#"
   xmlns:dc="http://purl.org/dc/elements/1.1/"><sodipodi:namedview
     id="namedview79"
     pagecolor="#ffffff"
     bordercolor="#666666"
     borderopacity="1.0"
     inkscape:pageshadow="2"
     inkscape:pageopacity="0.0"
     inkscape:pagecheckerboard="0"
     showgrid="false"
     inkscape:zoom="1.8117525"
     inkscape:cx="187.93958"
     inkscape:cy="129.43269"
     inkscape:window-width="1920"
     inkscape:window-height="1001"
     inkscape:window-x="-9"
     inkscape:window-y="-9"
     inkscape:window-maximized="1"
     inkscape:current-layer="svg2" /><metadata
     id="metadata8"><rdf:RDF><cc:Work
         rdf:about=""><dc:format>image/svg+xml</dc:format><dc:type
           rdf:resource="http://purl.org/dc/dcmitype/StillImage" /></cc:Work></rdf:RDF></metadata><defs
     id="defs6"><clipPath
       id="clipPath18"
       clipPathUnits="userSpaceOnUse"><path
         id="path16"
         d="M 0,595.28 H 841.89 V 0 H 0 Z" /></clipPath></defs><path
     id="path22"
     style="fill:#706f6f;fill-opacity:1;fill-rule:nonzero;stroke:none;stroke-width:0.721541"
     d="m 13.229482,39.839749 c 0,-19.916019 0,-23.586502 -0.2612,-27.777946 C 12.699148,7.5969011 11.651468,5.5138043 7.3272622,4.5895083 6.2795824,4.3275884 4.0557902,4.191942 2.228845,4.191942 0.79153233,4.191942 0,3.9278574 0,3.0107751 0,2.0965825 0.92213134,1.8375469 2.882562,1.8375469 c 6.944845,0 15.189192,0.389633 19.113661,0.389633 3.140875,0 11.39532,-0.389633 16.101945,-0.389633 1.962592,0 2.881839,0.2590356 2.881839,1.1732282 0,0.9170823 -0.786479,1.1811669 -2.09031,1.1811669 -1.443082,0 -2.228842,0.1356464 -3.799641,0.3975663 -3.532673,0.6501134 -4.583237,2.8840091 -4.842272,7.4722947 -0.263365,4.191444 -0.263365,7.861927 -0.263365,27.777946 v 18.358206 c 0,19.003265 3.803976,26.99651 10.209109,32.237798 5.889951,4.849486 11.917714,5.374771 16.36819,5.374771 5.758629,0 12.836962,-1.829111 18.073921,-7.071119 7.203155,-7.213984 7.590624,-19.00543 7.590624,-32.509097 V 39.839749 c 0,-19.916019 0,-23.586502 -0.264085,-27.777946 C 81.703148,7.5969011 80.653303,5.5138043 76.336311,4.5895083 75.288631,4.3275884 73.057625,4.191942 71.625362,4.191942 c -1.442362,0 -2.226682,-0.2640846 -2.226682,-1.1811669 0,-0.9141926 0.909143,-1.1732282 2.744028,-1.1732282 6.678595,0 14.930156,0.389633 15.053539,0.389633 1.572965,0 9.824525,-0.389633 14.935213,-0.389633 1.82478,0 2.75196,0.2590356 2.75196,1.1732282 0,0.9170823 -0.79658,1.1811669 -2.36233,1.1811669 -1.44236,0 -2.22812,0.1356464 -3.798921,0.3975663 -3.527623,0.6501134 -4.583236,2.8840091 -4.846601,7.4722947 -0.259035,4.191444 -0.259035,7.861927 -0.259035,27.777946 V 53.86798 c 0,14.554231 -1.442362,30.016885 -12.43795,39.452497 -9.292021,7.998303 -18.722584,9.444993 -27.233182,9.444993 -6.937626,0 -19.511228,-0.40406 -29.066613,-9.050306 C 18.199467,87.684512 13.229482,77.992749 13.229482,58.986599 Z" /><path
     id="path26"
     style="fill:#706f6f;fill-opacity:1;fill-rule:nonzero;stroke:none;stroke-width:0.721541"
     d="m 124.44639,14.683026 c -3.01028,-7.2089296 -5.24129,-8.6512967 -9.95296,-9.9652256 -1.96765,-0.5303338 -4.05796,-0.5303338 -5.10564,-0.5303338 -1.17827,0 -1.57296,-0.3889078 -1.57296,-1.1732281 0,-1.0426254 1.44237,-1.1761125 3.40207,-1.1761125 6.94557,0 14.40776,0.3896329 18.99389,0.3896329 3.26354,0 9.55322,-0.3896329 16.10122,-0.3896329 1.57296,0 3.01533,0.2590355 3.01533,1.1761125 0,0.914198 -0.78865,1.1732281 -1.9727,1.1732281 -2.08526,0 -4.05002,0.1407008 -5.10564,0.9300701 -0.90698,0.6479434 -1.30887,1.5722394 -1.30887,2.7433029 0,1.709336 1.18549,5.3848734 3.0045,10.0965484 l 22.5345,59.508496 h 0.51734 c 5.63597,-14.4157 22.65499,-56.628822 25.79803,-65.275064 0.64867,-1.713665 1.17828,-3.6690438 1.17828,-4.8473264 0,-1.0476797 -0.52961,-2.1032928 -1.70068,-2.4900414 -1.58018,-0.5252848 -3.5406,-0.6659856 -5.24128,-0.6659856 -1.17828,0 -2.22668,-0.1255484 -2.22668,-1.0375763 0,-1.0527288 1.17611,-1.3117643 3.66832,-1.3117643 6.54872,0 12.04399,0.3896329 13.7526,0.3896329 2.22596,0 8.37206,-0.3896329 12.3023,-0.3896329 1.70068,0 2.74836,0.2590355 2.74836,1.1761125 0,0.914198 -0.77566,1.1732281 -2.09536,1.1732281 -1.30671,0 -4.05291,0 -6.4174,1.5780135 -1.70356,1.1912703 -3.66327,3.4049592 -7.19378,11.8022749 -5.11574,12.319615 -8.63903,19.397947 -15.71664,35.517203 -8.38,19.134588 -14.52898,33.42185 -17.42092,39.982117 -3.39775,7.590625 -4.18134,9.693925 -6.01767,9.693925 -1.70139,0 -2.48066,-1.83921 -4.97575,-7.992528 z" /><path
     id="path30"
     style="fill:#706f6f;fill-opacity:1;fill-rule:nonzero;stroke:none;stroke-width:0.721541"
     d="m 217.67689,99.344857 c -2.09536,-0.906979 -2.48499,-1.565026 -2.48499,-4.442535 0,-7.219033 0.52023,-15.080961 0.653,-17.171991 0.12338,-1.971976 0.52311,-3.409288 1.56791,-3.409288 1.17611,0 1.31176,1.173228 1.31176,2.220908 0,1.703561 0.53033,4.462736 1.17828,6.684369 2.87968,9.703301 10.60667,13.238863 18.71753,13.238863 11.78712,0 17.54864,-7.990366 17.54864,-14.935211 0,-6.42245 -1.9626,-12.455987 -12.82758,-20.970912 l -6.03066,-4.721772 C 222.91313,44.563188 217.93809,35.388771 217.93809,24.770553 217.93809,10.354853 229.97919,0 248.18371,0 c 8.50843,0 14.01091,1.3059902 17.41371,2.2288412 1.17322,0.2561512 1.83848,0.6551625 1.83848,1.5700802 0,1.7064462 -0.53033,5.5053676 -0.53033,15.7296236 0,2.886893 -0.38891,3.934573 -1.43659,3.934573 -0.91491,0 -1.31393,-0.790809 -1.31393,-2.35656 0,-1.181161 -0.65372,-5.246332 -3.39774,-8.656345 -1.97487,-2.4849928 -5.75936,-6.4195606 -14.275,-6.4195606 -9.68887,0 -15.58315,5.6359646 -15.58315,13.4978926 0,6.025603 3.01027,10.618943 13.88031,18.875552 l 3.66832,2.744028 c 15.83714,11.937921 21.46589,20.975961 21.46589,33.429063 0,7.605782 -2.87679,16.65681 -12.30735,22.807961 -6.54294,4.198651 -13.87526,5.374771 -20.81289,5.374771 -7.59568,0 -13.48563,-0.92502 -19.11655,-3.415063" /><path
     id="path34"
     style="fill:#706f6f;fill-opacity:1;fill-rule:nonzero;stroke:none;stroke-width:0.721541"
     d="m 351.78054,99.344857 c -5.24128,1.977753 -13.61623,3.415063 -20.56108,3.415063 -38.35936,0 -53.29024,-28.438877 -53.29024,-52.036202 C 277.92922,29.355954 293.25262,0 331.61632,0 c 31.29618,0 53.02543,19.003265 53.02543,49.673873 0,23.069156 -14.52826,37.622667 -22.78487,43.122986 l 26.32259,13.503671 c 27.62282,14.15089 45.04085,15.59614 53.94108,15.59614 6.80703,0 16.50023,-1.05562 25.5289,-4.59045 0.78936,-0.25904 1.44741,-0.65878 1.96764,-0.65878 0.65877,0 1.1754,0.53034 1.1754,1.17612 0,0.79659 -0.653,1.18549 -1.56503,1.57802 -7.85688,3.80685 -22.65499,9.83173 -41.51251,9.83173 -19.77026,0 -33.78118,-5.1078 -55.38055,-17.81993 z m 14.53403,-46.128213 c 0,-31.720453 -19.63966,-46.9197424 -37.70853,-46.9197424 -17.15684,0 -32.47158,11.0006374 -32.47158,41.4122094 0,31.187229 18.85535,48.50281 39.93233,48.50281 10.47247,0 30.24778,-4.593339 30.24778,-42.995277" /><path
     id="path38"
     style="fill:#0092bd;fill-opacity:1;fill-rule:nonzero;stroke:none;stroke-width:0.721541"
     d="m 450.98348,1.8404367 4.5053,56.3351523 4.49305,-56.3351523 z" /><path
     id="path42"
     style="fill:#0092bd;fill-opacity:1;fill-rule:nonzero;stroke:none;stroke-width:0.721541"
     d="m 410.99639,43.312536 c 7.21903,5.110686 30.70019,21.33024 30.70019,21.33024 L 410.99639,33.859608 Z" /><path
     id="path46"
     style="fill:#0092bd;fill-opacity:1;fill-rule:nonzero;stroke:none;stroke-width:0.721541"
     d="m 410.99639,31.703422 32.6902,31.059521 -32.6902,-44.155518 z" /><path
     id="path50"
     style="fill:#0092bd;fill-opacity:1;fill-rule:nonzero;stroke:none;stroke-width:0.721541"
     d="M 440.05182,1.8404367 453.03742,58.37618 449.70606,1.8404367 Z" /><path
     id="path54"
     style="fill:#0092bd;fill-opacity:1;fill-rule:nonzero;stroke:none;stroke-width:0.721541"
     d="M 450.65229,58.940931 438.76487,1.8395005 h -21.59143 c -3.39991,0 -6.17136,2.8998812 -6.17136,6.4751208 V 16.415383 L 445.91825,61.161839 417.45411,8.0411585 c 0.35428,-0.2114138 0.68836,-0.4249868 1.03831,-0.6356808 L 448.04969,59.865227 427.55571,2.8770769 c 0.35933,-0.1529635 0.73093,-0.313871 1.10035,-0.4596208 z" /><path
     id="path58"
     style="fill:#0092bd;fill-opacity:1;fill-rule:nonzero;stroke:none;stroke-width:0.721541"
     d="m 410.99639,73.693084 c 0.4221,0.08803 1.09097,0.171006 2.01238,0.171006 l 24.83044,0.06566 c -7.47446,-1.31465 -24.33474,-3.226736 -26.84282,-3.669045 z" /><path
     id="path62"
     style="fill:#0092bd;fill-opacity:1;fill-rule:nonzero;stroke:none;stroke-width:0.721541"
     d="m 410.99639,68.24594 c 3.73109,0.655882 27.19999,3.620702 27.19999,3.620702 0,0 -22.90104,-7.55816 -27.19999,-9.025777 z" /><path
     id="path66"
     style="fill:#0092bd;fill-opacity:1;fill-rule:nonzero;stroke:none;stroke-width:0.721541"
     d="m 410.99639,52.706008 c 6.29473,3.108405 29.30328,14.058536 29.30328,14.058536 0,0 -22.52655,-16.397779 -29.30328,-21.378587 z" /><path
     id="path70"
     style="fill:#0092bd;fill-opacity:1;fill-rule:nonzero;stroke:none;stroke-width:0.721541"
     d="m 410.99639,60.844861 c 3.96776,1.25404 28.24334,8.561103 28.24334,8.561103 0,0 -21.93129,-11.347698 -28.24334,-14.651645 z" /><path
     id="path74"
     style="fill:#0092bd;fill-opacity:1;fill-rule:nonzero;stroke:none;stroke-width:0.721541"
     d="m 497.2355,74.176803 c 1.56789,0 2.41502,-0.236664 2.76423,-0.399737 v -3.517519 c -2.58819,0.466839 -19.18221,2.519626 -26.64512,3.854481 z" /><path
     id="path78"
     style="fill:#0092bd;fill-opacity:1;fill-rule:nonzero;stroke:none;stroke-width:0.721541"
     d="M 493.82015,1.8404367 H 472.23088 L 460.68764,58.806215 482.30722,2.4133433 c 0.007,0 0.0123,0.01012 0.0166,0.015152 l 0.008,-0.015152 c 0.36943,0.1457498 0.74897,0.3117063 1.12345,0.4625051 L 463.30038,60.08551 492.47381,7.4064139 c 0.005,0.012284 0.009,0.012284 0.0168,0.017317 l 0.013,-0.017317 c 0.33985,0.2186274 0.6811,0.424267 1.04043,0.6356808 L 465.75378,61.379238 499.99892,16.391783 V 8.3133929 c 0,-3.5759648 -2.77646,-6.4729562 -6.17855,-6.4729562" /><path
     id="path82"
     style="fill:#0092bd;fill-opacity:1;fill-rule:nonzero;stroke:none;stroke-width:0.721541"
     d="M 467.67975,62.999608 499.99838,31.673837 V 18.61248 Z" /><path
     id="path86"
     style="fill:#0092bd;fill-opacity:1;fill-rule:nonzero;stroke:none;stroke-width:0.721541"
     d="M 499.99903,43.29529 V 33.860398 L 469.35872,64.909816 C 470.8819,63.828947 493.04841,48.217653 499.99903,43.29529" /><path
     id="path90"
     style="fill:#0092bd;fill-opacity:1;fill-rule:nonzero;stroke:none;stroke-width:0.721541"
     d="M 461.29013,1.8404367 458.27914,58.22826 471.2301,1.8404367 Z" /><path
     id="path94"
     style="fill:#0092bd;fill-opacity:1;fill-rule:nonzero;stroke:none;stroke-width:0.721541"
     d="m 499.99903,68.24594 v -5.410124 c -4.247,1.44741 -26.81325,8.905277 -27.17762,9.025771 0.86945,-0.128432 23.61897,-2.998009 27.17762,-3.615647" /><path
     id="path98"
     style="fill:#0092bd;fill-opacity:1;fill-rule:nonzero;stroke:none;stroke-width:0.721541"
     d="m 499.99903,52.688404 v -7.302008 c -6.61364,4.844436 -28.12717,20.822992 -29.2636,21.672251 1.36443,-0.678254 23.20264,-11.375118 29.2636,-14.370243" /><path
     id="path102"
     style="fill:#0092bd;fill-opacity:1;fill-rule:nonzero;stroke:none;stroke-width:0.721541"
     d="m 499.99903,60.837794 v -6.083323 c -6.20886,3.25127 -27.19494,14.269944 -27.89917,14.638651 1.21436,-0.381694 24.11756,-7.364063 27.89917,-8.555328" /><path
     id="path106"
     style="fill:#80ba27;fill-opacity:1;fill-rule:nonzero;stroke:none;stroke-width:0.721541"
     d="m 499.53958,75.901724 c -0.45457,0.130597 -1.20353,0.248932 -2.30386,0.248932 l -41.2838,0.01515 -44.08552,-0.133488 c -0.33985,-0.0303 -0.61837,-0.06566 -0.84204,-0.118329 v 5.55299 c 0,4.545717 3.08098,6.827235 7.85471,8.234243 0,0 32.09205,7.973043 37.04038,7.973043 4.9671,0 36.21783,-7.973043 36.21783,-7.973043 4.12073,-1.236003 7.86267,-3.688526 7.86267,-8.234243 v -5.718227 c -0.10607,0.04762 -0.25402,0.100298 -0.46037,0.152969" /><path
     id="path108"
     style="fill:#69043b;fill-opacity:1;fill-rule:nonzero;stroke:none;stroke-width:0.721541"
     d="M 500,242.10666 H 0.20123677 V 144.71357 H 500 Z" /><path
     id="path112"
     style="fill:#ffffff;fill-opacity:1;fill-rule:nonzero;stroke:none;stroke-width:0.721541"
     d="m 234.63733,162.72392 c -3.49949,0 -6.34308,2.83567 -6.34308,6.33515 0,3.49154 2.84359,6.33514 6.34308,6.33514 3.49154,0 6.33514,-2.8436 6.33514,-6.33514 0,-3.49948 -2.8436,-6.33515 -6.33514,-6.33515" /><path
     id="path116"
     style="fill:#ffffff;fill-opacity:1;fill-rule:nonzero;stroke:none;stroke-width:0.721541"
     d="m 220.97983,177.06458 c -2.16463,0 -3.92664,1.75263 -3.92664,3.91653 0,2.16968 1.76201,3.92087 3.92664,3.92087 2.16462,0 3.91653,-1.75119 3.91653,-3.92087 0,-2.1639 -1.75191,-3.91653 -3.91653,-3.91653" /><path
     id="path118"
     style="fill:#ffffff;fill-opacity:1;fill-rule:nonzero;stroke:none;stroke-width:0.721541"
     d="m 73.776206,215.2862 h 4.206591 v -23.73153 h -4.206591 z" /><path
     id="path122"
     style="fill:#ffffff;fill-opacity:1;fill-rule:nonzero;stroke:none;stroke-width:0.721541"
     d="m 114.48715,201.75916 c 0.58229,-4.14815 3.41074,-7.00907 7.00402,-7.00907 4.45264,0 6.44986,3.53989 6.87124,7.00907 z m 7.09277,-10.68677 c -6.4975,0 -11.39605,5.31849 -11.39605,12.37301 0,7.05452 5.08399,12.36796 11.83619,12.36796 3.98796,0 6.99896,-1.36371 9.75381,-4.42811 l 0.25398,-0.29727 -2.70579,-2.43665 -0.27274,0.27707 c -2.02681,2.13577 -4.23185,3.12068 -6.93258,3.12068 -4.02332,0 -7.03432,-2.78516 -7.62959,-6.96794 h 18.08979 l 0.0433,-0.34634 c 0.0404,-0.42499 0.0404,-0.80091 0.0404,-1.11695 0,-7.50982 -4.44831,-12.54546 -11.08073,-12.54546" /><path
     id="path126"
     style="fill:#ffffff;fill-opacity:1;fill-rule:nonzero;stroke:none;stroke-width:0.721541"
     d="m 33.325235,205.07933 c 0,3.99807 -2.658163,6.79549 -6.472956,6.79549 -3.720275,0 -5.948397,-2.44387 -5.948397,-6.52852 v -13.79156 h -4.208761 v 14.6336 c 0,5.82357 3.613488,9.58497 9.178021,9.58497 3.130776,0 5.582574,-1.18188 7.452093,-3.60627 v 3.11851 h 4.168353 v -23.73081 h -4.168353 z" /><path
     id="path130"
     style="fill:#ffffff;fill-opacity:1;fill-rule:nonzero;stroke:none;stroke-width:0.721541"
     d="m 56.924364,191.06705 c -3.105523,0 -5.607833,1.21075 -7.456425,3.58607 V 191.5476 H 45.25341 v 23.73658 h 4.214529 v -13.52532 c 0,-3.99301 2.670431,-6.7962 6.477293,-6.7962 3.720995,0 5.943343,2.45252 5.943343,6.53645 v 13.78507 h 4.20948 v -14.63216 c 0,-5.82357 -3.60122,-9.58497 -9.173691,-9.58497" /><path
     id="path134"
     style="fill:#ffffff;fill-opacity:1;fill-rule:nonzero;stroke:none;stroke-width:0.721541"
     d="m 103.12459,191.55395 -7.484563,18.37264 -7.446319,-18.37264 h -4.654669 l 10.277651,23.90903 h 3.544941 l 10.323109,-23.90903 z" /><path
     id="path138"
     style="fill:#ffffff;fill-opacity:1;fill-rule:nonzero;stroke:none;stroke-width:0.721541"
     d="m 142.9546,196.30033 v -4.74559 h -4.21453 v 23.72288 h 4.21453 v -9.52436 c 0,-6.15259 3.41073,-10.11675 8.69747,-10.11675 h 0.66166 v -4.46347 l -0.38964,-0.013 c -3.6777,-0.15225 -6.93546,1.75984 -8.96949,5.14027" /><path
     id="path142"
     style="fill:#ffffff;fill-opacity:1;fill-rule:nonzero;stroke:none;stroke-width:0.721541"
     d="m 198.78395,183.73538 -4.22174,2.32481 v 5.50104 h -4.44615 v 3.8148 h 4.44615 v 13.42791 c 0,4.43027 2.43881,6.88207 6.87918,6.88207 1.60471,0 2.96771,-0.33624 4.30833,-1.02243 l 0.20853,-0.11184 v -3.81479 l -0.56425,0.28428 c -1.11694,0.54189 -2.03258,0.75835 -3.15386,0.75835 -2.36017,0 -3.45619,-1.07798 -3.45619,-3.40785 v -12.9957 h 7.27099 v -3.8148 h -7.27099 z" /><path
     id="path146"
     style="fill:#ffffff;fill-opacity:1;fill-rule:nonzero;stroke:none;stroke-width:0.721541"
     d="m 228.02121,201.75916 h -13.87093 c 0.57218,-4.14815 3.40279,-7.00907 6.99103,-7.00907 4.45336,0 6.44986,3.53989 6.8799,7.00907 m -6.79043,-10.68677 c -6.49317,0 -11.38883,5.31849 -11.38883,12.37301 0,7.05452 5.08399,12.36796 11.83113,12.36796 3.99807,0 6.99608,-1.36371 9.75093,-4.42811 l 0.26192,-0.29727 -2.71877,-2.43665 -0.25976,0.27707 c -2.02681,2.13577 -4.23401,3.12068 -6.9398,3.12068 -4.02404,0 -7.03504,-2.78516 -7.61732,-6.96794 h 18.07752 l 0.0476,-0.34634 c 0.0411,-0.42499 0.0411,-0.80091 0.0411,-1.11695 0,-7.50982 -4.45335,-12.54546 -11.08577,-12.54546" /><path
     id="path150"
     style="fill:#ffffff;fill-opacity:1;fill-rule:nonzero;stroke:none;stroke-width:0.721541"
     d="m 166.48684,201.41881 -0.0895,-0.0224 c -2.84071,-0.86513 -5.52341,-1.68625 -5.52341,-3.63225 0,-1.74974 1.61481,-2.91215 4.02837,-2.91215 2.09032,0 4.42306,0.74536 6.57398,2.14659 l 0.34634,0.21358 1.96043,-3.24983 -0.31531,-0.20852 c -2.46191,-1.62564 -5.62804,-2.59684 -8.47164,-2.59684 -4.82639,0 -8.20682,2.86597 -8.20682,6.96577 v 0.0895 c 0,4.62075 4.5551,5.91232 7.8742,6.8662 3.07449,0.84709 5.4296,1.66604 5.4296,3.72532 0,1.93301 -1.74757,3.2455 -4.34369,3.2455 -2.55137,0 -5.21169,-0.99212 -7.69597,-2.84071 l -0.3283,-0.25471 -2.18699,3.07522 0.29222,0.23883 c 2.64013,2.13937 6.36617,3.45619 9.74082,3.45619 5.11718,0 8.56544,-2.91432 8.56544,-7.27604 v -0.0787 c 0,-4.65611 -4.60345,-6.02777 -7.6498,-6.95062" /><path
     id="path152"
     style="fill:#ffffff;fill-opacity:1;fill-rule:nonzero;stroke:none;stroke-width:0.721541"
     d="m 180.87115,215.2862 h 4.2066 v -23.73153 h -4.2066 z" /><path
     id="path156"
     style="fill:#ffffff;fill-opacity:1;fill-rule:nonzero;stroke:none;stroke-width:0.721541"
     d="m 263.63612,201.86061 v -0.0534 c 0,-4.03342 -2.84288,-6.82579 -7.5661,-6.82579 h -8.06468 v 19.74285 h 4.34657 v -5.92314 h 3.30106 c 4.4245,0 7.98315,-2.37532 7.98315,-6.94052 m -4.4043,0.0765 c 0,1.69923 -1.26414,2.99874 -3.44176,2.99874 h -3.43815 v -6.04292 h 3.35734 c 2.16679,0 3.52257,1.04263 3.52257,2.99872 z m 27.00012,12.78718 -8.46802,-19.89292 h -4.00312 l -8.46946,19.89292 h 4.43532 l 1.80602,-4.42522 h 8.35258 l 1.80024,4.42522 z m -7.90378,-8.26022 h -5.23839 l 2.62136,-6.40874 z m 30.13739,8.26022 -4.82784,-7.05163 c 2.51602,-0.92863 4.23257,-2.93307 4.23257,-6.12735 v -0.0483 c 0,-4.05868 -2.79742,-6.51553 -7.44704,-6.51553 h -9.02289 v 19.74285 h 4.34369 v -6.31999 h 3.40568 l 4.23689,6.31999 z m -5.00318,-12.94736 c 0,1.66316 -1.20786,2.7902 -3.31837,2.7902 h -4.39996 v -5.6742 h 4.31121 c 2.11557,0 3.40712,0.96686 3.40712,2.83061 z m 14.99294,-6.79549 h -4.34369 v 19.74285 h 4.34369 z m 21.31942,13.90124 v -0.0483 c 0,-3.44321 -2.2505,-4.8834 -6.25578,-5.93108 -3.41578,-0.86946 -4.25493,-1.29445 -4.25493,-2.59106 v -0.0563 c 0,-0.95388 0.86729,-1.72161 2.53333,-1.72161 1.66749,0 3.38476,0.73237 5.1345,1.93807 l 2.26131,-3.2657 c -2.00949,-1.60977 -4.45913,-2.51025 -7.33737,-2.51025 -4.04424,0 -6.91021,2.37027 -6.91021,5.94696 v 0.0555 c 0,3.93457 2.56292,5.02483 6.54079,6.04509 3.30106,0.84348 3.97569,1.40628 3.97569,2.50735 v 0.0556 c 0,1.16312 -1.0686,1.86446 -2.85081,1.86446 -2.25338,0 -4.11279,-0.92285 -5.89284,-2.39552 l -2.57157,3.07521 c 2.37531,2.11557 5.3892,3.15315 8.38215,3.15315 4.26288,0 7.24574,-2.19999 7.24574,-6.12157 m 13.62921,-4.95988 h -8.69242 v 4.11279 h 8.69242 z m 20.17072,4.95988 v -0.0483 c 0,-3.4432 -2.24039,-4.8834 -6.25938,-5.93108 -3.41001,-0.86946 -4.25421,-1.29444 -4.25421,-2.59106 v -0.0563 c 0,-0.95388 0.86946,-1.7216 2.53334,-1.7216 1.67325,0 3.3898,0.73237 5.13449,1.93807 l 2.26564,-3.26571 c -2.00661,-1.60976 -4.47067,-2.51024 -7.33664,-2.51024 -4.04136,0 -6.91527,2.37026 -6.91527,5.94695 v 0.0556 c 0,3.93457 2.56292,5.02482 6.54656,6.04508 3.29529,0.84349 3.97498,1.40629 3.97498,2.50736 v 0.0556 c 0,1.16313 -1.07366,1.86447 -2.84865,1.86447 -2.26059,0 -4.12506,-0.92286 -5.89573,-2.39552 l -2.56797,3.07521 c 2.37244,2.11557 5.38632,3.15314 8.37928,3.15314 4.25782,0 7.24356,-2.19998 7.24356,-6.12157 m 24.7352,5.84161 -8.47668,-19.89292 h -4.0024 l -8.46441,19.89292 h 4.4281 l 1.80025,-4.42522 h 8.35475 l 1.80818,4.42522 z m -7.90883,-8.26021 h -5.2521 l 2.62424,-6.40875 z m 29.14744,5.07893 -2.77217,-2.79742 c -1.54338,1.41351 -2.92946,2.31904 -5.19078,2.31904 -3.37249,0 -5.72255,-2.82556 -5.72255,-6.21104 v -0.0606 c 0,-3.39269 2.39624,-6.15187 5.72255,-6.15187 1.98352,0 3.53267,0.83915 5.06162,2.23029 l 2.76423,-3.18922 c -1.83632,-1.80025 -4.07166,-3.04707 -7.78977,-3.04707 -6.06818,0 -10.30074,4.60344 -10.30074,10.21848 v 0.0462 c 0,5.68215 4.32131,10.15788 10.12685,10.15788 3.80758,0 6.06384,-1.35289 8.10076,-3.51463 m 19.77098,3.18128 v -3.95189 h -9.84689 v -15.79096 h -4.33142 v 19.74285 z m 24.63635,0 -8.46442,-19.89293 h -3.99951 l -8.46946,19.89293 h 4.4281 l 1.80025,-4.42523 h 8.35185 l 1.80603,4.42523 z m -7.89224,-8.26022 h -5.25138 l 2.61703,-6.40874 z m 27.44243,-11.48263 h -4.93968 l -4.79393,7.92182 -4.71528,-7.92182 h -5.07893 l 7.5899,11.96318 v 7.77967 h 4.3509 v -7.87348 z" /></svg>
