<?xml version="1.0" encoding="UTF-8"?>
<svg width="24px" height="24px" viewBox="0 0 24 24" version="1.1" xmlns="http://www.w3.org/2000/svg" xmlns:xlink="http://www.w3.org/1999/xlink">
    <title>facebook_in_circle</title>
    <g id="Page-1" stroke="none" stroke-width="1" fill="none" fill-rule="evenodd">
        <g id="facebook_in_circle" fill="#000000" fill-rule="nonzero">
            <path d="M10.159322,8.46101695 L10.159322,10.7898305 L8.29830508,10.7898305 L8.29830508,13.5864407 L10.159322,13.5864407 L10.159322,20.1050847 L12.9559322,20.1050847 L12.9559322,13.5864407 L15.7525424,13.5864407 L15.7525424,10.7898305 L12.9559322,10.7898305 L12.9559322,8.92881356 C12.9559322,8.36949153 13.3322034,7.99322034 13.8915254,7.99322034 L15.7525424,7.99322034 L15.7525424,5.19661017 L13.4237288,5.19661017 C11.6542373,5.19661017 10.159322,6.69152542 10.159322,8.46101695 L10.159322,8.46101695 Z" id="Path"></path>
            <path d="M12,0 C5.4,0 0,5.4 0,12 C0,18.6 5.4,24 12,24 C18.6,24 24,18.6 24,12 C24,5.4 18.6,0 12,0 Z M12,23.0033898 C5.94915254,23.0033898 0.996610169,18.0508475 0.996610169,12 C0.996610169,5.94915254 5.94915254,0.996610169 12,0.996610169 C18.0508475,0.996610169 23.0033898,5.94915254 23.0033898,12 C23.0033898,18.0508475 18.0508475,23.0033898 12,23.0033898 Z" id="Shape"></path>
        </g>
    </g>
</svg>