<?xml version="1.0" encoding="UTF-8"?>
<svg width="24px" height="24px" viewBox="0 0 24 24" version="1.1" xmlns="http://www.w3.org/2000/svg" xmlns:xlink="http://www.w3.org/1999/xlink">
    <title>svgviewer-output</title>
    <g id="Page-1" stroke="none" stroke-width="1" fill="none" fill-rule="evenodd">
        <g id="svgviewer-output" fill="#000000" fill-rule="nonzero">
            <path d="M17.76,0 L6.24,0 C2.79374316,0 0,2.79374316 0,6.24 L0,17.76 C0,21.2062568 2.79374316,24 6.24,24 L17.76,24 C21.2062568,24 24,21.2062568 24,17.76 L24,6.24 C24,2.79374316 21.2062568,0 17.76,0 L17.76,0 Z M12.48,23.04 L12.48,14.88 C12.48,14.6149033 12.2650967,14.4 12,14.4 L9.6,14.4 L9.6,11.52 L12,11.52 C12.2650967,11.52 12.48,11.3050967 12.48,11.04 L12.48,7.2 C12.48,5.8745166 13.5545166,4.8 14.88,4.8 L18.72,4.8 L18.72,7.68 L16.8,7.68 C16.00471,7.68 15.36,8.32470996 15.36,9.12 L15.36,11.04 C15.36,11.3050967 15.5749033,11.52 15.84,11.52 L18.72,11.52 L18.72,14.4 L15.84,14.4 C15.5749033,14.4 15.36,14.6149033 15.36,14.88 L15.36,23.04 L12.48,23.04 Z M23.04,17.76 C23.04,20.6760635 20.6760635,23.04 17.76,23.04 L16.32,23.04 L16.32,15.36 L19.2,15.36 C19.4650967,15.36 19.68,15.1450967 19.68,14.88 L19.68,11.04 C19.68,10.7749033 19.4650967,10.56 19.2,10.56 L16.32,10.56 L16.32,9.12 C16.32,8.85490332 16.5349033,8.64 16.8,8.64 L19.2,8.64 C19.4650967,8.64 19.68,8.42509668 19.68,8.16 L19.68,4.32 C19.68,4.05490332 19.4650967,3.84 19.2,3.84 L14.88,3.84 C13.0243232,3.84 11.52,5.34432324 11.52,7.2 L11.52,10.56 L9.12,10.56 C8.85490332,10.56 8.64,10.7749033 8.64,11.04 L8.64,14.88 C8.64,15.1450967 8.85490332,15.36 9.12,15.36 L11.52,15.36 L11.52,23.04 L6.24,23.04 C3.32393652,23.04 0.96,20.6760635 0.96,17.76 L0.96,6.24 C0.96,3.32393652 3.32393652,0.96 6.24,0.96 L17.76,0.96 C20.6760635,0.96 23.04,3.32393652 23.04,6.24 L23.04,17.76 Z" id="Shape"></path>
        </g>
    </g>
</svg>