<?xml version="1.0" encoding="UTF-8"?>
<svg width="68px" height="67px" viewBox="0 0 68 67" version="1.1" xmlns="http://www.w3.org/2000/svg" xmlns:xlink="http://www.w3.org/1999/xlink">
    <title>noun-transparency-4256182</title>
    <g id="Page-1" stroke="none" stroke-width="1" fill="#006df9" fill-rule="evenodd">
        <g id="noun-transparency-4256182" fill="#006df9" fill-rule="nonzero">
            <g id="Group">
                <path d="M13.93,10.88 L31.59,10.88 C32.1422847,10.88 32.59,10.4322847 32.59,9.88 C32.59,9.32771525 32.1422847,8.88 31.59,8.88 L13.93,8.88 C13.3777153,8.88 12.93,9.32771525 12.93,9.88 C12.93,10.4322847 13.3777153,10.88 13.93,10.88 Z" id="Path"></path>
                <path d="M18.75,17.47 C18.75,18.0222847 19.1977153,18.47 19.75,18.47 L37.35,18.47 C37.9022847,18.47 38.35,18.0222847 38.35,17.47 C38.35,16.9177153 37.9022847,16.47 37.35,16.47 L19.74,16.47 C19.1877153,16.47 18.74,16.9177153 18.74,17.47 L18.75,17.47 Z" id="Path"></path>
                <path d="M8.17,18.46 L16.36,18.46 C16.9122847,18.46 17.36,18.0122847 17.36,17.46 C17.36,16.9077153 16.9122847,16.46 16.36,16.46 L8.17,16.46 C7.61771525,16.46 7.17,16.9077153 7.17,17.46 C7.17,18.0122847 7.61771525,18.46 8.17,18.46 Z" id="Path"></path>
                <path d="M8.17,23.26 L26.78,23.26 C27.3322847,23.26 27.78,22.8122847 27.78,22.26 C27.78,21.7077153 27.3322847,21.26 26.78,21.26 L8.17,21.26 C7.61771525,21.26 7.17,21.7077153 7.17,22.26 C7.17,22.8122847 7.61771525,23.26 8.17,23.26 Z" id="Path"></path>
                <path d="M8.17,48.84 L20,48.84 C20.5522847,48.84 21,48.3922847 21,47.84 C21,47.2877153 20.5522847,46.84 20,46.84 L8.17,46.84 C7.61771525,46.84 7.17,47.2877153 7.17,47.84 C7.17,48.3922847 7.61771525,48.84 8.17,48.84 Z" id="Path"></path>
                <path d="M67.08,59.71 L64.56,57.19 C64.1618797,56.8914098 63.6047852,56.9310013 63.2528932,57.2828932 C62.9010013,57.6347852 62.8614098,58.1918797 63.16,58.59 L65.5,60.93 L62.41,64 L53.69,55.27 L56.78,52.18 L59.9,55.31 C60.2981203,55.6085902 60.8552148,55.5689987 61.2071068,55.2171068 C61.5589987,54.8652148 61.5985902,54.3081203 61.3,53.91 L58,50.62 C57.4918289,50.121608 56.7313455,49.9829782 56.08,50.27 L53.34,47.52 C56.8651446,42.3036467 57.1210475,35.5377279 54,30.07 L54.67,29.84 C55.2580776,29.6750609 55.6659435,29.1407567 55.67,28.53 C55.6593921,27.9215021 55.2541715,27.3906631 54.67,27.22 C52.03,26.37 51.23,25.57 50.38,22.94 C50.2130503,22.4069475 49.7371378,22.0301834 49.18,21.99 L49.18,6.11 C49.18,5.16007023 48.4099298,4.39 47.46,4.39 L45.43,4.39 L45.43,2.32 C45.4244996,1.36845494 44.651561,0.6 43.7,0.6 L1.82,0.6 C0.87007023,0.6 0.1,1.37007023 0.1,2.32 L0.1,59 C0.1,59.951561 0.868454938,60.7244996 1.82,60.73 L3.88,60.73 L3.88,62.79 C3.88550022,63.7360222 4.65396181,64.500016 5.6,64.5 L14.73,64.5 C15.2822847,64.5 15.73,64.0522847 15.73,63.5 C15.73,62.9477153 15.2822847,62.5 14.73,62.5 L5.86,62.5 L5.86,60.7 L43.7,60.7 C44.6399649,60.6947077 45.4037147,59.9398387 45.42,59 L45.42,53.7 C46.0380568,53.4717761 46.642399,53.2080024 47.23,52.91 L47.23,62.53 L19.34,62.53 C18.7877153,62.53 18.34,62.9777153 18.34,63.53 C18.34,64.0822847 18.7877153,64.53 19.34,64.53 L47.49,64.53 C48.4399298,64.53 49.21,63.7599298 49.21,62.81 L49.21,52.05 L51.75,54.59 C51.4626201,55.2430059 51.6055796,56.0054567 52.11,56.51 L61.19,65.59 C61.5115277,65.9173756 61.9511374,66.101793 62.41,66.101793 C62.8688626,66.101793 63.3084723,65.9173756 63.63,65.59 L67.08,62.15 C67.7512258,61.4751536 67.7512258,60.3848464 67.08,59.71 L67.08,59.71 Z M49.08,25.05 C49.7221446,26.6325564 50.9774436,27.8878554 52.56,28.53 C50.9888486,29.1771441 49.7426071,30.4269875 49.1,32 C48.4511461,30.4219027 47.1980973,29.1688539 45.62,28.52 C47.1987096,27.8772809 48.4527405,26.6268535 49.1,25.05 L49.08,25.05 Z M43.48,29.84 C46.12,30.69 46.92,31.49 47.77,34.13 C47.9530235,34.6982777 48.4829821,35.0825988 49.08,35.08 C49.3410743,35.0778977 49.5967377,35.0053446 49.82,34.87 C51.3539908,39.5042988 49.5311727,44.5874756 45.4017525,47.1908853 C41.2723323,49.794295 35.8999774,49.2473442 32.3799413,45.8651557 C28.8599052,42.4829672 28.0988885,37.1367343 30.5353468,32.9066605 C32.9718051,28.6765868 37.9781489,26.6522661 42.67,28 C42.5891862,28.1755312 42.548207,28.3667674 42.55,28.56 C42.5603092,29.1459371 42.9421612,29.6604325 43.5,29.84 L43.48,29.84 Z M43.48,58.74 L2.07,58.74 L2.07,2.58 L43.45,2.58 L43.45,11.58 C43.45,12.1322847 43.8977153,12.58 44.45,12.58 C45.0022847,12.58 45.45,12.1322847 45.45,11.58 L45.45,6.36 L47.26,6.36 L47.26,23.56 C46.6754141,23.2527875 46.0706977,22.9855096 45.45,22.76 L45.45,16.22 C45.45,15.6677153 45.0022847,15.22 44.45,15.22 C43.8977153,15.22 43.45,15.6677153 43.45,16.22 L43.45,22.22 C42.2233441,21.9383327 40.9685764,21.797423 39.71,21.8 C39.21,21.8 38.71,21.8 38.23,21.86 C38.0567616,21.5346528 37.7185937,21.3309835 37.35,21.33 L30.35,21.33 C29.7977153,21.33 29.35,21.7777153 29.35,22.33 C29.35,22.8822847 29.7977153,23.33 30.35,23.33 L32.83,23.33 C31.2874847,24.0488155 29.8642862,24.9998629 28.61,26.15 L8.17,26.15 C7.61771525,26.15 7.17,26.5977153 7.17,27.15 C7.17,27.7022847 7.61771525,28.15 8.17,28.15 L26.74,28.15 C25.6947506,29.4805561 24.8615699,30.9647647 24.27,32.55 L8.17,32.55 C7.61771525,32.55 7.17,32.9977153 7.17,33.55 C7.17,34.1022847 7.61771525,34.55 8.17,34.55 L23.68,34.55 C23.4597303,35.4759344 23.3225196,36.4196764 23.27,37.37 L8.17,37.37 C7.61771525,37.37 7.17,37.8177153 7.17,38.37 C7.17,38.9222847 7.61771525,39.37 8.17,39.37 L23.27,39.37 C23.3302317,40.323459 23.4707291,41.270144 23.69,42.2 L8.17,42.2 C7.61771525,42.2 7.17,42.6477153 7.17,43.2 C7.17,43.7522847 7.61771525,44.2 8.17,44.2 L24.29,44.2 C24.6584004,45.1853112 25.1205192,46.1329895 25.67,47.03 L23.41,47.03 C22.8577153,47.03 22.41,47.4777153 22.41,48.03 C22.41,48.5822847 22.8577153,49.03 23.41,49.03 L27.1,49.03 C27.4,49.39 27.7333333,49.7233333 28.1,50.03 C28.7534954,50.6800118 29.4591935,51.2753401 30.21,51.81 L8.21,51.81 C7.65771525,51.81 7.21,52.2577153 7.21,52.81 C7.21,53.3622847 7.65771525,53.81 8.21,53.81 L33.88,53.81 C35.7443791,54.5088708 37.7189387,54.8678816 39.71,54.87 C40.9688248,54.8669875 42.2233378,54.7227521 43.45,54.44 L43.48,58.74 Z M29.48,48.49 C24.4517357,43.3875368 23.8997175,35.3790716 28.1803342,29.6349534 C32.460951,23.8908353 40.292988,22.1303137 46.62,25.49 C46.161725,26.0258644 45.587114,26.449982 44.94,26.73 C39.3219094,24.1684186 32.6754308,26.0296527 29.2047254,31.1363977 C25.7340201,36.2431427 26.4499169,43.1080799 30.8995829,47.3888641 C35.3492488,51.6696483 42.2367365,52.1195185 47.2054369,48.4539138 C52.1741373,44.7883092 53.7769363,38.0748223 51,32.56 C51.2962622,31.9483154 51.7311154,31.414165 52.27,31 C55.8599961,37.3019404 54.2453585,45.2867772 48.4888726,49.6987377 C42.7323867,54.1106982 34.6023036,53.5945364 29.45,48.49 L29.48,48.49 Z M50.61,50.62 C50.88,50.39 51.14,50.14 51.4,49.89 C51.66,49.64 51.9,49.37 52.13,49.1 L54.62,51.59 L53.1,53.11 L50.61,50.62 Z" id="Shape"></path>
                <path d="M34,33.12 C34,33.6722847 34.4477153,34.12 35,34.12 L44.37,34.12 C44.9222847,34.12 45.37,33.6722847 45.37,33.12 C45.37,32.5677153 44.9222847,32.12 44.37,32.12 L35,32.12 C34.4477153,32.12 34,32.5677153 34,33.12 Z" id="Path"></path>
                <path d="M32.77,36.8 C32.77,37.3522847 33.2177153,37.8 33.77,37.8 L45.65,37.8 C46.2022847,37.8 46.65,37.3522847 46.65,36.8 C46.65,36.2477153 46.2022847,35.8 45.65,35.8 L33.76,35.8 C33.2077153,35.8 32.76,36.2477153 32.76,36.8 L32.77,36.8 Z" id="Path"></path>
                <path d="M45.65,39.49 L33.76,39.49 C33.2077153,39.49 32.76,39.9377153 32.76,40.49 C32.76,41.0422847 33.2077153,41.49 33.76,41.49 L45.65,41.49 C46.2022847,41.49 46.65,41.0422847 46.65,40.49 C46.65,39.9377153 46.2022847,39.49 45.65,39.49 Z" id="Path"></path>
                <path d="M42.71,43.17 L36.71,43.17 C36.1577153,43.17 35.71,43.6177153 35.71,44.17 C35.71,44.7222847 36.1577153,45.17 36.71,45.17 L42.71,45.17 C43.2622847,45.17 43.71,44.7222847 43.71,44.17 C43.71,43.6177153 43.2622847,43.17 42.71,43.17 Z" id="Path"></path>
                <path d="M53.87,22.84 L54.79,22.84 L54.79,23.76 C54.79,24.3122847 55.2377153,24.76 55.79,24.76 C56.3422847,24.76 56.79,24.3122847 56.79,23.76 L56.79,22.84 L57.71,22.84 C58.2622847,22.84 58.71,22.3922847 58.71,21.84 C58.71,21.2877153 58.2622847,20.84 57.71,20.84 L56.79,20.84 L56.79,20 C56.79,19.4477153 56.3422847,19 55.79,19 C55.2377153,19 54.79,19.4477153 54.79,20 L54.79,20.91 L53.87,20.91 C53.3177153,20.91 52.87,21.3577153 52.87,21.91 C52.87,22.4622847 53.3177153,22.91 53.87,22.91 L53.87,22.84 Z" id="Path"></path>
            </g>
        </g>
    </g>
</svg>
