<svg xmlns="http://www.w3.org/2000/svg" width="32" height="40" viewBox="0 0 32 40"><g><g><g/><g><path fill="#006df9" d="M.667 39.996A.667.667 0 0 1 0 39.33c0-2.026 1.383-3.333 3.525-3.333h1.142v-5.334c0-.368.298-.666.666-.666h.651L6 23.33c.002-.191.023-.381.061-.568C2.084 17.33 2.393 9.977 6.85 5.527a.686.686 0 0 1 .942 0l6.518 6.519 7.067-2.677a2.09 2.09 0 0 1 .479-2.12 2.217 2.217 0 0 1 2.942.001 2.133 2.133 0 0 1 0 2.942 2.083 2.083 0 0 1-1.471.585 2.187 2.187 0 0 1-.708-.124l-3.152 6.551 6.988 6.988c.26.26.26.682 0 .943a12.4 12.4 0 0 1-8.836 3.587 13.822 13.822 0 0 1-3.63-.5l-.004 1.775h.647c.368 0 .667.298.667.666v5.333h1.896c1.726 0 3.472.968 3.472 2.82v.514a.667.667 0 0 1-.666.666zM22.795 8.19a.813.813 0 0 0 0 1.058.844.844 0 0 0 1.057 0 .81.81 0 0 0 0-1.056.813.813 0 0 0-1.056 0zM15.34 13.08l3.126 3.126L21 10.935zM7.333 6.956c-3.394 3.848-3.636 9.774-.632 14.4a3.369 3.369 0 0 1 2.632-1.36h1.334A3.42 3.42 0 0 1 14 23.33l-.009 3.51a11.504 11.504 0 0 0 11.033-2.19zm-.016 23.04h5.333l.017-6.666a2.079 2.079 0 0 0-2-2H9.333a2.08 2.08 0 0 0-2 2zm-1.317 6h7.964V31.33H6zM3.525 37.33c-1.125 0-1.866.477-2.106 1.333h17.905c-.106-.915-1.155-1.333-2.133-1.333z"/></g><g><path fill="#006df9" d="M23.312 3.33a.667.667 0 1 0 .01 1.333 4.68 4.68 0 0 1 2.975 1.163 3.846 3.846 0 0 1 1.022 2.837.666.666 0 1 0 1.334 0 5.12 5.12 0 0 0-1.422-3.792 5.955 5.955 0 0 0-3.919-1.541z"/></g><g><path fill="#006df9" d="M22.668 1.334c.043 0 3.847-.094 6.18 2.288 1.322 1.35 1.927 3.259 1.8 5.677a.667.667 0 0 0 .63.701h.037a.667.667 0 0 0 .666-.631c.147-2.806-.585-5.053-2.179-6.68-2.737-2.795-7-2.688-7.176-2.688a.667.667 0 1 0 .042 1.333z"/></g><g><path fill="#006df9" d="M7.988 18.665a.666.666 0 0 0 .595-.965 7.994 7.994 0 0 1-.01-6.733.667.667 0 1 0-1.18-.62 9.21 9.21 0 0 0 0 7.952.667.667 0 0 0 .595.366z"/></g><g><path fill="#006df9" d="M9.997 22.67a.667.667 0 0 0-.667.667v1.333a.667.667 0 0 0 1.333 0v-1.333a.667.667 0 0 0-.666-.667z"/></g></g></g></svg>