<svg xmlns="http://www.w3.org/2000/svg" width="40" height="40" viewBox="0 0 40 40"><g><g><g/><g><g><g><path fill="#006df9" d="M26.711 25.657c-.947 0-1.718-.667-1.718-1.487 0-.82.77-1.488 1.718-1.488s1.719.667 1.719 1.488a.781.781 0 0 0 1.562 0c0-1.432-1.066-2.636-2.5-2.962V20.8a.781.781 0 0 0-1.562 0v.407c-1.433.326-2.5 1.53-2.5 2.962 0 1.681 1.472 3.05 3.281 3.05.948 0 1.719.667 1.719 1.487 0 .82-.771 1.488-1.719 1.488-.947 0-1.718-.667-1.718-1.488a.781.781 0 0 0-1.563 0c0 1.432 1.067 2.636 2.5 2.962v.338a.781.781 0 0 0 1.562 0v-.338c1.434-.326 2.5-1.53 2.5-2.962 0-1.681-1.471-3.05-3.28-3.05z"/></g></g></g><g><g><g><path fill="#006df9" d="M35.268 21.007a10.18 10.18 0 0 0-4.158-3.68.781.781 0 1 0-.677 1.409 8.645 8.645 0 0 1 4.875 7.75 8.61 8.61 0 0 1-1.001 4.03.781.781 0 1 0 1.38.734 10.177 10.177 0 0 0 1.184-4.764c0-1.95-.554-3.845-1.603-5.479z"/></g></g></g><g><g><g><path fill="#006df9" d="M27.944 16.33h-.053a.781.781 0 0 0 0 1.562h.049a.781.781 0 0 0 .004-1.562z"/></g></g></g><g><g><g><path fill="#006df9" d="M22.998 34.239a8.645 8.645 0 0 1-4.876-7.75 8.61 8.61 0 0 1 1.002-4.03.781.781 0 1 0-1.38-.735 10.177 10.177 0 0 0-1.184 4.765c0 1.95.554 3.844 1.603 5.478a10.18 10.18 0 0 0 4.158 3.68.778.778 0 0 0 1.043-.365.782.782 0 0 0-.366-1.043z"/></g></g></g><g><g><g><path fill="#006df9" d="M25.55 35.08h-.045a.78.78 0 1 0-.007 1.563h.052a.781.781 0 0 0 0-1.563z"/></g></g></g><g><g><g><path fill="#006df9" d="M40 26.48c0 7.323-5.958 13.281-13.281 13.281a13.246 13.246 0 0 1-9.7-4.219H7.813A3.598 3.598 0 0 1 4.22 31.95c0-1.138.532-2.154 1.36-2.813a3.588 3.588 0 0 1 0-5.625 3.588 3.588 0 0 1 0-5.625 3.588 3.588 0 0 1-1.36-2.812 3.598 3.598 0 0 1 3.593-3.594H9.85a3.572 3.572 0 0 1-.631-2.031c0-.754.233-1.453.631-2.032H3.594A3.598 3.598 0 0 1 0 3.824 3.598 3.598 0 0 1 3.594.23h19.14a3.598 3.598 0 0 1 3.594 3.594c0 .753-.233 1.453-.631 2.031h6.256a3.598 3.598 0 0 1 3.594 3.594 3.598 3.598 0 0 1-3.594 3.594H29.92c.136.198.252.411.347.638C35.873 15.237 40 20.385 40 26.48zM12.812 7.417c-1.12 0-2.03.912-2.03 2.032s.91 2.031 2.03 2.031h19.141c1.12 0 2.031-.911 2.031-2.031s-.91-2.032-2.03-2.032zm9.922-1.562c1.12 0 2.032-.911 2.032-2.031s-.912-2.031-2.032-2.031H3.594c-1.12 0-2.032.91-2.032 2.03 0 1.12.912 2.032 2.032 2.032zM7.812 13.043c-1.12 0-2.03.91-2.03 2.03 0 1.12.91 2.032 2.03 2.032h9.508a13.24 13.24 0 0 1 10.52-3.858 2.03 2.03 0 0 0-.887-.204zm0 5.625c-1.12 0-2.03.91-2.03 2.03 0 1.12.91 2.032 2.03 2.032h6.165a13.24 13.24 0 0 1 2.008-4.062zm0 5.625c-1.12 0-2.03.91-2.03 2.03 0 1.12.91 2.032 2.03 2.032h5.758a13.344 13.344 0 0 1 .049-4.063zm7.952 9.687a13.226 13.226 0 0 1-1.875-4.063H7.813c-1.12 0-2.03.912-2.03 2.032s.91 2.03 2.03 2.03zm22.674-7.5c0-6.462-5.258-11.719-11.72-11.719C20.259 14.761 15 20.018 15 26.48s5.257 11.719 11.719 11.719 11.719-5.257 11.719-11.719z"/></g></g></g></g></g></svg>
