<?xml version="1.0" encoding="UTF-8"?>
<svg width="80px" height="78px" viewBox="0 0 80 78" version="1.1" xmlns="http://www.w3.org/2000/svg" xmlns:xlink="http://www.w3.org/1999/xlink">
    <title>noun-expertise-410873</title>
    <g id="Page-1" stroke="none" stroke-width="1" fill="none" fill-rule="evenodd">
        <g id="noun-expertise-410873" fill="#006df9" fill-rule="nonzero">
            <path d="M78.6240234,23.5185547 L40.7714844,0.8125 C40.296875,0.5273438 39.703125,0.5273438 39.2285156,0.8125 L1.3759766,23.5185547 C0.9238282,23.7890625 0.647461,24.2773438 0.647461,24.8046875 C0.647461,25.3320312 0.9238282,25.8203125 1.3759766,26.0908203 L13.1298218,33.1413574 L8.6962891,48.5859375 C8.5048829,49.2519531 8.7939453,49.9609375 9.3955079,50.3037109 L39.2578126,67.3037109 C39.4882812,67.4345703 39.7441406,67.5 40,67.5 C40.2558594,67.5 40.5117188,67.4345703 40.7421875,67.3037109 L57.1669922,57.9533691 L57.1669922,65.6992187 C54.6168213,66.366333 52.7265625,68.6831054 52.7265625,71.4394531 C52.7265625,74.7148437 55.3916016,77.3798828 58.6669922,77.3798828 C61.9423828,77.3798828 64.6064453,74.7148437 64.6064453,71.4394531 C64.6064453,68.6831054 62.717041,66.366333 60.1669922,65.6992187 L60.1669922,56.2456054 L70.6044922,50.3037109 C71.2060547,49.9609375 71.4951172,49.2519531 71.303711,48.5859375 L66.8701783,33.1413574 L78.6240235,26.0908203 C79.0761719,25.8203125 79.3525391,25.3320312 79.3525391,24.8046875 C79.3525391,24.2773438 79.0761719,23.7890625 78.6240234,23.5185547 Z M61.6064453,71.4394531 C61.6064453,73.0605469 60.2880859,74.3798828 58.6669922,74.3798828 C57.0458985,74.3798828 55.7265625,73.0605469 55.7265625,71.4394531 C55.7265625,69.8183593 57.0458984,68.5 58.6669922,68.5 C60.288086,68.5 61.6064453,69.8183594 61.6064453,71.4394531 Z M40,64.2744141 L11.9052734,48.2802734 L15.7922363,34.7385254 L39.2285156,48.796875 C39.4658203,48.9394531 39.7333984,49.0107422 40,49.0107422 C40.2666016,49.0107422 40.5341797,48.9394531 40.7714844,48.796875 L57.1669922,38.9619141 L57.1669922,54.5013428 L40,64.2744141 Z M68.0947266,48.2802734 L60.1669922,52.793457 L60.1669922,37.1623535 L64.2077637,34.7385254 L68.0947266,48.2802734 Z M66.0135498,30.1572266 L63.3511963,31.7542725 L58.4031983,34.7224121 L40.8046875,23.5390625 C40.1044922,23.09375 39.1777344,23.3017578 38.734375,24 C38.2900391,24.6992188 38.4960938,25.6259766 39.1953125,26.0703125 L55.5259399,36.4482422 L40,45.7617188 L16.6488037,31.7542725 L13.9864502,30.1572266 L5.0634766,24.8046875 L40,3.8476562 L74.9365234,24.8046874 L66.0135498,30.1572266 Z" id="Shape"></path>
        </g>
    </g>
</svg>
