<?xml version="1.0" encoding="UTF-8"?>
<svg width="44px" height="56px" viewBox="0 0 44 56" version="1.1" xmlns="http://www.w3.org/2000/svg" xmlns:xlink="http://www.w3.org/1999/xlink">
    <title>noun-call-center-2851123</title>
    <g id="Page-1" stroke="none" stroke-width="1" fill="#006df9" fill-rule="evenodd">
        <g id="noun-call-center-2851123" fill="#006df9" fill-rule="nonzero">
            <path d="M41.0014,18.0001 C40.9354,15.6219 40.325,9.7151 36.1143,5.2646 C32.8105,1.771 28.0615,0 22,0 C15.9385,0 11.1895,1.771 7.8857,5.2646 C3.6749,9.715 3.0646,15.6219 2.9986,18.0001 C1.345,18.0009 0,19.3462 0,21 L0,29 C0,30.6543 1.3457,32 3,32 L7.577,32 C8.4825,34.8826 9.7621,37.2349 11.4043,39.0464 C8.6234,45.8239 5.8021,50.1983 3.627,51.0722 C3.2881,51.2084 3.0508,51.5185 3.0069,51.8813 C2.9639,52.2436 3.1212,52.6015 3.419,52.8139 C3.6368,52.9692 7.3419,55.5649 11.7872,55.5649 C13.3441,55.5649 14.9915,55.239 16.6113,54.3859 C18.283,55.456 20.1392,56.0024 22.0001,56.0024 C23.8611,56.0024 25.7174,55.4558 27.3891,54.3858 C29.0093,55.239 30.6561,55.5649 32.213,55.5649 C36.6573,55.5649 40.3634,52.9692 40.5812,52.8139 C40.8791,52.6015 41.0363,52.2436 40.9933,51.8813 C40.9494,51.5185 40.712,51.2084 40.3732,51.0722 C38.198,50.1982 35.3769,45.824 32.5959,39.0466 C33.1629,38.4212 33.7018,37.7539 34.1818,36.9999 L37,36.9999 C39.2061,36.9999 41,35.2055 41,32.9999 L41,31.9999 C42.6543,31.9999 44,30.6542 44,28.9999 L44,20.9999 C44,19.3462 42.655,18.0009 41.0014,18.0001 Z M9.3379,6.6387 C12.25,3.5605 16.5098,2 22,2 C27.4824,2 31.7383,3.5566 34.6494,6.626 C38.3411,10.5181 38.9169,15.865 38.9946,18 L37.6987,18 C36.2714,10.8179 29.6871,5.5 22,5.5 C14.3105,5.5 7.7247,10.821 6.3009,18 L5.003,18 C5.0765,15.8713 5.6437,10.5439 9.3379,6.6387 Z M26.4023,16.1509 C24.8017,13.6504 23.9277,11.6265 23.9189,11.6065 C23.7021,11.0992 23.1142,10.8624 22.6064,11.0811 C22.0986,11.2984 21.8632,11.8858 22.08,12.3931 C22.1152,12.4748 22.8999,14.2822 24.3555,16.6465 C22.5738,18.9984 17.4857,24.2097 8.0775,23.4115 C8.0236,22.4926 8,21.6378 8,20.8999 C8,20.2817 8.04,19.6909 8.1201,19.1362 C9.0332,12.5024 15,7.5 22,7.5 C29,7.5 34.9668,12.5024 35.8809,19.1436 C35.96,19.6909 36,20.2817 36,20.8999 C36,21.2115 35.9966,21.5425 35.9886,21.8901 C35.9799,22.2646 35.9647,22.6611 35.9439,23.0709 C35.9112,23.7156 35.8588,24.4022 35.7866,25.1132 C31.6502,23.335 28.4324,19.3365 26.4023,16.1509 Z M3,30.0001 C2.4482,30.0001 2,29.5513 2,29 L2,21 C2,20.4487 2.4482,20 3,20 L6.0254,20 C6.0088,20.2939 6,20.5947 6,20.8999 C6,21.2095 6.0039,21.5397 6.0115,21.8834 C6.0139,21.9922 6.0189,22.1086 6.0222,22.2204 C6.0293,22.462 6.0372,22.7049 6.0489,22.9599 C6.0556,23.106 6.0653,23.2572 6.0737,23.4073 C6.0869,23.6426 6.1012,23.8786 6.1189,24.1228 C6.131,24.2897 6.1457,24.459 6.1602,24.6298 C6.1805,24.8688 6.2028,25.1092 6.228,25.3548 C6.2466,25.5366 6.2669,25.7188 6.2885,25.9039 C6.317,26.1485 6.349,26.395 6.383,26.6444 C6.4089,26.8353 6.4352,27.0253 6.4646,27.2185 C6.5034,27.4734 6.5475,27.7302 6.5926,27.9883 C6.6258,28.179 6.6575,28.3681 6.6943,28.5602 C6.7481,28.8407 6.81,29.1226 6.872,29.405 C6.9096,29.5763 6.9432,29.7463 6.984,29.918 C6.9905,29.9455 6.9954,29.9726 7.0019,30.0001 L3,30.0001 L3,30.0001 Z M5.9248,51.9717 C8.6268,49.7489 11.1216,44.8845 12.9612,40.5142 C13.8856,41.2555 14.8987,41.8613 16,42.3299 L16,52.4329 C12.2333,54.6148 8.0255,53.0511 5.9248,51.9717 Z M26,52.9048 C23.4902,54.3599 20.5098,54.3599 18,52.9048 L18,43.0307 C18.35,43.1188 18.7129,43.1911 19.0817,43.2542 C19.213,43.2769 19.3477,43.2934 19.4809,43.313 C19.7515,43.3523 20.0237,43.3858 20.3002,43.4121 C20.455,43.4268 20.6095,43.4415 20.7665,43.4522 C21.1369,43.4775 21.509,43.4931 21.8826,43.4955 C21.9224,43.4957 21.9601,43.5 22,43.5 C22.0399,43.5 22.0776,43.4957 22.1173,43.4955 C22.491,43.4931 22.8631,43.4776 23.2334,43.4522 C23.3905,43.4415 23.545,43.4268 23.7,43.412 C23.9759,43.3858 24.2477,43.3523 24.5177,43.3131 C24.6516,43.2935 24.787,43.2769 24.9189,43.2541 C25.2875,43.1909 25.6502,43.1187 25.9999,43.0307 L25.9999,52.9048 L26,52.9048 Z M38.0752,51.9717 C35.9745,53.0526 31.7659,54.615 28,52.4329 L28,42.33 C29.1013,41.8612 30.1144,41.2555 31.0388,40.5143 C32.8784,44.8845 35.3732,49.7489 38.0752,51.9717 Z M26.6572,40.7407 C25.2783,41.2446 23.7109,41.5 22,41.5 C21.5143,41.5 21.0437,41.4739 20.5822,41.4329 C19.4178,41.3294 18.33,41.1015 17.3418,40.7403 C13.4619,39.3287 10.7432,35.96 9.2607,30.7222 C8.7445,28.9383 8.4313,27.1242 8.2457,25.4436 C8.8507,25.4875 9.4448,25.5162 10.0176,25.5162 C18.431,25.5162 23.357,21.0163 25.5044,18.412 C27.7954,21.7316 31.1834,25.4974 35.5173,27.1647 C35.472,27.4491 35.4293,27.7323 35.3756,28.0201 C35.2086,28.9146 34.9996,29.8223 34.7392,30.7222 C34.739,30.7229 34.7393,30.7235 34.7391,30.7242 C34.7388,30.7253 34.7386,30.7265 34.7382,30.7276 C34.2828,32.3361 33.6963,33.7465 33.0092,35.0001 L24.8157,35.0001 C24.4016,33.8386 23.3019,33.0001 22,33.0001 C20.3457,33.0001 19,34.3458 19,36.0001 C19,37.6544 20.3457,39.0001 22,39.0001 C23.3019,39.0001 24.4016,38.1616 24.8157,37.0001 L31.7162,37.0001 C30.3435,38.7551 28.6578,40.0128 26.6572,40.7407 Z M23,36 C23,36.5513 22.5518,37 22,37 C21.4482,37 21,36.5513 21,36 C21,35.4487 21.4482,35 22,35 C22.5518,35 23,35.4487 23,36 Z M39,33 C39,34.103 38.1025,35 37,35 L35.2679,35 C35.7066,34.0762 36.0876,33.0701 36.4237,32 L39,32 L39,33 Z M42,29 C42,29.5513 41.5518,30 41,30 L36.998,30 C37.0041,29.9747 37.0085,29.9497 37.0145,29.9244 C37.0565,29.7475 37.0913,29.5721 37.13,29.3955 C37.1911,29.1166 37.2523,28.8383 37.3055,28.5613 C37.342,28.3711 37.3733,28.1839 37.4063,27.995 C37.452,27.7333 37.4968,27.4731 37.5361,27.2148 C37.565,27.0247 37.5907,26.8381 37.6163,26.6503 C37.6507,26.398 37.6831,26.1486 37.7119,25.9011 C37.7332,25.7181 37.7532,25.5378 37.7717,25.3578 C37.7972,25.11 37.8197,24.8675 37.8401,24.6265 C37.8544,24.4575 37.8689,24.2898 37.8809,24.1245 C37.8988,23.878 37.9133,23.6399 37.9266,23.4025 C37.9349,23.2549 37.9443,23.1061 37.951,22.9624 C37.9629,22.7046 37.9709,22.4588 37.978,22.2147 C37.9812,22.1048 37.9861,21.9903 37.9885,21.8834 C37.9961,21.5398 38,21.2095 38,20.8999 C38,20.5947 37.9912,20.2939 37.9746,20 L41,20 C41.5518,20 42,20.4487 42,21 L42,29 Z" id="Shape"></path>
        </g>
    </g>
</svg>
