<svg xmlns="http://www.w3.org/2000/svg" width="37" height="38" viewBox="0 0 37 38"><g><g><g/><g><path fill="#006df9" d="M17.505 17.933a.625.625 0 0 0-.884 0 2.375 2.375 0 0 1-3.492 0 .625.625 0 0 0-.883.885 4.01 4.01 0 0 0 2.704 1.161 3.556 3.556 0 0 0 2.555-1.161.626.626 0 0 0 0-.885z"/></g><g><path fill="#006df9" d="M23.08 19.98a3.56 3.56 0 0 0 2.555-1.16.625.625 0 0 0-.884-.885 2.375 2.375 0 0 1-3.492 0 .625.625 0 0 0-.883.885 4.01 4.01 0 0 0 2.704 1.16z"/></g><g><path fill="#006df9" d="M20.996 23.555c-1.982 1.982-3.902.21-4.117 0a.625.625 0 0 0-.883.885 4.487 4.487 0 0 0 3.025 1.3 3.982 3.982 0 0 0 2.859-1.3.625.625 0 0 0-.884-.884z"/></g><g><path fill="#006df9" d="M9.96 10.831a.625.625 0 0 0 .808-.36 8.874 8.874 0 0 1 6.922-5.775 13.864 13.864 0 0 1 4.875-.085.625.625 0 0 0 .243-1.226c-.099-.02-9.928-1.88-13.206 6.638a.625.625 0 0 0 .358.808z"/></g><g><path fill="#006df9" d="M22.622 5.874a15.345 15.345 0 0 0-9.807 5.871.625.625 0 1 0 1 .75 14.334 14.334 0 0 1 8.945-5.378.625.625 0 0 0-.139-1.243z"/></g><g><path fill="#006df9" d="M27.873 13.812a.625.625 0 0 0 .884-.884c-.93-.933-2.005-4.183-2.34-5.355a.625.625 0 1 0-1.203.344c.133.464 1.333 4.569 2.659 5.895z"/></g><g><path fill="#006df9" d="M2.739 37.375c-3.32-7.613-1.836-9.88.039-12.75 1.444-2.207 3.08-4.71 3.034-10.62-.032-4.136 1.156-7.446 3.53-9.839C13.188.294 18.705.25 18.938.25c4.269 0 7.59 1.239 9.87 3.682 3.516 3.766 3.282 9.015 3.255 9.462.006 3.78 1.336 6.174 2.622 8.49 2.076 3.741 4.037 7.27.451 15.491a.624.624 0 0 1-1.198-.286 2.596 2.596 0 0 0-.86-1.947 2.634 2.634 0 0 0-.593-.368c.134.352.203.725.203 1.101v1.25c0 .345-.28.625-.625.625H5.812a.625.625 0 0 1-.625-.625v-1.25c.002-.293.046-.584.13-.864-.034.02-.073.039-.105.062a3.196 3.196 0 0 0-1.275 2.11.629.629 0 0 1-1.198.192zm28.698-1.5a1.863 1.863 0 0 0-.73-1.483c-.03 0-.06-.006-.092-.006h-.03a7.978 7.978 0 0 0-.613.017l-.081.006c-.194.014-.394.036-.6.062l-.125.016c-.236.035-.479.074-.73.125-.252.05-.495.09-.731.118-.063.008-.12.01-.182.015a7.384 7.384 0 0 1-.507.039c-.062.003-.125 0-.188 0-.155 0-.31 0-.458-.01-.057-.004-.11-.013-.166-.018a4.91 4.91 0 0 1-.438-.059c-.046-.009-.09-.022-.136-.032a4.155 4.155 0 0 1-.422-.113c-.034-.01-.067-.025-.101-.037a3.645 3.645 0 0 1-.411-.175c-.023-.011-.046-.025-.068-.037a3.606 3.606 0 0 1-.434-.272c-.083-.063-.168-.12-.245-.188-.02-.02-.059-.062-.107-.115-.01-.01-.023-.017-.034-.028a3.612 3.612 0 0 1-.61-.829c-.027-.045-.054-.09-.078-.135l-.045-.096-.012-.025a4.323 4.323 0 0 1-.163-.411 5.133 5.133 0 0 1-.29-1.45c-.003-.039-.01-.077-.01-.115-.002-.053-.006-.104-.006-.155a7.718 7.718 0 0 1 .105-1.659.618.618 0 0 1 .054-.12.58.58 0 0 1 .1-.17.535.535 0 0 1 .124-.116 9.882 9.882 0 0 0 3.667-4.396 14.361 14.361 0 0 0 1.03-5.292 11.354 11.354 0 0 1-5.404-7.789c-2.977 3.808-10.145 6.558-12.052 7.24-.005.104-.008.209-.012.313.024.803.1 1.605.226 2.398l.005.026c.068.388.146.758.234 1.111l.022.087c.086.342.18.669.282.977l.013.042a11.303 11.303 0 0 0 1.54 3.062 9.18 9.18 0 0 0 2.372 2.22.61.61 0 0 1 .145.135l.025.034c.049.068.084.144.102.226.001.004.006.008.006.012.095.547.137 1.102.125 1.656a6.933 6.933 0 0 1-.125 1.278 4.623 4.623 0 0 1-.322 1.027 3.098 3.098 0 0 1-.762 1.092c-.925.881-2.255 1.128-4.04.732a9.031 9.031 0 0 0-2.867-.228 1.867 1.867 0 0 0-.75 1.493v.625h25zm-28.165-.488c.3-.514.702-.96 1.183-1.313a4.855 4.855 0 0 1 1.644-.761 6.598 6.598 0 0 1-1.528-5.666.625.625 0 0 1 1.232.206 5.258 5.258 0 0 0 1.634 5.022c.077.06.138.139.178.228a9.928 9.928 0 0 1 1.754.112h.014c.304.045.615.104.937.175.091.02.166.028.25.044a5.956 5.956 0 0 1-1.633-3.809.625.625 0 1 1 1.25 0c0 1.925 1.781 3.492 2.173 3.813.33-.082.633-.248.879-.483.525-.621.81-1.41.804-2.223.003-.062.009-.125.009-.187v-.057a7.593 7.593 0 0 0-.07-1.156 9.174 9.174 0 0 1-2.595-2.562c-.024-.033-.05-.063-.074-.096-.046-.068-.085-.142-.13-.21a9.268 9.268 0 0 1-.286-.468c-.05-.09-.103-.178-.153-.27a12.749 12.749 0 0 1-.316-.625c-.035-.073-.071-.144-.105-.218-.1-.221-.195-.455-.288-.695-.03-.078-.062-.153-.092-.232-.08-.218-.154-.45-.227-.684-.032-.106-.067-.21-.098-.316-.059-.206-.11-.422-.163-.638-.035-.145-.073-.29-.104-.437a17.487 17.487 0 0 1-.113-.602 16.594 16.594 0 0 1-.09-.553 20.006 20.006 0 0 1-.174-1.821c-.006-.095-.016-.187-.02-.282.002-.052.006-.097.006-.148-.008-.241-.023-.475-.023-.725a.626.626 0 0 1 .426-.595l.087-.03c.122-.042.255-.09.38-.135a47.204 47.204 0 0 0 6.255-2.809c2.431-1.348 4.648-2.968 5.665-4.687l.051-.091c.116-.2.217-.41.302-.625a.625.625 0 0 1 1.21.23c.064 2.244.83 4.41 2.19 6.196l.03.044c.167.211.35.42.542.625.022.024.04.049.063.073.184.187.387.375.597.562.038.034.07.07.11.103.199.171.418.333.64.494.06.044.113.091.175.134.212.147.446.284.678.42.094.054.177.114.273.167.201.11.326.32.326.549 0 7.34-3.9 10.261-5.038 10.96a6.696 6.696 0 0 0-.051 1.1c.001.027.004.055.004.084.014.308.056.614.125.914l.025.09c.034.135.076.268.125.398.01.03.023.053.035.08.042.094.089.185.14.275.127.201.27.392.428.57.25.235.549.41.875.515.52-.445 2.082-1.933 2.082-3.736a.625.625 0 1 1 1.25 0 6.02 6.02 0 0 1-1.704 3.891c.104-.008.208-.015.316-.029.02-.002.04-.006.063-.006.187-.024.38-.056.58-.095.289-.059.569-.104.843-.142.095-.013.189-.022.283-.033a10.623 10.623 0 0 1 .822-.066l.105-.005a.608.608 0 0 1 .192-.265 5.228 5.228 0 0 0 1.633-5.022.624.624 0 1 1 1.233-.206 6.61 6.61 0 0 1-1.48 5.614 4.356 4.356 0 0 1 2.085.948c.31.27.572.59.774.95 2.373-6.431.757-9.34-1.091-12.668-1.303-2.346-2.779-5.003-2.779-9.116v-.042c.006-.05.301-5.108-2.927-8.556C25.851 2.603 22.84 1.5 18.937 1.5c-.05 0-5.247.052-8.714 3.562C8.097 7.207 7.034 10.215 7.063 14c.048 6.286-1.775 9.072-3.24 11.312-1.605 2.454-2.798 4.28-.551 10.075z"/></g></g></g></svg>