<?xml version="1.0" encoding="UTF-8"?>
<svg width="90.509px" height="61.066px" viewBox="0 0 90.509 61.066" version="1.1" xmlns="http://www.w3.org/2000/svg" xmlns:xlink="http://www.w3.org/1999/xlink">
    <title>Group</title>
    <g id="Page-1" stroke="none" stroke-width="1" fill="none" fill-rule="evenodd">
        <g id="noun-hide-302876" fill="#000000" fill-rule="nonzero">
            <g id="Group">
                <path d="M13.704,2.565 L23.229,12.089 C15.396,15.937 7.633,21.879 0,29.911 L0.064,29.973 L0,30.035 C14.368,45.153 29.199,52.922 44.081,53.121 C44.279,53.124 44.474,53.125 44.671,53.125 C50.139,53.125 55.652,52.084 61.192,50.053 L72.206,61.066 L74.772,58.5 L16.271,0 L13.704,2.565 Z M44.669,49.495 C44.49,49.495 44.309,49.494 44.13,49.491 C31.071,49.315 17.93,42.75 5.028,29.975 C11.951,23.122 18.944,18.063 25.956,14.816 L32.812,21.672 C31.18,24.026 30.207,26.865 30.207,29.942 C30.207,38.004 36.766,44.562 44.827,44.562 C47.903,44.562 50.743,43.587 53.097,41.957 L58.333,47.193 C53.738,48.71 49.179,49.495 44.669,49.495 Z M50.488,39.349 C48.834,40.351 46.898,40.931 44.826,40.931 C38.766,40.931 33.836,36.001 33.836,29.942 C33.836,27.87 34.416,25.934 35.419,24.28 L50.488,39.349 Z" id="Shape"></path>
                <path d="M58.378,35.401 C59.062,33.712 59.446,31.873 59.446,29.942 C59.446,21.88 52.887,15.322 44.826,15.322 C42.896,15.322 41.055,15.707 39.367,16.389 L42.248,19.27 C43.077,19.069 43.937,18.952 44.827,18.952 C50.887,18.952 55.817,23.882 55.817,29.942 C55.817,30.832 55.699,31.692 55.499,32.52 L58.378,35.401 Z" id="Path"></path>
                <path d="M90.508,29.878 C74.964,14.376 59.364,6.649 44.081,6.825 C39.957,6.88 35.837,7.539 31.73,8.752 L34.687,11.709 C37.836,10.929 40.986,10.497 44.13,10.454 C44.309,10.453 44.488,10.451 44.669,10.451 C57.929,10.451 71.612,17.017 85.386,29.973 C79.112,35.872 72.857,40.441 66.651,43.672 L69.33,46.352 C76.379,42.527 83.452,37.107 90.509,30.069 L90.413,29.973 L90.508,29.878 Z" id="Path"></path>
            </g>
        </g>
    </g>
</svg>