<?xml version="1.0" encoding="UTF-8"?>
<svg width="1182px" height="145px" viewBox="0 0 1182 145" version="1.1" xmlns="http://www.w3.org/2000/svg" xmlns:xlink="http://www.w3.org/1999/xlink">
    <title>Path</title>
    <g id="giveway" stroke="none" stroke-width="1" fill="none" fill-rule="evenodd">
        <path d="M1181.48193,18.5749051 C1175.26361,12.6070167 1161.58329,5.74394511 1084.47605,6.93752278 C1043.4351,7.53431161 1004.88148,6.63912836 968.815186,3.9535786 C937.723556,1.86481768 905.388261,5.14715627 876.783962,1.26802884 C866.83464,-0.223943247 856.885319,-0.223943247 846.935997,0.372845589 C812.113372,2.16321209 807.138711,2.46160651 785.996403,3.05839535 C711.376491,4.84876185 727.544138,-0.223943247 652.924227,3.35678977 C623.076262,4.84876185 590.740967,5.74394511 563.380333,5.14715627 C528.557707,4.25197302 497.466078,4.84876185 463.887117,7.2359172 C448.963135,8.42949487 426.577162,10.8166502 409.165849,6.63912836 C396.729197,3.35678977 353.200915,6.34073394 340.764263,6.34073394 C309.672633,6.63912836 277.337338,3.9535786 246.245708,5.74394511 C238.783717,6.04233952 228.834396,6.04233952 227.59073,7.83270603 C221.372405,14.0989888 191.52444,15.8893553 180.331453,15.2925665 C146.752493,13.5022 108.198872,12.0102279 88.3002288,18.2765107 C83.325568,20.0668772 73.3762464,20.3652716 64.6705901,20.9620604 C22.3859735,23.3492158 0,41.2528808 0,51.6966854 C0,58.559757 32.335295,61.8420956 23.6296387,68.7051672 C14.9239823,76.4634221 33.5789602,77.0602109 57.2085989,76.7618165 C70.8889161,76.7618165 97.0058851,78.2537886 93.2748895,80.3425495 C78.3509072,87.80241 47.2592774,91.0847486 72.1325812,95.5606648 C88.3002288,98.2462146 67.1579205,101.230159 93.2748895,107.198047 C105.711541,110.181991 59.6959293,115.553091 53.4776033,118.537035 C42.2846166,123.908135 65.9142553,133.75515 87.0565636,133.456756 C104.467876,133.158361 126.85385,134.351939 133.072176,137.932672 C143.021497,143.90056 164.163806,144.198955 182.818784,144.497349 C207.692087,144.795744 267.388017,146.287716 289.77399,142.110194 C304.697973,139.424644 319.621955,138.529461 335.789602,137.037489 C412.896844,130.771206 461.399787,136.4407 539.750694,131.666389 C610.63961,127.488868 685.259522,133.75515 758.635768,134.948728 C782.265407,135.247122 751.173777,134.948728 834.499345,134.650334 C854.397988,134.650334 885.489618,135.843911 909.119257,138.827855 C922.799574,140.618222 1007.36881,137.932672 1032.24211,139.424644 C1048.40976,140.618222 1108.10569,136.4407 1080.74505,127.488868 C1069.55207,123.908135 1081.98872,123.311346 1094.42537,123.012951 C1106.86202,123.012951 1118.05501,122.117768 1129.248,121.819374 C1154.1213,121.520979 1139.19732,107.198047 1130.49166,104.512497 C1126.76067,103.31892 1119.29867,103.020525 1114.32401,102.125342 C1100.6437,100.334976 1118.05501,97.0526369 1121.786,92.8751151 C1128.00433,86.9072267 1115.56768,85.1168602 1088.20704,85.1168602 C1081.98872,85.1168602 1091.93804,79.1489719 1098.15637,78.2537886 C1105.61836,77.0602109 1116.81134,76.4634221 1113.08035,73.1810835 C1108.10569,69.3019561 1111.83668,66.6164063 1126.76067,66.0196175 C1141.68465,65.4228286 1165.31429,54.0838408 1160.33963,51.9950798 C1137.95365,43.0432473 1139.19732,35.5833869 1147.90297,26.9299488 C1154.1213,23.6476102 1186.45659,23.0508213 1181.48193,18.5749051 Z" id="Path" fill="#0154C0" fill-rule="nonzero"></path>
    </g>
</svg>