<?xml version="1.0" encoding="UTF-8"?>
<svg width="91.46px" height="80.5px" viewBox="0 0 91.46 80.5" version="1.1" xmlns="http://www.w3.org/2000/svg" xmlns:xlink="http://www.w3.org/1999/xlink">
    <title>Shape</title>
    <g id="giveway" stroke="none" stroke-width="1" fill="none" fill-rule="evenodd">
        <g id="noun-prize-1365843" fill="#FFFFFF" fill-rule="nonzero">
            <path d="M72.71,0 L18.71,0 L20,7.77 L0,7.77 L15.88,40.5 L25.88,40.5 C27.8684858,45.5934609 31.7489012,49.721105 36.71,52.02 L36.71,59.84 L25.13,59.84 L25.13,80.5 L66.29,80.5 L66.29,59.83 L54.71,59.83 L54.71,52.02 C59.6635465,49.7169546 63.5362923,45.5898472 65.52,40.5 L75.52,40.5 L91.46,7.77 L71.46,7.77 L72.71,0 Z M19.63,34.5 L9.55,13.77 L20.96,13.77 L24.42,34.5 L19.63,34.5 Z M48.71,59.83 L42.71,59.83 L42.71,53.77 C44.6983044,54.0758838 46.7216956,54.0758838 48.71,53.77 L48.71,59.83 Z M81.87,13.77 L71.79,34.5 L67,34.5 L70.46,13.77 L81.87,13.77 Z" id="Shape"></path>
        </g>
    </g>
</svg>