<?xml version="1.0" encoding="UTF-8"?>
<svg width="218px" height="218px" viewBox="0 0 218 218" version="1.1" xmlns="http://www.w3.org/2000/svg" xmlns:xlink="http://www.w3.org/1999/xlink">
    <title>social media logo</title>
    <g id="Page-1" stroke="none" stroke-width="1" fill="none" fill-rule="evenodd">
        <g id="social-media-logo">
            <rect id="Rectangle" fill="#0154C0" x="0" y="0" width="218" height="218"></rect>
            <path d="M63.0913317,109.498668 C61.6053319,108.732357 61.6303464,107.591888 63.2064433,106.926343 L154.849395,68.2278984 C156.39897,67.5735535 157.311573,68.3810472 156.902223,69.9751269 L136.534887,149.28923 C136.119058,150.908542 134.655381,151.488463 133.211056,150.548992 L110.49458,135.772919 C109.074708,134.849353 107.086776,135.184544 106.074419,136.495673 L97.5970423,147.474935 C96.575727,148.797666 95.3033771,148.568561 94.7589436,146.974268 L86.9836154,124.205357 C86.4374921,122.606115 84.7603162,120.67308 83.304131,119.922145 L63.0913317,109.498668 Z M96.8688267,138.809249 L99.8984613,129.530245 C100.428816,127.905904 101.774343,125.615311 102.915506,124.378153 L138.248246,86.0731825 C139.377878,84.8485242 139.220331,84.635019 137.870601,85.6242256 L92.7900656,118.663395 C91.4362933,119.655565 90.6930286,121.778429 91.1209089,123.411563 L95.1432946,138.764216 C95.5694943,140.390936 96.3437217,140.417512 96.8688267,138.809249 Z" id="Shape" fill="#FFFFFF" fill-rule="nonzero"></path>
        </g>
    </g>
</svg>