<?xml version="1.0" encoding="UTF-8"?>
<svg width="46px" height="46px" viewBox="0 0 46 46" version="1.1" xmlns="http://www.w3.org/2000/svg" xmlns:xlink="http://www.w3.org/1999/xlink">
    <title>Path</title>
    <g id="Page-1" stroke="none" stroke-width="1" fill="none" fill-rule="evenodd">
        <path d="M40.2715758,9.83775879 C39.9133631,9.67729534 39.5646438,9.5013895 39.2267272,9.31070178 C38.2440792,8.74766606 37.3431304,8.08424036 36.5432905,7.33471711 C34.542046,5.35010787 33.7946199,3.33675006 33.5193106,1.92711211 L33.5303671,1.92711211 C33.3003899,0.757045533 33.3954766,0 33.4098502,0 L24.2947896,0 L24.2947896,30.5482247 C24.2947896,30.9583709 24.2947896,31.3637257 24.2748878,31.764289 C24.2748878,31.8141198 24.2693595,31.8601175 24.2660425,31.9137815 C24.2660425,31.9358221 24.2660425,31.9588209 24.2605142,31.9818198 C24.2605142,31.9875695 24.2605142,31.9933192 24.2605142,31.9990689 C24.0654057,34.2248215 22.605661,36.2206495 20.3663799,37.3233031 C19.2170949,37.8899902 17.9172283,38.1872478 16.5949738,38.18576 C12.3481339,38.18576 8.90621453,35.1844099 8.90621453,31.4777616 C8.90621453,27.7711134 12.3481339,24.7697632 16.5949738,24.7697632 C17.3988805,24.7691165 18.1978387,24.8787594 18.9621917,25.094622 L18.9732483,17.0507736 C14.2821103,16.5255773 9.5513622,17.7250543 5.92646098,20.3587751 C4.35539052,21.5418752 3.03458517,22.9535222 2.02348138,24.5301919 C1.63871172,25.1051631 0.186980214,27.4155895 0.0111802824,31.1653606 C-0.099385712,33.2937126 0.638089471,35.4987275 0.989689333,36.410057 L0.989689333,36.4292227 C1.21082132,36.9658626 2.06770778,38.7971462 3.46415629,40.3409441 C4.5902012,41.5793024 5.92058651,42.6671347 7.41246795,43.5694079 L7.41246795,43.5502422 L7.43458115,43.5694079 C11.84727,46.1682781 16.7398152,45.9977033 16.7398152,45.9977033 C17.5867508,45.9679965 20.4238742,45.9977033 23.6457672,44.674311 C27.2192602,43.207176 29.2536745,41.0213268 29.2536745,41.0213268 C30.5533638,39.7152599 31.5868296,38.2268318 32.3097186,36.6199215 C33.1345409,34.7407237 33.4098502,32.4868362 33.4098502,31.5860479 L33.4098502,15.3795238 C33.5204162,15.4370209 34.9931553,16.2812704 34.9931553,16.2812704 C34.9931553,16.2812704 37.1149167,17.4599615 40.4252626,18.2275482 C42.8002201,18.7737709 46,18.8887652 46,18.8887652 L46,11.0461568 C44.8788608,11.1515682 42.602307,10.8449168 40.2715758,9.83775879 Z" id="Path" fill="#000000" fill-rule="nonzero"></path>
    </g>
</svg>