<?xml version="1.0" encoding="UTF-8"?>
<svg width="187px" height="48px" viewBox="0 0 387 85" version="1.1" xmlns="http://www.w3.org/2000/svg" xmlns:xlink="http://www.w3.org/1999/xlink">
    <title>Group 2</title>
    <g id="Page-1" stroke="none" stroke-width="1" fill="none" fill-rule="evenodd">
        <g id="Group-2" fill="#FFFFFF">
            <text id="Wendogo" font-family="AvenirNext-Heavy, Avenir Next" font-size="55" font-weight="600" letter-spacing="-0.55">
                <tspan x="101" y="62">Wendogo</tspan>
            </text>
            <path d="M1.09133169,41.4986682 C-0.394668095,40.7323574 -0.369653641,39.591888 1.20644328,38.9263433 L92.8493955,0.227898445 C94.3989699,-0.426446511 95.3115726,0.381047242 94.9022234,1.97512686 L74.5348865,81.2892296 C74.1190577,82.9085423 72.6553806,83.4884626 71.2110556,82.5489923 L48.4945804,67.7729185 C47.0747079,66.8493534 45.086776,67.1845437 44.0744188,68.4956728 L35.5970423,79.4749347 C34.575727,80.7976659 33.3033771,80.568561 32.7589436,78.9742675 L24.9836154,56.205357 C24.4374921,54.606115 22.7603162,52.6730805 21.304131,51.9221447 L1.09133169,41.4986682 Z M34.8688267,70.8092491 L37.8984613,61.5302449 C38.4288158,59.9059037 39.7743428,57.6153115 40.9155057,56.3781531 L76.2482459,18.0731825 C77.3778781,16.8485242 77.2203311,16.635019 75.8706012,17.6242256 L30.7900656,50.6633951 C29.4362933,51.6555646 28.6930286,53.7784293 29.1209089,55.4115633 L33.1432946,70.7642162 C33.5694943,72.3909364 34.3437217,72.4175123 34.8688267,70.8092491 Z" id="Shape" fill-rule="nonzero"></path>
        </g>
    </g>
</svg>
