<?xml version="1.0" encoding="UTF-8"?>
<svg width="24px" height="24.6350302px" viewBox="0 0 24 24.6350302" version="1.1" xmlns="http://www.w3.org/2000/svg" xmlns:xlink="http://www.w3.org/1999/xlink">
    <title>whatsapp</title>
    <g id="Page-1" stroke="none" stroke-width="1" fill="none" fill-rule="evenodd">
        <g id="whatsapp" fill="#000000" fill-rule="nonzero">
            <g id="Group">
                <path d="M19.0129422,14.1328732 L16.6488352,12.4072476 C16.3520276,12.1898188 15.986195,12.1000863 15.6203624,12.1587575 C15.2545298,12.2139776 14.9335634,12.4106989 14.7195858,12.7075065 L13.9879206,13.7083693 C13.9499569,13.7601381 13.9637619,13.7118205 13.9465056,13.7773943 C13.9430544,13.7842968 13.9016393,13.8395168 13.7704918,13.8602243 C13.5496117,13.8947368 12.8869715,13.8533218 11.4547023,12.7075065 L11.3166523,12.6074202 C9.80845557,11.6031061 9.56686799,10.9853322 9.53235548,10.7644521 C9.51509922,10.6505608 9.54270923,10.5953408 9.53925798,10.5918896 C9.5875755,10.5608283 9.57377049,10.5608283 9.61173425,10.5125108 L10.3433995,9.51164797 C10.5608283,9.21484038 10.6505608,8.84900777 10.5918896,8.48317515 C10.5332183,8.11734254 10.3399482,7.79637619 10.0431406,7.57894737 L7.63761864,5.82226057 C7.02329594,5.37359793 6.15703192,5.50819672 5.70836928,6.12251941 L4.96980155,7.13718723 C4.3175151,8.03106126 4.14150129,9.25280414 4.51078516,10.3295945 C5.08024159,11.9896462 6.53321829,13.7532355 8.83175151,15.5754961 C8.86281277,15.6134599 8.89732528,15.6445211 8.93874029,15.6755824 C8.99741156,15.7169974 9.05608283,15.7584124 9.1147541,15.7963762 C9.16997412,15.8412425 9.22864538,15.8826575 9.2838654,15.9275237 C9.32182916,15.958585 9.36669543,15.9827437 9.41156169,16 C11.848145,17.6324418 13.9706644,18.4779983 15.7273512,18.515962 C15.7515099,18.515962 15.7722174,18.515962 15.7963762,18.515962 C16.8869715,18.515962 17.9257981,17.9810181 18.5849871,17.0733391 L19.3235548,16.0586713 C19.5409836,15.7618637 19.6307161,15.3960311 19.5720449,15.0301984 C19.5133736,14.6643658 19.3097498,14.350302 19.0129422,14.1328732 Z M18.4779983,15.4512511 L17.7394305,16.4659189 C17.2631579,17.1182053 16.5142364,17.4943917 15.7377049,17.4805867 C14.6229508,17.456428 12.6798965,16.9974116 9.71527179,14.9611734 C6.87489215,12.7592752 5.84296808,11.0474547 5.48058671,9.99482312 C5.21829163,9.23554789 5.33908542,8.37273512 5.79810181,7.74805867 L6.54012079,6.73339085 C6.59534081,6.65746333 6.67471959,6.60914582 6.76445211,6.59534081 C6.85418464,6.58153581 6.94736842,6.60224331 7.02329594,6.65746333 L9.42881795,8.41415013 C9.50474547,8.46937015 9.55306299,8.54874892 9.56686799,8.63848145 C9.58067299,8.72821398 9.55996549,8.82139776 9.50474547,8.89732528 L8.797239,9.86712683 C8.63157895,10.0465919 8.4659189,10.3744607 8.4935289,10.7886109 C8.54874892,11.6203624 9.2838654,12.4935289 10.7264884,13.4529767 L10.8300259,13.525453 C12.1967213,14.6194996 13.2562554,15.0543572 14.0638481,14.8507334 C14.4676445,14.7506471 14.7299396,14.4952545 14.8507334,14.281277 L15.5582399,13.3114754 C15.6686799,13.1561691 15.8861087,13.1251079 16.041415,13.2355479 L18.405522,14.9611734 C18.4814495,15.0163934 18.529767,15.0957722 18.543572,15.1855047 C18.5539258,15.285591 18.5332183,15.3787748 18.4779983,15.4512511 Z" id="Shape"></path>
                <path d="M12,-6.13065346e-16 C5.38395168,-6.13065346e-16 0,5.38395168 0,12 C0,14.8369284 1.00086281,17.5703192 2.82657463,19.7308024 L0.697152718,23.8826575 C0.603968939,24.0655738 0.628127696,24.2899051 0.759275237,24.4486626 C0.859361519,24.5694564 1.00776531,24.6350302 1.15616911,24.6350302 C1.20448663,24.6350302 1.25625539,24.6281277 1.30457291,24.6143227 L7.01639344,22.9163072 C8.58671268,23.6341674 10.2605695,23.9965487 12,23.9965487 C18.6160483,23.9965487 24,18.6125971 24,11.9965487 C24,5.38050043 18.6160483,-6.13065346e-16 12,-6.13065346e-16 Z M12,22.9611734 C10.350302,22.9611734 8.76272649,22.6022433 7.27868852,21.8947368 C7.16134599,21.8395168 7.03019845,21.8291631 6.90940466,21.8671268 L2.17083693,23.2752373 L3.90681622,19.88956 C4.00345125,19.6997412 3.97584124,19.4685073 3.8308887,19.3062985 C2.02933563,17.2942192 1.03537532,14.6954271 1.03537532,11.9965487 C1.03537532,5.94995686 5.95340811,1.03192407 12,1.03192407 C18.0465919,1.03192407 22.9646247,5.94995686 22.9646247,11.9965487 C22.9646247,18.0431406 18.0465919,22.9611734 12,22.9611734 Z" id="Shape"></path>
            </g>
        </g>
    </g>
</svg>