<?xml version="1.0" encoding="UTF-8"?>
<svg width="50px" height="52.3981422px" viewBox="0 0 50 52.3981422" version="1.1" xmlns="http://www.w3.org/2000/svg" xmlns:xlink="http://www.w3.org/1999/xlink">
    <title>Group</title>
    <g id="Page-1" stroke="none" stroke-width="1" fill="none" fill-rule="evenodd">
        <g id="Group" fill-rule="nonzero">
            <path d="M35.8433735,1.02108252e-15 L22.7030258,1.02108252e-15 C20.7141543,1.02108252e-15 19.0862687,1.62788559 19.0862687,3.61733192 C19.0862687,5.60677826 20.7141543,7.23523866 22.7036007,7.23523866 L35.8439483,7.23523866 C37.8328198,7.23523866 39.4607054,5.60677826 39.4607054,3.61733192 C39.4607054,1.62846041 37.8328198,1.02108252e-15 35.8433735,1.02108252e-15" id="Fill-4" fill="#0154C0"></path>
            <path d="M29.2731997,10.9445415 C22.006346,10.9445415 15.3965097,14.6480962 11.5923618,20.8503863 C11.3662401,21.2504497 11.4974194,21.7577254 11.8891347,21.9980187 C12.28085,22.2383121 12.7924951,22.1253698 13.0466523,21.7425044 C16.538099,16.0500782 22.6041571,12.6511772 29.2737745,12.6511772 C39.7607606,12.6511772 48.2939391,21.1837809 48.2939391,31.6719167 C48.2939391,42.1589028 39.7607606,50.6915065 29.2731997,50.6915065 C22.6754346,50.6915065 16.6432907,47.3483629 13.1380484,41.7473328 C12.8880459,41.3478051 12.3614977,41.226591 11.96197,41.4765934 C11.5624423,41.7265958 11.4412281,42.2531441 11.6912306,42.6526718 C15.5103237,48.7549434 22.0839465,52.3981422 29.2731997,52.3981422 C40.7023131,52.3981422 50,43.1004553 50,31.6713419 C50,20.2428033 40.7023131,10.9445415 29.2731997,10.9445415 L29.2731997,10.9445415 Z M31.098248,38.6346914 C31.5504055,38.5031017 32.0237683,38.7622814 32.1564885,39.2141083 L33.6768831,44.408167 C33.8092653,44.8605524 33.5498516,45.3346002 33.0974662,45.4669824 C32.6450808,45.5993647 32.171033,45.3399509 32.0386508,44.8875655 L30.518831,39.6935069 C30.3865306,39.2411304 30.6459141,38.7671378 31.098248,38.6346914 L31.098248,38.6346914 Z M35.8784374,34.4149499 C36.0535856,33.977392 36.5502147,33.7645878 36.9878368,33.9395751 L41.9887566,35.939943 C42.2813445,36.0464756 42.492711,36.3038759 42.5402918,36.6115981 C42.5878727,36.9193204 42.4641184,37.228538 42.2173697,37.4184643 C41.970621,37.6083907 41.6400299,37.64889 41.3547319,37.5241424 L36.3538122,35.5243493 C35.916494,35.3489558 35.703793,34.8525678 35.8784374,34.4149499 L35.8784374,34.4149499 Z M41.0305344,24.4527729 C41.2264041,24.339523 41.4592608,24.308785 41.6778082,24.3673302 C41.8963556,24.4258755 42.082664,24.5689009 42.1956912,24.7648993 L42.2336292,24.8379012 C42.4141221,25.2333763 42.2681183,25.7081762 41.88299,25.9300561 L36.7096248,28.9156627 C36.3033121,29.1335642 35.7973921,28.98944 35.5669078,28.5901306 C35.3364234,28.1908211 35.4646776,27.6806469 35.8565943,27.4378047 L35.8571691,27.4378047 L41.0305344,24.4527729 Z M31.2965603,18.4850087 C31.4185809,18.0350745 31.8790148,17.766254 32.3308167,17.8811668 C32.7826186,17.9960796 33.0586639,18.4522186 32.9508875,18.9057758 L31.5604019,24.3722984 C31.4303349,24.8126844 30.975369,25.0714389 30.5303828,24.958105 C30.0853966,24.8447711 29.8096358,24.3999073 29.9060747,23.9509565 L31.2965603,18.4850087 Z" id="Shape" fill="#627A93"></path>
            <path d="M22.0816472,36.3342684 C22.6933992,36.3342684 23.1893222,36.8301913 23.1893222,37.4419433 C23.1893222,38.0536953 22.6933992,38.5496183 22.0816472,38.5496183 L5.53837487,38.5496183 C4.92662288,38.5496183 4.4306999,38.0536953 4.4306999,37.4419433 C4.4306999,36.8301913 4.92662288,36.3342684 5.53837487,36.3342684 L22.0816472,36.3342684 L22.0816472,36.3342684 Z M17.6515221,30.5636669 C18.2632741,30.5636669 18.7591971,31.0595899 18.7591971,31.6713419 C18.7591971,32.2830939 18.2632741,32.7790168 17.6515221,32.7790168 L1.10767497,32.7790168 C0.495922978,32.7790168 0,32.2830939 0,31.6713419 C0,31.0595899 0.495922978,30.5636669 1.10767497,30.5636669 L17.6509473,30.5636669 L17.6515221,30.5636669 Z M22.0816472,24.7936402 C22.6933992,24.7936402 23.1893222,25.2895632 23.1893222,25.9013152 C23.1893222,26.5130672 22.6933992,27.0089902 22.0816472,27.0089902 L5.53837487,27.0089902 C4.92662288,27.0089902 4.4306999,26.5130672 4.4306999,25.9013152 C4.4306999,25.2895632 4.92662288,24.7936402 5.53837487,24.7936402 L22.0816472,24.7936402 Z" id="Combined-Shape" fill="#0154C0"></path>
        </g>
    </g>
</svg>