<?xml version="1.0" encoding="UTF-8"?>
<svg width="170px" height="122.777778px" viewBox="0 0 170 122.777778" version="1.1" xmlns="http://www.w3.org/2000/svg" xmlns:xlink="http://www.w3.org/1999/xlink">
    <title>flag-for-flag-canada-svgrepo-com</title>
    <g id="Page-1" stroke="none" stroke-width="1" fill="none" fill-rule="evenodd">
        <g id="flag-for-flag-canada-svgrepo-com" fill-rule="nonzero">
            <path d="M18.8888889,0 C8.45684361,0 0,8.45684361 0,18.8888889 L0,103.888889 C0,114.320934 8.45684361,122.777778 18.8888889,122.777778 L47.2222222,122.777778 L47.2222222,0 L18.8888889,0 Z M151.111111,0 L122.777778,0 L122.777778,122.777778 L151.111111,122.777778 C161.543156,122.777778 170,114.320934 170,103.888889 L170,18.8888889 C170,8.45684361 161.543156,0 151.111111,0 Z" id="Shape" fill="#D52B1E"></path>
            <polygon id="Path" fill="#EEEEEE" points="47.2222222 0 122.777778 0 122.777778 122.777778 47.2222222 122.777778"></polygon>
            <path d="M87.9041667,80.8113889 C93.5613889,81.4677778 98.6330556,82.0580556 104.285556,82.705 L102.845278,77.9733333 C102.628802,77.1415134 102.923164,76.2602782 103.596111,75.7255556 L120.024722,62.3427778 L116.624722,60.7419444 C115.127778,60.2083333 115.538611,59.3630556 116.081667,57.3325 L118.589167,48.1902778 L109.045556,50.2066667 C108.115278,50.3483333 107.496667,49.7580556 107.355,49.1913889 L106.1225,44.8894444 L98.5763889,53.3611111 C97.5044444,54.7211111 95.3322222,54.7211111 96.0075,51.5855556 L99.2327778,34.425 L94.9025,36.6680556 C93.6888889,37.3480556 92.4752778,37.4613889 91.8,36.2477778 L85.8263889,25.075 L85.8263889,25.3536111 L85.8263889,25.075 L79.8527778,36.2477778 C79.1727778,37.4613889 77.9591667,37.3480556 76.7455556,36.6680556 L72.42,34.425 L75.6452778,51.5855556 C76.3252778,54.7211111 74.1483333,54.7211111 73.0763889,53.3611111 L65.5302778,44.8941667 L64.3025,49.1961111 C64.1608333,49.7627778 63.5375,50.3530556 62.6072222,50.2113889 L53.0636111,48.195 L55.5711111,57.3372222 C56.1047222,59.3677778 56.5202778,60.2130556 55.0233333,60.7466667 L51.6233333,62.3475 L68.0519444,75.7302778 C68.7036111,76.2355556 69.0341667,77.1469444 68.7980556,77.9780556 L67.3577778,82.7097222 L83.7438889,80.8161111 C84.2444444,80.8161111 84.575,81.0947222 84.5702778,81.6708333 L83.5597222,99.1619444 L88.0741667,99.1619444 L87.0683333,81.6708333 C87.0777778,81.09 87.4036111,80.8113889 87.9041667,80.8113889 L87.9041667,80.8113889 Z" id="Path" fill="#D52B1E"></path>
        </g>
    </g>
</svg>