<?xml version="1.0" encoding="UTF-8"?>
<svg width="82.001551px" height="60px" viewBox="0 0 82.001551 60" version="1.1" xmlns="http://www.w3.org/2000/svg" xmlns:xlink="http://www.w3.org/1999/xlink">
    <title>noun-campus-5246149</title>
    <g id="Page-1" stroke="none" stroke-width="1" fill="none" fill-rule="evenodd">
        <g id="noun-campus-5246149" fill="#4e6174" fill-rule="nonzero">
            <g id="Group">
                <path d="M41.0011684,14.4665482 C37.0177692,14.4665482 33.7771188,17.7079964 33.7771188,21.6913956 C33.7771188,25.6755926 37.0177692,28.9170408 41.0011684,28.9170408 C44.9853654,28.9170408 48.2268136,25.6755926 48.2268136,21.6913956 C48.2268136,17.7071986 44.9853654,14.4665482 41.0011684,14.4665482 Z M41.0011684,27.3206495 C37.8977391,27.3206495 35.3727123,24.794825 35.3727123,21.6905978 C35.3727123,18.5863707 37.8977391,16.0613439 41.0011684,16.0613439 C44.1053956,16.0613439 46.6312201,18.5863707 46.6312201,21.6905978 C46.6312201,24.7956228 44.1053956,27.3206495 41.0011684,27.3206495 Z" id="Shape"></path>
                <path d="M41.0011684,18.110086 L41.0011684,18.110086 C40.5599868,18.110086 40.2033717,18.4674989 40.2033717,18.9078827 L40.2049673,21.4568434 L38.4075312,24.2555144 C38.1697878,24.6264899 38.2766925,25.1195283 38.647668,25.3580695 C38.7809001,25.4434337 38.9300881,25.4849192 39.0784783,25.4849192 C39.3409534,25.4849192 39.5978439,25.3556761 39.7502231,25.1187305 L41.6745089,22.1222059 C41.7574797,21.9929628 41.8013586,21.842977 41.8013586,21.6905978 L41.7989652,18.9078827 C41.7981674,18.4674989 41.4407544,18.110086 41.0011684,18.110086 Z" id="Path"></path>
                <path d="M81.8890497,27.7091765 L74.202278,14.8550753 C74.0578768,14.6141406 73.7977951,14.4665482 73.5177684,14.4665482 L56.7057975,14.4665482 L43.0658664,0.826617186 C41.9633113,-0.275140127 40.0422167,-0.275937924 38.9388638,0.826617186 L25.298135,14.4665482 L8.48616404,14.4665482 C8.20533958,14.4665482 7.94525784,14.6141406 7.80165443,14.8550753 L0.113287139,27.7091765 C0.0390920408,27.832835 0,27.9748428 0,28.1184462 L0,30.0411364 C0,30.4815202 0.357412944,30.8389332 0.797796751,30.8389332 L3.71135049,30.8389332 L3.71135049,33.8841234 L3.71135049,41.0682831 L3.71135049,49.3573913 L3.71135049,56.5407533 L3.71135049,59.2022032 C3.71135049,59.6425871 4.06876343,60 4.50914724,60 L23.9530497,60 L23.9801747,60 L30.0649706,60 L33.2457862,60 L41.0011684,60 L41.0019662,60 L41.002764,60 L48.7565506,60 L51.9373663,60 L58.0221621,60 L58.0476916,60 L77.4931896,60 C77.9335734,60 78.2909864,59.6425871 78.2909864,59.2022032 L78.2909864,56.5407533 L78.2909864,49.3573913 L78.2909864,41.0682831 L78.2909864,33.8841234 L78.2909864,30.8389332 L81.2037423,30.8389332 C81.6441261,30.8389332 82.001551,30.4815202 82.001551,30.0411364 L82.001551,28.1184462 C82.001551,27.9748428 81.9632448,27.832835 81.8890497,27.7091765 Z M73.0646198,16.0621417 L79.3839679,26.6297575 L58.8462861,26.6297575 L58.8462861,24.2603012 C59.074456,24.3169447 59.3082105,24.355239 59.5483473,24.355239 C60.3285925,24.355239 61.0609699,24.0512784 61.6114497,23.5000008 C62.1627272,22.9487233 62.4666878,22.2155481 62.4666878,21.4361007 C62.4666878,20.6566532 62.1627272,19.923478 61.6114497,19.3729983 L58.3005932,16.0621417 L73.0646198,16.0621417 Z M76.6961907,34.6827179 L76.6961907,40.2712841 L71.8846784,40.2712841 L71.8846784,34.6827179 L76.6961907,34.6827179 Z M76.6961907,55.7429565 L71.8846784,55.7429565 L71.8846784,50.1551881 L76.6961907,50.1551881 L76.6961907,55.7429565 Z M58.8462861,55.7429565 L58.8462861,50.1551881 L64.8975745,50.1551881 L64.8975745,55.7429565 L58.8462861,55.7429565 Z M41.002764,58.4044065 L41.002764,58.4044065 L41.0011684,58.4044065 L34.0443808,58.4044065 L34.0443808,45.4202644 L41.7311524,45.4202644 L47.9587539,45.4202644 L47.9587539,58.4044065 L41.002764,58.4044065 L41.002764,58.4044065 Z M41.7311524,43.8246709 L33.246584,43.8246709 L30.0657684,43.8246709 L28.7422235,43.8246709 L28.7422235,42.1141946 L40.5288727,33.6240416 L41.4734641,33.6240416 L53.2601133,42.1141946 L53.2601133,43.8246709 L51.9365685,43.8246709 L48.7557528,43.8246709 L41.7311524,43.8246709 Z M54.0587078,45.4202644 C54.4990917,45.4202644 54.8565046,45.0628514 54.8565046,44.6224676 L54.8565046,41.7057227 C54.8565046,41.4488322 54.7328461,41.2078975 54.5246211,41.0579117 L42.1978635,32.1784339 C42.1731318,32.1608824 42.1444112,32.1568934 42.1188817,32.1425331 C42.0726095,32.1162058 42.0263372,32.0938674 41.9744805,32.0771137 C41.9202303,32.0595622 41.8675757,32.0499886 41.8117299,32.0444041 C41.783807,32.0412129 41.7598731,32.0276503 41.7311524,32.0276503 L40.2711844,32.0276503 C40.1036471,32.0276503 39.9408965,32.0803049 39.8052711,32.1776361 L27.4785135,41.0579117 C27.2702885,41.2078975 27.14663,41.4488322 27.14663,41.7057227 L27.14663,44.6224676 C27.14663,45.0628514 27.504043,45.4202644 27.9444268,45.4202644 L29.2679716,45.4202644 L29.2679716,58.4044065 L24.7508464,58.4044065 L24.7508464,56.6755809 C24.7588244,56.6301065 24.7779715,56.5886211 24.7779715,56.5407533 L24.7779715,49.3573913 C24.7779715,49.3095235 24.7588244,49.2680381 24.7508464,49.2225637 L24.7508464,43.651549 C24.7588244,43.6060746 24.7779715,43.5645891 24.7779715,43.5167213 C24.7779715,43.4688535 24.7588244,43.4273681 24.7508464,43.3818937 L24.7508464,41.2047063 C24.7588244,41.1592319 24.7779715,41.1177465 24.7779715,41.0698787 L24.7779715,33.885719 C24.7779715,33.8378511 24.7588244,33.7963657 24.7508464,33.7508913 L24.7508464,30.1775597 C24.7588244,30.1320852 24.7779715,30.0905998 24.7779715,30.042732 C24.7779715,29.9948642 24.7588244,29.9533788 24.7508464,29.9079044 L24.7508464,27.5639775 C24.7588244,27.5185031 24.7779715,27.4770177 24.7779715,27.4291498 C24.7779715,27.381282 24.7588244,27.3397966 24.7508464,27.2943222 L24.7508464,23.2686398 L26.5347199,21.4855641 L26.5347199,38.1028726 C26.5347199,38.5432564 26.8921329,38.9006693 27.3325167,38.9006693 C27.7729005,38.9006693 28.1303134,38.5432564 28.1303134,38.1028726 L28.1303134,19.9450185 C28.1303134,19.9282648 28.1215377,19.9139045 28.1207399,19.8971507 L41.002764,7.01751997 L53.8823948,19.8979485 C53.881597,19.9147022 53.8728212,19.9282648 53.8728212,19.9450185 L53.8728212,38.1004792 C53.8728212,38.540863 54.2302341,38.8982759 54.670618,38.8982759 C55.1110018,38.8982759 55.4684147,38.540863 55.4684147,38.1004792 L55.4684147,21.4847663 L57.2506926,23.2670442 L57.2506926,27.3007046 C57.2435125,27.3437856 57.2251631,27.3828776 57.2251631,27.428352 C57.2251631,27.4738265 57.2435125,27.5121207 57.2506926,27.5559995 L57.2506926,29.9150845 C57.2435125,29.9581655 57.2251631,29.9972576 57.2251631,30.042732 C57.2251631,30.0882064 57.2435125,30.1265007 57.2506926,30.1703795 L57.2506926,33.7588693 C57.2435125,33.8019503 57.2251631,33.8410423 57.2251631,33.8865167 L57.2251631,41.0706765 C57.2251631,41.1161509 57.2435125,41.1544451 57.2506926,41.198324 L57.2506926,43.3906694 C57.2435125,43.4337505 57.2251631,43.4728425 57.2251631,43.5183169 C57.2251631,43.5637913 57.2435125,43.6020856 57.2506926,43.6459644 L57.2506926,49.232935 C57.2435125,49.2760161 57.2251631,49.3151081 57.2251631,49.3605825 L57.2251631,56.5439445 C57.2251631,56.5894189 57.2435125,56.6277131 57.2506926,56.671592 L57.2506926,58.4075977 L52.735163,58.4075977 L52.735163,45.4202644 L54.0587078,45.4202644 Z M5.30694399,55.7429565 L5.30694399,50.1551881 L10.1184562,50.1551881 L10.1184562,55.7429565 L5.30694399,55.7429565 Z M23.1552529,34.6827179 L23.1552529,40.2712841 L17.1055601,40.2712841 L17.1055601,34.6827179 L23.1552529,34.6827179 Z M10.9170507,41.8668776 L16.3085612,41.8668776 L23.1560507,41.8668776 L23.1560507,42.7181268 L5.30694399,42.7181268 L5.30694399,41.8668776 L10.9170507,41.8668776 Z M15.5099666,40.2712841 L11.7140497,40.2712841 L11.7140497,34.6827179 L15.5099666,34.6827179 L15.5099666,40.2712841 Z M10.119254,40.2712841 L5.30774178,40.2712841 L5.30774178,34.6827179 L10.119254,34.6827179 L10.119254,40.2712841 Z M5.30694399,44.3137203 L23.1552529,44.3137203 L23.1552529,48.5595946 L16.3077634,48.5595946 L10.9162529,48.5595946 L5.30694399,48.5595946 L5.30694399,44.3137203 Z M11.7148475,50.1551881 L15.5107644,50.1551881 L15.5107644,55.7429565 L11.7148475,55.7429565 L11.7148475,50.1551881 Z M17.1055601,50.1551881 L23.1552529,50.1551881 L23.1552529,55.7429565 L17.1055601,55.7429565 L17.1055601,50.1551881 Z M66.493168,50.1551881 L70.2882871,50.1551881 L70.2882871,55.7429565 L66.493168,55.7429565 L66.493168,50.1551881 Z M71.0860839,48.5595946 L65.6953713,48.5595946 L58.8462861,48.5595946 L58.8462861,44.3137203 L76.6961907,44.3137203 L76.6961907,48.5595946 L71.0860839,48.5595946 Z M76.6961907,42.7181268 L58.8462861,42.7181268 L58.8462861,41.8668776 L65.6953713,41.8668776 L71.0860839,41.8668776 L76.6953929,41.8668776 L76.6953929,42.7181268 L76.6961907,42.7181268 Z M70.2882871,40.2712841 L66.493168,40.2712841 L66.493168,34.6827179 L70.2882871,34.6827179 L70.2882871,40.2712841 Z M64.8975745,40.2712841 L58.8462861,40.2712841 L58.8462861,34.6827179 L64.8975745,34.6827179 L64.8975745,40.2712841 Z M40.0669484,1.95549959 C40.567167,1.45607882 41.4391588,1.45607882 41.9385796,1.95549959 L55.7284964,15.7462142 C55.7691841,15.798071 55.8138607,15.8435454 55.8657175,15.8834353 L60.4833651,20.5018807 C60.7330755,20.751591 60.8702965,21.0834745 60.8702965,21.4361007 C60.8702965,21.7895246 60.7330755,22.1214081 60.4817695,22.3719162 C59.9831465,22.8721348 59.1127503,22.871337 58.6117339,22.3719162 C58.6117339,22.3719162 58.6117339,22.3719162 58.6109361,22.3719162 L41.5668063,5.32619086 C41.411236,5.17062049 41.207,5.09243641 41.002764,5.09243641 C40.798528,5.09243641 40.5942921,5.17062049 40.4387217,5.32619086 L23.3898051,22.3719162 C23.3898051,22.3719162 23.3898051,22.3719162 23.3890073,22.372714 L23.3890073,22.372714 C22.8903844,22.871337 22.0199881,22.8729326 21.5197696,22.3719162 C21.2700592,22.1222059 21.1320403,21.7903224 21.1320403,21.4368984 C21.1320403,21.0842723 21.2692614,20.7523888 21.5197696,20.5018807 L26.1390127,15.8834353 C26.1900717,15.8435454 26.2339506,15.7996666 26.2738404,15.7486076 L40.0669484,1.95549959 Z M8.9385148,16.0621417 L23.7033393,16.0621417 L20.3924828,19.3729983 C19.8412052,19.923478 19.5372446,20.6566532 19.5372446,21.4361007 C19.5372446,22.2155481 19.8404074,22.9487233 20.391685,23.5000008 C21.1160844,24.2244003 22.1899188,24.4629415 23.1560507,24.2363672 L23.1560507,26.6297575 L2.61757114,26.6297575 L8.9385148,16.0621417 Z M1.5955935,28.3394359 L1.66340623,28.225351 L23.1552529,28.225351 L23.1552529,29.2433397 L1.5955935,29.2433397 L1.5955935,28.3394359 Z M23.1552529,30.8389332 L23.1552529,33.0863266 L16.3077634,33.0863266 L10.9162529,33.0863266 L5.30694399,33.0863266 L5.30694399,30.8389332 L23.1552529,30.8389332 L23.1552529,30.8389332 Z M5.30694399,57.33855 L10.9162529,57.33855 L16.3077634,57.33855 L23.1552529,57.33855 L23.1552529,58.4044065 L5.30694399,58.4044065 L5.30694399,57.33855 Z M30.8635651,58.4044065 L30.8635651,45.4202644 L32.4487873,45.4202644 L32.4487873,58.4044065 L30.8635651,58.4044065 L30.8635651,58.4044065 Z M49.5543474,58.4044065 L49.5543474,45.4202644 L51.1395695,45.4202644 L51.1395695,58.4044065 L49.5543474,58.4044065 L49.5543474,58.4044065 Z M58.8462861,58.4044065 L58.8462861,57.33855 L65.6953713,57.33855 L71.0860839,57.33855 L76.6953929,57.33855 L76.6953929,58.4044065 L58.8462861,58.4044065 Z M76.6961907,33.0871244 L71.0868817,33.0871244 L65.6961691,33.0871244 L58.8470839,33.0871244 L58.8470839,30.839731 L76.6969884,30.839731 L76.6969884,33.0871244 L76.6961907,33.0871244 Z M80.4067433,29.2433397 L58.8462861,29.2433397 L58.8462861,28.225351 L80.3389306,28.225351 L80.4067433,28.3394359 L80.4067433,29.2433397 L80.4067433,29.2433397 Z" id="Shape"></path>
            </g>
        </g>
    </g>
</svg>
