<svg xmlns="http://www.w3.org/2000/svg" xmlns:xlink="http://www.w3.org/1999/xlink" width="198.006332px" height="235.774164px" viewBox="0 0 198.006332 235.774164" version="1.1">
    <title>Group 5</title>
    <defs>
        <linearGradient x1="50%" y1="0%" x2="50%" y2="191.657864%" id="linearGradient-1">
            <stop stop-color="#801111" stop-opacity="0.824519231" offset="0%"/>
            <stop stop-color="#0E0202" stop-opacity="0.977966955" offset="87.4441827%"/>
            <stop stop-color="#000000" offset="100%"/>
        </linearGradient>
        <linearGradient x1="50%" y1="0%" x2="50%" y2="191.657864%" id="linearGradient-2">
            <stop stop-color="#801111" stop-opacity="0.824519231" offset="0%"/>
            <stop stop-color="#0E0202" stop-opacity="0.977966955" offset="87.4441827%"/>
            <stop stop-color="#000000" offset="100%"/>
        </linearGradient>
        <linearGradient x1="50%" y1="99.9894614%" x2="50%" y2="100%" id="linearGradient-3">
            <stop stop-color="#D03838" offset="0%"/>
            <stop stop-color="#000000" offset="100%"/>
        </linearGradient>
    </defs>
    <g id="Page-1" stroke="none" stroke-width="1" fill="none" fill-rule="evenodd">
        <g id="Group-5" fill-rule="nonzero">
            <g id="flight-attendant-clipart">
                <path d="M137,110.974164 C132.8,106.574164 133.1,101.374164 133,95.674164 C133,93.774164 133.3,91.374164 132.9,89.474164 C132.4,87.274164 132.6,87.474164 130.3,87.474164 C127.8,87.374164 125.4,87.974164 122.9,87.874164 C122.8,87.874164 122.6,87.874164 122.5,87.874164 L122.5,88.074164 C122.4,88.074164 122.3,88.074164 122.2,88.074164 C119.7,88.174164 117.2,87.574164 114.8,87.674164 C112.5,87.674164 112.6,87.474164 112.2,89.674164 C111.8,91.574164 112.1,93.874164 112.1,95.874164 C112,101.574164 112.3,106.774164 108.1,111.174164 C111.1,111.774164 114.1,112.474164 117.2,113.074164 C119,113.474164 120.8,113.574164 122.7,113.674164 L122.7,113.474164 C124.5,113.474164 126.3,113.274164 128.1,112.874164 C131,112.274164 134,111.674164 137,110.974164 Z" id="Path" fill="#D8A084"/>
                <path d="M133.1,95.774164 C133.1,93.874164 133.4,91.474164 133,89.574164 C132.5,87.374164 132.7,87.574164 130.4,87.574164 C130,87.574164 129.5,87.574164 129.1,87.574164 C129.1,87.774164 129.2,87.974164 129.2,88.174164 C129.6,90.074164 129.3,92.374164 129.3,94.374164 C129.3,96.874164 129.5,99.374164 129.4,101.774164 C129.3,103.774164 130,105.874164 129.7,107.874164 C129.3,111.274164 126.9,110.974164 124.2,111.574164 C122.5,111.974164 120.7,112.074164 118.8,112.174164 L118.8,112.374164 C116.9,112.374164 115.1,112.174164 113.3,111.774164 C111.7,111.474164 110.1,111.074164 108.5,110.774164 C108.4,110.974164 108.2,111.074164 108,111.274164 C111,111.874164 114,112.574164 117.1,113.174164 C118.9,113.574164 120.7,113.674164 122.6,113.774164 L122.6,113.574164 C124.4,113.574164 126.2,113.374164 128,112.974164 C131,112.374164 134,111.674164 137.1,111.074164 C132.9,106.674164 133.2,101.474164 133.1,95.774164 Z" id="Path" fill="#D1947A"/>
                <path d="M167.8,216.874164 C167.7,217.574164 167.5,218.174164 167.4,218.874164 C167.1,220.374164 166.9,222.074164 167.7,223.374164 C168.7,224.874164 171.7,224.074164 173.3,224.374164 C174.2,224.574164 175.4,225.174164 175.2,226.074164 C175.1,226.374164 174.9,226.674164 174.6,226.874164 C172.8,228.374164 170.4,228.874164 168.1,229.274164 C166.6,229.574164 165,229.774164 163.6,229.274164 C159.6,227.774164 157.1,222.374164 157,218.374164 C156.9,214.574164 156.5,210.674164 157.5,206.874164 C158.3,203.674164 159.8,200.574164 161.5,197.674164 C164.4,199.874164 167.1,202.274164 169.5,204.974164 C171.1,206.774164 172.1,208.374164 170.4,210.274164 C168.7,211.974164 168.3,214.474164 167.8,216.874164 Z" id="Path" fill="#E5B194"/>
                <path d="M53.5,170.174164 C50,166.074164 46.2,162.274164 42.1,158.674164 C40.1,156.874164 37.9,155.074164 35.4,153.974164 C32.3,152.574164 28.7,152.274164 25.4,151.574164 C22.1,150.874164 18.5,149.574164 16.5,146.874164 C16,146.174164 15.6,145.374164 16,144.574164 C16.4,143.674164 17.7,143.574164 18.8,143.674164 C26.2,144.274164 33.6,144.874164 41,145.474164 C43,145.674164 45.3,145.574164 46.9,146.874164 C48.6,148.274164 49.9,150.774164 51.7,152.374164 C52.8,153.274164 53.9,154.174164 55,155.074164 C56.9,156.574164 58.8,158.074164 60.7,159.574164 C60.9,159.674164 61,159.874164 61,159.974164 C61,160.174164 60.9,160.374164 60.8,160.574164 C58.2,163.874164 55.7,167.174164 53.1,170.474164" id="Path" fill="#E5B194"/>
                <path d="M53.1,170.974164 L53.5,170.574164 C53.5,170.574164 53.5,170.574164 53.4,170.474164 C53.4,170.574164 53.2,170.774164 53.1,170.974164 Z" id="Path" fill="#DDA48C"/>
                <path d="M46.2,157.274164 C44.2,155.474164 42,153.674164 39.5,152.574164 C36.4,151.174164 32.8,150.874164 29.5,150.174164 C26.1,149.474164 22.6,148.174164 20.6,145.474164 C20.3,145.074164 20.1,144.674164 20,144.174164 C19.6,144.174164 19.2,144.074164 18.9,144.074164 C17.9,143.974164 16.6,144.074164 16.1,144.974164 C15.7,145.674164 16.1,146.574164 16.6,147.274164 C18.7,150.074164 22.2,151.274164 25.5,151.974164 C28.9,152.674164 32.4,152.974164 35.5,154.374164 C38,155.474164 40.1,157.274164 42.2,159.074164 C46.2,162.674164 50,166.474164 53.5,170.474164 C54.4,169.374164 55.2,168.274164 56.1,167.074164 C53,163.674164 49.7,160.374164 46.2,157.274164 Z" id="Path" fill="#DDA48C"/>
                <ellipse id="Oval" fill="#EABDA0" cx="122.6" cy="59.674164" rx="27" ry="35.7"/>
                <path d="M181.3,170.474164 C172.6,178.174164 166.5,188.374164 160.5,198.374164 C163.8,202.274164 167.1,206.174164 170.4,210.074164 C173.1,206.974164 175.8,203.674164 178.4,200.474164 C181.8,196.274164 185.3,191.974164 188.7,187.774164 C191.2,184.774164 193.6,181.674164 195.8,178.474164 C197,176.674164 198.1,174.674164 198,172.574164 C197.9,171.274164 197.4,169.974164 196.9,168.774164 C189.5,151.974164 180,136.074164 168.8,121.674164 C168,120.574164 166.6,119.474164 165.5,120.174164 C165.1,120.474164 164.8,120.874164 164.6,121.374164 C161.1,128.574164 157.5,138.474164 162.7,145.774164 C168.8,154.074164 175.2,162.174164 181.3,170.474164 Z" id="Path" fill="#0154C0"/>
                <path d="M76.7,127.574164 C75.9,130.574164 75.3,133.574164 74.8,136.774164 C74.3,140.374164 73.8,143.874164 73.2,147.474164 C72.1,154.674164 71.1,161.874164 70,169.174164 C67.2,163.974164 63.2,159.474164 58.4,156.074164 C58,156.674164 57.3,157.074164 56.8,157.774164 C55.2,160.274164 53.4,162.574164 51.7,165.074164 C51.1,165.974164 47.5,170.574164 48.1,171.474164 C50,174.574164 52.5,177.474164 54.9,180.274164 C57.3,183.074164 59.9,185.674164 63,187.474164 C65.2,188.774164 69.4,190.674164 72,190.774164 C74.9,190.774164 76.2,188.674164 77.5,186.374164 C81.4,179.574164 84,173.374164 86.4,165.874164 C88.9,158.074164 90.6,152.874164 89,144.574164 C87.4,136.374164 85.9,128.074164 83.5,120.074164 C82.8,117.874164 80.9,116.974164 79.1,119.074164 C78.4,119.974164 78.1,121.074164 77.8,122.174164 C77.6,123.874164 77.2,125.774164 76.7,127.574164 Z" id="Path" fill="#024BA9"/>
                <path d="M84.4,140.874164 C87.8,156.274164 91.8,171.874164 90.8,187.774164 C89.7,203.874164 85.5,219.874164 82.3,235.674164 L124.2,235.674164 L124.2,114.774164 C123.7,114.874164 123.3,114.874164 122.8,114.874164 C120,114.874164 117.5,113.474164 115.6,111.674164 C105.3,112.274164 94.7,113.574164 84.9,116.274164 C79.9,117.674164 79.5,120.074164 80.5,124.774164 C81.5,130.174164 83.2,135.474164 84.4,140.874164 Z" id="Path" fill="#0154C0"/>
                <path d="M122.6,23.974164 L122.6,95.374164 C137.5,95.374164 149.6,79.374164 149.6,59.674164 C149.6,39.974164 137.5,23.974164 122.6,23.974164 Z" id="Path" fill="#E5B194"/>
                <path d="M164.5,235.674164 C161.3,219.874164 157.1,203.874164 156,187.774164 C154.9,171.874164 159,156.274164 162.4,140.874164 C163.6,135.474164 165.3,130.174164 166.4,124.774164 C167.4,119.974164 167,117.574164 162,116.274164 C152,113.574164 141.2,112.274164 130.7,111.674164 C130.5,111.874164 130.4,112.074164 130.2,112.174164 C128.2,113.974164 125.5,114.974164 122.9,114.974164 C122.8,114.974164 122.8,114.974164 122.7,114.974164 L122.7,235.774164 L164.5,235.774164 L164.5,235.674164 Z" id="Path" fill="#0154C0"/>
                <path d="M107.2,29.674164 C110.6,35.574164 115.5,40.574164 121.5,43.674164 C127.9,46.874164 135,47.474164 141.6,49.874164 C148.6,52.374164 147.4,60.074164 146.4,66.174164 C145.2,73.274164 142.4,80.074164 138.2,85.974164 C136.4,88.574164 134,90.874164 132.7,93.774164 C132.2,94.774164 131.3,96.674164 131.9,97.774164 C132.6,99.074164 135.7,98.974164 137,99.074164 C142.5,99.474164 152.4,100.274164 156.5,95.774164 C161.5,90.274164 160.000319,79.974164 158.9,73.374164 C157.7,65.774164 156.3,58.174164 154.8,50.674164 C152.3,37.874164 147.5,23.974164 135,17.974164 C128.2,14.674164 121.2,16.074164 114,17.174164 C107.5,18.174164 103.3,20.574164 98.9,25.574164 C89.5,36.174164 86.2,48.774164 85.3,62.674164 C84.8,70.574164 84.1,77.974164 86.9,85.574164 C89.3,92.074164 92.9,97.074164 99.8,99.074164 C103.4,100.174164 108.2,101.774164 111.6,99.474164 C114.8,97.174164 114,93.874164 111.4,91.474164 C108.8,88.974164 105.9,87.074164 103.6,84.074164 C101.4,81.174164 99.6,77.774164 98.4,74.374164 C93.3,59.574164 95.3,39.874164 108.4,29.874164" id="Path" fill="#CC5943"/>
                <circle id="Oval" fill="#DD962E" cx="123" cy="177.574164" r="4.2"/>
                <path d="M125.2,173.974164 C125.7,174.674164 126,175.574164 126,176.474164 C126,178.774164 124.1,180.674164 121.8,180.674164 C121,180.674164 120.3,180.474164 119.6,180.074164 C120.4,181.074164 121.6,181.774164 123,181.774164 C125.3,181.774164 127.2,179.874164 127.2,177.574164 C127.2,175.974164 126.4,174.674164 125.2,173.974164 Z" id="Path" fill="#D3841C"/>
                <circle id="Oval" fill="#DD962E" cx="123" cy="194.674164" r="4.2"/>
                <path d="M125.2,191.074164 C125.7,191.774164 126,192.674164 126,193.574164 C126,195.874164 124.1,197.774164 121.8,197.774164 C121,197.774164 120.3,197.574164 119.6,197.174164 C120.4,198.174164 121.6,198.874164 123,198.874164 C125.3,198.874164 127.2,196.974164 127.2,194.674164 C127.2,193.174164 126.4,191.774164 125.2,191.074164 Z" id="Path" fill="#D3841C"/>
                <circle id="Oval" fill="#DD962E" cx="123.6" cy="214.274164" r="4.2"/>
                <path d="M125.7,210.574164 C126.2,211.274164 126.5,212.174164 126.5,213.074164 C126.5,215.374164 124.6,217.274164 122.3,217.274164 C121.5,217.274164 120.8,217.074164 120.1,216.674164 C120.9,217.674164 122.1,218.374164 123.5,218.374164 C125.8,218.374164 127.7,216.474164 127.7,214.174164 C127.8,212.674164 127,211.374164 125.7,210.574164 Z" id="Path" fill="#D3841C"/>
                <path d="M111.5,91.474164 C110.9,90.874164 110.3,90.374164 109.7,89.874164 C110.4,91.674164 110,93.574164 107.9,94.974164 C104.5,97.374164 99.7,95.674164 96.1,94.574164 C93.5,93.774164 91.4,92.674164 89.7,91.174164 C92,94.874164 95.1,97.674164 99.9,99.074164 C103.5,100.174164 108.3,101.774164 111.7,99.474164 C114.9,97.174164 114,93.874164 111.5,91.474164 Z" id="Path" fill="#C24D3C"/>
                <path d="M159,73.274164 C157.8,65.674164 156.4,58.074164 154.9,50.574164 C152.9,40.774164 149.6,30.274164 142.5,23.174164 C147.1,29.774164 149.6,38.174164 151.2,46.074164 C152.7,53.574164 154.1,61.174164 155.3,68.774164 C156.4,75.374164 157.9,85.674164 152.9,91.174164 C148.8,95.674164 138.9,94.974164 133.4,94.474164 C133.1,94.474164 132.8,94.474164 132.5,94.474164 C132,95.474164 131.6,96.774164 132.1,97.674164 C132.8,98.974164 135.9,98.874164 137.2,98.974164 C142.7,99.374164 152.6,100.174164 156.7,95.674164 C161.6,90.174164 160,79.874164 159,73.274164 Z" id="Path" fill="#C24D3C"/>
                <path d="M101,24.874164 C88.5,38.074164 83.1,60.174164 86.3,77.774164 C86.6,79.274164 88.9,78.674164 88.7,77.174164 C85.7,60.574164 90.9,39.174164 102.8,26.674164 C103.9,25.474164 102.1,23.774164 101,24.874164 L101,24.874164 Z" id="Path" fill="#DB6450"/>
                <path d="M111.2,22.474164 C122.1,18.474164 134.7,17.974164 141.3,29.174164 C142.2,30.674164 144.6,29.274164 143.7,27.774164 C136.5,15.574164 122.6,15.374164 110.5,19.874164 C108.8,20.474164 109.5,23.074164 111.2,22.474164 L111.2,22.474164 Z" id="Path" fill="#DB6450"/>
                <path d="M123,137.474164 C123,136.174164 123.2,122.474164 123.2,114.574164 C118.9,114.874164 114.6,113.974164 110.8,111.774164 C109.9,111.274164 109.4,110.474164 109.1,109.574164 C107.8,109.774164 106.6,110.074164 105.8,110.774164 C102.4,113.774164 105.9,124.874164 106.8,128.674164 C108.4,135.574164 110,142.074164 113,148.474164 C114.5,151.774164 116.2,154.974164 118.1,158.074164 C119.5,160.374164 120.8,163.774164 122.9,165.374164 C124,163.474164 123.1,158.874164 123.1,156.774164 L123.1,137.474164 L123,137.474164 Z" id="Path" fill="#FFFFFF"/>
                <path d="M140.1,110.774164 C139.4,110.174164 138.5,109.874164 137.4,109.674164 C133.1,112.574164 127.9,114.374164 122.7,114.574164 C122.7,122.474164 122.9,136.174164 122.9,137.474164 L122.9,156.874164 C122.9,158.974164 122,163.574164 123.1,165.474164 C125.2,163.874164 126.5,160.474164 127.9,158.174164 C129.8,155.074164 131.5,151.874164 133,148.574164 C136,142.174164 137.6,135.674164 139.2,128.774164 C140,124.774164 143.4,113.774164 140.1,110.774164 Z" id="Path" fill="#FFFFFF"/>
                <path d="M135.5,107.874164 C136.7,107.074164 137.9,106.174164 139.4,106.174164 C140.3,106.174164 141.2,106.674164 141.9,107.174164 C144.8,108.874164 147.4,110.974164 150,113.074164 C151.1,113.974164 153.3,115.374164 152.7,117.074164 C152.2,118.674164 150,119.874164 148.7,120.674164 C143,123.674164 136.3,125.274164 130,123.774164 C124.4,122.474164 119.6,118.974164 115,115.574164 C114.7,115.374164 114.3,115.074164 114.2,114.774164 C113.8,114.074164 113.3,112.174164 113.6,111.374164 C114.2,109.974164 116.5,111.174164 117.6,111.374164 C120.6,112.074164 123.7,112.674164 126.8,111.974164 C129.6,111.274164 133,109.574164 135.5,107.874164 Z" id="Path" fill="#DD962E"/>
                <path d="M151.7,114.474164 C150.9,115.274164 149.9,115.974164 149.1,116.474164 C143.7,119.974164 137.2,122.174164 130.8,121.274164 C125.1,120.474164 120,117.474164 115.1,114.474164 C114.8,114.274164 114.4,114.074164 114.2,113.674164 C114,113.274164 113.7,112.674164 113.5,112.074164 C113.5,112.974164 113.9,114.074164 114.2,114.674164 C114.4,115.074164 114.7,115.274164 115,115.474164 C119.6,118.874164 124.4,122.374164 130,123.674164 C136.3,125.174164 143,123.574164 148.7,120.574164 C150.1,119.874164 152.2,118.574164 152.7,116.974164 C153,116.074164 152.4,115.274164 151.7,114.474164 Z" id="Path" fill="#D3841C"/>
                <path d="M110.8,141.174164 C110.3,142.374164 109.7,143.574164 109.1,144.674164 C107.1,148.374164 104.7,152.874164 101.7,155.874164 C100.4,157.174164 100.1,156.474164 100,154.974164 C99.7,152.074164 100.1,149.274164 100.3,146.374164 C100.8,137.574164 101,127.774164 106.1,120.274164 C106.9,119.074164 107.8,117.274164 109,116.474164 C114,113.374164 113.7,127.774164 113.5,129.874164 C113.2,133.774164 112.3,137.574164 110.8,141.174164 Z" id="Path" fill="#DD962E"/>
                <path d="M110.5,115.974164 C111.4,119.674164 111.3,125.274164 111.2,126.574164 C110.9,130.474164 110,134.274164 108.5,137.874164 C108,139.074164 107.4,140.274164 106.8,141.374164 C104.9,144.874164 102.7,148.974164 99.9,151.974164 C99.9,152.974164 99.9,153.974164 100,154.874164 C100.2,156.474164 100.4,157.074164 101.7,155.774164 C104.7,152.774164 107.1,148.374164 109.1,144.574164 C109.7,143.474164 110.3,142.274164 110.8,141.074164 C112.3,137.474164 113.3,133.674164 113.5,129.774164 C113.8,127.974164 114,116.274164 110.5,115.974164 Z" id="Path" fill="#D3841C"/>
                <path d="M101.9,131.974164 C101.2,132.774164 100.4,133.474164 99.6,134.174164 C97,136.574164 94,139.274164 90.8,140.774164 C89.5,141.474164 89.4,140.874164 89.7,139.574164 C90.2,137.274164 91.4,135.174164 92.3,132.974164 C95.1,126.274164 97.8,118.774164 103.9,114.374164 C104.8,113.674164 106,112.474164 107.2,112.274164 C111.9,111.174164 107.7,122.274164 107.1,123.874164 C105.8,126.874164 104.1,129.674164 101.9,131.974164 Z" id="Path" fill="#DD962E"/>
                <path d="M108.5,112.474164 C108.2,115.574164 106.6,119.874164 106.2,120.874164 C104.9,123.774164 103.2,126.474164 101,128.874164 C100.3,129.674164 99.5,130.374164 98.7,131.074164 C96.3,133.274164 93.4,135.874164 90.5,137.374164 C90.2,138.074164 90,138.874164 89.8,139.674164 C89.5,140.974164 89.5,141.574164 90.9,140.874164 C94,139.374164 97.1,136.574164 99.7,134.274164 C100.5,133.574164 101.2,132.774164 102,132.074164 C104.2,129.774164 105.9,126.974164 107.2,124.074164 C107.8,122.674164 111.2,113.674164 108.5,112.474164 Z" id="Path" fill="#D3841C"/>
                <circle id="Oval" fill="#DD962E" cx="108.6" cy="112.674164" r="5.5"/>
                <path d="M111.4,107.974164 C112.1,108.874164 112.5,110.074164 112.5,111.274164 C112.5,114.274164 110,116.774164 107,116.774164 C106,116.774164 105,116.474164 104.2,115.974164 C105.2,117.274164 106.8,118.174164 108.6,118.174164 C111.6,118.174164 114.1,115.674164 114.1,112.674164 C114.1,110.674164 113.1,108.874164 111.4,107.974164 Z" id="Path" fill="#D3841C"/>
                <path d="M89.2,144.474164 C87.9,137.774164 86.7,130.974164 84.9,124.274164 C86.1,129.574164 87.1,134.874164 88.1,140.074164 C89.7,148.374164 88.1,153.574164 85.5,161.374164 C83.1,168.774164 80.5,175.074164 76.6,181.874164 C75.2,184.174164 74,186.374164 71.1,186.274164 C68.5,186.274164 64.3,184.274164 62.1,182.974164 C58.9,181.174164 56.3,178.474164 54,175.774164 C52.3,173.774164 50.5,171.674164 48.9,169.474164 C48.4,170.374164 48.1,171.074164 48.3,171.374164 C50.2,174.474164 52.7,177.374164 55.1,180.174164 C57.5,182.974164 60.1,185.574164 63.2,187.374164 C65.4,188.674164 69.6,190.574164 72.2,190.674164 C75.1,190.674164 76.4,188.574164 77.7,186.274164 C81.6,179.474164 84.2,173.274164 86.6,165.774164 C89.2,157.974164 90.8,152.774164 89.2,144.474164 Z" id="Path" fill="#0D59A5"/>
                <path d="M198,172.574164 C197.9,171.274164 197.4,169.974164 196.9,168.774164 C189.5,151.974164 180,136.074164 168.8,121.674164 C168,120.574164 166.6,119.474164 165.5,120.174164 C165.1,120.474164 164.8,120.874164 164.6,121.374164 C164.4,121.774164 164.2,122.174164 164,122.674164 C164.4,122.974164 164.8,123.374164 165.1,123.874164 C176.3,138.274164 185.8,154.174164 193.2,170.974164 C193.7,172.174164 194.3,173.474164 194.3,174.774164 C194.4,176.874164 193.3,178.874164 192.1,180.674164 C189.9,183.974164 187.5,186.974164 185,189.974164 C181.6,194.174164 178.1,198.474164 174.7,202.674164 C173,204.774164 171.2,206.974164 169.5,209.074164 C169.8,209.474164 170.1,209.774164 170.4,210.174164 C173.1,207.074164 175.8,203.774164 178.4,200.574164 C181.8,196.374164 185.3,192.074164 188.7,187.874164 C191.2,184.874164 193.6,181.774164 195.8,178.574164 C197,176.674164 198.1,174.674164 198,172.574164 Z" id="Path" fill="#2D6ABA"/>
                <path d="M89.9,155.574164 C97.2,179.174164 94.2,206.874164 87.2,230.174164 C86.2,233.574164 91.5,234.974164 92.5,231.674164 C99.8,207.474164 102.8,178.574164 95.2,154.174164 C94.2,150.774164 88.9,152.274164 89.9,155.574164 L89.9,155.574164 Z" id="Path" fill="#2D6ABA"/>
                <path d="M164.5,235.674164 C161.3,219.874164 157,203.774164 156,187.574164 C154.9,171.674164 159,156.074164 162.4,140.674164 C163.6,135.274164 165.3,129.974164 166.4,124.574164 C167.4,119.774164 167,117.374164 162,116.074164 C160.8,115.774164 159.7,115.474164 158.5,115.174164 C159.4,116.574164 159.3,118.574164 158.8,121.274164 C157.7,126.674164 156,131.974164 154.8,137.374164 C151.4,152.774164 147.4,168.374164 148.4,184.274164 C149.5,200.674164 153.9,216.974164 157.1,232.974164 C145.9,234.574164 134.2,233.874164 122.7,233.374164 L122.7,235.674164 L164.5,235.674164 L164.5,235.674164 Z" id="Path" fill="#0154C0"/>
                <path d="M153.3,154.874164 L140,154.874164 C138.4,154.874164 137.1,153.574164 137.1,151.974164 L137.1,147.774164 C137.1,146.174164 138.4,144.874164 140,144.874164 L153.3,144.874164 C154.9,144.874164 156.2,146.174164 156.2,147.774164 L156.2,151.974164 C156.2,153.574164 154.9,154.874164 153.3,154.874164 Z" id="Path" fill="#FFFFFF"/>
                <circle id="Oval" fill="#61606C" cx="123" cy="144.974164" r="2.8"/>
                <circle id="Oval" fill="#61606C" cx="123.5" cy="129.574164" r="2.8"/>
                <path d="M48.3,112.474164 C48.2,112.874164 48.2,113.274164 48.2,113.674164 L48.2,136.374164 C48.2,140.474164 51.5,143.774164 55.6,143.774164 L57.8,143.774164 C61.9,143.774164 65.2,140.474164 65.2,136.374164 L65.2,113.674164 C65.2,113.274164 65.2,112.874164 65.1,112.474164 L48.3,112.474164 Z" id="Path" fill="#A1DEE8"/>
                <path d="M65.1,112.474164 L56.7,112.474164 L56.7,143.674164 L57.8,143.674164 C61.9,143.674164 65.2,140.374164 65.2,136.274164 L65.2,113.574164 C65.2,113.274164 65.2,112.874164 65.1,112.474164 Z" id="Path" fill="#8AD5DD"/>
                <path d="M50.5,123.074164 C50.5,123.274164 50.4,123.474164 50.4,123.774164 L50.4,136.774164 C50.4,139.074164 52.8,140.974164 55.8,140.974164 L57.4,140.974164 C60.4,140.974164 62.8,139.074164 62.8,136.774164 L62.8,123.774164 C62.8,123.574164 62.8,123.274164 62.7,123.074164 L50.5,123.074164 L50.5,123.074164 Z" id="Path" fill="#FF7680"/>
                <path d="M62.8,123.074164 L56.6,123.074164 L56.6,141.074164 L57.4,141.074164 C60.4,141.074164 62.8,139.174164 62.8,136.874164 L62.8,123.874164 C62.9,123.474164 62.9,123.274164 62.8,123.074164 Z" id="Path" fill="#F45E6C"/>
                <path d="M27.8,112.474164 C27.7,112.874164 27.7,113.274164 27.7,113.674164 L27.7,136.374164 C27.7,140.474164 31,143.774164 35.1,143.774164 L37.3,143.774164 C41.4,143.774164 44.7,140.474164 44.7,136.374164 L44.7,113.674164 C44.7,113.274164 44.7,112.874164 44.6,112.474164 L27.8,112.474164 Z" id="Path" fill="#A1DEE8"/>
                <path d="M44.6,112.474164 L36.2,112.474164 L36.2,143.674164 L37.3,143.674164 C41.4,143.674164 44.7,140.374164 44.7,136.274164 L44.7,113.574164 C44.7,113.274164 44.7,112.874164 44.6,112.474164 Z" id="Path" fill="#8AD5DD"/>
                <path d="M30.1,123.074164 C30.1,123.274164 30,123.474164 30,123.774164 L30,136.774164 C30,139.074164 32.4,140.974164 35.4,140.974164 L37,140.974164 C40,140.974164 42.4,139.074164 42.4,136.774164 L42.4,123.774164 C42.4,123.574164 42.4,123.274164 42.3,123.074164 L30.1,123.074164 L30.1,123.074164 Z" id="Path" fill="#FFCD76"/>
                <path d="M42.4,123.074164 L36.2,123.074164 L36.2,141.074164 L37,141.074164 C40,141.074164 42.4,139.174164 42.4,136.874164 L42.4,123.874164 C42.4,123.474164 42.4,123.274164 42.4,123.074164 Z" id="Path" fill="#F4AE58"/>
                <path d="M7.4,112.474164 C7.3,112.874164 7.3,113.274164 7.3,113.674164 L7.3,136.374164 C7.3,140.474164 10.6,143.774164 14.7,143.774164 L17,143.774164 C21.1,143.774164 24.4,140.474164 24.4,136.374164 L24.4,113.674164 C24.4,113.274164 24.4,112.874164 24.3,112.474164 L7.4,112.474164 Z" id="Path" fill="#A1DEE8"/>
                <path d="M24.3,112.474164 L15.9,112.474164 L15.9,143.674164 L17,143.674164 C21.1,143.674164 24.4,140.374164 24.4,136.274164 L24.4,113.574164 C24.4,113.274164 24.3,112.874164 24.3,112.474164 Z" id="Path" fill="#8AD5DD"/>
                <path d="M9.7,123.074164 C9.7,123.274164 9.6,123.474164 9.6,123.774164 L9.6,136.774164 C9.6,139.074164 12,140.974164 15,140.974164 L16.6,140.974164 C19.6,140.974164 22,139.074164 22,136.774164 L22,123.774164 C22,123.574164 22,123.274164 21.9,123.074164 L9.7,123.074164 L9.7,123.074164 Z" id="Path" fill="#FF7680"/>
                <path d="M22,123.074164 L15.8,123.074164 L15.8,141.074164 L16.6,141.074164 C19.6,141.074164 22,139.174164 22,136.874164 L22,123.874164 C22.1,123.474164 22.1,123.274164 22,123.074164 Z" id="Path" fill="#F45E6C"/>
                <path d="M68.3,146.974164 L2.1,146.974164 C0.9,146.974164 0,145.974164 0,144.874164 L0,144.874164 C0,143.774164 0.9,142.774164 2.1,142.774164 L68.4,142.774164 C69.5,142.774164 70.5,143.674164 70.5,144.874164 L70.5,144.874164 C70.4,145.974164 69.5,146.974164 68.3,146.974164 Z" id="Path" fill="#AD6A4D"/>
                <path d="M38.5,145.374164 L3.1,145.374164 C2.6,145.374164 2.2,144.974164 2.2,144.474164 L2.2,144.474164 C2.2,143.974164 2.6,143.574164 3.1,143.574164 L38.4,143.574164 C38.9,143.574164 39.3,143.974164 39.3,144.474164 L39.3,144.474164 C39.3,145.074164 39,145.374164 38.5,145.374164 Z" id="Path" fill="#BC7659"/>
                <path d="M119.2,114.774164 C126.8,117.874164 133.7,115.374164 140,110.874164 C141,110.174164 140,108.574164 139.1,109.274164 C133.1,113.574164 126.9,115.874164 119.7,112.974164 C118.6,112.574164 118.1,114.374164 119.2,114.774164 L119.2,114.774164 Z" id="Path" fill="#F4AE58"/>
                <path d="M114.1,27.374164 C124,33.274164 136.3,33.174164 147.9,32.774164 C147.2,23.774164 145.8,15.474164 141.6,4.97416395 C141.5,4.77416395 141.4,4.67416395 141.2,4.57416395 C140.9,4.57416395 140.7,4.67416395 140.6,4.87416395 C138,7.37416395 135.3,9.87416395 132.7,12.374164 C132.2,12.874164 131.5,13.374164 130.8,13.374164 C130.1,13.374164 129.5,12.774164 129.1,12.274164 C126.2,9.27416395 123.3,6.17416395 120.3,3.17416395 C120.1,2.87416395 119.8,2.67416395 119.4,2.57416395 C119,2.57416395 118.6,2.77416395 118.3,3.07416395 C113.9,6.87416395 110,11.474164 106.8,16.274164 C105.1,18.874164 105,19.874164 107.2,22.074164 C109.2,24.074164 111.7,25.874164 114.1,27.374164 Z" id="Path" fill="#0154C0"/>
                <path d="M141.6,4.97416395 C141.5,4.77416395 141.4,4.67416395 141.2,4.57416395 C140.9,4.57416395 140.7,4.67416395 140.6,4.87416395 C140.1,5.27416395 139.7,5.77416395 139.2,6.17416395 C142.2,14.674164 143.2,21.874164 143.9,29.674164 C132.3,29.974164 120.1,30.174164 110.1,24.274164 C109.5,23.974164 109,23.574164 108.4,23.174164 C110.2,24.674164 112.1,26.074164 114.1,27.274164 C124,33.174164 136.3,33.074164 147.9,32.674164 C147.1,23.774164 145.8,15.474164 141.6,4.97416395 Z" id="Path" fill="#0154C0"/>
                <path d="M131.8,13.374164 C134.1,12.074164 136.3,10.474164 137.8,8.37416395 C138.6,7.27416395 141.3,4.87416395 140.9,3.47416395 C140.6,2.47416395 137.5,2.77416395 136.6,2.77416395 C133.3,2.57416395 130,1.97416395 126.7,1.17416395 C125.8,0.974163952 123.2,-0.225836048 122.3,0.274163952 C121.2,0.874163952 122.3,2.37416395 122.7,3.17416395 C124.7,6.67416395 126.5,10.574164 129.6,13.374164 C129.9,13.674164 130.2,13.874164 130.6,13.974164 C131.1,13.774164 131.5,13.574164 131.8,13.374164 Z" id="Path" fill="#0154C0"/>
                <path d="M117.7,5.67416395 C115.6,7.07416395 113.9,8.97416395 112.4,10.974164 C110.6,13.474164 108.6,15.774164 107,18.474164 C106.2,19.874164 108.3,21.074164 109.1,19.674164 C110.4,17.474164 112,15.574164 113.5,13.474164 C115.1,11.374164 116.6,9.27416395 118.9,7.77416395 C120.2,6.97416395 119,4.87416395 117.7,5.67416395 L117.7,5.67416395 Z" id="Path" fill="#47729D"/>
                <path d="M125.1,12.674164 C126.1,13.874164 127.3,15.074164 128.9,15.474164 C131,15.974164 133.2,14.874164 135,13.774164 C137,12.474164 139,10.974164 140.7,9.37416395 C141.3,8.77416395 141.9,8.27416395 142.3,7.57416395 C143.7,5.47416395 142.5,2.77416395 139.9,3.97416395 C138,4.87416395 136.7,6.57416395 135.1,7.87416395 C134.9,7.97416395 134.8,8.17416395 134.6,8.27416395 C133.7,8.97416395 132.8,9.67416395 132,10.374164 C131.7,10.674164 131.4,10.874164 131,10.974164 C130.3,11.074164 129.7,10.474164 129.3,9.87416395 C127.3,7.27416395 125.5,4.47416395 124.1,1.57416395 C123.2,-0.225836048 120.6,-0.725836048 119.4,1.37416395 C118.7,2.57416395 119.5,3.67416395 120.1,4.77416395 C121.4,7.67416395 123.1,10.274164 125.1,12.674164 Z" id="Path" fill="#D3841C"/>
            </g>
            <g id="Group" transform="translate(103.000000, 52.000000)">
                <path d="M14.0103459,2.56132656 L12.6164032,3.03479987 C12.5562075,2.93394165 12.4901103,2.83728586 12.4275541,2.74063006 L13.0424941,2.41704328 C13.9891004,1.92395866 13.3588164,0.26400049 12.415751,0.755684303 L11.1776088,1.40425868 C9.87218912,0.38306922 8.12769518,-0.124023487 6.28169483,0.0258630315 C3.40646666,0.26400049 0.871166939,2.05843628 0.0602959395,4.62611841 C-0.319762957,5.81960733 1.20637416,6.47938817 1.58171183,5.28730006 C1.99954056,3.97334161 3.25538734,2.73502683 5.01404497,2.19571552 C4.42861263,2.72382036 4.07215988,3.57411117 4.12881462,4.50704968 C4.21615735,5.98210112 5.30440053,7.09574394 6.56378823,6.99348492 C7.81845472,6.88702347 8.77096257,5.60948604 8.68598046,4.13303379 C8.62814541,3.15807102 8.1300558,2.34280043 7.43603521,1.92395866 C9.38236167,2.08925407 10.855385,3.1552694 11.4915705,4.5252602 C11.6367483,4.88806962 11.9636934,5.14301678 12.3980464,4.9987335 L14.4387974,4.31233729 C15.4267145,3.97754404 15.0006236,2.22933493 14.0103459,2.56132656 Z" id="Path" fill="url(#linearGradient-1)" transform="translate(7.500000, 3.500000) scale(-1, 1) translate(-7.500000, -3.500000) "/>
                <path d="M38.0103459,2.56132656 L36.6164032,3.03479987 C36.5562075,2.93394165 36.4901103,2.83728586 36.4275541,2.74063006 L37.0424941,2.41704328 C37.9891004,1.92395866 37.3588164,0.26400049 36.415751,0.755684303 L35.1776088,1.40425868 C33.8721891,0.38306922 32.1276952,-0.124023487 30.2816948,0.0258630315 C27.4064667,0.26400049 24.8711669,2.05843628 24.0602959,4.62611841 C23.680237,5.81960733 25.2063742,6.47938817 25.5817118,5.28730006 C25.9995406,3.97334161 27.2553873,2.73502683 29.014045,2.19571552 C28.4286126,2.72382036 28.0721599,3.57411117 28.1288146,4.50704968 C28.2161573,5.98210112 29.3044005,7.09574394 30.5637882,6.99348492 C31.8184547,6.88702347 32.7709626,5.60948604 32.6859805,4.13303379 C32.6281454,3.15807102 32.1300558,2.34280043 31.4360352,1.92395866 C33.3823617,2.08925407 34.855385,3.1552694 35.4915705,4.5252602 C35.6367483,4.88806962 35.9636934,5.14301678 36.3980464,4.9987335 L38.4387974,4.31233729 C39.4267145,3.97754404 39.0006236,2.22933493 38.0103459,2.56132656 Z" id="Path" fill="url(#linearGradient-1)"/>
                <path d="M16.2839859,20.8236245 C16.5150672,20.628222 16.7517301,20.7364856 16.9783461,20.9345286 C17.8033174,21.659366 18.3637174,22 19.4923318,22 C20.1587836,22 20.6789956,21.8534482 21.1065517,21.6210777 C21.4972689,21.4124724 22.3211239,20.4922325 22.71519,20.8262651 C23.3738275,21.6699283 24.4533231,20.5173179 23.7946857,19.6710141 C23.7946857,19.6710141 23.7165422,19.5653912 23.5636044,19.4386437 C22.0029685,18.0945917 21.0384553,20.2875881 19.4912155,20.2875881 C17.9450919,20.2875881 17.0084871,18.0879903 15.4355716,19.4386437 C15.2826337,19.5653912 15.2044903,19.6710141 15.2044903,19.6710141 C14.5469692,20.5146774 15.6286975,21.6699283 16.2839859,20.8236245 Z" id="Path" fill="url(#linearGradient-2)"/>
                <path d="M28.0001467,26.0715155 L27.9461999,26.0948923 L27.8023417,26.1489512 C25.4848755,27.0562641 21.8164907,25.0736175 18.9943969,26.7801254 C16.1734269,25.0765396 12.5129094,27.0562641 10.1988149,26.1489512 L10.0538328,26.0948923 L10.0010099,26.0715155 C9.08953311,25.628817 8.57591428,27.367468 9.45255036,27.8320823 C9.56831128,27.8949075 9.70317836,27.9518885 9.85490384,28.0088695 C10.4663013,28.3054629 11.0327431,28.7423173 11.4980345,29.3413483 C12.2229451,30.2603496 12.8523249,31.042012 13.4648462,31.6790304 C14.9944638,33.462974 16.6623201,34.943019 18.92022,35 L19.0786888,35 C21.0432527,34.9547074 22.5627553,33.8180095 23.9316562,32.3496529 C25.5714152,30.897368 26.3064409,28.8884224 28.1473766,28.0001032 C28.300226,27.9489664 28.4339692,27.8949075 28.5452345,27.8320823 C29.4252423,27.367468 28.9104996,25.628817 28.0001467,26.0715155 Z" id="Path" fill="url(#linearGradient-3)"/>
            </g>
            <path d="M156.093028,55.0032905 L154.695458,55.0032905 L153.297888,55.0032905 L151.900317,55.0032905 L150.502747,55.0032905 C150.462015,54.7083409 150.415852,54.4098053 150.364258,54.1148556 C150.312663,53.819906 150.255638,53.5276459 150.194087,53.2425578 C150.132536,52.9574697 150.064649,52.6804501 149.992236,52.4159816 C149.919823,52.1515131 149.841979,51.8995956 149.758704,51.6647117 L151.205153,50.6005622 L152.651602,49.5364126 L154.098051,48.472263 L155.5445,47.4081134 C155.617818,47.3543232 155.680274,47.291568 155.732773,47.2216407 C155.785273,47.1517134 155.826005,47.0746142 155.855875,46.9939288 C155.885746,46.9132435 155.902944,46.8271792 155.908375,46.7402184 C155.913806,46.6532575 155.905659,46.5645037 155.883935,46.4775429 C155.862211,46.3896855 155.82872,46.3081037 155.784367,46.2327974 C155.740015,46.1574911 155.6848,46.0902534 155.620533,46.0310842 C155.556267,45.9719149 155.484759,45.9226072 155.40601,45.8840576 C155.327261,45.8455079 155.242175,45.8177163 155.152564,45.8033723 C154.90274,45.7621331 153.271638,45.5048366 150.870243,45.2923653 C148.468848,45.079894 145.295351,44.9122479 141.959829,45.0503094 C138.624307,45.1883709 135.12314,45.6366226 132.072744,46.6496715 C129.022349,47.6627204 126.418198,49.2441525 124.870371,51.6557467 C124.329084,51.4737565 123.774219,51.3365915 123.213924,51.2451481 C122.653629,51.1537048 122.085187,51.1070866 121.517651,51.1061901 C120.950114,51.1052936 120.381672,51.1492223 119.820472,51.2388726 C119.259272,51.328523 118.703502,51.4629985 118.16131,51.6431957 C116.610768,49.2360839 114.006617,47.6564449 110.956221,46.645189 C107.905825,45.6339331 104.409184,45.1892674 101.075473,45.0512059 C97.7417611,44.9131444 94.5700736,45.0825835 92.169584,45.2950548 C89.7690945,45.5075261 88.1398029,45.7648226 87.889073,45.8060618 C87.799462,45.8204058 87.7143768,45.8481975 87.6356277,45.8867471 C87.5568786,45.9252967 87.4844656,45.9746044 87.4211043,46.0328772 C87.357743,46.0911499 87.3016229,46.1592841 87.25727,46.2345904 C87.212917,46.3098967 87.1785209,46.3914785 87.156797,46.4784394 C87.1359783,46.5662967 87.1278318,46.6550505 87.1332628,46.7420114 C87.1377886,46.8289722 87.1558918,46.91414 87.1857622,46.9948253 C87.2156325,47.0755107 87.2563648,47.1526099 87.3088642,47.2225372 C87.3613636,47.2924645 87.4238198,47.3561162 87.4971379,47.4090099 L88.9426816,48.4731595 L90.3882252,49.5373091 L91.8337689,50.6014587 L93.2793126,51.6656082 C93.197848,51.8995956 93.1190989,52.1524096 93.046686,52.4168781 C92.974273,52.6813466 92.9063859,52.9583662 92.8448348,53.2434543 C92.7832838,53.5285424 92.7253535,53.8208025 92.6737592,54.1157521 C92.622165,54.4107018 92.5760017,54.7083409 92.5352694,55.0032905 L91.1277426,55.0032905 L89.7202157,55.0032905 L88.3126888,55.0032905 L86.905162,55.0032905 C86.7802496,55.0032905 86.6607682,55.0283926 86.553054,55.0741143 C86.4453397,55.119836 86.3475822,55.1852807 86.2652125,55.265966 C86.1828427,55.3466513 86.1167659,55.4434737 86.0715078,55.5510541 C86.0262497,55.6586345 86,55.7760765 86,55.899794 C86,56.0235114 86.0253445,56.1418499 86.0715078,56.2485338 C86.1176711,56.3552177 86.1837479,56.4520401 86.2652125,56.5336219 C86.346677,56.6152037 86.4444345,56.6806485 86.553054,56.7254736 C86.6616734,56.7702988 86.7802496,56.7962974 86.905162,56.7962974 L88.2665256,56.7962974 L89.6278892,56.7962974 L90.9892528,56.7962974 L92.3506164,56.7962974 C92.3442803,56.8967058 92.3379441,56.9953212 92.3325132,57.0921435 C92.3270822,57.1889659 92.3234615,57.2839953 92.3189357,57.3763351 C92.3144099,57.468675 92.3116944,57.5583253 92.3098841,57.6452862 C92.3080738,57.732247 92.3071686,57.8156218 92.3071686,57.8963071 C92.3071686,59.5647 92.650225,61.1550971 93.2693558,62.6029502 C93.8884866,64.0508032 94.7845969,65.3543192 95.8907049,66.4507429 C96.9968128,67.5471666 98.3138235,68.4338085 99.7756601,69.0470168 C101.237497,69.6602252 102.843254,70 104.52776,70 C106.119035,70 107.638802,69.7041539 109.032752,69.1635623 C110.426701,68.6229707 111.695738,67.8358407 112.782838,66.8532729 C113.869937,65.8707052 114.776909,64.6918032 115.447634,63.3676676 C116.118359,62.043532 116.552837,60.5723699 116.696758,59.0052819 L116.694948,58.9873518 L116.693137,58.9712147 L116.691327,58.9550777 L116.689517,58.9389406 C117.047961,58.7022637 117.419982,58.4933784 117.803771,58.3131812 C118.18756,58.132984 118.58221,57.9805784 118.985913,57.858654 C119.389615,57.7367295 119.803274,57.6434932 120.222364,57.5816344 C120.641454,57.5197757 121.06869,57.4883981 121.499547,57.4883981 C121.934025,57.4883981 122.363977,57.5206722 122.787593,57.5834274 C123.211209,57.6461827 123.627583,57.741212 124.034001,57.8649295 C124.440419,57.988647 124.83869,58.1437421 125.225194,58.3275253 C125.611698,58.5113085 125.98553,58.7237798 126.34669,58.9640427 L126.345785,58.9739042 L126.344879,58.9837658 L126.343974,58.9936273 L126.343069,59.0034889 C126.48699,60.5705769 126.921468,62.041739 127.592193,63.3658746 C128.262918,64.6900102 129.16989,65.8689122 130.25699,66.8514799 C131.344089,67.8340477 132.613126,68.6211777 134.007076,69.1617693 C135.401025,69.7023609 136.921697,69.998207 138.512067,69.998207 C140.196573,69.998207 141.80233,69.6584322 143.264167,69.0452238 C144.726004,68.4320155 146.042109,67.5444771 147.149122,66.4489499 C148.256135,65.3534227 149.151341,64.0490102 149.770471,62.6011571 C150.389602,61.1533041 150.732658,59.562907 150.732658,57.8945141 C150.732658,57.8138288 150.731753,57.730454 150.729943,57.6434932 C150.728133,57.5565323 150.724512,57.466882 150.720891,57.3745421 C150.717271,57.2822023 150.712745,57.1871729 150.707314,57.0903505 C150.701883,56.9935282 150.695547,56.8949128 150.689211,56.7945044 L152.040618,56.7945044 L153.392024,56.7945044 L154.743431,56.7945044 L156.094838,56.7945044 C156.21975,56.7945044 156.339232,56.7694023 156.446946,56.7236806 C156.55466,56.677959 156.652418,56.6125142 156.734788,56.5318289 C156.817157,56.4511436 156.883234,56.3543212 156.928492,56.2467408 C156.97375,56.1391604 157,56.0217184 157,55.898001 C157,55.7742835 156.974655,55.655945 156.928492,55.5492611 C156.882329,55.4425772 156.816252,55.3457548 156.734788,55.264173 C156.653323,55.1825912 156.555565,55.1171465 156.446946,55.0723213 C156.338327,55.0274961 156.21794,55.0032905 156.093028,55.0032905 Z M104.523793,67 C103.07334,67 101.68969,66.7247012 100.43141,66.2262564 C99.1731306,65.7278117 98.0383911,65.007076 97.0857591,64.1170571 C96.1331271,63.2270383 95.3616873,62.1668813 94.8281767,60.9913041 C94.2946662,59.8157269 94,58.5230194 94,57.1678994 C94,56.8045392 94.0219627,56.3685069 94.0640579,55.8965661 C94.106153,55.4246252 94.1683807,54.9159209 94.2489106,54.4089265 C94.3294405,53.9019321 94.4273575,53.3949377 94.5426617,52.9272717 C94.6579658,52.4596057 94.7879118,52.0304131 94.9334147,51.6773125 C96.4067457,51.3378913 97.9349834,51.1284248 99.4623061,51.0437832 C100.989629,50.9591417 102.514206,50.9976151 103.980216,51.1557837 C105.446226,51.3139522 106.853669,51.590961 108.144893,51.9808252 C109.436116,52.3706893 110.610206,52.8751188 111.611339,53.486419 C112.100924,53.7856568 112.539263,54.1037039 112.92544,54.4405602 C113.311618,54.7774165 113.645634,55.1313722 113.927488,55.5032821 C114.209343,55.8751919 114.438121,56.2642011 114.613823,56.6703096 C114.789524,57.0764181 114.912149,57.498771 114.981698,57.9373682 L114.986273,57.9749866 L114.990849,58.0126051 L114.995424,58.0502236 L115,58.0878421 C114.87463,59.3583204 114.498518,60.550997 113.921082,61.6248334 C113.343647,62.6986697 112.56214,63.6545209 111.62598,64.4504936 C110.68982,65.2464662 109.598091,65.8851253 108.398379,66.3237225 C107.198667,66.7623197 105.892801,67 104.523793,67 Z M117.231082,56.9808058 C117.073637,56.5524255 116.875,56.1362597 116.636086,55.7349258 C116.397172,55.3335919 116.117067,54.9470899 115.796684,54.5771647 C115.476302,54.2072396 115.117474,53.8538912 114.719284,53.5188647 C114.321094,53.1838381 113.883544,52.8671333 113.408462,52.5713677 C112.308177,51.8856102 111.022986,51.3193804 109.613303,50.8796581 C108.203621,50.4399357 106.670362,50.1267208 105.076688,49.9452481 C103.483015,49.7637754 101.827095,49.7149173 100.173007,49.8047812 C98.5189178,49.8946451 96.8657445,50.1223585 95.2766477,50.4957735 L94.2074858,49.7384739 L93.1383238,48.9820467 L92.0691619,48.2247471 L91,47.4674475 C92.5167819,47.3034241 94.6990439,47.1123543 97.1833808,47.0355773 C99.6677177,46.957928 102.454129,46.993699 105.179211,47.28074 C107.904292,47.567781 110.568043,48.1078368 112.806143,49.0396294 C115.044243,49.971422 116.858523,51.2932065 117.884662,53.1463221 L117.894731,53.1585366 L117.904801,53.1707512 L117.91487,53.1829657 L117.924939,53.1951802 C117.981692,53.2902789 118.054007,53.3722906 118.138222,53.4394704 C118.222437,53.5066502 118.316721,53.5589981 118.418328,53.5930242 C118.519935,53.6270503 118.627034,53.6453721 118.73688,53.6427547 C118.846725,53.6401373 118.957486,53.6191982 119.066416,53.5755749 C119.611066,53.3557137 120.17677,53.1908178 120.752543,53.0808873 C121.328316,52.9709567 121.914158,52.9168638 122.5,52.9186088 C123.085842,52.9203537 123.670769,52.9761915 124.245627,53.087867 C124.820484,53.1995425 125.384357,53.3661833 125.927177,53.5886619 C125.956469,53.6008764 125.986676,53.611346 126.015968,53.6200706 C126.04526,53.6287953 126.076383,53.6366475 126.105675,53.6418822 C126.134967,53.647117 126.16609,53.6523518 126.196298,53.6549692 C126.226505,53.6575866 126.256713,53.6593315 126.28692,53.6593315 C126.373881,53.6593315 126.459011,53.647117 126.541395,53.6244329 C126.623779,53.6017489 126.701587,53.5677227 126.773902,53.5240995 C126.846216,53.4804762 126.913039,53.4263834 126.970708,53.3635659 C127.028377,53.3007484 127.077807,53.2292063 127.116253,53.149812 L127.116253,53.149812 L127.116253,53.149812 L127.116253,53.149812 L127.116253,53.149812 L127.118999,53.1454497 L127.121745,53.1410873 L127.124491,53.136725 L127.127238,53.1323627 L127.127238,53.1323627 L127.127238,53.1323627 L127.127238,53.1323627 L127.127238,53.1323627 C128.157038,51.2836094 129.973149,49.9644423 132.212164,49.0361396 C134.45118,48.1078368 137.114015,47.5695259 139.836351,47.2824849 C142.558686,46.9954439 145.343267,46.9605453 147.823942,47.0390672 C150.305533,47.1167166 152.485049,47.3069139 154,47.4718098 L152.933584,48.2247471 L151.864422,48.9820467 L150.79526,49.7384739 L149.726098,50.4957735 C148.136086,50.1223585 146.483828,49.8946451 144.828824,49.8047812 C143.17382,49.7149173 141.519731,49.7637754 139.925142,49.9452481 C138.330553,50.1267208 136.79821,50.4408082 135.389443,50.8805306 C133.980675,51.3202529 132.694569,51.8864827 131.594284,52.5722402 C131.117372,52.8697507 130.678906,53.187328 130.278885,53.5240995 C129.878865,53.860871 129.519121,54.2150917 129.198739,54.5867618 C128.878356,54.9584319 128.598251,55.3458064 128.359337,55.7488852 C128.120423,56.151964 127.921786,56.5698748 127.765256,57 C127.363405,56.7792664 126.948739,56.5838342 126.524919,56.4154485 C126.101098,56.2470627 125.665378,56.1057234 125.222335,55.9914305 C124.779292,55.8771376 124.328011,55.7907635 123.870321,55.7331808 C123.412632,55.6755981 122.948535,55.6459343 122.480777,55.6459343 C122.015765,55.6459343 121.55533,55.6747257 121.101302,55.7323084 C120.647274,55.7898911 120.198739,55.8745202 119.758442,55.9870681 C119.318145,56.0996161 118.886086,56.2392105 118.464097,56.4049789 C118.042107,56.5707472 117.631103,56.763562 117.231082,56.9808058 Z M137.476666,67 C136.108632,67 134.800994,66.7605898 133.601333,66.3219562 C132.401673,65.8833225 131.310907,65.2454654 130.374788,64.4494265 C129.438668,63.6533877 128.658111,62.697457 128.079786,61.6235314 C127.50146,60.5496057 127.12628,59.35683 127,58.086246 L127.004575,58.0494794 L127.009151,58.0127128 L127.013726,57.9759463 L127.018301,57.9391797 C127.087847,57.499691 127.210467,57.0773031 127.386161,56.6711608 C127.561855,56.2650185 127.790623,55.875977 128.072465,55.5040362 C128.354307,55.1320953 128.688309,54.7772553 129.074469,54.441226 C129.46063,54.1051967 129.89895,53.7862681 130.388514,53.4870054 C131.389603,52.8756544 132.563641,52.3711829 133.854808,51.9812864 C135.145976,51.5913898 136.552442,51.314358 138.019304,51.1561763 C139.486165,50.9979945 141.010676,50.9586629 142.537932,51.0441665 C144.065188,51.1296701 145.593359,51.3391541 147.066626,51.6777485 C147.211207,52.0308785 147.342063,52.4601067 147.457362,52.9278116 C147.572661,53.3955165 147.670574,53.901698 147.7511,54.4087346 C147.831627,54.9157711 147.893852,55.4245178 147.935945,55.8973529 C147.978038,56.370188 148,56.8062565 148,57.169647 C148,58.5248796 147.705347,59.8176946 147.171859,60.9933696 C146.638372,62.1690446 145.866966,63.2292897 144.914375,64.1193825 C143.961785,65.0094754 142.827095,65.730271 141.56887,66.2287572 C140.310645,66.7272434 138.927056,67 137.476666,67 Z" id="Shape" fill="#444A50"/>
        </g>
    </g>
</svg>
