<svg id="icon-economy" viewBox="0 0 47 47">
    <path fill-rule="evenodd" clip-rule="evenodd" d="M4.874 16.898l3.193.49a.491.491 0 01-.15.973l-3.192-.491a.491.491 0 01.15-.973zM27.651 4.8a4.199 4.199 0 110 8.398 4.199 4.199 0 010-8.398zM8.413 9.027l1.91 2.606a.491.491 0 11-.792.58l-1.91-2.605a.492.492 0 01.792-.58zm8.222-1.3a.492.492 0 01.41.561l-.49 3.192a.49.49 0 11-.971-.149l.49-3.192a.492.492 0 01.561-.412z" fill="#0154c0"></path>
    <path fill-rule="evenodd" clip-rule="evenodd" d="M22.96 8.998a4.695 4.695 0 014.69-4.69.491.491 0 110 .983 3.712 3.712 0 00-3.707 3.707 3.712 3.712 0 003.708 3.708 3.712 3.712 0 003.707-3.708c0-.98-.377-1.902-1.063-2.6a.491.491 0 11.699-.688 4.657 4.657 0 011.347 3.288 4.696 4.696 0 01-4.69 4.69 4.696 4.696 0 01-4.69-4.69zm.28 10.642c0 .27.22.49.49.49h7.43a.491.491 0 100-.982h-7.43a.492.492 0 00-.49.492zm-10.766 6.947a1.13 1.13 0 112.164-.653 1.13 1.13 0 01-2.164.653zm28.875-3.654c-.187.462-.444.75-.763.85-.432.133-.934-.063-1.198-.205-.395-1.787-1.278-3.41-2.667-4.846-2.103-2.175-8.152-6.54-18.813-.163-.552-.1-2.442-.535-3.636-2.037a.88.88 0 00-.914-.306.858.858 0 00-.631.712c-.15 1.02-.255 2.603.139 4.248-.527.59-2.459 2.609-5.148 3.804-1.101.487-1.62 1.718-1.182 2.802.983 2.434 3.408 6.67 8.628 7.795v4.451c0 1.401 1.14 2.54 2.541 2.54h2.805a2.542 2.542 0 002.54-2.54v-2.063h3.621v2.063c0 1.401 1.14 2.54 2.541 2.54h2.805c1.4 0 2.541-1.139 2.541-2.54l-.03-2.337c.318-.37 1.154-1.39 2.063-2.836a.49.49 0 10-.831-.522 24.027 24.027 0 01-1.976 2.717.85.85 0 00-.209.568v2.41a1.56 1.56 0 01-1.558 1.557h-2.805a1.56 1.56 0 01-1.558-1.557v-2.171a.875.875 0 00-.874-.874h-3.837a.874.874 0 00-.875.874v2.171a1.56 1.56 0 01-1.558 1.557h-2.805a1.56 1.56 0 01-1.558-1.557v-4.547a.875.875 0 00-.698-.848c-2.081-.433-3.661-1.423-4.886-2.58 1.29-.127 3.44-.515 4.777-1.696a.492.492 0 00-.652-.738c-1.458 1.292-4.257 1.482-5.008 1.51a13.988 13.988 0 01-2.233-3.715c-.238-.589.056-1.263.67-1.536 2.869-1.274 4.92-3.42 5.48-4.044.18-.2.255-.481.199-.754a11.652 11.652 0 01-.132-3.753c1.408 1.615 3.458 2.09 4.072 2.198a.835.835 0 00.59-.11c9.778-5.813 15.279-2.5 17.688-.01 2.596 2.685 3.276 6.09 2.02 10.123a.492.492 0 00.938.292c.57-1.833.75-3.543.585-5.137.22.064.46.117.723.117.192 0 .393-.025.594-.088.617-.19 1.084-.67 1.387-1.424a.49.49 0 10-.912-.365zm-4.043 8.527c-.11.249-.224.492-.341.728a.492.492 0 00.882.436c.122-.25.242-.505.358-.767a.49.49 0 00-.25-.647.487.487 0 00-.649.25z" fill="#627A93"></path>
  </svg>
