<?xml version="1.0" encoding="UTF-8"?>
<svg width="61px" height="66.75px" viewBox="0 0 61 66.75" version="1.1" xmlns="http://www.w3.org/2000/svg" xmlns:xlink="http://www.w3.org/1999/xlink">
    <title>Shape</title>
    <g id="Page-1" stroke="none" stroke-width="1" fill="none" fill-rule="evenodd">
        <path d="M52.7172852,45.3222656 L40.5081788,41.5524902 C40.5079957,41.5524292 40.5079957,41.5523071 40.5078126,41.5522461 L38.8598634,41.041687 L38.8598634,38.6679687 L40.6655275,37.1196289 C43.1977541,34.9428711 44.6499025,31.7792969 44.6499025,28.4399414 L44.6499025,27.4599609 L45.3398439,27.4599609 C47.7880861,27.4599609 49.7802736,25.4682617 49.7802736,23.0200195 L49.7802736,20.9301757 C49.7802736,20.1254882 49.4633791,19.3583984 48.879883,18.7626952 C48.3210451,18.2158812 47.5961916,17.9119262 46.8300783,17.8818358 L46.8300783,10.25 C46.8300783,8.9233398 45.9096681,7.7988281 44.6601564,7.5024414 C44.6235352,3.2924805 38.4169922,0 30.5,0 C22.5830078,0 16.3764648,3.2924805 16.3398437,7.5024414 C15.090332,7.7988281 14.1699218,8.9233398 14.1699218,10.25 L14.1699218,17.8848877 C13.4043578,17.9118652 12.6710815,18.2140503 12.102539,18.7705078 C11.5268554,19.3583984 11.2099609,20.1254883 11.2099609,20.9301758 L11.2099609,23.0200196 C11.2099609,25.4682618 13.2016601,27.459961 15.6499023,27.459961 L16.3398437,27.459961 L16.3398437,28.4399415 C16.3398437,31.779297 17.7919921,34.9428712 20.3251953,37.1206056 L22.1298828,38.6636354 L22.1298828,41.0416872 L20.4819336,41.5522463 C20.4817505,41.5523073 20.4817505,41.5524294 20.4815674,41.5524904 L8.269043,45.3232424 C3.3232422,46.8881836 0,51.4199219 0,56.6000977 L0,66.25 C0,66.5263672 0.2236328,66.75 0.5,66.75 L12.309082,66.75 L12.309082,60.6953125 C12.309082,60.4189453 12.5327148,60.1953125 12.809082,60.1953125 C13.0854492,60.1953125 13.309082,60.4189453 13.309082,60.6953125 L13.309082,66.75 L47.690918,66.75 L47.690918,60.6953125 C47.690918,60.4189453 47.9145508,60.1953125 48.190918,60.1953125 C48.4672852,60.1953125 48.690918,60.4189453 48.690918,60.6953125 L48.690918,66.75 L60.5,66.75 C60.7763672,66.75 61,66.5263672 61,66.25 L61,56.6000977 C61,51.418457 57.6728516,46.8867188 52.7172852,45.3222656 Z M44.6499022,24.4996948 C44.7766723,24.5377807 44.9083252,24.5644531 45.0473632,24.5644531 C45.8154296,24.5644531 46.4404296,23.9394531 46.4404296,23.1708984 C46.4404296,22.8945312 46.2167968,22.6708984 45.9404296,22.6708984 C45.6640624,22.6708984 45.4404296,22.8945312 45.4404296,23.1708984 C45.4404296,23.3876953 45.2641601,23.5644531 45.0473632,23.5644531 C44.8305663,23.5644531 44.6538085,23.3876953 44.6538085,23.1708984 C44.6538085,23.1640014 44.6502074,23.1583252 44.6499022,23.1514892 L44.6499022,22.5013427 C44.6502074,22.4945068 44.6538085,22.4888305 44.6538085,22.4819335 C44.6538085,21.8564452 45.1625976,21.3476562 45.7880858,21.3476562 C46.413574,21.3476562 46.9223631,21.8564453 46.9223631,22.4819335 C46.9223631,22.7583007 47.1459959,22.9819335 47.4223631,22.9819335 C47.6987303,22.9819335 47.9223631,22.7583007 47.9223631,22.4819335 C47.9223631,21.3051757 46.9648436,20.3476562 45.7880858,20.3476562 C45.3851927,20.3476562 45.0120848,20.4663696 44.6902464,20.6611938 C44.7037962,20.5682373 44.703491,20.4729003 44.7324217,20.380371 C44.9409178,19.6103515 45.6127928,19.0131835 46.4121092,18.8930663 C47.0151365,18.7919921 47.7070311,19.0146483 48.1728514,19.4697265 C48.564453,19.8696288 48.7802733,20.3886718 48.7802733,20.9301757 L48.7802733,23.0200195 C48.7802733,24.9169922 47.2368163,26.4599609 45.3398436,26.4599609 L44.6499022,26.4599609 L44.6499022,24.4996948 L44.6499022,24.4996948 Z M16.3398439,23.1563721 C16.3396607,23.1614991 16.3369141,23.1657105 16.3369141,23.1708985 C16.3369141,23.3876954 16.1601563,23.5644532 15.9433594,23.5644532 C15.7265625,23.5644532 15.550293,23.3876954 15.550293,23.1708985 C15.550293,22.8945313 15.3266602,22.6708985 15.050293,22.6708985 C14.7739258,22.6708985 14.550293,22.8945313 14.550293,23.1708985 C14.550293,23.9394532 15.175293,24.5644532 15.9433594,24.5644532 C16.0820313,24.5644532 16.2133179,24.5379029 16.3398439,24.5000001 L16.3398439,26.459961 L15.6499024,26.459961 C13.7529297,26.459961 12.209961,24.9169922 12.209961,23.0200196 L12.209961,20.9301758 C12.209961,20.3886719 12.4257813,19.8696289 12.8095704,19.4775391 C13.209961,19.0859375 13.732422,18.8701172 14.2802735,18.8701172 C14.3847657,18.8701172 14.4892579,18.8779297 14.5908204,18.8935547 C15.3930665,19.0219727 16.0473634,19.605957 16.263672,20.4013672 C16.2886354,20.4796753 16.2884523,20.5748291 16.3011476,20.6616211 C15.9791261,20.4664917 15.6058351,20.3476563 15.2026369,20.3476563 C14.0258791,20.3476563 13.0683596,21.3051758 13.0683596,22.4819336 C13.0683596,22.7583008 13.2919924,22.9819336 13.5683596,22.9819336 C13.8447268,22.9819336 14.0683596,22.7583008 14.0683596,22.4819336 C14.0683596,21.8564453 14.5771487,21.3476563 15.2026369,21.3476563 C15.8281251,21.3476563 16.3369142,21.8564454 16.3369142,22.4819336 C16.3369142,22.4871216 16.3396608,22.491333 16.3398439,22.49646 L16.3398439,23.1563721 L16.3398439,23.1563721 Z M30.5,1.25 C30.7763672,1.25 31,1.4736328 31,1.75 C31,2.0263672 30.7763672,2.25 30.5,2.25 C19.7114258,2.25 19.0019531,6.890625 18.9960937,6.9375 C18.9643555,7.1904297 18.7490234,7.375 18.5004883,7.375 C18.4799805,7.375 18.4589844,7.3735352 18.4374924,7.3710937 C18.1635742,7.3364257 17.9692383,7.0864257 18.0039063,6.8124999 C18.0327148,6.5854492 18.8383789,1.25 30.5,1.25 Z M20.9755859,36.3608398 C18.6650391,34.375 17.3398438,31.487793 17.3398438,28.4399414 L17.3398438,26.9599609 L17.3398438,20.9301757 L17.3398438,20.25 L17.3398438,15.9101562 C17.3398438,14.3256835 17.6201172,12.7753906 18.1738282,11.2915039 C20.6513672,13.6123047 25.3647461,15.0800781 30.5,15.0800781 C35.6289063,15.0800781 40.340332,13.6142578 42.8193359,11.296875 C43.3706054,12.7568359 43.6499023,14.3051758 43.6499023,15.9101563 L43.6499023,20.25 L43.6499023,20.9301758 L43.6499023,26.959961 L43.6499023,28.4399415 C43.6499023,31.4877931 42.324707,34.3750001 40.0151367,36.3598634 L38.0523071,38.043152 C38.0466308,38.0476076 38.0387573,38.0469972 38.0332031,38.051758 L36.5048828,39.3701174 C35.7143555,40.0473635 34.8344726,40.5771487 33.8876953,40.9443362 C31.7041015,41.7988284 29.2617187,41.7919925 27.109375,40.9433596 C26.1733398,40.5839846 25.293457,40.0546877 24.4951172,39.3701174 L22.9550781,38.0502932 C22.9528808,38.0484011 22.949707,38.0487063 22.9475097,38.0468752 L20.9755859,36.3608398 Z M37.8598633,39.5255127 L37.8598633,41.4101563 L37.8598633,43.2197266 C37.8598633,44.5820313 37.1884766,45.8647461 36.0634766,46.6503907 C34.4257813,47.794922 32.4980469,48.3999024 30.4902344,48.3999024 C28.4882813,48.3999024 26.5644531,47.7949219 24.9262696,46.6499024 C23.8012696,45.8647461 23.1298829,44.5825196 23.1298829,43.2197266 L23.1298829,41.4101563 L23.1298829,39.5186768 L23.8447267,40.1298829 C24.7299806,40.8881837 25.7075197,41.4760743 26.7465822,41.8754884 C27.9311523,42.3427734 29.2290039,42.5898438 30.5,42.5898438 C31.7783203,42.5898438 33.0405273,42.3496094 34.2509766,41.8764649 C35.3017579,41.4682618 36.2792969,40.8808594 37.1567383,40.128418 L37.8598633,39.5255127 Z M39.8598633,43.2197266 C39.8598633,45.237793 38.8706055,47.1333008 37.2133789,48.2905274 C35.2392578,49.6704102 32.9140625,50.3999024 30.4902344,50.3999024 C28.0722656,50.3999024 25.7504883,49.6704102 23.7763672,48.2900391 C22.1191406,47.1328125 21.1298828,45.2373047 21.1298828,43.2197266 L21.1298828,42.3984375 L22.1298828,42.0883789 L22.1298828,43.2197266 C22.1298828,44.9086914 22.9614258,46.4975586 24.3535156,47.4697266 C26.1601562,48.7324219 28.2822265,49.3999024 30.4902344,49.3999024 C31.3204346,49.3999024 32.1381836,49.3060303 32.9313965,49.1221314 C34.2533569,48.8156739 35.5070801,48.2590943 36.6362305,47.4702149 C37.5065918,46.8623047 38.1576538,46.0136719 38.5234986,45.0503541 C38.7430421,44.4724122 38.8598633,43.8530885 38.8598633,43.2197267 L38.8598633,42.0883789 L39.8598633,42.3984376 L39.8598633,43.2197266 L39.8598633,43.2197266 Z" id="Shape" fill="#000000" fill-rule="nonzero"></path>
    </g>
</svg>