<?xml version="1.0" encoding="UTF-8"?>
<svg width="20px" height="28.2675987px" viewBox="0 0 20 28.2675987" version="1.1" xmlns="http://www.w3.org/2000/svg" xmlns:xlink="http://www.w3.org/1999/xlink">
    <title>noun-passport-rejected-4881364</title>
    <g id="Page-1" stroke="none" stroke-width="1" fill="none" fill-rule="evenodd">
        <g id="noun-passport-rejected-4881364" fill="#000000" fill-rule="nonzero">
            <g id="Group">
                <g transform="translate(11.725568, 19.993166)">
                    <g transform="translate(2.396245, 2.396245)" id="Path">
                        <path d="M0.321212437,3.48194282 C0.237697203,3.48194282 0.15418197,3.44982157 0.0963637311,3.38557909 C-0.0321212437,3.25709411 -0.0321212437,3.0579424 0.0963637311,2.92945743 L2.92945743,0.0963637311 C3.0579424,-0.0321212437 3.25709411,-0.0321212437 3.38557909,0.0963637311 C3.51406406,0.224848706 3.51406406,0.424000417 3.38557909,0.552485392 L0.552485392,3.38557909 C0.488242904,3.44982157 0.404727671,3.48194282 0.321212437,3.48194282 Z"></path>
                        <path d="M3.15430613,3.48194282 C3.0707909,3.48194282 2.98727567,3.44982157 2.92945743,3.38557909 L0.0963637311,0.552485392 C-0.0321212437,0.424000417 -0.0321212437,0.224848706 0.0963637311,0.0963637311 C0.224848706,-0.0321212437 0.424000417,-0.0321212437 0.552485392,0.0963637311 L3.38557909,2.92945743 C3.51406406,3.0579424 3.51406406,3.25709411 3.38557909,3.38557909 C3.3213366,3.44982157 3.23782137,3.48194282 3.15430613,3.48194282 Z"></path>
                    </g>
                    <path d="M4.13721619,8.27443238 C1.85660789,8.27443238 1.82588131e-15,6.41782449 1.82588131e-15,4.13721619 C1.82588131e-15,1.85660789 1.85660789,0 4.13721619,0 C6.41782449,0 8.27443238,1.85660789 8.27443238,4.13721619 C8.27443238,6.41782449 6.41140024,8.27443238 4.13721619,8.27443238 Z M4.13721619,0.648849123 C2.20994157,0.648849123 0.642424874,2.21636582 0.642424874,4.14364044 C0.642424874,6.07091506 2.20994157,7.63843175 4.13721619,7.63843175 C6.06449081,7.63843175 7.63200751,6.07091506 7.63200751,4.14364044 C7.63200751,2.21636582 6.05806656,0.648849123 4.13721619,0.648849123 Z" id="Shape"></path>
                </g>
                <g>
                    <path d="M12.4001137,26.0576572 L1.06773896,26.0576572 C0.476708072,26.0576572 0.00131366553,25.5758385 0.00131366553,24.9912319 L0.00131366553,3.33508937 C0.00131366553,3.15521041 0.142647138,3.01387694 0.322526103,3.01387694 L15.9334505,3.01387694 C16.5244814,3.01387694 16.9998758,3.49569559 16.9998758,4.08030223 L16.9998758,20.4043183 C16.9998758,20.5841972 16.8585424,20.7255307 16.6786634,20.7255307 C16.4987844,20.7255307 16.357451,20.5841972 16.357451,20.4043183 L16.357451,4.08030223 C16.357451,3.84260502 16.1647235,3.65630181 15.9334505,3.65630181 L0.64373854,3.65630181 L0.64373854,24.9912319 C0.64373854,25.2225048 0.836466002,25.4152323 1.06773896,25.4152323 L12.4001137,25.4152323 C12.5799927,25.4152323 12.7213262,25.5565658 12.7213262,25.7364447 C12.7213262,25.9163237 12.5735685,26.0576572 12.4001137,26.0576572 Z" id="Path"></path>
                    <path d="M0.322526103,3.65630181 C0.174768382,3.65630181 0.0462834067,3.55351383 0.00773791427,3.40575611 C-0.0308075782,3.23230139 0.0784046504,3.05884668 0.251859366,3.02030118 L13.3380541,0.0266012703 C13.6592665,-0.0440654659 13.9869032,0.0266012703 14.2438731,0.23217723 C14.5008431,0.43775319 14.6486008,0.739692881 14.6486008,1.06732957 L14.6486008,3.32866512 C14.6486008,3.50854409 14.5072673,3.64987756 14.3273884,3.64987756 C14.1475094,3.64987756 14.0061759,3.50854409 14.0061759,3.32866512 L14.0061759,1.06732957 C14.0061759,0.938844592 13.9483577,0.816783866 13.8455697,0.733268632 C13.7427817,0.649753398 13.6142968,0.624056403 13.4858118,0.649753398 L0.393192839,3.64345331 C0.367495844,3.64987756 0.341798849,3.65630181 0.322526103,3.65630181 Z" id="Path"></path>
                    <g transform="translate(2.962892, 7.163942)">
                        <g transform="translate(1.432607, 12.315285)" id="Path">
                            <path d="M6.29576377,2.42836602 L1.91442613,2.42836602 C1.73454716,2.42836602 1.59321369,2.28703255 1.59321369,2.10715359 C1.59321369,1.92727462 1.73454716,1.78594115 1.91442613,1.78594115 L6.29576377,1.78594115 C6.47564273,1.78594115 6.6169762,1.92727462 6.6169762,2.10715359 C6.6169762,2.28703255 6.46921848,2.42836602 6.29576377,2.42836602 Z"></path>
                            <path d="M7.88897746,0.642424874 L0.321212437,0.642424874 C0.141333472,0.642424874 0,0.501091402 0,0.321212437 C0,0.141333472 0.141333472,-3.65176262e-15 0.321212437,-3.65176262e-15 L7.88897746,-3.65176262e-15 C8.06885642,-3.65176262e-15 8.21018989,0.141333472 8.21018989,0.321212437 C8.21018989,0.501091402 8.06243217,0.642424874 7.88897746,0.642424874 Z"></path>
                        </g>
                        <g>
                            <path d="M3.22497287,5.73042988 C3.00012416,5.73042988 2.76885121,5.64691464 2.531154,5.47988418 C2.46691152,5.43491444 2.40909328,5.38994469 2.35127504,5.34497495 C2.22921431,5.24861122 2.12000208,5.15867174 2.00436561,5.12012625 C1.85018364,5.06230801 1.65745618,5.07515651 1.45188022,5.08158076 C1.291274,5.088005 1.13066778,5.1008535 0.957213063,5.08158076 C0.706667362,5.05588376 0.456121661,4.95952003 0.237697203,4.81818656 C0.0899394824,4.72182283 0.0513939899,4.52267111 0.147757721,4.37491339 C0.244121452,4.22715567 0.443273163,4.18861018 0.591030884,4.28497391 C0.725940108,4.37491339 0.873697829,4.43273163 1.0278798,4.44558013 C1.14994052,4.45842863 1.2784255,4.45200438 1.41975897,4.44558013 C1.67030467,4.43273163 1.95297162,4.41988313 2.23563856,4.52267111 C2.44121452,4.5997621 2.60824499,4.72824707 2.75600271,4.84388355 C2.8073967,4.88885329 2.85879069,4.92739879 2.91018468,4.95952003 C3.06436665,5.06873226 3.21212437,5.113702 3.2956396,5.088005 C3.39200334,5.05588376 3.46267007,4.90812604 3.47551857,4.73467132 C3.48194282,4.60618635 3.46909432,4.47127712 3.44982157,4.32994365 C3.43697308,4.22073142 3.42412458,4.10509495 3.41770033,3.98303422 C3.40485183,3.55260955 3.54618531,3.20570012 3.81600375,3.00654841 C4.17576168,2.73672996 4.6126106,2.8202452 4.95952003,2.89091193 L5.02376252,2.90376043 C5.29358096,2.95515442 5.51842967,2.92303318 5.56982366,2.82666945 C5.6019449,2.76242696 5.58267216,2.64036623 5.51842967,2.50545701 C5.49273267,2.45406302 5.46061143,2.39624478 5.42849019,2.33842654 C5.35782345,2.20351732 5.27430822,2.0557596 5.22933848,1.88230488 C5.1265505,1.48400146 5.23576272,1.0407283 5.52485392,0.655273372 C5.65976314,0.475394407 5.82679361,0.314788188 6.06449081,0.128484975 C6.20582428,0.0192727462 6.404976,0.0449697412 6.51418822,0.186303214 C6.62340045,0.327636686 6.59770346,0.526788397 6.45636999,0.636000625 C6.26364252,0.783758347 6.13515755,0.905819073 6.03879382,1.0407283 C5.87176335,1.265577 5.80109661,1.5161227 5.8524906,1.72169866 C5.8781876,1.81806239 5.93600584,1.92085037 5.99382408,2.0300626 C6.02594532,2.09430509 6.06449081,2.15854758 6.09661206,2.23563856 C6.25079403,2.5696995 6.26364252,2.87806344 6.1287333,3.12860914 C5.92958159,3.50121556 5.47988418,3.64897329 4.89527754,3.53976106 L4.83103505,3.52691256 C4.58048935,3.47551857 4.3235194,3.43054883 4.18861018,3.52691256 C4.0986707,3.5975793 4.04727671,3.75818551 4.04727671,3.97018572 C4.04727671,4.06012521 4.06012521,4.15648894 4.0729737,4.25927692 C4.09224645,4.42630738 4.1115192,4.5997621 4.0986707,4.78606531 C4.06654945,5.21648998 3.82885225,5.57624791 3.48836707,5.69830863 C3.41127608,5.71115713 3.31491235,5.73042988 3.22497287,5.73042988 Z" id="Path"></path>
                            <path d="M5.74327838,7.36218906 C5.65976314,7.36218906 5.58909641,7.34934056 5.53127817,7.33006781 C5.23576272,7.23370408 5.03661101,6.93176439 5.06873226,6.6169762 C5.09442925,6.36000625 5.23576272,6.18012729 5.3770962,6.04521807 C5.3770962,6.04521807 5.3770962,6.04521807 5.3770962,6.04521807 C5.3770962,6.04521807 5.3770962,6.04521807 5.3770962,6.04521807 C5.3642477,6.03236957 5.34497495,6.01952107 5.33212646,6.01309682 C5.27430822,5.96812708 5.19721723,5.91030884 5.13297475,5.83321786 C4.97879278,5.63406615 4.95952003,5.37067195 5.09442925,5.19079298 C5.22933848,5.01091402 5.42849019,4.99164127 5.53127817,4.97879278 C5.55055091,4.97879278 5.57624791,4.97236853 5.58909641,4.97236853 C5.59552065,4.96594428 5.60836915,4.95309578 5.62121765,4.94024728 C5.63406615,4.92739879 5.65333889,4.90812604 5.66618739,4.89527754 C5.85891485,4.72824707 6.10946055,4.63830759 6.3664305,4.65758034 C6.60412771,4.67042884 6.84824916,4.77964106 7.05382512,4.96594428 C7.23370408,5.1265505 7.36218906,5.32570221 7.45212854,5.47988418 C7.54206802,5.6404904 7.644856,5.83321786 7.66412875,6.05806656 C7.69624999,6.35358201 7.58061352,6.6298247 7.36218906,6.77758242 C7.18873434,6.89964315 6.99600688,6.91249165 6.84824916,6.92534014 C6.78400667,6.93176439 6.71976418,6.93176439 6.67479444,6.94461289 C6.59770346,6.96388564 6.51418822,7.02812812 6.42424874,7.09237061 C6.38570325,7.11806761 6.34715776,7.1437646 6.30861226,7.1694616 C6.08376356,7.31079507 5.8910361,7.36218906 5.74327838,7.36218906 Z M5.83321786,6.48849123 C5.74970262,6.57843071 5.71115713,6.6298247 5.70473288,6.68121869 C5.70473288,6.68764294 5.71758138,6.70691569 5.72400563,6.71333994 C5.74970262,6.71976418 5.82036936,6.71333994 5.94885434,6.6298247 C5.98097558,6.61055196 6.01309682,6.58485496 6.04521807,6.55915797 C6.17370304,6.46921848 6.31503651,6.36000625 6.50133973,6.30861226 C6.60412771,6.27649102 6.70691569,6.27006677 6.79685517,6.26364252 C6.87394615,6.25721827 6.96388564,6.25079403 6.99600688,6.23152128 C7.01527963,6.21867278 7.03455237,6.16727879 7.02812812,6.10303631 C7.01527963,6.00024833 6.95746139,5.8910361 6.89964315,5.78824812 C6.83540066,5.67261164 6.74546118,5.53127817 6.6298247,5.42849019 C6.53346097,5.34497495 6.43067299,5.29358096 6.33430926,5.28715671 C6.25079403,5.28073247 6.16085454,5.31285371 6.09661206,5.3642477 C6.08376356,5.37067195 6.07733931,5.38352045 6.07091506,5.38994469 C6.02594532,5.43491444 5.96170283,5.49273267 5.87176335,5.53770242 C5.8524906,5.55055091 5.82679361,5.55697516 5.80752086,5.56339941 C6.00667257,5.73685413 6.04521807,5.91673309 6.04521807,6.03236957 C6.03879382,6.25721827 5.92315734,6.39855175 5.83321786,6.48849123 Z" id="Shape"></path>
                            <path d="M10.7541924,5.80752086 C10.7284954,5.80752086 10.7027984,5.80109661 10.6771014,5.79467237 C10.124616,5.65333889 9.66207011,5.25503547 9.46934265,4.74751982 C9.4500699,4.70255008 9.4372214,4.65758034 9.41794866,4.6126106 C9.38582741,4.52267111 9.36013042,4.43273163 9.31516068,4.38133764 C9.25091819,4.30424666 9.10316047,4.25927692 8.95540275,4.21430717 L8.90400876,4.20145868 C8.66631155,4.13079194 8.33867487,3.99588272 8.1973414,3.67467028 C8.09455342,3.43697308 8.11382616,3.14788188 8.26158388,2.87163919 C8.31940212,2.75600271 8.39006886,2.65963898 8.46073559,2.5696995 C8.50570533,2.51188126 8.54425083,2.46048727 8.57637207,2.40266903 C8.70485705,2.20351732 8.76909953,1.95939587 8.76267528,1.71527441 C8.75625104,1.53539545 8.89758451,1.39406198 9.07746347,1.38763773 C9.07746347,1.38763773 9.08388772,1.38763773 9.08388772,1.38763773 C9.25734244,1.38763773 9.39867591,1.5289712 9.40510016,1.70242592 C9.41152441,2.06860809 9.30873643,2.44121452 9.11600897,2.74315421 C9.07103922,2.81382095 9.01964523,2.88448769 8.97467549,2.94873017 C8.91685725,3.02582116 8.86546326,3.10291214 8.82691777,3.17357888 C8.77552378,3.26994261 8.75625104,3.35988209 8.78194803,3.41127608 C8.80764503,3.47551857 8.91685725,3.53333681 9.09031197,3.5847308 L9.13528171,3.5975793 C9.34728192,3.66182178 9.61710037,3.74533702 9.80340358,3.96376147 C9.91904006,4.10509495 9.9768583,4.25927692 10.021828,4.40061039 C10.0346765,4.43915588 10.047525,4.47770137 10.0603735,4.50982262 C10.1824343,4.82461081 10.4779497,5.07515651 10.8312834,5.16509599 C11.0047381,5.21006573 11.1075261,5.38352045 11.0625563,5.55697516 C11.0304351,5.71115713 10.8955259,5.80752086 10.7541924,5.80752086 Z" id="Path"></path>
                            <path d="M5.53770242,11.0754048 C2.48618426,11.0754048 -9.12940655e-16,8.58922057 -9.12940655e-16,5.53770242 C-9.12940655e-16,2.48618426 2.48618426,-9.12940655e-16 5.53770242,-9.12940655e-16 C8.58922057,-9.12940655e-16 11.0754048,2.48618426 11.0754048,5.53770242 C11.0754048,8.58922057 8.58922057,11.0754048 5.53770242,11.0754048 Z M5.53770242,0.642424874 C2.83951794,0.642424874 0.642424874,2.83951794 0.642424874,5.53770242 C0.642424874,8.23588689 2.83951794,10.43298 5.53770242,10.43298 C8.23588689,10.43298 10.43298,8.23588689 10.43298,5.53770242 C10.43298,2.83951794 8.23588689,0.642424874 5.53770242,0.642424874 Z" id="Shape"></path>
                            <path d="M8.34509912,10.253101 C8.30655362,10.253101 8.26158388,10.2466767 8.22303839,10.227404 C8.04958367,10.1567373 7.88255321,10.0539493 7.71552274,9.92546431 C7.63843175,9.86764607 7.56776502,9.80982783 7.49709828,9.75200959 C7.25297683,9.55285788 7.02170388,9.36013042 6.76473393,9.30873643 C6.6426732,9.28303943 6.49491548,9.28946368 6.34715776,9.28946368 C6.07091506,9.29588793 5.75612687,9.30873643 5.46061143,9.13528171 C5.34497495,9.07103922 5.24861122,8.98109974 5.16509599,8.90400876 C5.07515651,8.82049352 4.98521702,8.73697829 4.92739879,8.73697829 C4.92739879,8.73697829 4.92739879,8.73697829 4.92739879,8.73697829 C4.8631563,8.73697829 4.76036832,8.82691777 4.66400459,8.91043301 C4.48412562,9.06461498 4.26570116,9.25734244 3.94448873,9.23806969 C3.68109453,9.22522119 3.32776085,9.05819073 3.13503339,8.37722036 C3.03224541,8.01103818 2.93588168,7.95321994 2.90376043,7.95321994 C2.85236644,7.94679569 2.74957846,8.01746243 2.65963898,8.14594741 C2.62751774,8.1973414 2.59539649,8.25515963 2.56327525,8.31940212 C2.47976001,8.47358409 2.38339628,8.64703881 2.22921431,8.78837228 C2.06218385,8.94255425 1.86303214,9.01964523 1.68957742,9.09031197 C1.66388042,9.10316047 1.63818343,9.10958472 1.61248643,9.12243321 C1.44545597,9.19309995 1.25915275,9.10958472 1.19491027,8.9489785 C1.13066778,8.78837228 1.20775876,8.59564482 1.36836498,8.53140233 C1.39406198,8.51855383 1.41975897,8.51212958 1.44545597,8.49928109 C1.58036519,8.44146285 1.70885017,8.39006886 1.7923654,8.31297787 C1.86945638,8.24231114 1.93369887,8.12667466 1.99794136,8.01103818 C2.03648685,7.94037145 2.07503234,7.86970471 2.12000208,7.79903797 C2.34485079,7.44570429 2.67891173,7.26582533 3.00012416,7.31721932 C3.52691256,7.40073455 3.68751878,7.98534119 3.75176127,8.20376564 C3.82885225,8.46715984 3.91879173,8.59564482 3.97660997,8.59564482 C4.03442821,8.60206907 4.14364044,8.50570533 4.24000417,8.4221901 C4.41345889,8.27443238 4.62545909,8.08812917 4.93382303,8.09455342 C5.22933848,8.10097766 5.43491444,8.28085663 5.59552065,8.4221901 C5.65976314,8.48000834 5.72400563,8.53782658 5.78182387,8.56994782 C5.91673309,8.64703881 6.10946055,8.64061456 6.32788501,8.63419031 C6.50133973,8.62776606 6.70049144,8.62134181 6.8932189,8.66631155 C7.30437082,8.74982679 7.62558326,9.01322099 7.90182595,9.24449394 C7.97249269,9.30231218 8.03673518,9.35370617 8.10097766,9.40510016 C8.22303839,9.50146389 8.34509912,9.57213063 8.46715984,9.62352462 C8.62776606,9.69419135 8.70485705,9.88049457 8.64061456,10.0411008 C8.59564482,10.17601 8.47358409,10.253101 8.34509912,10.253101 Z" id="Path"></path>
                            <path d="M9.12885746,9.64279736 C9.00679674,9.64279736 8.89116026,9.57213063 8.83976627,9.45649415 L8.78837228,9.34085767 C8.59564482,8.91685725 8.35152336,8.39649311 8.52497808,7.86328046 C8.63419031,7.52921953 8.87831176,7.29152232 9.07103922,7.09879486 C9.43079715,6.73903693 9.93188856,6.24436978 10.5871619,6.1415818 L10.6321317,6.13515755 C10.8055864,6.10946055 10.9726169,6.23152128 10.9983138,6.404976 C11.0240108,6.57843071 10.9019501,6.74546118 10.7284954,6.77115817 L10.6899499,6.77758242 C10.2723737,6.84824916 9.91261581,7.1694616 9.52716088,7.56134077 C9.37297891,7.71552274 9.1995242,7.88255321 9.14170596,8.06885642 C9.04534223,8.36437186 9.21879695,8.72412979 9.37940316,9.07746347 L9.41794866,9.16097871 C9.41794866,9.16740296 9.4243729,9.1738272 9.4243729,9.18025145 L9.4243729,9.1866757 C9.49503964,9.34728192 9.43079715,9.54000938 9.26376669,9.61067612 C9.21879695,9.62994886 9.1738272,9.64279736 9.12885746,9.64279736 Z" id="Path"></path>
                        </g>
                    </g>
                </g>
            </g>
        </g>
    </g>
</svg>