<?xml version="1.0" encoding="UTF-8"?>
<svg width="21.5536235px" height="24px" viewBox="0 0 21.5536235 24" version="1.1" xmlns="http://www.w3.org/2000/svg" xmlns:xlink="http://www.w3.org/1999/xlink">
    <title>noun-creativity-time-5817825</title>
    <g id="Page-1" stroke="none" stroke-width="1" fill="none" fill-rule="evenodd">
        <g id="noun-creativity-time-5817825" fill="#000000" fill-rule="nonzero">
            <path d="M10.5318842,6.68162329 L10.5318842,6.54691314 C10.5318842,6.4116434 10.641542,6.3019856 10.7768118,6.3019856 C10.9120815,6.3019856 11.0217393,6.4116434 11.0217393,6.54691314 L11.0217393,6.68162329 C11.0217393,6.81689304 10.9120815,6.92655083 10.7768118,6.92655083 C10.641542,6.92655083 10.5318842,6.81689304 10.5318842,6.68162329 Z M8.32753636,7.46049287 C8.28154715,7.41412499 8.21894468,7.38804371 8.15363781,7.38804371 C8.08833093,7.38804371 8.02572846,7.41412499 7.97973925,7.46049287 C7.88477507,7.55602378 7.88477507,7.71030978 7.97973925,7.8058407 L8.07526099,7.90381171 C8.12148343,7.94965885 8.18405708,7.9752171 8.24915955,7.9748448 C8.31426202,7.9752171 8.37683566,7.94965885 8.4230581,7.90381171 C8.46942598,7.8578225 8.49550726,7.79522004 8.49550726,7.72991316 C8.49550726,7.66460629 8.46942598,7.60200382 8.4230581,7.55601461 L8.32753636,7.46049287 Z M7.20086968,10.0150871 L7.06615953,10.0150871 C6.93088978,10.0150871 6.82123199,10.1247449 6.82123199,10.2600146 C6.82123199,10.3952844 6.93088978,10.5049422 7.06615953,10.5049422 L7.20086968,10.5049422 C7.33613942,10.5049422 7.44579722,10.3952844 7.44579722,10.2600146 C7.44579722,10.1247449 7.33613942,10.0150871 7.20086968,10.0150871 Z M8.08260882,12.6186669 L7.9846378,12.7141886 C7.91398602,12.78426 7.89275033,12.8901119 7.93090782,12.9820123 C7.9690653,13.0739128 8.05903085,13.1335934 8.15853636,13.1330189 C8.22314071,13.1320945 8.28476455,13.1056843 8.32998563,13.0595364 L8.42795665,12.9640147 C8.51117735,12.8668372 8.50558209,12.7219787 8.41511344,12.6315101 C8.32464479,12.5410414 8.17978634,12.5354462 8.08260882,12.6186669 Z M11.0217393,13.9755654 L11.0217393,13.838406 C11.0217393,13.7031363 10.9120815,13.5934785 10.7768118,13.5934785 C10.641542,13.5934785 10.5318842,13.7031363 10.5318842,13.838406 L10.5318842,13.9755654 C10.5318842,14.1108352 10.641542,14.220493 10.7768118,14.220493 C10.9120815,14.220493 11.0217393,14.1108352 11.0217393,13.9755654 Z M13.2260872,13.0595364 C13.2719061,13.1062822 13.3345298,13.132743 13.3999857,13.1330147 C13.4654416,13.132743 13.5280653,13.1062822 13.5738843,13.0595364 C13.6688485,12.9640055 13.6688485,12.8097195 13.5738843,12.7141886 L13.4710147,12.6186669 C13.3738372,12.5354462 13.2289787,12.5410414 13.1385101,12.6315101 C13.0480414,12.7219787 13.0424462,12.8668372 13.1256669,12.9640147 L13.2260872,13.0595364 Z M14.3503046,10.5049422 L14.487464,10.5049422 C14.6227337,10.5049422 14.7323915,10.3952844 14.7323915,10.2600146 C14.7323915,10.1247449 14.6227337,10.0150871 14.487464,10.0150871 L14.3503046,10.0150871 C14.2150348,10.0150871 14.105377,10.1247449 14.105377,10.2600146 C14.105377,10.3952844 14.2150348,10.5049422 14.3503046,10.5049422 Z M13.3069132,7.9748448 C13.3720157,7.9752171 13.4345894,7.94965885 13.4808118,7.90381171 L13.5763335,7.8058407 C13.6712977,7.71030978 13.6712977,7.55602378 13.5763335,7.46049287 C13.4808026,7.36552868 13.3265166,7.36552868 13.2309857,7.46049287 L13.135464,7.55601461 C13.0651302,7.6257722 13.043741,7.73102806 13.0812694,7.82270454 C13.1187977,7.91438101 13.2078538,7.97442536 13.3069132,7.9748448 L13.3069132,7.9748448 Z M10.7768118,11.0413335 C10.3941551,11.0418167 10.0678275,10.7642606 10.0068961,10.3864858 C9.94596472,10.0087111 10.1684801,9.64263192 10.5318842,9.52278275 L10.5318842,7.83768128 C10.5318842,7.70241153 10.641542,7.59275374 10.7768118,7.59275374 C10.9120815,7.59275374 11.0217393,7.70241153 11.0217393,7.83768128 L11.0217393,9.53013058 C11.3408292,9.6334857 11.5579156,9.92951263 11.5605799,10.2649132 C11.5586771,10.3869108 11.5284944,10.5068032 11.472406,10.6151596 L12.344348,11.4871016 C12.4393122,11.5826325 12.4393122,11.7369185 12.344348,11.8324495 C12.2488171,11.9274136 12.0945311,11.9274136 11.9990002,11.8324495 L11.1246089,10.9605074 C11.0167178,11.0146249 10.8975105,11.042328 10.7768118,11.0413335 L10.7768118,11.0413335 Z M10.7768118,10.5514784 C10.93764,10.5501711 11.0680717,10.4208263 11.0707248,10.2600146 C11.0717173,10.1409201 11.0007404,10.0329993 10.8909949,9.9867344 C10.7812494,9.94046951 10.6544326,9.9650073 10.5698654,10.0488697 C10.4852983,10.1327321 10.4597002,10.2593392 10.5050451,10.369468 C10.55039,10.4795968 10.657713,10.5514784 10.7768118,10.5514784 Z M10.7768118,15.2540872 C8.01866166,15.2540872 5.78273922,13.0181648 5.78273922,10.2600146 C5.78273922,7.50186455 8.01866166,5.26594211 10.7768118,5.26594211 C13.5349619,5.26594211 15.7708843,7.50186455 15.7708843,10.2600146 C15.7668376,13.0164868 13.5332839,15.2500405 10.7768118,15.2540872 L10.7768118,15.2540872 Z M10.7768118,14.7642321 C13.2644224,14.7642321 15.2810292,12.7476253 15.2810292,10.2600146 C15.2810292,7.77240404 13.2644224,5.75579719 10.7768118,5.75579719 C8.28920115,5.75579719 6.2725943,7.77240404 6.2725943,10.2600146 C6.27529407,12.7465061 8.29032029,14.7615323 10.7768118,14.7642321 Z M7.62459432,21.5854641 L7.62459432,19.0553626 C7.35493415,18.9492955 7.1581623,18.7127998 7.10289866,18.4283481 C6.83404724,16.9746905 6.22561895,15.6050975 5.32717399,14.4311307 C3.88476854,12.5460793 3.51966159,10.0491962 4.36193302,7.83006779 C5.20420444,5.6109394 7.13408539,3.98512019 9.46400014,3.53185513 C9.93834396,3.44016568 10.4211968,3.39992795 10.9041741,3.41184063 L11.1491016,3.41184063 L11.1809422,3.41184063 C13.6896185,3.56162229 15.9154281,5.0715834 16.9819737,7.34718703 C18.0485192,9.62279067 17.7849441,12.2994937 16.2950292,14.3233625 L16.2386959,14.3992901 C15.8641702,14.9162004 15.5363112,15.4653642 15.2589857,16.0403046 C14.949102,16.6772726 14.7085103,17.345674 14.541348,18.0340148 C14.5070582,18.1687249 14.4776669,18.3034351 14.4507249,18.4381452 C14.3931059,18.7203416 14.1968687,18.9543521 13.9290292,19.0602612 L13.9290292,21.5854641 C13.9276812,22.3329467 13.3220625,22.9385654 12.5745799,22.9399134 L12.0602321,22.9399134 C11.9424984,23.5551199 11.4044071,24 10.7780364,24 C10.1516657,24 9.61357443,23.5551199 9.49584072,22.9399134 L8.97904362,22.9399134 C8.23156101,22.9385654 7.62594235,22.3329467 7.62459432,21.5854641 Z M11.5581306,22.9399134 L9.99794218,22.9399134 C10.1054082,23.2802625 10.421124,23.5116548 10.7780364,23.5116548 C11.1349488,23.5116548 11.4506646,23.2802625 11.5581306,22.9399134 Z M13.4342756,21.6344496 L8.11934795,21.6344496 C8.14404789,22.0913895 8.52143711,22.4494254 8.97904362,22.4500591 L12.5745799,22.4500591 C13.0326793,22.4506611 13.4107837,22.0919467 13.4342756,21.6344496 Z M13.4342756,20.4318554 L8.1144494,20.4318554 L8.1144494,21.1445945 L13.4391741,21.1445945 L13.4342756,20.4318554 Z M13.4342756,19.1263916 L8.1144494,19.1263916 L8.1144494,19.9420003 L13.4391741,19.9420003 L13.4342756,19.1263916 Z M7.9552465,18.6365911 L13.5885799,18.6365911 C13.7667795,18.6395609 13.9224547,18.5166594 13.9608698,18.3426235 C13.9902611,18.1956669 14.0196524,18.053609 14.0563915,17.9140003 C14.2310887,17.1933379 14.4831964,16.4936774 14.8083191,15.8272176 C15.0985048,15.2267264 15.4410985,14.653005 15.8321162,14.1127249 L15.8884495,14.034348 L15.8884495,14.034348 C17.1253925,12.3520378 17.458992,10.1702006 16.7812555,8.19513881 C16.1035191,6.22007703 14.5005667,4.70276176 12.4913045,4.13437687 C12.0587314,4.01473896 11.6144367,3.94246922 11.1662465,3.91884064 L11.1417538,3.91884064 L10.8968263,3.91884064 L10.7204784,3.91884064 C8.31765731,3.94961843 6.13677489,5.33035827 5.08120567,7.48912417 C4.02563644,9.64789007 4.27515546,12.2170204 5.72640588,14.1323191 C6.66954366,15.3693779 7.3088373,16.810725 7.59275374,18.3401742 C7.62806162,18.5144285 7.78236533,18.6389002 7.96014505,18.6365911 L7.9552465,18.6365911 Z M10.7719132,2.71624642 C10.907183,2.71624642 11.0168407,2.60658862 11.0168407,2.47131888 L11.0168407,0.24492754 C11.0168407,0.109657795 10.907183,0 10.7719132,0 C10.6366435,0 10.5269857,0.109657795 10.5269857,0.24492754 L10.5269857,2.47131888 C10.5269725,2.53713541 10.5534486,2.6001877 10.6004464,2.64626397 C10.6474442,2.69234024 10.7110084,2.71756275 10.7768118,2.71624642 L10.7719132,2.71624642 Z M14.9356814,3.82821745 C15.0226579,3.82769246 15.1028316,3.78107981 15.1463191,3.70575368 L16.2607394,1.77817394 C16.2930549,1.72111514 16.3011408,1.65348092 16.283187,1.59041222 C16.2652331,1.52734353 16.222739,1.474108 16.1652176,1.44262321 C16.0481474,1.37615274 15.8993754,1.41662748 15.8321162,1.5332464 L14.7176959,3.46082614 C14.684987,3.51728775 14.6761602,3.5844671 14.6931733,3.64746182 C14.7101865,3.71045654 14.7516331,3.76405838 14.8083191,3.79637687 C14.8485149,3.81926666 14.8943708,3.83030606 14.9405799,3.82821745 L14.9356814,3.82821745 Z M17.9703336,6.87022355 C18.013462,6.86976959 18.0557073,6.85794089 18.0927974,6.83592764 L20.0228264,5.72395661 C20.0790971,5.69122744 20.1200239,5.637444 20.1365679,5.57448464 C20.153112,5.51152528 20.1439122,5.44456988 20.1110003,5.38840588 C20.0429077,5.2726758 19.8943308,5.23334663 19.7778989,5.30023196 L17.8478698,6.412203 C17.7508264,6.46719367 17.7031941,6.58080646 17.7320057,6.68856212 C17.7608174,6.79631777 17.8587953,6.87099732 17.9703336,6.87022355 L17.9703336,6.87022355 Z M21.5536235,10.7768118 C21.5536235,10.641542 21.4439657,10.5318842 21.308696,10.5318842 L19.0847539,10.5318842 C18.9494842,10.5318842 18.8398264,10.641542 18.8398264,10.7768118 C18.8398264,10.9120815 18.9494842,11.0217393 19.0847539,11.0217393 L21.308696,11.0217393 C21.4439657,11.0217393 21.5536235,10.9120815 21.5536235,10.7768118 Z M17.8503191,15.1438698 L19.7778989,16.2582901 C19.8955835,16.325925 20.0458147,16.2853516 20.1134496,16.1676669 C20.1810844,16.0499822 20.1405111,15.8997511 20.0228264,15.8321162 L18.0952467,14.7201452 C18.0193218,14.6718799 17.9230474,14.6691249 17.8444867,14.7129693 C17.765926,14.7568137 17.7177263,14.8401992 17.7189214,14.9301583 C17.7201616,15.0201174 17.7706005,15.1021677 17.8503191,15.1438698 L17.8503191,15.1438698 Z M6.61304358,3.82822329 C6.6559491,3.82851377 6.69817968,3.81753382 6.73550735,3.79637687 C6.79219331,3.76405838 6.83363992,3.71045654 6.85065309,3.64746182 C6.86766626,3.5844671 6.85883939,3.51728775 6.82613054,3.46082614 L5.71415951,1.5332464 C5.67040742,1.45711776 5.58936467,1.41011346 5.50155929,1.40993908 C5.41375391,1.40976566 5.33252562,1.45644859 5.28847233,1.53240333 C5.24441904,1.60835807 5.24423349,1.7020453 5.28798559,1.77817394 L6.40240589,3.70575368 C6.44589334,3.78107981 6.5260671,3.82769246 6.61304358,3.82822329 Z M3.70575368,6.412203 L1.77572466,5.30023196 C1.65929269,5.23334663 1.51071582,5.2726758 1.44262321,5.38840588 C1.40971133,5.44456988 1.40051151,5.51152528 1.41705558,5.57448464 C1.43359964,5.637444 1.47452645,5.69122744 1.53079712,5.72395661 L3.46082614,6.83592764 C3.49791621,6.85794089 3.54016155,6.86976959 3.58328991,6.87022355 C3.69482818,6.87099732 3.79280612,6.79631777 3.82161779,6.68856212 C3.85042946,6.58080646 3.80279707,6.46719367 3.70575368,6.412203 L3.70575368,6.412203 Z M2.71379714,10.7768118 C2.71379714,10.641542 2.60413935,10.5318842 2.4688696,10.5318842 L0.24492754,10.5318842 C0.109657795,10.5318842 0,10.641542 0,10.7768118 C0,10.9120815 0.109657795,11.0217393 0.24492754,11.0217393 L2.47131888,11.0217393 C2.60563115,11.0203961 2.71379714,10.9111307 2.71379714,10.7768118 L2.71379714,10.7768118 Z M1.65326089,16.2876875 C1.69616642,16.2879777 1.738397,16.2769978 1.77572466,16.2558408 L3.7033044,15.1414205 C3.78302302,15.0997185 3.83346196,15.0176681 3.83470213,14.927709 C3.83589722,14.8377499 3.78769753,14.7543645 3.70913682,14.71052 C3.63057611,14.6666756 3.53430173,14.6694306 3.45837686,14.7176959 L1.53079712,15.8296669 C1.43375373,15.8846576 1.38612134,15.9982704 1.41493301,16.106026 C1.44374469,16.2137817 1.54172263,16.2884612 1.65326089,16.2876875 L1.65326089,16.2876875 Z" id="Shape"></path>
        </g>
    </g>
</svg>