<?xml version="1.0" encoding="UTF-8"?>
<svg width="28.8936763px" height="24px" viewBox="0 0 28.8936763 24" version="1.1" xmlns="http://www.w3.org/2000/svg" xmlns:xlink="http://www.w3.org/1999/xlink">
    <title>noun-active-communication-4656659</title>
    <g id="Page-1" stroke="none" stroke-width="1" fill="none" fill-rule="evenodd">
        <g id="noun-active-communication-4656659" fill="#000000">
            <path d="M8.44814597,23.9959852 C8.45082243,23.9961069 13.5194424,23.9987834 15.7982106,24 C16.0954201,24 16.3663515,23.8289494 16.4938486,23.5604511 C16.6213458,23.2918311 16.5827803,22.9738182 16.3948194,22.7435204 C16.3948194,22.7435204 16.3948194,22.7435204 16.3948194,22.7435204 C16.2591712,22.5773361 16.114277,22.3999594 15.9754657,22.2211227 C15.9742491,22.2195412 15.9729109,22.2179596 15.9715726,22.2162564 C15.5124369,21.6538334 15.4805626,20.8553947 15.8934685,20.2581776 C16.8799898,18.8447598 17.4593232,17.1248865 17.4593232,15.2709466 C17.4593232,10.4529413 13.5476669,6.54128499 8.72966162,6.54128499 C3.91165631,6.54128499 0,10.4529413 0,15.2709466 C0,19.9945456 3.7599493,23.846833 8.44814597,23.9959852 Z M8.46043338,23.4892814 C4.04633125,23.3468204 0.506947154,19.7188695 0.506947154,15.2709466 C0.506947154,10.7326321 4.19146875,7.04823214 8.72966162,7.04823214 C13.2678545,7.04823214 16.9523761,10.7326321 16.9523761,15.2709466 C16.9523761,17.0170979 16.4068635,18.636847 15.4771562,19.9689975 C15.4769129,19.9692409 15.4767912,19.9696058 15.4765479,19.9698491 C14.9359016,20.7518641 14.9769002,21.7967811 15.5765505,22.534026 C15.7174299,22.7154175 15.8643923,22.8954707 16.0021087,23.0640881 C16.0663439,23.1426789 16.0794829,23.2513192 16.0359295,23.343049 C15.9923761,23.4346571 15.8999163,23.4930528 15.7984539,23.4930528 L8.46043338,23.4892814 L8.46043338,23.4892814 Z" id="Shape"></path>
            <path d="M23.5216423,8.23050055 C22.739749,8.23050055 22.1048181,8.86530982 22.1048181,9.64732477 C22.1048181,10.4292181 22.739749,11.0640273 23.5216423,11.0640273 C24.3035356,11.0640273 24.9384665,10.4292181 24.9384665,9.64732477 C24.9384665,8.86530982 24.3035356,8.23050055 23.5216423,8.23050055 Z M23.5216423,8.7374477 C24.0238448,8.7374477 24.4315194,9.14512227 24.4315194,9.64732477 C24.4315194,10.1494056 24.0238448,10.5572018 23.5216423,10.5572018 C23.0194398,10.5572018 22.6117652,10.1494056 22.6117652,9.64732477 C22.6117652,9.14512227 23.0194398,8.7374477 23.5216423,8.7374477 Z" id="Shape"></path>
            <path d="M4.87214293,13.9677506 C4.1529033,13.9677506 3.56894689,14.551707 3.56894689,15.2709466 C3.56894689,15.9900646 4.1529033,16.574021 4.87214293,16.574021 C5.59126092,16.574021 6.17521732,15.9900646 6.17521732,15.2709466 C6.17521732,14.551707 5.59126092,13.9677506 4.87214293,13.9677506 Z M4.87214293,14.4746977 C5.31157013,14.4746977 5.66827017,14.8313978 5.66827017,15.2709466 C5.66827017,15.7103738 5.31157013,16.0670738 4.87214293,16.0670738 C4.43259408,16.0670738 4.07589405,15.7103738 4.07589405,15.2709466 C4.07589405,14.8313978 4.43259408,14.4746977 4.87214293,14.4746977 Z" id="Shape"></path>
            <path d="M19.2464731,8.23050055 C18.4644582,8.23050055 17.8296489,8.86530982 17.8296489,9.64732477 C17.8296489,10.4292181 18.4644582,11.0640273 19.2464731,11.0640273 C20.0283664,11.0640273 20.6631757,10.4292181 20.6631757,9.64732477 C20.6631757,8.86530982 20.0283664,8.23050055 19.2464731,8.23050055 L19.2464731,8.23050055 Z M19.2464731,8.7374477 C19.748554,8.7374477 20.1563502,9.14512227 20.1563502,9.64732477 C20.1563502,10.1494056 19.748554,10.5572018 19.2464731,10.5572018 C18.7442706,10.5572018 18.3365961,10.1494056 18.3365961,9.64732477 C18.3365961,9.14512227 18.7442706,8.7374477 19.2464731,8.7374477 Z" id="Shape"></path>
            <path d="M8.72966162,13.9677506 C8.01042198,13.9677506 7.42658723,14.551707 7.42658723,15.2709466 C7.42658723,15.9900646 8.01042198,16.574021 8.72966162,16.574021 C9.44890125,16.574021 10.032736,15.9900646 10.032736,15.2709466 C10.032736,14.551707 9.44890125,13.9677506 8.72966162,13.9677506 Z M8.72966162,14.4746977 C9.16908881,14.4746977 9.52591051,14.8313978 9.52591051,15.2709466 C9.52591051,15.7103738 9.16908881,16.0670738 8.72966162,16.0670738 C8.29023442,16.0670738 7.93341273,15.7103738 7.93341273,15.2709466 C7.93341273,14.8313978 8.29023442,14.4746977 8.72966162,14.4746977 Z" id="Shape"></path>
            <path d="M12.5871803,13.9677506 C11.8680623,13.9677506 11.2841059,14.551707 11.2841059,15.2709466 C11.2841059,15.9900646 11.8680623,16.574021 12.5871803,16.574021 C13.3064199,16.574021 13.8903763,15.9900646 13.8903763,15.2709466 C13.8903763,14.551707 13.3064199,13.9677506 12.5871803,13.9677506 L12.5871803,13.9677506 Z M12.5871803,14.4746977 C13.0267291,14.4746977 13.3834292,14.8313978 13.3834292,15.2709466 C13.3834292,15.7103738 13.0267291,16.0670738 12.5871803,16.0670738 C12.1477531,16.0670738 11.7910531,15.7103738 11.7910531,15.2709466 C11.7910531,14.8313978 12.1477531,14.4746977 12.5871803,14.4746977 Z" id="Shape"></path>
            <path d="M25.8844759,0 C24.2236066,0 22.8752756,1.34845266 22.8752756,3.00920035 C22.8752756,4.67006969 24.2236066,6.01852235 25.8844759,6.01852235 C27.5453453,6.01852235 28.8936763,4.67006969 28.8936763,3.00920035 C28.8936763,1.34845266 27.5453453,0 25.8844759,0 Z M25.8844759,0.506947154 C27.2655328,0.506947154 28.3868508,1.62814345 28.3868508,3.00920035 C28.3868508,4.39025724 27.2655328,5.5115752 25.8844759,5.5115752 C24.503419,5.5115752 23.3821011,4.39025724 23.3821011,3.00920035 C23.3821011,1.62814345 24.503419,0.506947154 25.8844759,0.506947154 Z" id="Shape"></path>
            <path d="M14.0169002,8.60046126 C13.9628843,8.64973258 13.9328348,8.71968569 13.9342947,8.79268024 C13.935633,8.8656748 13.9684805,8.93453299 14.0243213,8.98149282 C14.6014649,9.4680015 15.1106019,10.0321277 15.5356735,10.6578127 C15.5767938,10.7181548 15.6418806,10.7579369 15.7142668,10.7669395 C15.7867748,10.7758205 15.8596477,10.7530706 15.9141503,10.7044075 C16.2049119,10.4449119 16.3880065,10.0672868 16.3880065,9.64732477 C16.3880065,8.86530982 15.7531973,8.23050055 14.9711823,8.23050055 C14.6037764,8.23050055 14.2687314,8.37065009 14.0169002,8.60046126 L14.0169002,8.60046126 Z M14.6032898,8.81506524 C14.715823,8.76518563 14.8402788,8.7374477 14.9711823,8.7374477 C15.4733848,8.7374477 15.8810594,9.14512227 15.8810594,9.64732477 C15.8810594,9.81168417 15.8373843,9.96594599 15.7609834,10.099161 C15.4180306,9.63357747 15.0301862,9.20351791 14.6035331,8.8151869 L14.6032898,8.81506524 L14.6032898,8.81506524 Z" id="Shape"></path>
            <path d="M27.754718,5.09866936 C27.7198022,5.03358255 27.6582435,4.98698769 27.5862222,4.97105055 C27.5142009,4.95499175 27.4387732,4.97117221 27.3796476,5.01533391 C26.9623621,5.32702064 26.4448307,5.5115752 25.8844759,5.5115752 C24.503419,5.5115752 23.3821011,4.39025724 23.3821011,3.00920035 C23.3821011,2.44884551 23.5667773,1.93131415 23.8783424,1.51415029 C23.9225041,1.45502471 23.9386845,1.37959701 23.9227474,1.30745406 C23.9066886,1.23543277 23.8600937,1.17399569 23.7950069,1.13907996 C22.4394981,0.412297553 20.8906754,0 19.2464731,0 C14.8914966,0 11.2067317,2.89180078 10.0092561,6.85808134 C9.98845264,6.92718285 9.99806359,7.00200226 10.0356558,7.063561 C10.0733696,7.1252414 10.1355367,7.16782155 10.2065847,7.18071725 C14.0412317,7.87745024 16.9523761,11.2369028 16.9523761,15.2709466 C16.9523761,16.5831453 16.6443391,17.8240527 16.0966366,18.9250538 C16.0574629,19.0036446 16.0618426,19.0968343 16.1080724,19.1715321 C16.1543023,19.2461082 16.2359346,19.2914865 16.3236497,19.2914865 L19.5575516,19.2896616 C24.7385831,19.1246939 28.8936763,14.8674084 28.8936763,9.64732477 C28.8936763,8.00300087 28.4813787,6.45417816 27.754718,5.09866936 Z M27.4365834,5.58724621 C28.0447496,6.81075654 28.3868508,8.18938028 28.3868508,9.64732477 C28.3868508,14.591124 24.4534178,18.6234647 19.547454,18.7828361 C19.5452642,18.7828361 16.7223216,18.784296 16.7223216,18.784296 C17.1961779,17.7089646 17.4593232,16.52037 17.4593232,15.2709466 C17.4593232,11.0876289 14.510465,7.58790519 10.5795868,6.73812696 C11.7955544,3.11796223 15.2185122,0.506947154 19.2464731,0.506947154 C20.704296,0.506947154 22.0829197,0.848926623 23.30643,1.45721454 C23.0328221,1.9105107 22.8752756,2.44154606 22.8752756,3.00920035 C22.8752756,4.67006969 24.2236066,6.01852235 25.8844759,6.01852235 C26.4521302,6.01852235 26.9832872,5.86097578 27.4365834,5.58736787 L27.4365834,5.58724621 Z" id="Shape"></path>
        </g>
    </g>
</svg>