<?xml version="1.0" encoding="UTF-8"?>
<svg width="28px" height="42.0000983px" viewBox="0 0 28 42.0000983" version="1.1" xmlns="http://www.w3.org/2000/svg" xmlns:xlink="http://www.w3.org/1999/xlink">
    <title>noun-visa-6426216</title>
    <g id="Page-1" stroke="none" stroke-width="1" fill="none" fill-rule="evenodd">
        <g id="noun-visa-6426216" fill="#000000" fill-rule="nonzero">
            <path d="M9.5,42.0000495 L20.14258,42.0000495 C21.4157596,42.0079725 22.4885475,41.0514054 22.62598,39.78564 L22.94482,37.46924 L24.12109,36.293 C24.685753,35.7316282 25.0022566,34.967617 25,34.17139 L25,34 L26,34 C27.1041125,33.9988975 27.9988975,33.1041125 28,32 L28,2 C27.9988975,0.895887477 27.1041125,0.00110245966 26,0 L2,0 C0.895887477,0.00110245966 0.00110245966,0.895887477 0,2 L0,32 C0.00110245966,33.1041125 0.895887477,33.9988975 2,34 L4.00879,34 C4.02807541,34.9769141 4.52364564,35.882723 5.33594,36.42578 L6.55469,37.23828 C6.83309253,37.4235385 7.00026238,37.7358722 7,38.07028 L7,39.5 C7.00162007,40.8800403 8.11995974,41.9983799 9.5,42.0000495 Z M6.44531,34.76172 C6.18744916,34.5903255 6.0238187,34.3088871 6.00244,34 L13,34 C13.5522847,34 14,33.5522847 14,33 C14,32.4477153 13.5522847,32 13,32 L2,32 L2,2 L26,2 L26,32 L25,32 L25,28.33008 C24.9998914,26.5370312 23.5802297,25.0659118 21.7883207,25.0019888 C19.9964117,24.9380657 18.4755332,26.3042867 18.34766,28.09277 L18.05029,32.2627 L17.05129,32.59521 C15.8255855,33.0027132 14.9989091,34.1497408 15,35.44141 L15,36 C15,36.5522847 15.4477153,37 16,37 C16.5522847,37 17,36.5522847 17,36 L17,35.44141 C16.9995995,35.0108965 17.2750831,34.6285628 17.68359,34.49268 L19.31592,33.94868 C19.6996351,33.8209119 19.9686423,33.4746328 19.99756,33.07124 L20.34277,28.2353 C20.3938673,27.5209208 21.0013612,26.975216 21.7171103,27.0007459 C22.4328594,27.0262757 22.9999298,27.6138757 23,28.33008 L23,34.17139 C23.0007147,34.4368905 22.8952135,34.691649 22.707,34.87891 L21.53073,36.05518 C21.2228238,36.3641267 21.0236912,36.7647924 20.96335,37.19678 L20.64011,39.54978 C20.6153327,39.8057755 20.3997704,40.0008401 20.14258,40 L9.5,40 C9.22393534,40 9.00018753,39.7760647 9,39.5 L9,38.07031 C9.00104695,37.0669947 8.49947488,36.12985 7.66406,35.57422 L6.44531,34.76172 Z" id="Shape"></path>
            <path d="M6.89648,15.69067 C6.91064,15.71826 6.92017,15.74731 6.93457,15.7749 C6.95807269,15.8198774 6.98500924,15.8629752 7.01514,15.90381 C8.42753031,18.4356235 11.100877,20.0033765 13.9999947,20.0000054 C14.5174102,19.999695 15.0336013,19.9498239 15.5415,19.85107 C15.5645,19.84814 15.58691,19.84424 15.60986,19.83984 C15.9117206,19.7783331 16.2096858,19.6990551 16.5022,19.60242 C18.5584991,18.9213345 20.2521358,17.4379021 21.1982,15.48926 L21.19991,15.48526 L21.20064,15.48392 L21.20089,15.48292 C22.6012427,12.5936081 22.1338173,9.14645784 20.01461,6.73439 C18.6970706,5.20453802 16.8397338,4.2424581 14.83004,4.04884 L14.81881,4.04811 L14.79244,4.04444 C14.7878,4.04396 14.78365,4.04615 14.77901,4.04591 C14.5205198,4.01472781 14.2603635,3.99939582 13.9999947,3.99997956 C9.96692349,3.99093778 6.5624953,6.99559835 6.07031,10.99854 C6.02308656,11.3302631 5.99959025,11.6649327 5.99999473,12 C5.9996792,13.2808708 6.30571945,14.5432413 6.89258,15.68176 L6.89648,15.69067 Z M8.57813,14.571 C8.19858915,13.7669798 8.00118393,12.8890997 8,12 L8.002,11.97388 C8.57253092,11.8020472 9.09369325,11.4962586 9.522,11.08203 C10.0806,10.54688 10.54153,10.64111 11.37357,11.06494 C11.5625194,11.171085 11.6905623,11.3598973 11.71927,11.57471 C11.7408699,11.9188455 11.5945905,12.2521568 11.32669,12.46924 C11.09769,12.68945 10.85843,12.96484 10.60794,13.25586 C9.56787,14.4624 9.10156,14.78271 8.57813,14.571 Z M16.59766,17.07857 C16.498413,16.6436826 16.3363804,16.2255609 16.11666,15.83736 C15.9075035,15.4008693 15.9226067,14.8901289 16.15719,14.46676 C16.2442832,14.4054453 16.3475822,14.371293 16.45406,14.36861 L16.48043,14.36812 C16.6895761,14.3915614 16.8879814,14.473092 17.05318,14.60348 C17.622922,14.9591397 18.219069,15.2706374 18.83639,15.53524 C18.80904,15.57259 18.78339,15.61124 18.75533,15.64815 C18.67721,15.74972 18.59469,15.84715 18.5107,15.94332 C18.44063,16.0234 18.37057,16.10372 18.29635,16.17989 C18.20601,16.27267 18.1108,16.36007 18.01485,16.44674 C17.93746,16.51668 17.86104,16.58774 17.78023,16.65352 C17.67769,16.73678 17.57023,16.81307 17.46261,16.88952 C17.37961,16.94852 17.2983,17.00976 17.21236,17.06444 C17.09762,17.13769 16.97725,17.20189 16.85763,17.2672 C16.78756,17.30541 16.71895,17.34594 16.64742,17.3812 C16.62549,17.22351 16.60107,17.09546 16.59766,17.07861 L16.59766,17.07857 Z M15.59668,6.7041 C15.60547,6.54761 15.61353,6.38904 15.62207,6.22974 C15.63965,6.23462 15.65869,6.23511 15.67627,6.24023 C15.7207,6.25293 15.76294,6.27123 15.80688,6.28503 C16.088411,6.37367275 16.3628034,6.48356877 16.62769,6.61377 C16.68969,6.64417 16.75293,6.67236 16.81396,6.70496 C17.1043677,6.85924188 17.3813044,7.03764224 17.64185,7.23828 C17.68579,7.27222 17.72656,7.31104 17.76978,7.34628 C17.88892,7.44382 17.99438,7.56028 18.10645,7.66757 C18.08203,7.74167 18.05737,7.81516 18.0332,7.88767 C17.909346,8.41424439 17.5143226,8.83494421 16.99658,8.99167 C16.7177137,9.02722433 16.4384722,8.9287093 16.24365,8.72604 C15.7648789,8.22985327 15.5256944,7.54990388 15.58838,6.86325 L15.59668,6.7041 Z M13.63525,6.03369 C13.62451,6.22119 13.60938,6.41553 13.59961,6.59863 L13.59131,6.75684 C13.4931264,8.04532249 13.9734275,9.31067066 14.90186,10.20947 C15.4366481,10.7114019 16.1405942,10.9939348 16.874,11.001 C17.0193463,11.0009122 17.1644707,10.989649 17.30809,10.96731 C18.190888,10.8079906 18.9651168,10.2827178 19.43943,9.52131 C20.0661081,10.840516 20.1715295,12.3477094 19.7346,13.74131 C19.1761758,13.5069769 18.6367221,13.2297828 18.12107,12.91221 C17.5883333,12.5353876 16.9453316,12.3465926 16.29344,12.37559 C15.7277335,12.4055596 15.190638,12.6337426 14.77635,13.02012 C13.8743335,14.0518315 13.6989885,15.5317792 14.33494,16.74571 L14.38768,16.84727 C14.5008074,17.0439717 14.5850056,17.2559458 14.63768,17.47666 C14.63968,17.48789 14.66941,17.6461 14.6909,17.84824 C14.6917791,17.878731 14.6904724,17.9092458 14.68699,17.93955 C12.9590008,18.1358648 11.2302183,17.5780501 9.94285,16.40879 C10.7944689,15.957696 11.5381297,15.3272778 12.12256,14.561 C12.32956,14.32125 12.52441,14.09225 12.71777,13.90621 C13.4534145,13.2465418 13.8198003,12.2687062 13.69877,11.28805 C13.5738495,10.4269369 13.0420883,9.67858866 12.27,9.27734 C11.1855025,8.58512095 9.80536874,8.5559704 8.69261,9.20178 C9.6726233,7.35393132 11.5469851,6.15251936 13.63525,6.03369 Z" id="Shape"></path>
            <path d="M22,23 C22,22.4477153 21.5522847,22 21,22 L7,22 C6.44771525,22 6,22.4477153 6,23 C6,23.5522847 6.44771525,24 7,24 L21,24 C21.5522847,24 22,23.5522847 22,23 Z" id="Path"></path>
            <circle id="Oval" cx="9" cy="26" r="1"></circle>
            <circle id="Oval" cx="12" cy="26" r="1"></circle>
            <circle id="Oval" cx="15" cy="26" r="1"></circle>
        </g>
    </g>
</svg>