<?xml version="1.0" encoding="UTF-8"?>
<svg width="26.6750794px" height="24px" viewBox="0 0 26.6750794 24" version="1.1" xmlns="http://www.w3.org/2000/svg" xmlns:xlink="http://www.w3.org/1999/xlink">
    <title>noun-thinking-6198757</title>
    <g id="Page-1" stroke="none" stroke-width="1" fill="none" fill-rule="evenodd">
        <g id="Group" fill="#000000">
            <path d="M9.6445362,17.5951653 C9.57241475,18.2872349 9.83274357,18.9709068 10.3919318,19.389804 C10.7945276,19.6916273 11.2845583,19.8057373 11.7681673,19.7479413 L12.0136766,19.7187964 L11.9548927,19.2282717 L11.7098773,19.2574166 C11.350752,19.3003931 10.9866869,19.218392 10.6883214,18.9946179 C10.2842436,18.6918066 10.0955423,18.2022699 10.131109,17.7023595 C10.6191638,17.7641073 11.1126524,17.6939618 11.5715622,17.5102003 L11.8007701,17.4188135 L11.6175026,16.9599037 L11.3882947,17.0517845 C10.8310823,17.2745706 10.2111342,17.2982818 9.6361385,17.0675919 C8.75388562,16.7139004 8.21050479,15.8573346 8.14332316,14.9014783 L8.12603377,14.654981 L7.63303917,14.6895598 L7.65032856,14.9360571 C7.73084771,16.0825906 8.39377233,17.1021707 9.45237698,17.5260077 C9.51610074,17.5516948 9.57982449,17.574912 9.6445362,17.5951653 Z" id="Path"></path>
            <g transform="translate(14.024345, 14.550165) rotate(-143.152405) translate(-14.024345, -14.550165) translate(12.339559, 13.751568)" id="Path">
                <path d="M2.84973521,0.701174113 C2.58844287,0.950632927 2.24771366,1.1032172 1.87451026,1.1032172 C1.30046647,1.1032172 0.804610547,0.743162231 0.552311058,0.222290032 L0.444396822,-3.89991525e-15 L7.0997849e-15,0.215429229 L0.107664435,0.437719261 C0.443397616,1.13038598 1.11086715,1.59719505 1.87451026,1.59719505 C2.37761043,1.59719505 2.83849415,1.39493856 3.19096402,1.05848476 L3.36957208,0.8880624 L3.02859307,0.530477323 L2.84973521,0.701174113 Z"></path>
            </g>
            <path d="M11.491537,8.3680648 C10.6033564,7.74218887 9.46126867,7.69526053 8.66892062,8.31767857 C8.26681881,8.63333344 8.01093583,9.07445988 7.90769348,9.56498457 C7.85780124,9.5215141 7.80593307,9.47952559 7.75208897,9.43901901 C6.52108439,8.51625957 4.69581878,8.84920382 3.68216654,10.2017281 C3.24647391,10.7826516 3.03356742,11.4559499 3.03010955,12.1070189 C2.54600662,12.1015851 2.07573521,12.246816 1.68746491,12.5520972 C0.992925412,13.097454 0.733584561,14.0202134 0.947479016,14.9222256 C0.252445535,15.6103433 -0.122487239,16.6600563 0.0360811676,17.7680592 C0.131419804,18.4334537 0.406074115,19.0252448 0.796320348,19.4925524 C0.875851543,20.0947171 1.12333681,20.7042916 1.54420996,21.2397687 C2.66999625,22.6728122 4.59554032,23.0205759 5.83642455,22.0459483 C5.99845083,21.9185008 6.14170578,21.7747518 6.26520142,21.6176654 C6.32447933,21.7327633 6.39511884,21.8434154 6.47711994,21.9481397 C7.24180497,22.9212854 8.75684952,23.0378653 9.89844325,22.1976009 C10.0960363,22.678246 10.4116911,23.101589 10.840962,23.4231717 C12.258198,24.4852342 14.4099861,24.0431198 15.6365448,22.4060616 C15.71657,22.2988674 15.7911614,22.1892032 15.859331,22.0780571 C17.275579,23.0413232 19.3517878,22.5814254 20.5482135,20.9848737 C21.6083002,19.5706016 21.6181798,17.7413841 20.6875166,16.5874408 C21.0654133,16.0786388 21.2491748,15.4809199 21.2205238,14.910864 C24.3721327,13.9806948 26.6750794,11.0622458 26.6750794,7.61078951 C26.6750794,3.41045569 23.2651177,0 19.0642899,0 C14.8639561,0 11.4539944,3.41045569 11.4539944,7.61078951 C11.4539944,7.8661785 11.4663439,8.11909758 11.491537,8.3680648 Z M19.3053534,12.9107285 C19.3789568,12.443421 19.2821362,11.9726556 18.9892045,11.5996988 C18.4645951,10.9313404 17.4919434,10.800435 16.651679,11.2015488 C16.5820275,11.2346457 16.5015083,11.2331637 16.4328447,11.1985849 C16.3641812,11.1635122 16.3162648,11.0983065 16.3024333,11.0227271 C16.1241056,10.0451356 15.1316946,9.23500421 13.8670992,9.08335156 C13.3093929,9.01616993 12.7744098,9.08680944 12.313524,9.26464317 C12.5160569,9.59659946 12.6439984,9.95276089 12.6993244,10.3074404 L12.7378551,10.5514678 L12.2498003,10.6280351 L12.2112697,10.3840077 C12.1514978,10.0011712 11.9889775,9.61685274 11.7217329,9.27699273 C10.9985424,8.3567032 9.7695138,8.0929165 8.97222592,8.71879242 C8.68769196,8.94256653 8.50047256,9.24636581 8.41007375,9.5867198 C8.36462736,9.76405955 8.34486805,9.95029098 8.35079584,10.1394863 C8.35128983,10.1528238 8.35079584,10.1661614 8.34881991,10.1790049 C8.37055515,10.6364328 8.5419671,11.112632 8.86404374,11.5221435 L9.01619037,11.7167727 L8.62792007,12.0215599 L8.47527945,11.8274248 C8.09244296,11.3403579 7.8899101,10.7782058 7.85977717,10.232849 C7.74566719,10.0846542 7.61080995,9.95078496 7.45569942,9.83420507 C6.43216753,9.06705014 4.92008687,9.37381331 4.0773526,10.4981177 C3.6549975,11.0617518 3.47765776,11.7276403 3.53446575,12.3505523 C3.54088753,12.4251437 3.51371848,12.4987471 3.4593804,12.5511092 C3.40504232,12.6029774 3.32995697,12.6276765 3.25585958,12.6177969 C2.80435951,12.557531 2.35285944,12.6573155 1.99274614,12.9403675 C1.41528051,13.3938435 1.23942272,14.1837216 1.46072691,14.9306233 C1.48789595,15.022504 1.45973894,15.1213006 1.38811147,15.1850243 C0.736548457,15.7669358 0.382856934,16.7059967 0.525123915,17.6979137 C0.602679179,18.2398125 0.818055581,18.7249034 1.12630071,19.1151497 C1.67116349,19.785978 2.49463244,20.1668386 3.35317415,20.0438369 C3.94150739,19.9593659 4.44783953,19.6526027 4.81536257,19.2119702 C4.19096859,18.6923006 3.81060201,17.9118081 3.75083012,17.0606761 L3.73354073,16.8146728 L4.22653534,16.780094 L4.24382473,17.0265913 C4.31051238,17.9824476 4.85389321,18.8390134 5.73614608,19.1927049 C6.31163578,19.4233948 6.93108993,19.3996836 7.48830227,19.1768975 L7.71751019,19.0850167 L7.9012717,19.5434326 L7.67206379,19.6353133 C6.99777758,19.9050278 6.24840601,19.9302209 5.55238457,19.6511208 C5.43827459,19.6051804 5.32861046,19.5528182 5.22339217,19.4935403 C4.77633794,20.0458128 4.15046202,20.4286493 3.42331967,20.5328796 C2.7139607,20.6341461 2.02189111,20.4538424 1.44590743,20.069524 C1.55754749,20.3703594 1.71957378,20.663785 1.93297425,20.9349815 C2.87895088,22.139311 4.4883461,22.4767011 5.53114332,21.657678 C5.7781346,21.4635428 5.96930586,21.2224793 6.10515107,20.9517769 C6.15158543,20.8584142 6.25235787,20.8040761 6.35609421,20.8169196 C6.45983055,20.8297632 6.54430157,20.9068245 6.56702477,21.0085849 C6.61741099,21.2363108 6.71620751,21.4526752 6.86539025,21.6428585 C7.49176015,22.4396524 8.74845182,22.4747251 9.66923533,21.7515347 C9.69986225,21.7273295 9.72999519,21.7026304 9.75914016,21.6774373 C9.80557452,21.6369307 9.8658404,21.6156895 9.92758822,21.6171714 C9.96611886,21.6186533 10.0051435,21.6191473 10.0436741,21.6196413 C10.1503744,21.6206293 10.244725,21.6907748 10.2768339,21.7930292 C10.4294745,22.28059 10.7174664,22.7133187 11.1373515,23.0279856 C12.3530427,23.9388895 14.1886819,23.5140645 15.2413588,22.109672 C15.3648544,21.9446818 15.4730366,21.7727759 15.5644234,21.5969181 L15.5644234,21.5964241 C15.8143785,21.117261 15.9452839,20.6064831 15.9596094,20.1105245 C15.9596094,20.1070667 15.9660312,19.9035459 16.2406855,19.8620513 C16.9940089,19.7479413 17.6529817,19.416479 18.1405425,18.9536174 L18.3193642,18.7831934 L18.6597182,19.1413307 L18.4808965,19.3112607 C17.9523351,19.813641 17.24841,20.182152 16.4417364,20.3293588 C16.4046877,20.7675214 16.2895898,21.2121057 16.0934787,21.6394006 L16.0934787,21.6394006 C17.3091698,22.507328 19.1136882,22.0760812 20.1530275,20.6884842 C21.0476299,19.4950223 21.1039439,17.9592304 20.3545724,16.9633616 C20.2859088,17.0280733 20.2137873,17.0908091 20.13722,17.150581 L19.9430849,17.3032216 L19.6378037,16.9149513 L19.8324328,16.7623107 C20.0646046,16.5800311 20.2547879,16.3651487 20.3995248,16.1339648 C20.8273137,15.447823 20.8579406,14.6085466 20.3906331,14.0137916 C20.1505576,13.7085104 19.8161314,13.5153632 19.4441625,13.4343501 C19.4367528,13.4323741 19.429837,13.4303982 19.4229212,13.4284223 C19.060832,13.3538309 18.66367,13.3839638 18.2833034,13.5188211 L18.0506377,13.6013162 L17.8856475,13.1359846 L18.1183133,13.0534895 C18.5130053,12.9136924 18.920047,12.8672581 19.3053534,12.9107285 Z M21.1049319,14.3077113 C21.1177755,14.34476 21.129631,14.3818086 21.1400047,14.4193513 C24.0564778,13.5306767 26.1810968,10.8167364 26.1810968,7.61078951 C26.1810968,3.68313407 22.9924393,0.493982573 19.0642899,0.493982573 C15.1366345,0.493982573 11.9479769,3.68313407 11.9479769,7.61078951 C11.9479769,8.01140938 11.9810738,8.40461951 12.0447975,8.787456 L12.0531952,8.83734824 C12.6025039,8.60814033 13.249621,8.51181372 13.9258832,8.59282687 C15.3001427,8.75781705 16.3785066,9.60845504 16.7139208,10.6413726 C17.7023799,10.289657 18.7733342,10.5247927 19.3779688,11.2944176 C19.7622873,11.7844483 19.8926987,12.4039024 19.7884684,13.0169348 C20.1752567,13.1463582 20.5195626,13.3780361 20.7789034,13.7075224 C20.9231463,13.8912839 21.0318225,14.0938168 21.1049319,14.3077113 Z" id="Shape"></path>
            <g transform="translate(18.817473, 1.459707)" id="Path">
                <polygon points="1.88782708e-14 2.364494e-15 1.88782708e-14 1.33375397 1.33375397 1.33375397 1.33375397 2.364494e-15"></polygon>
            </g>
            <g transform="translate(22.313497, 2.884271) rotate(29.999971) translate(-22.313497, -2.884271) translate(21.646621, 2.217394)" id="Path">
                <polygon points="1.88782708e-14 2.364494e-15 1.88782708e-14 1.33375397 1.33375397 1.33375397 1.33375397 2.364494e-15"></polygon>
            </g>
            <g transform="translate(24.384398, 4.955340) rotate(59.999995) translate(-24.384398, -4.955340) translate(23.717521, 4.288463)" id="Path">
                <polygon points="1.88782708e-14 2.364494e-15 1.88782708e-14 1.33375397 1.33375397 1.33375397 1.33375397 2.364494e-15"></polygon>
            </g>
            <g transform="translate(25.142742, 7.784443) rotate(90.000000) translate(-25.142742, -7.784443) translate(24.475865, 7.117566)" id="Path">
                <polygon points="1.88782708e-14 2.364494e-15 1.88782708e-14 1.33375397 1.33375397 1.33375397 1.33375397 2.364494e-15"></polygon>
            </g>
            <g transform="translate(24.384559, 10.613886) rotate(120.000005) translate(-24.384559, -10.613886) translate(23.717682, 9.947009)" id="Path">
                <polygon points="1.88782708e-14 2.364494e-15 1.88782708e-14 1.33375397 1.33375397 1.33375397 1.33375397 2.364494e-15"></polygon>
            </g>
            <g transform="translate(22.313490, 12.684885) rotate(150.000029) translate(-22.313490, -12.684885) translate(21.646613, 12.018008)" id="Path">
                <polygon points="1.88782708e-14 2.364494e-15 1.88782708e-14 1.33375397 1.33375397 1.33375397 1.33375397 2.364494e-15"></polygon>
            </g>
            <g transform="translate(13.826095, 7.784877) rotate(-90.000000) translate(-13.826095, -7.784877) translate(13.159218, 7.118000)" id="Path">
                <polygon points="1.88782708e-14 2.364494e-15 1.88782708e-14 1.33375397 1.33375397 1.33375397 1.33375397 2.364494e-15"></polygon>
            </g>
            <g transform="translate(14.584228, 4.955431) rotate(-59.999995) translate(-14.584228, -4.955431) translate(13.917351, 4.288554)" id="Path">
                <polygon points="1.88782708e-14 2.364494e-15 1.88782708e-14 1.33375397 1.33375397 1.33375397 1.33375397 2.364494e-15"></polygon>
            </g>
            <g transform="translate(16.655238, 2.884432) rotate(-29.999971) translate(-16.655238, -2.884432) translate(15.988361, 2.217555)" id="Path">
                <polygon points="1.88782708e-14 2.364494e-15 1.88782708e-14 1.33375397 1.33375397 1.33375397 1.33375397 2.364494e-15"></polygon>
            </g>
            <path d="M18.8172986,6.40448407 C18.2561344,6.51908802 17.8332853,7.01603449 17.8332853,7.61078951 C17.8332853,8.29001555 18.3850639,8.84179408 19.0642899,8.84179408 C19.6595389,8.84179408 20.1559914,8.418945 20.2705953,7.8577808 L22.2470196,7.8577808 L22.2470196,7.36379822 L20.2705953,7.36379822 C20.1722928,6.88216521 19.7929142,6.5027866 19.3112812,6.40448407 L19.3112812,3.42774508 L18.8172986,3.42774508 L18.8172986,6.40448407 Z M19.0642899,6.87376751 C19.4713315,6.87376751 19.8013119,7.20374787 19.8013119,7.61078951 C19.8013119,8.01733717 19.4713315,8.34781151 19.0642899,8.34781151 C18.6577422,8.34781151 18.3272679,8.01733717 18.3272679,7.61078951 C18.3272679,7.20374787 18.6577422,6.87376751 19.0642899,6.87376751 Z" id="Shape"></path>
        </g>
    </g>
</svg>