<svg id="icon-perplexe" viewBox="0 0 30 31">
    <g id="Conception" stroke="none" stroke-width="1" fill="none" fill-rule="evenodd">
      <g id="PPS-cas-4--Une-garanties-OFF" transform="translate(-17 -162)">
        <g id="02-Icons/medium/system/reflection-4" transform="translate(17 162)">
          <path d="M15 .242c8.27 0 15 6.729 15 15s-6.73 15-15 15c-3.984 0-7.61-1.561-10.299-4.104-.38 2.251-1.209 3.256-1.266 3.324a.433.433 0 01-.662-.562c.017-.02.874-1.09 1.155-3.55A14.939 14.939 0 010 15.243c0-8.271 6.729-15 15-15zm0 .867C7.207 1.11.867 7.45.867 15.242c0 3.36 1.179 6.45 3.144 8.878.03-1.164-.07-2.562-.39-4.215-1.139-5.874 1.115-7.536 1.985-7.95l.009-.131a5.39 5.39 0 015.366-4.953 5.39 5.39 0 015.383 5.383 5.39 5.39 0 01-5.383 5.384 5.391 5.391 0 01-5.34-4.702c-.767.556-2.06 2.204-1.168 6.804.42 2.165.48 3.92.364 5.312A14.088 14.088 0 0015 29.375c7.793 0 14.133-6.34 14.133-14.133 0-7.793-6.34-14.133-14.133-14.133zm5.617 18.118a.434.434 0 01-.388.776c-1.86-.93-3.616-1.022-5.22-.275-1.197.556-1.846 1.377-1.853 1.386a.432.432 0 01-.608.075.434.434 0 01-.075-.609c.03-.039 3.102-3.874 8.144-1.353zM10.98 7.738a4.521 4.521 0 00-4.516 4.516 4.521 4.521 0 004.516 4.516 4.52 4.52 0 004.516-4.516 4.521 4.521 0 00-4.516-4.516zm10.006-.55c1.002.077 1.877.584 2.603 1.508a.434.434 0 01-.683.535c-.568-.723-1.235-1.12-1.983-1.179-1.554-.12-3.017 1.215-3.032 1.229a.434.434 0 01-.591-.634c.07-.066 1.75-1.61 3.686-1.46z" id="Combined-Shape" fill="#5C7B95"></path>
          <path d="M11.762 10.195c.76-.107 1.506.719 1.665 1.845.159 1.126-.329 2.127-1.09 2.234-.76.107-1.506-.719-1.665-1.845-.159-1.126.329-2.126 1.09-2.234zm8.202-1.158c.76-.107 1.506.719 1.665 1.845.159 1.127-.33 2.127-1.09 2.234-.76.107-1.506-.719-1.665-1.845-.159-1.126.329-2.126 1.09-2.234z" id="Combined-Shape" fill="#0154c0"></path>
        </g>
      </g>
    </g>
  </svg>
