<?xml version="1.0" encoding="UTF-8"?>
<svg width="29.9994001px" height="30px" viewBox="0 0 29.9994001 30" version="1.1" xmlns="http://www.w3.org/2000/svg" xmlns:xlink="http://www.w3.org/1999/xlink">
    <title>noun-phone-6103384</title>
    <g id="Page-1" stroke="none" stroke-width="1" fill="none" fill-rule="evenodd">
        <g id="noun-phone-6103384" transform="translate(0.000000, 0.000000)" fill="#0154C0" fill-rule="nonzero">
            <path d="M0.0495650093,6.03314197 C0.128802577,5.0577482 0.556639274,4.14350756 1.25477486,3.45773916 L3.91816866,0.794345366 C4.44463684,0.261993863 5.1700442,-0.0254618951 5.91825881,0.0017735473 C6.66647342,0.0290089897 7.36906157,0.368444607 7.85543194,0.937664016 L11.4124008,5.04790957 C12.3362267,6.11428025 12.2793468,7.71317224 11.2820809,8.71120092 L8.97965009,11.0136317 C8.6613376,11.3155006 8.52808543,11.7641628 8.63001925,12.1908444 C9.1528066,14.4222449 10.3027901,16.457614 11.9443463,18.0569101 C13.5434455,19.6977595 15.578307,20.8472551 17.8090788,21.369904 C18.2357643,21.47198 18.684497,21.3387068 18.9862915,21.0202732 L21.2887223,18.7178424 C22.286751,17.7205764 23.885643,17.6636965 24.9520137,18.5875224 L29.0612593,22.1444913 C29.6307516,22.6306943 29.9703882,23.3333337 29.9976272,24.0816471 C30.0248663,24.8299604 29.7372138,25.5554335 29.204578,26.0817546 L26.5411842,28.7451484 C25.8554158,29.443284 24.9411751,29.8711207 23.9657814,29.9503582 C23.2006125,30.0187038 22.4307768,30.0164724 21.666017,29.9436923 C16.8765077,29.5024041 11.6873727,26.4880463 7.59945816,22.4004651 C3.51154365,18.3128839 0.497519115,13.1234155 0.056230993,8.33123985 C-0.0164467504,7.56703186 -0.0186781446,6.79775872 0.0495650093,6.03314197 L0.0495650093,6.03314197 Z M1.6887304,5.23055753 C1.55375128,5.52355746 1.47117672,5.83794994 1.4447554,6.15946236 C1.38435257,6.84004767 1.38658394,7.5247423 1.45142138,8.20491946 C1.86137938,12.6544636 4.71575361,17.5286309 8.59368963,21.4062336 C12.4716257,25.2838363 17.345793,28.1385439 21.7953371,28.5485019 C22.4755142,28.6133393 23.1602089,28.6155707 23.8407942,28.5551678 C24.4899044,28.507377 25.0983118,28.2208651 25.5486192,27.7509169 L28.212013,25.0875231 C28.4707283,24.8380007 28.6112386,24.4903035 28.5985231,24.1310913 C28.5858076,23.7718791 28.4210642,23.4349874 28.1453532,23.2043827 L24.0347743,19.6474138 C23.5252248,19.2034182 22.7583854,19.2317224 22.2829538,19.7120738 L19.980523,22.0145046 C19.3401307,22.6657325 18.4094037,22.9410836 17.5177753,22.7430966 C15.0215038,22.1636365 12.7431651,20.8819842 10.9517814,19.0494751 C9.11919773,17.2581485 7.83753241,14.9797866 7.2581598,12.4834811 C7.06017287,11.5918527 7.33552398,10.6611257 7.98675182,10.0207334 L10.2891826,7.71830265 C10.7695341,7.242871 10.7978383,6.47603161 10.3538426,5.96648213 L6.79687372,1.85490337 C6.56626901,1.57919238 6.22937731,1.41444892 5.87016512,1.40173344 C5.51095292,1.38901797 5.16325578,1.5295282 4.91373333,1.78824354 L2.24900634,4.45197063 C2.01818842,4.67676816 1.82856041,4.94028454 1.6887304,5.23055753 Z" id="Shape"></path>
        </g>
    </g>
</svg>