<svg  id="icon-system-tooltip" viewBox="0 0 19 19">
    <circle fill="#0154c0" cx="9.5" cy="9.5" r="9.5" />
    <path d="M10.013 10.633v-.31c0-.28.07-.51.21-.687.14-.177.357-.377.651-.6.243-.198.438-.372.585-.52.147-.149.274-.343.381-.582.107-.24.16-.528.16-.867 0-.38-.092-.726-.276-1.04a1.948 1.948 0 00-.822-.748C10.538 5.093 10.098 5 9.582 5 8.532 5 7.67 5.442 7 6.325l1.115.965c.397-.503.828-.755 1.291-.755.243 0 .432.062.569.186.136.124.204.297.204.52a.692.692 0 01-.155.458 2.924 2.924 0 01-.485.433 6.471 6.471 0 00-.569.501c-.15.153-.28.364-.386.632-.107.268-.16.596-.16.984v.384h1.59zM9.241 14c.272 0 .506-.11.7-.328.195-.219.293-.485.293-.799a1.14 1.14 0 00-.292-.786.908.908 0 00-.701-.328.908.908 0 00-.701.328 1.14 1.14 0 00-.293.786c0 .314.098.58.293.799a.908.908 0 00.7.328z" fill="#FFF" fillRule="nonzero" />
  </svg>
