<svg id="icon-sad" viewBox="0 0 40 40">
    <g id="02-Icons/medium/system/sad" stroke="none" stroke-width="1" fill="none" fill-rule="evenodd">
      <path d="M20 0c11.046 0 20 8.954 20 20s-8.954 20-20 20c-4.51 0-8.67-1.492-12.016-4.01.621-.03 1.201-.112 1.737-.248A18.7 18.7 0 0020 38.8c10.383 0 18.8-8.417 18.8-18.8C38.8 9.617 30.383 1.2 20 1.2 9.617 1.2 1.2 9.617 1.2 20c0 1.78.248 3.504.71 5.136-.24.717-.434 1.4-.58 2.049A19.95 19.95 0 010 20C0 8.954 8.954 0 20 0zm4.707 28.293a1 1 0 01-1.414 1.414c-2.276-2.276-4.31-2.276-6.586 0a1 1 0 01-1.414-1.414c3.057-3.057 6.357-3.057 9.414 0zM13.514 14a2.507 2.507 0 012.515 2.5c0 1.38-1.126 2.5-2.515 2.5A2.507 2.507 0 0111 16.5c0-1.38 1.126-2.5 2.514-2.5zm12.971 0A2.507 2.507 0 0129 16.5c0 1.38-1.126 2.5-2.515 2.5a2.507 2.507 0 01-2.514-2.5c0-1.38 1.126-2.5 2.514-2.5zM15.284 6.452a.65.65 0 11.7 1.096C14 8.817 11.667 9.45 9 9.45a.65.65 0 110-1.3c2.427 0 4.517-.567 6.284-1.698zm8.895 0c1.767 1.131 3.857 1.698 6.284 1.698a.65.65 0 110 1.3c-2.667 0-5-.633-6.984-1.902a.65.65 0 11.7-1.096z" id="Combined-Shape" fill="#627A93"></path>
      <path d="M6.62 19.526a1 1 0 011.76 0C13.353 28.76 13.353 34 7.5 34s-5.853-5.239-.88-14.474z" id="Path" fill="#0154c0" fill-rule="nonzero"></path>
    </g>
  </svg>
