<svg width="20px" height="31.8014286px" viewBox="0 0 20 31.8014286" version="1.1" xmlns="http://www.w3.org/2000/svg" xmlns:xlink="http://www.w3.org/1999/xlink"><title>noun-visa-6342380</title><g id="Page-1" stroke="none" stroke-width="1" fill="none" fill-rule="evenodd"><g id="noun-visa-6342380" fill="#000000" fill-rule="nonzero"><path d="M17.9528667,5.70856891 L17.8033767,5.70856891 L17.8033767,1.62168885 C17.8033767,1.09020802 17.5888146,0.615357514 17.2145621,0.319191493 C16.8462891,0.0272463642 16.3686247,-0.06842722 15.8705593,0.0487025724 L1.7741822,3.36843525 C0.795990151,3.59882568 0,4.62309582 0,5.65158685 L0,7.75535048 L0,29.7542953 C0,30.8830325 0.91839606,31.8014286 2.04713331,31.8014286 L17.9528667,31.8014286 C19.0816039,31.8014286 20,30.8830325 20,29.7542953 L20,7.75570222 C20,6.62696497 19.0816039,5.70856891 17.9528667,5.70856891 Z M1.93281745,4.04166775 L16.0291945,0.721935073 C16.3176222,0.653697296 16.5863524,0.703644535 16.7854379,0.861224556 C16.9961308,1.02794985 17.1118537,1.29808703 17.1118537,1.62168885 L17.1118537,5.70856891 L2.04713331,5.70856891 C1.52761168,5.70856891 1.05276117,5.90343349 0.691522876,6.22386965 L0.691522876,5.65193859 C0.691171298,4.93755238 1.25993669,4.20030299 1.93281745,4.04166775 Z M19.3088287,29.754647 C19.3088287,30.5020969 18.7006683,31.1102573 17.9532184,31.1102573 L2.04713331,31.1102573 C1.29968343,31.1102573 0.691523039,30.5020969 0.691523039,29.754647 L0.691523039,7.75570222 C0.691523039,7.00825234 1.29968343,6.40009195 2.04713331,6.40009195 L17.9528667,6.40009195 C18.7003166,6.40009195 19.308477,7.00825234 19.308477,7.75570222 L19.308477,29.754647 L19.3088287,29.754647 Z M10,9.19819255 C6.82237074,9.19819255 4.23742526,11.783138 4.23742526,14.9607673 C4.23742526,18.1383966 6.82237074,20.7236938 10,20.7236938 C13.1776293,20.7236938 15.7625747,18.1387483 15.7625747,14.961119 C15.7625747,11.7834898 13.1776293,9.19819255 10,9.19819255 Z M14.5571579,12.7381152 L12.1340134,12.7381152 C11.9623637,11.6621391 11.6640872,10.6952027 11.2465705,10.0451852 C12.7027788,10.4145133 13.9092508,11.4155686 14.5571579,12.7381152 Z M15.0714034,14.961119 C15.0714034,15.4947103 14.9880408,16.0093076 14.8343299,16.4925999 L12.2247626,16.4925999 C12.2782272,15.9889066 12.3053113,15.4721989 12.3053113,14.961119 C12.3053113,14.4500392 12.2782272,13.9333315 12.2247626,13.4296382 L14.8343299,13.4296382 C14.9880408,13.9129305 15.0714034,14.4275278 15.0714034,14.961119 Z M10,20.0325225 C9.50404502,20.0325225 8.86457967,18.9871479 8.56102708,17.1841229 L11.4393247,17.1841229 C11.1354203,18.9871479 10.495955,20.0325225 10,20.0325225 Z M8.46605698,16.4925999 C8.41505452,16.0212668 8.38586001,15.5101869 8.38586001,14.961119 C8.38586001,14.4120511 8.41505452,13.9009713 8.46605698,13.4296382 L11.5342948,13.4296382 C11.5852972,13.9009713 11.6144917,14.4120511 11.6144917,14.961119 C11.6144917,15.5101869 11.5852972,16.0212668 11.5342948,16.4925999 L8.46605698,16.4925999 Z M4.92859655,14.961119 C4.92859655,14.4275278 5.0119592,13.9129305 5.16567007,13.4296382 L7.77523743,13.4296382 C7.72177278,13.9333315 7.69468871,14.4500392 7.69468871,14.961119 C7.69468871,15.4721989 7.72177278,15.9889066 7.77523743,16.4925999 L5.16567007,16.4925999 C5.0119592,16.0089558 4.92859655,15.4947103 4.92859655,14.961119 Z M10,9.88971559 C10.495955,9.88971559 11.1354203,10.9350902 11.4389729,12.7381152 L8.56067534,12.7381152 C8.86457967,10.9350902 9.50404502,9.88971559 10,9.88971559 Z M8.75342948,10.0451852 C8.33591277,10.6955545 8.0376363,11.6624908 7.86598663,12.7381152 L5.44284207,12.7381152 C6.09074921,11.4155686 7.29722125,10.4145133 8.75342948,10.0451852 Z M5.44284207,17.1837712 L7.86598663,17.1837712 C8.0376363,18.2597472 8.33591277,19.2266836 8.75342948,19.8770529 C7.29722125,19.507373 6.09074921,18.5066695 5.44284207,17.1837712 Z M11.2465705,19.8770529 C11.6640872,19.2266836 11.9623637,18.2597472 12.1340134,17.1837712 L14.5571579,17.1837712 C13.9092508,18.5066695 12.7027788,19.507373 11.2465705,19.8770529 Z M7.30953218,23.9871479 C7.11853676,23.9871479 6.96377066,23.8323818 6.96377066,23.6413864 C6.96377066,23.4503909 7.11853676,23.2956248 7.30953218,23.2956248 L12.6904678,23.2956248 C12.8814632,23.2956248 13.0362293,23.4503909 13.0362293,23.6413864 C13.0362293,23.8323818 12.8814632,23.9871479 12.6904678,23.9871479 L7.30953218,23.9871479 Z M15.110095,26.0149354 C15.110095,26.2059309 14.9553289,26.3606969 14.7643335,26.3606969 L5.23566655,26.3606969 C5.04467112,26.3606969 4.88990503,26.2059309 4.88990503,26.0149354 C4.88990503,25.82394 5.04467112,25.6691739 5.23566655,25.6691739 L14.7643335,25.6691739 C14.9553289,25.6691739 15.110095,25.82394 15.110095,26.0149354 Z M15.110095,28.042723 C15.110095,28.2337184 14.9553289,28.3884845 14.7643335,28.3884845 L5.23566655,28.3884845 C5.04467112,28.3884845 4.88990503,28.2337184 4.88990503,28.042723 C4.88990503,27.8517275 5.04467112,27.6969615 5.23566655,27.6969615 L14.7643335,27.6969615 C14.9553289,27.6969615 15.110095,27.8517275 15.110095,28.042723 Z" id="Shape"></path></g></g></svg>
