<svg width="24px" height="23.9964496px" viewBox="0 0 24 23.9964496" version="1.1" xmlns="http://www.w3.org/2000/svg" xmlns:xlink="http://www.w3.org/1999/xlink"><title>noun-rocket-6312230</title><g id="Page-1" stroke="none" stroke-width="1" fill="none" fill-rule="evenodd"><g id="noun-rocket-6312230" fill="#000000" fill-rule="nonzero"><path d="M23.9949567,0.268776858 C23.9893757,0.123670544 23.8721745,0.00925979703 23.7298587,0.00367878497 C23.5959144,-0.0019022271 20.4677571,-0.11910348 16.4550094,1.55799064 C13.7677521,2.68256457 10.3103152,4.80893017 7.25750156,8.79656329 C6.28919597,8.65982849 4.8688284,8.64308546 3.34521211,9.25141577 C1.69323254,9.90997519 0.644002272,10.9926915 0.0552054995,11.7851952 C0.00218588493,11.8577484 -0.0145571513,11.9526256 0.013347909,12.0363408 C0.0412529694,12.1228465 0.108225114,12.1898186 0.194730801,12.2177237 L4.34421327,13.5236805 C4.24654556,13.7190159 4.15166835,13.9143513 4.05679115,14.1152678 C4.00656204,14.221307 4.02888609,14.3468798 4.11260127,14.430595 L9.56245955,19.8804532 C9.61547916,19.9334729 9.68803232,19.9613779 9.76058547,19.9613779 C9.79965256,19.9613779 9.84151015,19.9530064 9.87778673,19.9362634 C10.0787032,19.8413862 10.2712481,19.7437184 10.469374,19.6460507 L11.7753308,23.8011142 C11.8032359,23.8876199 11.870208,23.954592 11.9567137,23.9824971 C11.9846188,23.9908686 12.0125238,23.9964496 12.0432194,23.9964496 C12.10182,23.9964496 12.1604207,23.9769161 12.2106498,23.9406395 C13.0031535,23.3518427 14.0858698,22.3026125 14.7444292,20.6506329 C15.3499691,19.1298071 15.3360165,17.7150206 15.2020722,16.7439245 C16.1229392,16.0435074 16.9796246,15.2928613 17.7665473,14.5003576 C17.875377,14.3915279 17.8725865,14.2129355 17.7665473,14.1068963 C17.6577175,13.9980665 17.4791252,14.000857 17.3730859,14.1068963 C15.9778329,15.5161018 14.3537584,16.7774105 12.531558,17.8824509 L6.11339409,11.4642871 C9.42572475,6.0255908 13.6310173,3.29368539 17.0996163,1.92633744 L22.0890411,6.91576222 C21.4332722,8.58727533 20.4621761,10.4262188 19.0250655,12.2456287 C18.9301883,12.3656205 18.9497218,12.5414224 19.0697136,12.6362996 C19.1924959,12.7311768 19.3655072,12.7116432 19.4603844,12.5916515 C24.2209877,6.56694897 24.0005377,0.327377484 23.9977472,0.265986352 L23.9949567,0.268776858 Z M14.6830381,17.1262238 C14.7695438,18.0052332 14.7276862,19.1884077 14.2253951,20.446926 C13.6979895,21.7696258 12.8747902,22.6765403 12.1883257,23.2513845 L10.9772461,19.4004862 C12.305527,18.7168122 13.5389306,17.9550041 14.6830381,17.1262238 Z M12.0348479,18.1838256 C11.3260594,18.5968205 10.5865753,18.9847008 9.8191861,19.3502571 L4.64558792,14.1794494 C5.01672522,13.3981077 5.40739607,12.6586236 5.81201944,11.9637876 L12.0320574,18.1838256 L12.0348479,18.1838256 Z M4.60093982,13.0213894 L0.750041501,11.8103098 C1.32488574,11.1210548 2.2318002,10.300646 3.55450006,9.7732404 C4.81580879,9.27094931 5.99619284,9.22909172 6.87520224,9.31559741 C6.07711751,10.4122663 5.31530937,11.6428794 4.60373033,13.0213894 L4.60093982,13.0213894 Z M22.2983291,6.34649899 L17.6660891,1.71425898 C20.4621761,0.704095799 22.6945809,0.572942015 23.439646,0.561779991 C23.428484,1.3068451 23.3029112,3.55041195 22.2983291,6.3492895 L22.2983291,6.34649899 Z M18.7767105,12.9906939 C18.8939117,13.0911521 18.9050737,13.2669539 18.8046155,13.3841552 C18.6929953,13.5125185 18.581375,13.6353007 18.4641738,13.763664 C18.4083637,13.8250552 18.33302,13.8557507 18.2576763,13.8557507 C18.1907042,13.8557507 18.123732,13.8306362 18.0707124,13.7831976 C17.9563017,13.6799488 17.9479302,13.504147 18.0511789,13.3897362 C18.1627991,13.2669539 18.2744194,13.1441717 18.3804586,13.0213894 C18.4809168,12.9041882 18.6567187,12.8930261 18.77392,12.9934844 L18.7767105,12.9906939 Z M14.4514261,5.99210473 C13.5026541,5.99210473 12.6096921,6.36324203 11.9371802,7.03296348 C11.2646682,7.70268492 10.8963214,8.59843736 10.8963214,9.54720941 C10.8963214,10.4959815 11.2674587,11.3889434 11.9371802,12.0614553 C12.6069016,12.7339673 13.5026541,13.1023141 14.4514261,13.1023141 C15.4001982,13.1023141 16.2931601,12.7311768 16.965672,12.0614553 C17.638184,11.3917339 18.0065308,10.4959815 18.0065308,9.54720941 C18.0065308,8.59843736 17.6353935,7.70547543 16.965672,7.03296348 C16.2959506,6.36045152 15.4001982,5.99210473 14.4514261,5.99210473 L14.4514261,5.99210473 Z M16.5694202,11.667994 C15.4001982,12.837216 13.4998636,12.837216 12.3306415,11.667994 C11.1614195,10.498772 11.1614195,8.59843736 12.3306415,7.42921533 C12.9138573,6.84599957 13.6812464,6.55299644 14.4486356,6.55299644 C15.2160248,6.55299644 15.9834139,6.84599957 16.5666297,7.42921533 C17.7358517,8.59843736 17.7358517,10.498772 16.5666297,11.667994 L16.5694202,11.667994 Z M14.4514261,7.63292227 C13.9407635,7.63292227 13.458006,7.8310482 13.0952402,8.19381398 C12.7324744,8.55657977 12.5343485,9.03654681 12.5343485,9.54999992 C12.5343485,10.063453 12.7324744,10.5434201 13.0952402,10.9061858 C13.458006,11.2689516 13.937973,11.4670776 14.4514261,11.4670776 C14.9648792,11.4670776 15.4448463,11.2689516 15.807612,10.9061858 C16.5554677,10.1583302 16.5554677,8.9416696 15.807612,8.19381398 C15.4448463,7.8310482 14.9648792,7.63292227 14.4514261,7.63292227 Z M15.4113602,10.509934 C15.1546336,10.7666605 14.8141919,10.9089764 14.4514261,10.9089764 C14.0886603,10.9089764 13.7482186,10.7666605 13.491492,10.509934 C13.2347655,10.2532074 13.0924497,9.9127657 13.0924497,9.54999992 C13.0924497,9.18723413 13.2347655,8.8467924 13.491492,8.59006584 C13.7482186,8.33333929 14.0886603,8.19102348 14.4514261,8.19102348 C14.8141919,8.19102348 15.1546336,8.33333929 15.4113602,8.59006584 C15.9415563,9.12026199 15.9415563,9.98252835 15.4113602,10.5127245 L15.4113602,10.509934 Z M6.1161846,18.2787028 L0.978862996,23.4160244 C0.923052875,23.4718345 0.853290224,23.4969491 0.780737067,23.4969491 C0.708183911,23.4969491 0.63842126,23.469044 0.582611139,23.4160244 C0.473781404,23.3071946 0.473781404,23.1313928 0.582611139,23.022563 L5.71993274,17.8852414 C5.82876248,17.7764117 6.00456436,17.7764117 6.11339409,17.8852414 C6.22222383,17.9940712 6.22222383,18.169873 6.11339409,18.2787028 L6.1161846,18.2787028 Z M0.817013646,20.4720405 L4.56187274,16.7271814 C4.67070247,16.6183517 4.84650435,16.6183517 4.95533409,16.7271814 C5.06416382,16.8360112 5.06416382,17.011813 4.95533409,17.1206428 L1.210475,20.8655019 C1.15466488,20.921312 1.08490222,20.9464265 1.01234907,20.9464265 C0.939795911,20.9464265 0.87003326,20.9185215 0.81422314,20.8655019 C0.705393405,20.7566721 0.705393405,20.5808703 0.81422314,20.4720405 L0.817013646,20.4720405 Z M0.817013646,18.5493819 C0.708183911,18.4405521 0.708183911,18.2647502 0.817013646,18.1559205 L3.40381274,15.5691214 C3.51264247,15.4602917 3.68844435,15.4602917 3.79727409,15.5691214 C3.90610382,15.6779512 3.90610382,15.853753 3.79727409,15.9625828 L1.210475,18.5493819 C1.15466488,18.605192 1.08490222,18.6303065 1.01234907,18.6303065 C0.939795911,18.6303065 0.87003326,18.6024015 0.81422314,18.5493819 L0.817013646,18.5493819 Z M7.2742446,19.4367628 L3.52938551,23.1816219 C3.47357539,23.237432 3.40381274,23.2625465 3.33125958,23.2625465 C3.25870642,23.2625465 3.18894377,23.2346415 3.13313365,23.1816219 C3.02430392,23.0727921 3.02430392,22.8969903 3.13313365,22.7881605 L6.87799274,19.0433014 C6.98682248,18.9344717 7.16262436,18.9344717 7.27145409,19.0433014 C7.38028383,19.1521312 7.38028383,19.327933 7.27145409,19.4367628 L7.2742446,19.4367628 Z M8.4323046,20.2013614 C8.54113434,20.3101912 8.54113434,20.485993 8.4323046,20.5948228 L5.84550551,23.1816219 C5.78969539,23.237432 5.71993274,23.2625465 5.64737958,23.2625465 C5.57482643,23.2625465 5.50506378,23.2346415 5.44925366,23.1816219 C5.34042392,23.0727921 5.34042392,22.8969903 5.44925366,22.7881605 L8.03605275,20.2013614 C8.14488248,20.0925317 8.32068436,20.0925317 8.4295141,20.2013614 L8.4323046,20.2013614 Z" id="Shape"></path></g></g></svg>
