<svg width="23.2608249px" height="24px" viewBox="0 0 23.2608249 24" version="1.1" xmlns="http://www.w3.org/2000/svg" xmlns:xlink="http://www.w3.org/1999/xlink"><title>noun-rejected-5526047</title><g id="Page-1" stroke="none" stroke-width="1" fill="none" fill-rule="evenodd"><g id="noun-rejected-5526047" fill="#000000" fill-rule="nonzero"><path d="M22.9206959,0 L7.9134701,0 C7.82326616,0 7.73676008,0.0358513967 7.67295397,0.0996129032 L3.41488945,4.35767742 C3.35112794,4.42148354 3.31530032,4.50798961 3.31527655,4.59819355 L3.31527655,12.424 C1.36037777,12.9447727 0,14.7149893 0,16.7380645 C0,18.7611398 1.36037777,20.5313563 3.31527655,21.052129 L3.31527655,23.659871 C3.31527655,23.7500788 3.35111147,23.8365919 3.41489803,23.9003785 C3.4786846,23.9641651 3.56519775,24 3.65540558,24 L22.9206959,24 C23.108544,24 23.2608249,23.847719 23.2608249,23.659871 L23.2608249,0.340129032 C23.2608249,0.152280955 23.108544,0 22.9206959,0 L22.9206959,0 Z M7.57385719,1.16129032 L7.57385719,4.25806452 L4.477083,4.25806452 L7.57385719,1.16129032 Z M0.678631386,16.7380645 C0.678631386,14.6486466 2.37243927,12.9548387 4.46185719,12.9548387 C6.55127511,12.9548387 8.245083,14.6486466 8.245083,16.7380645 C8.245083,18.8274824 6.55127511,20.5212903 4.46185719,20.5212903 C2.37344148,20.5188728 0.681048947,18.8264802 0.678631386,16.7380645 Z M22.5805669,23.3187097 L3.99656687,23.3187097 L3.99656687,21.1767742 C4.15089433,21.192699 4.3059361,21.2007095 4.461083,21.2007742 C6.85505552,21.1978445 8.82145109,19.3088302 8.92043784,16.9169032 L19.569212,16.9169032 C19.7570601,16.9169032 19.9093411,16.7646223 19.9093411,16.5767742 C19.9093411,16.3889261 19.7570601,16.2366452 19.569212,16.2366452 L8.8966959,16.2366452 C8.80932643,15.4584806 8.51765324,14.7172782 8.05127655,14.0882581 L19.569212,14.0882581 C19.7570601,14.0882581 19.9093411,13.9359771 19.9093411,13.748129 C19.9093411,13.560281 19.7570601,13.408 19.569212,13.408 L7.43037332,13.408 C6.61452215,12.6775111 5.55772346,12.2739059 4.46263139,12.2745806 C4.30748449,12.2746454 4.15244271,12.2826558 3.99811526,12.2985806 L3.99811526,4.93780645 L7.9134701,4.93780645 C8.10131817,4.93780645 8.25359913,4.7855255 8.25359913,4.59767742 L8.25359913,0.680258065 L22.5805669,0.680258065 L22.5805669,23.3187097 Z M11.2737282,6.03406452 C11.4615762,6.03406452 11.6138572,6.18634547 11.6138572,6.37419355 C11.6138572,6.56204163 11.4615762,6.71432258 11.2737282,6.71432258 L7.00792171,6.71432258 C6.82007363,6.71432258 6.66779268,6.56204163 6.66779268,6.37419355 C6.66779268,6.18634547 6.82007363,6.03406452 7.00792171,6.03406452 L11.2737282,6.03406452 Z M7.00792171,8.01341935 L13.7619862,8.01341935 C13.9498343,8.01341935 14.1021153,8.16570031 14.1021153,8.35354839 C14.1021153,8.54139646 13.9498343,8.69367742 13.7619862,8.69367742 L7.00792171,8.69367742 C6.82007363,8.69367742 6.66779268,8.54139646 6.66779268,8.35354839 C6.66779268,8.16570031 6.82007363,8.01341935 7.00792171,8.01341935 L7.00792171,8.01341935 Z M7.00792171,10.5796129 L19.569212,10.5796129 C19.7570601,10.5796129 19.9093411,10.7318939 19.9093411,10.9197419 C19.9093411,11.10759 19.7570601,11.259871 19.569212,11.259871 L7.00792171,11.259871 C6.82007363,11.259871 6.66779268,11.10759 6.66779268,10.9197419 C6.66779268,10.7318939 6.82007363,10.5796129 7.00792171,10.5796129 Z M19.909083,19.4064516 C19.909083,19.594199 19.7569593,19.7464382 19.569212,19.7465806 L16.0505024,19.7465806 C15.8626543,19.7465806 15.7103733,19.5942997 15.7103733,19.4064516 C15.7103733,19.2186035 15.8626543,19.0663226 16.0505024,19.0663226 L19.569212,19.0663226 C19.7569593,19.066465 19.909083,19.2187043 19.909083,19.4064516 L19.909083,19.4064516 Z M4.46185719,17.2203871 L3.31682493,18.3726452 C3.18441912,18.5059061 2.96905364,18.5065994 2.83579268,18.3741935 C2.70253171,18.2417877 2.70183847,18.0264223 2.83424429,17.8931613 L3.98237332,16.7380645 L2.83424429,15.5829677 C2.74859274,15.496763 2.71543713,15.371412 2.74726684,15.2541332 C2.77909656,15.1368544 2.87107591,15.0454653 2.98855717,15.0143913 C3.10603842,14.9833172 3.23117339,15.0172791 3.31682493,15.1034839 L4.46185719,16.2554839 L5.60688945,15.1034839 C5.69189485,15.0142407 5.81852709,14.977965 5.93789155,15.0086634 C6.05725601,15.0393617 6.15067462,15.1322305 6.18207705,15.2514117 C6.21347948,15.3705929 6.17795189,15.497437 6.08921203,15.5829677 L4.94134106,16.7380645 L6.08921203,17.8931613 C6.17795189,17.978692 6.21347948,18.1055362 6.18207705,18.2247173 C6.15067462,18.3438985 6.05725601,18.4367673 5.93789155,18.4674657 C5.81852709,18.4981641 5.69189485,18.4618883 5.60688945,18.3726452 L4.46185719,17.2203871 Z" id="Shape"></path></g></g></svg>
