<?xml version="1.0" encoding="UTF-8"?>
<svg width="64.3499068px" height="60px" viewBox="0 0 64.3499068 60" version="1.1" xmlns="http://www.w3.org/2000/svg" xmlns:xlink="http://www.w3.org/1999/xlink">
    <title>noun-university-6599176</title>
    <g id="Page-1" stroke="none" stroke-width="1" fill="none" fill-rule="evenodd">
        <g id="noun-university-6599176" fill="#4e6174" fill-rule="nonzero">
            <path d="M63.4695998,54.7593434 L61.6851769,54.7593434 L61.6851769,52.1621812 C61.685177,51.9287684 61.5924101,51.7049251 61.4273021,51.5399377 C61.262194,51.3749504 61.0382829,51.2823472 60.8048702,51.282518 L58.6034599,51.282518 L58.6034599,27.545768 L60.8048702,27.545768 C61.2910502,27.545768 61.6851769,27.1516413 61.6851769,26.6654613 L61.6851769,23.1905664 C61.6851769,22.7043864 61.2910502,22.3102596 60.8048702,22.3102596 L58.874373,22.3102596 L56.5436194,17.9582755 C56.391014,17.6734056 56.0945882,17.495056 55.7714205,17.4936692 L42.4599989,17.4936692 L41.0739019,16.3315098 L41.6015712,16.1744961 C41.9745181,16.0634819 42.2302166,15.7206312 42.2302698,15.3315123 L42.2302698,8.84118075 L45.0584481,7.86756667 L45.0584481,12.3038492 C44.0140864,12.7251941 43.4149399,13.8277029 43.6295451,14.9332198 C43.8441502,16.0387368 44.812279,16.8370029 45.9384331,16.8370029 C47.0645872,16.8370029 48.032716,16.0387368 48.2473211,14.9332198 C48.4619263,13.8277029 47.8627798,12.7251941 46.8184181,12.3038492 L46.8184181,7.26203405 L47.6967943,6.95958949 C48.0515918,6.8370051 48.2896254,6.50292266 48.2896254,6.1275452 C48.2896254,5.75216774 48.0515918,5.4180853 47.6967943,5.29550091 L40.0796959,2.67002473 L32.463241,0.0477660504 C32.277648,-0.0159220168 32.0761198,-0.0159220168 31.8905268,0.0477660504 L24.2695674,2.67002473 L16.6531125,5.29550091 C16.2983149,5.4180853 16.0602814,5.75216774 16.0602814,6.1275452 C16.0602814,6.50292266 16.2983149,6.8370051 16.6531125,6.95958949 L22.1228545,8.84118075 L22.1228545,15.3282948 C22.1229077,15.7174137 22.3786062,16.0602644 22.7515531,16.1712786 L23.2811528,16.3289358 L21.8950559,17.4872342 L8.57848625,17.4872342 C8.25379404,17.4873289 7.95551589,17.6661474 7.80242638,17.952484 L5.47553376,22.3083291 L3.54503657,22.3083291 C3.0588566,22.3083291 2.66472986,22.7024559 2.66472986,23.1886359 L2.66472986,26.6635308 C2.66472986,27.1497108 3.0588566,27.5438375 3.54503657,27.5438375 L5.74644687,27.5438375 L5.74644687,51.282518 L3.54503657,51.282518 C3.31162391,51.2823472 3.08771278,51.3749504 2.92260472,51.5399377 C2.75749666,51.7049251 2.66472979,51.9287684 2.66472986,52.1621812 L2.66472986,54.7593434 L0.880306954,54.7593434 C0.646782749,54.7591725 0.422773985,54.851864 0.257647392,55.0169906 C0.0925207989,55.1821171 0,55.4061259 0,55.6396501 L0,59.1203365 C0,59.3537493 0.0927670395,59.5775926 0.257875097,59.74258 C0.422983155,59.9075674 0.646894289,60 0.880306954,60 L63.4695998,60 C63.7030125,60 63.9269236,59.9075674 64.0920317,59.74258 C64.2571397,59.5775926 64.3499068,59.3537493 64.3499068,59.1203365 L64.3499068,55.6396501 C64.3499068,55.4061259 64.257386,55.1821171 64.0922594,55.0169906 C63.9271328,54.851864 63.703124,54.7591725 63.4695998,54.7593434 Z M45.9387549,15.0766899 C45.6110835,15.0777511 45.3445901,14.8129845 45.3435213,14.4853131 C45.3424589,14.1576417 45.6072246,13.8911474 45.934896,13.8900775 C46.2625673,13.8890139 46.5290626,14.1537787 46.5301305,14.48145 C46.5297866,14.8085435 46.2658391,15.0742142 45.9387549,15.0766899 Z M56.84349,51.282518 L46.0745332,51.282518 L46.0745332,27.545768 L56.84349,27.545768 L56.84349,51.282518 Z M59.925207,25.7857981 L46.0745332,25.7857981 L46.0745332,24.0682991 L59.925207,24.0682991 L59.925207,25.7857981 Z M55.2443948,19.2536391 L56.8808129,22.3102596 L46.0745332,22.3102596 L46.0745332,20.9331716 C46.0743708,20.6732623 45.9594446,20.426689 45.7605056,20.2594281 L44.5584494,19.2536391 L55.2443948,19.2536391 Z M24.8429251,4.33411331 L32.1749534,1.81030998 L39.5044077,4.33411331 L44.7083846,6.1262582 L41.1105814,7.3649939 C41.074983,7.37439132 41.0401369,7.38643687 41.0063345,7.40102984 L32.1749534,10.4409194 L23.3358503,7.39845585 C23.3053702,7.38600441 23.2742194,7.37526274 23.2425429,7.3662809 L19.6389481,6.1269017 L24.8429251,4.33411331 Z M31.8905268,12.2034634 C32.0760116,12.2677965 32.2777562,12.2677965 32.463241,12.2034634 L40.4702998,9.44735687 L40.4702998,14.6732128 L39.0217834,15.1050006 L38.9986175,15.1120791 L32.1749534,17.1436057 L25.3731683,15.1178706 C25.3551503,15.1120791 25.3377758,15.1069311 25.3197579,15.1024266 L23.879607,14.6732128 L23.879607,9.44671337 L31.8905268,12.2034634 Z M31.9259193,18.9055061 C32.0896567,18.9544012 32.2641111,18.9544012 32.4278485,18.9055061 L39.0558889,16.9318945 L41.5520217,19.0251969 C41.5680024,19.0400159 41.5847568,19.053978 41.6022147,19.0670244 L44.3164937,21.343724 L44.3164937,51.282518 L39.658204,51.282518 L39.658204,41.2291321 C39.6578491,40.7430992 39.2639302,40.3491803 38.7778973,40.3488254 L25.575227,40.3488254 C25.0892983,40.3491806 24.6955637,40.7432033 24.6955638,41.2291321 L24.6955638,51.282518 L20.0359871,51.282518 L20.0359871,21.3443675 L22.7676406,19.0541544 L22.7772931,19.0464324 L25.2991659,16.932538 L31.9259193,18.9055061 Z M33.0565471,51.282518 L33.0565471,42.1087953 L37.8982341,42.1087953 L37.8982341,51.282518 L33.0565471,51.282518 Z M26.4555337,51.282518 L26.4555337,42.1087953 L31.2965772,42.1087953 L31.2965772,51.282518 L26.4555337,51.282518 Z M9.10551198,19.2536391 L19.7921009,19.2536391 L18.5906882,20.2587846 C18.391025,20.4258895 18.2755766,20.6728077 18.2753736,20.9331716 L18.2753736,22.3083291 L7.47102436,22.3083291 L9.10551198,19.2536391 Z M4.42469979,24.0682991 L18.2753736,24.0682991 L18.2753736,25.7857981 L4.42469979,25.7857981 L4.42469979,24.0682991 Z M7.50641681,27.543194 L18.2753736,27.543194 L18.2753736,51.282518 L7.50641681,51.282518 L7.50641681,27.543194 Z M4.42469979,53.0424879 L59.925207,53.0424879 L59.925207,54.7593434 L4.42469979,54.7593434 L4.42469979,53.0424879 Z M62.5899366,58.2400298 L1.75997017,58.2400298 L1.75997017,56.5193133 L62.5899366,56.5193133 L62.5899366,58.2400298 Z M30.5018558,29.7651963 L33.8544859,29.7651963 C34.3405188,29.7648414 34.7344378,29.3709225 34.7347927,28.8848896 L34.7347927,25.529042 C34.7344375,25.0431133 34.3404147,24.6493787 33.8544859,24.6493787 L30.5018558,24.6493787 C30.0160312,24.6493787 29.6221926,25.0432174 29.6221926,25.529042 L29.6221926,28.8848896 C29.6221926,29.3708184 30.0159272,29.7648411 30.5018558,29.7651963 L30.5018558,29.7651963 Z M31.3821625,26.4093487 L32.9780402,26.4093487 L32.9780402,28.0052263 L31.3821625,28.0052263 L31.3821625,26.4093487 Z M23.7727861,36.6976117 L27.1286337,36.6976117 C27.6148137,36.6976117 28.0089405,36.3034849 28.0089405,35.817305 L28.0089405,32.4614574 C28.0085852,31.9755287 27.6145625,31.5817941 27.1286337,31.5817941 L23.7727861,31.5817941 C23.2868573,31.5817941 22.8928346,31.9755287 22.8924794,32.4614574 L22.8924794,35.817305 C22.8924794,36.0507768 22.9852257,36.2746863 23.1503153,36.4397758 C23.3154048,36.6048654 23.5393143,36.6976117 23.7727861,36.6976117 Z M24.6524493,33.3417641 L26.248327,33.3417641 L26.248327,34.9376418 L24.6524493,34.9376418 L24.6524493,33.3417641 Z M23.7727861,29.7651963 L27.1286337,29.7651963 C27.6146666,29.7648414 28.0085856,29.3709225 28.0089405,28.8848896 L28.0089405,25.529042 C28.0085852,25.0431133 27.6145625,24.6493787 27.1286337,24.6493787 L23.7727861,24.6493787 C23.2868573,24.6493787 22.8928346,25.0431133 22.8924794,25.529042 L22.8924794,28.8848896 C22.8928343,29.3709225 23.2867532,29.7648414 23.7727861,29.7651963 L23.7727861,29.7651963 Z M24.6524493,26.4093487 L26.248327,26.4093487 L26.248327,28.0052263 L24.6524493,28.0052263 L24.6524493,26.4093487 Z M30.5018558,36.6976117 L33.8544859,36.6976117 C34.0879578,36.6976117 34.3118673,36.6048654 34.4769568,36.4397758 C34.6420463,36.2746863 34.7347927,36.0507768 34.7347927,35.817305 L34.7347927,32.4614574 C34.7344375,31.9755287 34.3404147,31.5817941 33.8544859,31.5817941 L30.5018558,31.5817941 C30.0160312,31.5817941 29.6221924,31.9756328 29.6221924,32.4614574 L29.6221924,35.817305 C29.6220219,36.0507176 29.714625,36.2746288 29.8796124,36.4397368 C30.0445997,36.6048449 30.2684431,36.6976117 30.5018558,36.6976117 L30.5018558,36.6976117 Z M31.3821625,33.3417641 L32.9780402,33.3417641 L32.9780402,34.9376418 L31.3821625,34.9376418 L31.3821625,33.3417641 Z M37.2244905,36.6976117 L40.5803382,36.6976117 C41.0665181,36.6976117 41.4606449,36.3034849 41.4606449,35.817305 L41.4606449,32.4614574 C41.4602897,31.9755287 41.0662669,31.5817941 40.5803382,31.5817941 L37.221273,31.5817941 C36.7353443,31.5817941 36.3413215,31.9755287 36.3409663,32.4614574 L36.3409663,35.817305 C36.3409663,36.3034849 36.7350931,36.6976117 37.221273,36.6976117 L37.2244905,36.6976117 Z M38.1047973,33.3417641 L39.7006749,33.3417641 L39.7006749,34.9376418 L38.1015798,34.9376418 L38.1047973,33.3417641 Z M37.2244905,29.7651963 L40.5803382,29.7651963 C41.0663711,29.7648414 41.46029,29.3709225 41.4606449,28.8848896 L41.4606449,25.529042 C41.4602897,25.0431133 41.0662669,24.6493787 40.5803382,24.6493787 L37.221273,24.6493787 C36.7353443,24.6493787 36.3413215,25.0431133 36.3409663,25.529042 L36.3409663,28.8848896 C36.3413212,29.3709225 36.7352401,29.7648414 37.221273,29.7651963 L37.2244905,29.7651963 Z M38.1015798,26.4093487 L39.6974574,26.4093487 L39.6974574,28.0052263 L38.1015798,28.0052263 L38.1015798,26.4093487 Z M14.5707495,30.1319907 L11.2149019,30.1319907 C10.7289731,30.1319907 10.3349504,30.5257253 10.3345952,31.011654 L10.3345952,34.3675016 C10.3349501,34.8535345 10.728869,35.2474534 11.2149019,35.2478083 L14.5707495,35.2478083 C15.0566782,35.2474531 15.4504127,34.8534304 15.4504127,34.3675016 L15.4504127,31.011654 C15.4504127,30.5258294 15.0565741,30.1319907 14.5707495,30.1319907 L14.5707495,30.1319907 Z M13.6904428,33.4878384 L12.0977826,33.4878384 L12.0977826,31.8919607 L13.6936603,31.8919607 L13.6904428,33.4878384 Z M14.5707495,36.857843 L11.2149019,36.857843 C10.7287219,36.857843 10.3345952,37.2519697 10.3345952,37.7381497 L10.3345952,41.0901363 C10.335659,41.5756665 10.7293707,41.9688025 11.2149019,41.969156 L14.5707495,41.969156 C15.0566782,41.9688008 15.450413,41.5747781 15.450413,41.0888493 L15.450413,37.7381497 C15.4505835,37.504737 15.3579803,37.2808259 15.192993,37.1157178 C15.0280056,36.9506098 14.8041622,36.857843 14.5707495,36.857843 L14.5707495,36.857843 Z M13.6904428,40.2104731 L12.0977826,40.2104731 L12.0977826,38.6178129 L13.6936603,38.6178129 L13.6904428,40.2104731 Z M14.5707495,43.5779037 L11.2149019,43.5779037 C10.7289731,43.5779037 10.3349504,43.9716382 10.3345952,44.4575669 L10.3345952,47.8134145 C10.3345952,48.2995945 10.7287219,48.6937212 11.2149019,48.6937212 L14.5707495,48.6937212 C14.8041622,48.6937212 15.0280056,48.6009544 15.192993,48.4358464 C15.3579803,48.2707383 15.4505835,48.0468272 15.4504165,47.8134145 L15.4504165,44.4601409 C15.4510967,44.226394 15.3587202,44.0019864 15.1936772,43.8364604 C15.0286341,43.6709345 14.8044974,43.5779037 14.5707495,43.5779037 L14.5707495,43.5779037 Z M13.6904428,46.9337513 L12.0977826,46.9337513 L12.0977826,45.3378736 L13.6936603,45.3378736 L13.6904428,46.9337513 Z M49.7823748,35.2478083 L53.1350049,35.2478083 C53.6209335,35.2474531 54.0146681,34.8534304 54.0146681,34.3675016 L54.0146681,31.011654 C54.0146681,30.5258294 53.6208295,30.1319907 53.1350049,30.1319907 L49.7823748,30.1319907 C49.2978072,30.1337631 48.905929,30.5270831 48.905929,31.011654 L48.905929,34.3675016 C48.905929,34.8521777 49.2977033,35.2456825 49.7823748,35.2478083 Z M50.6626815,31.8919607 L52.2521242,31.8919607 L52.2521242,33.4878384 L50.6626815,33.4878384 L50.6626815,31.8919607 Z M49.7823748,41.969156 L53.1350049,41.969156 C53.6209335,41.9688008 54.0146683,41.5747781 54.0146683,41.0888493 L54.0146683,37.7381497 C54.0148388,37.504737 53.9222357,37.2808259 53.7572483,37.1157178 C53.592261,36.9506098 53.3684176,36.857843 53.1350049,36.857843 L49.7823748,36.857843 C49.2975559,36.8596161 48.9055711,37.2533277 48.9059288,37.7381497 L48.9059288,41.0901363 C48.9066322,41.5743102 49.298205,41.967033 49.7823748,41.969156 Z M50.6626815,38.6165259 L52.2521242,38.6165259 L52.2521242,40.2091861 L50.6626815,40.2091861 L50.6626815,38.6165259 Z M49.7823748,48.6962952 L53.1350049,48.6962952 C53.3684176,48.6962952 53.592261,48.6035284 53.7572483,48.4384204 C53.9222357,48.2733123 54.0148388,48.0494012 54.0146719,47.8159885 L54.0146719,44.4601409 C54.0153521,44.226394 53.9229756,44.0019864 53.7579325,43.8364604 C53.5928895,43.6709345 53.3687527,43.5779037 53.1350049,43.5779037 L49.7823748,43.5779037 C49.2968009,43.5796777 48.9045049,43.9745659 48.9059252,44.4601409 L48.9059252,47.8159885 C48.9055711,48.3008104 49.2975559,48.694522 49.7823748,48.6962952 L49.7823748,48.6962952 Z M50.6626815,45.3404476 L52.2521242,45.3404476 L52.2521242,46.9363253 L50.6626815,46.9363253 L50.6626815,45.3404476 Z" id="Shape"></path>
        </g>
    </g>
</svg>
