<?xml version="1.0" encoding="UTF-8"?>
<svg width="32px" height="21.2414708px" viewBox="0 0 32 21.2414708" version="1.1" xmlns="http://www.w3.org/2000/svg" xmlns:xlink="http://www.w3.org/1999/xlink">
    <title>year_n_1</title>
    <g id="Page-1" stroke="none" stroke-width="1" fill="none" fill-rule="evenodd">
        <g id="year_n_1" fill="#2A3775" fill-rule="nonzero">
            <g id="Group" transform="translate(0.000000, 2.051606)">
                <path d="M16.0103812,0 C16.1661371,0.00437209519 16.2399162,0.147558213 16.3339162,0.253035009 L18.7746384,5.20880491 L24.2413969,6.0078053 C24.6895366,6.07338673 24.868246,6.62427072 24.543618,6.9401546 L20.5841393,10.79361 L21.513756,16.2390546 C21.5902677,16.6855548 21.1213605,17.0260317 20.7207672,16.8145316 L15.8322183,14.239914 L15.589567,14.3672513 C15.2611134,14.5399491 14.8594271,14.3415652 14.7971248,13.9754023 L14.7359154,13.6190765 C14.7058573,13.4420067 14.7648806,13.2611112 14.8938574,13.1354135 L18.2713009,9.84814441 C19.1883479,8.95623699 18.6839174,7.39977111 17.4176493,7.21450357 L12.7542633,6.53300324 C12.5761004,6.50677066 12.4225306,6.39528224 12.3432863,6.23351471 L12.2394491,6.02310763 C12.0754955,5.69028189 12.2837165,5.29406076 12.651519,5.24104911 L12.9045541,5.20443281 L15.3534739,0.251941985 L15.5633344,0.0240465235 C15.8524392,0.0169418689 15.703788,0.0240465235 16.0103812,0 Z" id="Path"></path>
                <path d="M9.04290098,2.31065231 C9.19811036,2.31557091 9.27243598,2.45821052 9.36588951,2.56368732 L11.8071582,7.52000372 L17.2739167,8.31900412 C17.7220564,8.38458555 17.9002193,8.93546954 17.5755913,9.25135342 L13.6166591,13.1042623 L14.5462758,18.5502534 C14.622241,18.9967536 14.1533337,19.336684 13.7527405,19.1257304 L8.8647381,16.5511128 L3.97236359,19.1180792 C3.57122385,19.3284863 3.10340967,18.9874629 3.17992133,18.5415092 L4.11828226,13.0966111 L0.165361702,9.23714411 C-0.158719853,8.92071372 0.0205360493,8.37037624 0.468675806,8.30534132 L5.93707386,7.51508512 L8.38599368,2.5631408 L8.59530774,2.33469883 C8.88495904,2.32759418 8.76964503,2.33524534 9.07678472,2.31065231 L9.04290098,2.31065231 Z" id="Path"></path>
            </g>
            <g id="Group" transform="translate(19.473004, 0.000000)">
                <path d="M3.82784569,0 C3.98360158,0.00437209519 4.05738069,0.147558213 4.15083422,0.253035009 L6.59210287,5.20935142 L12.0588614,6.0078053 C12.5070012,6.07338673 12.6857105,6.62481723 12.3610825,6.94070111 L8.40160377,10.79361 L9.33122051,16.2396011 C9.40773217,16.6861013 8.93882497,17.0260317 8.53768523,16.8150781 L3.64968281,14.2404605 L3.40703153,14.3677978 C3.07803137,14.5399491 2.67689163,14.3415652 2.61404276,13.9754023 L2.55337994,13.6190765 C2.52332179,13.4420067 2.58234507,13.2611112 2.71077537,13.1354135 L6.08876541,9.84869092 C7.00581238,8.95623699 6.5013819,7.39977111 5.23511383,7.21450357 L0.571727799,6.53300324 C0.39356492,6.50731718 0.239995076,6.39528224 0.160204339,6.23406123 L0.0569135903,6.02365415 C-0.107586491,5.69028189 0.101181054,5.29406076 0.468983562,5.24104911 L0.722018571,5.20443281 L3.17093839,0.252488497 L3.38079896,0.0240465235 C3.66990375,0.0169418689 3.520706,0.0245930354 3.82784569,0 Z M3.66061305,0.494593268 L1.08435596,5.7044912 L0.547134763,5.78209589 L0.650425512,5.99250297 L5.31435805,6.67400331 C7.02876588,6.92430575 7.71135924,9.03220215 6.46968421,10.24054 L3.09224067,13.5272625 L3.1529035,13.8835883 L3.65022932,13.6229021 L8.79235978,16.3314151 L7.81464999,10.6023308 L11.9796172,6.54885208 L6.22867246,5.70831678 L3.66061305,0.494593268 Z" id="Shape"></path>
            </g>
        </g>
    </g>
</svg>