<?xml version="1.0" encoding="UTF-8"?>
<svg width="32px" height="21.599202px" viewBox="0 0 32 21.599202" version="1.1" xmlns="http://www.w3.org/2000/svg" xmlns:xlink="http://www.w3.org/1999/xlink">
    <title>year_n_2</title>
    <g id="Page-1" stroke="none" stroke-width="1" fill="none" fill-rule="evenodd">
        <g id="year_n_2" fill="#2A3775" fill-rule="nonzero">
            <path d="M23.2036528,0 C23.3606039,0.00497380097 23.4357635,0.149214029 23.5302657,0.255874428 L25.998929,5.26780787 L31.5264798,6.07577421 C31.9802009,6.14209155 32.1603631,6.69915726 31.8320922,7.01858581 L27.8287351,10.9147299 L28.7687835,16.4218329 C28.845601,16.8733435 28.371432,17.2170884 27.9663436,17.0037676 L23.0234907,14.4002591 L22.7775639,14.5290253 C22.4454245,14.703661 22.0392307,14.5024983 21.9762293,14.1327791 L21.9148857,13.7724549 C21.8839376,13.5928454 21.9436232,13.4099201 22.0740474,13.2833645 L25.4893907,9.95920748 C26.4167282,9.05673892 25.90719,7.48280724 24.6267125,7.29601338 L19.9104439,6.60686562 C19.7308344,6.58033868 19.5749887,6.46704655 19.4948552,6.30401641 L19.3898528,6.09124825 C19.2240594,5.75468772 19.4351696,5.35402042 19.8065468,5.29986126 L20.0624212,5.26283407 L22.5393741,0.255321783 L22.7510369,0.0243163603 C23.0439385,0.0171319811 22.8930666,0.0248690049 23.2036528,0 Z" id="Path"></path>
            <path d="M16.1900408,2.19399887 C16.3475445,2.19842003 16.4221515,2.3432129 16.5172064,2.4498733 L18.9853169,7.4612541 L24.5134204,8.26922044 C24.9665889,8.33553778 25.1473037,8.89260349 24.8190328,9.21203204 L20.8151231,13.1087288 L21.7551714,18.6152791 C21.8325417,19.0667897 21.3583727,19.4110873 20.9532842,19.1972138 L16.0098787,16.5937053 L15.7645045,16.7224715 C15.4323651,16.8971072 15.0261714,16.6964972 14.9631699,16.3262254 L14.9012737,15.9659011 C14.8708783,15.7868443 14.9305639,15.6039189 15.060988,15.4768107 L18.4763313,12.1526537 C19.4036689,11.2507378 18.893578,9.67680611 17.6131005,9.48945961 L12.8973846,8.80031185 C12.7172224,8.77378491 12.5619293,8.66104542 12.4817959,8.49746264 L12.3767934,8.28469448 C12.211,7.94813395 12.4215576,7.54746665 12.7934874,7.49386013 L13.0493618,7.45683294 L15.5257621,2.44876801 L15.7379776,2.21831523 C16.0303265,2.21113085 15.8800072,2.21831523 16.1900408,2.19399887 Z" id="Path"></path>
            <path d="M9.14437541,4.53058004 C9.30132646,4.53555384 9.37648612,4.67979407 9.47098834,4.78645447 L11.9396516,9.79838791 L17.467755,10.6063542 C17.9209235,10.6726716 18.1010857,11.2297373 17.7728148,11.5491659 L13.7694577,15.4453099 L14.709506,20.9524129 C14.7863236,21.4039235 14.3121546,21.7476684 13.9070662,21.5343476 L8.96421328,18.9308391 L4.01693925,21.5266106 C3.61129815,21.7393788 3.13823441,21.3945286 3.21560465,20.9435706 L4.16449535,15.4375729 L0.1672173,11.5347971 C-0.16050092,11.2148159 0.0207664934,10.6583028 0.473935026,10.5925381 L6.00369642,9.79341411 L8.48009665,4.78590182 L8.69175952,4.5548964 C8.98466113,4.54771202 8.86805313,4.55544904 9.17863937,4.53058004 L9.14437541,4.53058004 Z" id="Path"></path>
        </g>
    </g>
</svg>