<?xml version="1.0" encoding="UTF-8"?>
<svg width="32px" height="21.7186339px" viewBox="0 0 32 21.7186339" version="1.1" xmlns="http://www.w3.org/2000/svg" xmlns:xlink="http://www.w3.org/1999/xlink">
    <title>year_n</title>
    <g id="Page-1" stroke="none" stroke-width="1" fill="none" fill-rule="evenodd">
        <g id="year_n" fill="#2A3775" fill-rule="nonzero">
            <g id="Group" transform="translate(12.092378, 0.000000)">
                <g transform="translate(0.000000, 2.227131)" id="Shape">
                    <path d="M3.91544529,-1.98603349e-15 C4.07476562,0.00447214984 4.15023315,0.150935057 4.24582535,0.258825672 L6.74296202,5.32856653 L12.3348264,6.1452929 C12.7932217,6.21237515 12.9760209,6.77642505 12.6439637,7.09953787 L8.59387304,11.0406199 L9.5447639,16.6112416 C9.62302652,17.0679599 9.14338845,17.4156695 8.7330687,17.1998883 L3.73320518,14.566351 L3.48500086,14.6966024 C3.14847159,14.8726933 2.73815184,14.6697695 2.67386469,14.295227 L2.61181361,13.9307468 C2.58106758,13.7496247 2.6414416,13.5645895 2.772811,13.4360152 L6.22810577,10.0740765 C7.1661392,9.16119895 6.65016491,7.5691136 5.35491852,7.37960626 L0.584811692,6.6825099 C0.402571586,6.65623602 0.245487323,6.54163718 0.163870588,6.37672665 L0.0582160481,6.16150444 C-0.11004859,5.82050302 0.103496565,5.41521444 0.479716171,5.36098962 L0.738541843,5.32353537 L3.24350477,0.258266653 L3.45816796,0.0245968241 C3.75388887,0.0173295806 3.60127676,0.0251558429 3.91544529,-1.98603349e-15 Z M3.74438555,0.505911951 L1.10917126,5.8350375 L0.559655849,5.91441816 L0.665310389,6.12964037 L5.43597623,6.82673673 C7.18961799,7.08276731 7.88783238,9.23890255 6.61774183,10.474893 L3.16300607,13.8368316 L3.22505715,14.2013118 L3.7337642,13.9346599 L8.99357143,16.7051567 L7.99348692,10.8449634 L12.2537687,6.69872144 L6.37121457,5.83895064 L3.74438555,0.505911951 Z"></path>
                </g>
                <g transform="translate(7.094250, 0.000000)" id="Shape">
                    <path d="M3.91514276,0 C4.0744631,0.00447214984 4.14993063,0.150935057 4.24608185,0.258825672 L6.7426595,5.32800752 L12.3345239,6.1452929 C12.7929192,6.21237515 12.9757183,6.77586603 12.6436612,7.09897885 L8.59357051,11.0406199 L9.54446137,16.6112416 C9.62272399,17.0679599 9.14308592,17.4156695 8.73332519,17.1998883 L3.73290265,14.565792 L3.48469834,14.6960434 C3.14872808,14.8726933 2.73784932,14.6697695 2.67412118,14.295227 L2.61151108,13.9307468 C2.58076505,13.7496247 2.64113908,13.5645895 2.7730675,13.4360152 L6.22780325,10.0740765 C7.16583668,9.16119895 6.64986239,7.5691136 5.35461599,7.37960626 L0.584509167,6.6825099 C0.40282808,6.65623602 0.245184798,6.54163718 0.164127082,6.37672665 L0.0579135236,6.16150444 C-0.109792095,5.82050302 0.103753059,5.41521444 0.479413646,5.36098962 L0.738239318,5.32353537 L3.24320225,0.257707635 L3.45786544,0.0245968241 C3.75414537,0.0173295806 3.60153325,0.0245968241 3.91514276,0 Z M3.74464205,0.505911951 L1.10942775,5.83447849 L0.559353324,5.91441816 L0.665566883,6.12964037 L5.43567371,6.82617771 C7.18931546,7.08276731 7.88808888,9.23890255 6.61799832,10.4743339 L3.16270355,13.8368316 L3.22475463,14.2013118 L3.73346167,13.9341009 L8.99382792,16.7051567 L7.9931844,10.8449634 L12.2540252,6.69872144 L6.37147106,5.83895064 L3.74464205,0.505911951 Z"></path>
                </g>
            </g>
            <path d="M9.24984623,4.4531432 C9.40860755,4.45817437 9.48463409,4.60407826 9.5802263,4.71196888 L12.077363,9.78170974 L17.6692273,10.5989951 C18.1276227,10.6660774 18.3098628,11.2295682 17.9778057,11.5526811 L13.928274,15.4937631 L14.8791648,21.0643848 C14.9568684,21.5211031 14.4772304,21.8688127 14.0674696,21.6530315 L9.06760612,19.0194943 L4.06327045,21.6452052 C3.6529507,21.8604274 3.17443067,21.5115998 3.25269329,21.0554405 L4.21252845,15.4859369 L0.169145977,11.5381466 C-0.16235213,11.2144747 0.0210060132,10.6515429 0.479401372,10.5850197 L6.07294278,9.77667857 L8.57790571,4.71140986 L8.79200989,4.47774003 C9.08828981,4.47047278 8.97033686,4.47829905 9.28450539,4.4531432 L9.24984623,4.4531432 Z" id="Path"></path>
        </g>
    </g>
</svg>