<?xml version="1.0" encoding="UTF-8" standalone="no"?>
<!-- Created with Inkscape (http://www.inkscape.org/) -->
<svg
   xmlns:dc="http://purl.org/dc/elements/1.1/"
   xmlns:cc="http://creativecommons.org/ns#"
   xmlns:rdf="http://www.w3.org/1999/02/22-rdf-syntax-ns#"
   xmlns:svg="http://www.w3.org/2000/svg"
   xmlns="http://www.w3.org/2000/svg"
   xmlns:sodipodi="http://sodipodi.sourceforge.net/DTD/sodipodi-0.dtd"
   xmlns:inkscape="http://www.inkscape.org/namespaces/inkscape"
   width="400"
   height="86.333305"
   id="svg3523"
   sodipodi:version="0.32"
   inkscape:version="0.46"
   version="1.0"
   sodipodi:docname="Québec.svg"
   inkscape:output_extension="org.inkscape.output.svg.inkscape">
  <defs
     id="defs3525">
    <clipPath
       clipPathUnits="userSpaceOnUse"
       id="clipPath3317">
      <path
         d="M 36.211,76.268 L 36.211,32.314 L 182.92,32.314 L 182.92,76.268"
         id="path3319" />
    </clipPath>
    <inkscape:perspective
       sodipodi:type="inkscape:persp3d"
       inkscape:vp_x="0 : 526.18109 : 1"
       inkscape:vp_y="0 : 1000 : 0"
       inkscape:vp_z="744.09448 : 526.18109 : 1"
       inkscape:persp3d-origin="372.04724 : 350.78739 : 1"
       id="perspective3531" />
  </defs>
  <sodipodi:namedview
     id="base"
     pagecolor="#ffffff"
     bordercolor="#666666"
     borderopacity="1.0"
     inkscape:pageopacity="0.0"
     inkscape:pageshadow="2"
     inkscape:zoom="1.4"
     inkscape:cx="375"
     inkscape:cy="96.330654"
     inkscape:document-units="px"
     inkscape:current-layer="layer1"
     showgrid="false"
     inkscape:window-width="1280"
     inkscape:window-height="750"
     inkscape:window-x="-8"
     inkscape:window-y="-8" />
  <metadata
     id="metadata3528">
    <rdf:RDF>
      <cc:Work
         rdf:about="">
        <dc:format>image/svg+xml</dc:format>
        <dc:type
           rdf:resource="http://purl.org/dc/dcmitype/StillImage" />
      </cc:Work>
    </rdf:RDF>
  </metadata>
  <g
     inkscape:label="Calque 1"
     inkscape:groupmode="layer"
     id="layer1"
     transform="translate(397.13713,30.86761)">
    <path
       d="M -296.13767,32.797792 L -296.14108,1.5204742 L -296.37965,1.5204742 C -297.48733,2.5497485 -301.60446,2.6281388 -303.34607,2.6281388 L -306.36576,2.6281388 L -306.36576,2.8837605 C -302.87573,5.0207245 -303.34947,8.1971881 -303.34947,12.130291 L -303.34607,25.371253 C -303.34607,31.986626 -309.84557,36.632042 -315.08742,36.632042 C -321.99249,36.632042 -324.85541,31.737831 -324.85541,23.827335 L -324.85541,1.5204742 L -325.09739,1.5204742 C -326.20507,2.5497485 -330.34265,2.6281388 -332.08766,2.6281388 L -335.0801,2.6281388 L -335.0801,2.8837605 C -331.59347,5.0207245 -332.06721,8.1971881 -332.06721,12.130291 L -332.06721,25.330364 C -332.06721,37.405707 -326.82536,43.141762 -317.46637,43.141762 C -311.91095,43.141762 -306.20558,41.171804 -303.34607,36.465036 L -303.34607,42.163602 L -293.1248,42.163602 L -293.1248,41.907981 C -296.61141,39.93121 -296.13767,36.751334 -296.13767,32.797792"
       style="fill:#231f20;fill-opacity:1;fill-rule:nonzero;stroke:none"
       id="path3303" />
    <path
       d="M -251.46942,21.066661 C -251.14563,10.017191 -258.53127,1.6908803 -269.32853,1.6908803 C -281.15509,1.6908803 -289.17124,10.2728 -289.17124,22.177751 C -289.17124,34.178117 -279.88723,43.312169 -266.39064,43.312169 C -262.65863,43.312169 -258.85164,42.715735 -255.43318,41.185442 L -251.46942,33.135204 L -251.70118,33.135204 C -255.35821,36.243503 -259.95591,37.715868 -264.72743,37.715868 C -273.69106,37.715868 -280.44277,31.587863 -280.60296,21.066661 L -251.46942,21.066661 z M -280.2894,16.073608 C -279.33509,10.698828 -275.3611,7.2871931 -270.04426,7.2871931 C -264.32525,7.2871931 -260.67845,10.105794 -259.80594,16.073608 L -280.2894,16.073608"
       style="fill:#231f20;fill-opacity:1;fill-rule:nonzero;stroke:none"
       id="path3305" />
    <path
       d="M -245.16078,-16.648801 C -243.26581,-16.648801 -239.38383,-16.768093 -238.21141,-17.923484 L -237.97623,-17.923484 L -237.97623,36.246916 C -235.8461,36.84335 -233.63074,37.27279 -231.42902,37.27279 C -222.74826,37.27279 -217.78589,31.199324 -217.78589,22.743509 C -217.78589,14.458112 -221.644,8.0506329 -229.61243,8.0506329 C -232.13453,8.0506329 -234.11471,8.7288697 -236.24145,9.9285751 L -231.97776,2.6349641 C -230.16457,1.9533147 -228.2696,1.6908803 -226.38144,1.6908803 C -217.38031,1.6908803 -209.73224,9.4991347 -209.73224,21.209804 C -209.73224,34.621195 -218.81176,43.29173 -233.16041,43.29173 C -238.52837,43.29173 -243.67139,42.347647 -247.5704,41.7512 L -247.5704,41.488766 C -244.94266,40.285673 -245.18464,37.443208 -245.18464,34.621195 L -245.18464,-4.7574878 C -245.18464,-8.7110293 -244.70407,-14.246002 -248.11231,-16.396592 L -248.11231,-16.648801 L -245.16078,-16.648801"
       style="fill:#231f20;fill-opacity:1;fill-rule:nonzero;stroke:none"
       id="path3307" />
    <path
       d="M -166.82264,21.066661 C -166.50566,10.017191 -173.88449,1.6908803 -184.68858,1.6908803 C -196.51854,1.6908803 -204.53129,10.2728 -204.53129,22.177751 C -204.53129,34.178117 -195.24727,43.312169 -181.74045,43.312169 C -178.01526,43.312169 -174.20826,42.715735 -170.7864,41.185442 L -166.82264,33.135204 L -167.0544,33.135204 C -170.71143,36.243503 -175.31594,37.715868 -180.07724,37.715868 C -189.0477,37.715868 -195.78917,31.587863 -195.95618,21.066661 L -166.82264,21.066661 z M -195.64262,16.073608 C -194.68491,10.698828 -190.72113,7.2871931 -185.4043,7.2871931 C -179.67847,7.2871931 -176.02825,10.105794 -175.15235,16.073608 L -195.64262,16.073608"
       style="fill:#231f20;fill-opacity:1;fill-rule:nonzero;stroke:none"
       id="path3309" />
    <path
       d="M -131.3157,11.503169 L -131.54746,11.503169 C -133.85483,8.66753 -137.66523,7.2871931 -141.24387,7.2871931 C -148.93625,7.2871931 -154.49166,13.135715 -154.49166,21.301832 C -154.49166,31.178886 -146.79588,37.715868 -137.98902,37.715868 C -133.93322,37.715868 -129.48889,35.991294 -126.38399,33.49648 L -126.15223,33.49648 L -130.27619,41.61487 C -133.62307,42.971356 -137.26647,43.312169 -140.75991,43.312169 C -152.98182,43.312169 -162.5419,34.702985 -162.5419,23.541037 C -162.5419,8.7561456 -151.87414,1.6908803 -139.88399,1.6908803 C -137.0279,1.6908803 -134.0934,2.0248923 -131.3157,2.7065291 L -131.3157,11.503169"
       style="fill:#231f20;fill-opacity:1;fill-rule:nonzero;stroke:none"
       id="path3311" />
    <g
       transform="matrix(3.4082292,0,0,-3.4082292,-620.57041,165.59943)"
       id="g3313"
       style="fill:#231f20;fill-opacity:1">
      <g
         id="g3315"
         clip-path="url(#clipPath3317)"
         style="fill:#231f20;fill-opacity:1">
        <path
           d="M 105.391,50.172 C 105.391,51.345 105.391,52.694 105.391,52.694 C 103.865,52.009 102.448,50.729 101.501,49.486 L 101.501,48.502 C 103.768,50.029 105.391,50.101 105.391,50.172"
           style="fill:#231f20;fill-opacity:1;fill-rule:evenodd;stroke:none"
           id="path3321" />
        <path
           d="M 86.235,33.757 C 83.638,33.332 81.142,34.151 78.488,37.186 C 81.05,38.474 82.636,41.676 82.636,44.651 C 82.636,44.682 82.635,44.992 82.635,45.023 C 82.588,50.115 78.764,53.479 74.202,53.479 C 69.632,53.479 65.592,49.978 65.559,44.844 C 65.559,44.821 65.557,44.522 65.557,44.501 C 65.557,39.506 69.262,35.8 73.806,35.8 C 74.458,35.8 75.087,35.899 75.716,36.051 C 78.692,33.264 81.343,32.077 83.635,32.353 C 84.721,32.484 85.87,32.915 86.56,33.81 L 86.235,33.757 z M 74.178,37.613 C 70.66,37.613 68.214,41.583 68.214,44.954 C 68.214,44.989 68.214,45.3 68.214,45.334 C 68.258,48.599 70.373,51.662 74.062,51.662 C 77.944,51.662 79.947,47.99 79.978,44.511 C 79.978,44.481 79.978,44.175 79.978,44.148 C 79.978,40.439 77.673,37.613 74.178,37.613"
           style="fill:#231f20;fill-opacity:1;fill-rule:nonzero;stroke:none"
           id="path3323" />
      </g>
    </g>
    <path
       d="M -107.38994,-1.3799295 L -59.279364,-1.3799295 L -59.279364,-30.86761 L -107.38994,-30.86761 L -107.38994,-1.3799295 z"
       style="fill:#006cb7;fill-opacity:1;fill-rule:nonzero;stroke:none"
       id="path3371" />
    <path
       d="M -83.327837,-29.324005 C -83.689113,-28.669619 -84.476403,-27.745998 -85.791988,-26.075963 C -87.325693,-24.170758 -87.056433,-21.614591 -86.333895,-20.10475 C -85.495465,-18.359737 -85.011498,-16.911235 -84.633184,-15.537711 C -84.108315,-13.547315 -84.452553,-10.875257 -84.418464,-11.11724 L -85.757899,-11.11724 C -85.757899,-14.375507 -86.763335,-17.439504 -89.217261,-18.79939 C -92.710686,-20.731859 -96.152996,-17.374752 -95.055557,-13.894952 C -94.476149,-12.068137 -93.457087,-11.451252 -93.170802,-11.451252 C -93.170802,-11.451252 -93.637731,-13.462112 -92.185817,-14.487986 C -90.822531,-15.455921 -89.125232,-14.8697 -88.348155,-13.724534 C -87.601753,-12.623682 -87.482461,-11.11724 -87.482461,-11.11724 L -89.990926,-11.11724 L -89.990926,-9.2631616 L -84.950158,-9.2699868 C -84.950158,-9.2699868 -85.083075,-6.6490555 -87.843736,-6.9080773 C -87.843736,-6.9080773 -87.502912,-4.8358781 -84.950158,-5.9231045 C -84.950158,-5.9231045 -85.083075,-3.7554645 -83.327837,-2.6750633 C -81.582825,-3.7554645 -81.719155,-5.9231045 -81.719155,-5.9231045 C -79.159576,-4.8358781 -78.818751,-6.9080773 -78.818751,-6.9080773 C -81.582825,-6.6490555 -81.719155,-9.2699868 -81.719155,-9.2699868 L -76.668162,-9.2631616 L -76.668162,-11.11724 L -79.176614,-11.11724 C -79.176614,-11.11724 -79.064135,-12.623682 -78.324558,-13.724534 C -77.533843,-14.8697 -75.850182,-15.455921 -74.473258,-14.487986 C -73.021356,-13.462112 -73.495098,-11.451252 -73.495098,-11.451252 C -73.2088,-11.451252 -72.189739,-12.068137 -71.610343,-13.894952 C -70.512891,-17.374752 -73.958615,-20.731859 -77.445227,-18.79939 C -79.905977,-17.439504 -80.914813,-14.375507 -80.914813,-11.11724 L -82.237198,-11.11724 C -82.213347,-10.875257 -82.560985,-13.547315 -82.022478,-15.537711 C -81.65439,-16.911235 -81.167023,-18.359737 -80.338818,-20.10475 C -79.606054,-21.614591 -79.336795,-24.170758 -80.867099,-26.075963 C -82.192897,-27.745998 -82.9802,-28.669619 -83.327837,-29.324005"
       style="fill:#ffffff;fill-opacity:1;fill-rule:evenodd;stroke:none"
       id="path3373" />
    <path
       d="M -45.264738,-1.3799295 L 2.8628696,-1.3799295 L 2.8628696,-30.86761 L -45.264738,-30.86761 L -45.264738,-1.3799295 z"
       style="fill:#006cb7;fill-opacity:1;fill-rule:nonzero;stroke:none"
       id="path3375" />
    <path
       d="M -21.206042,-29.324005 C -21.567317,-28.669619 -22.347808,-27.745998 -23.677005,-26.075963 C -25.214123,-24.170758 -24.93805,-21.614591 -24.212099,-20.10475 C -23.370269,-18.359737 -22.893115,-16.911235 -22.511401,-15.537711 C -21.986532,-13.547315 -22.33417,-10.875257 -22.296681,-11.11724 L -23.632704,-11.11724 C -23.632704,-14.375507 -24.64154,-17.439504 -27.095463,-18.79939 C -30.585487,-20.731859 -34.034611,-17.374752 -32.937172,-13.894952 C -32.361176,-12.068137 -31.331889,-11.451252 -31.042191,-11.451252 C -31.042191,-11.451252 -31.519346,-13.462112 -30.060619,-14.487986 C -28.704145,-15.455921 -27.003434,-14.8697 -26.229769,-13.724534 C -25.48337,-12.623682 -25.360678,-11.11724 -25.360678,-11.11724 L -27.869128,-11.11724 L -27.869128,-9.2631616 L -22.831775,-9.2699868 C -22.831775,-9.2699868 -22.968105,-6.6490555 -25.721951,-6.9080773 C -25.721951,-6.9080773 -25.391354,-4.8358781 -22.831775,-5.9231045 C -22.831775,-5.9231045 -22.968105,-3.7554645 -21.206042,-2.6750633 C -19.464442,-3.7554645 -19.593947,-5.9231045 -19.593947,-5.9231045 C -17.034367,-4.8358781 -16.696955,-6.9080773 -16.696955,-6.9080773 C -19.464442,-6.6490555 -19.593947,-9.2699868 -19.593947,-9.2699868 L -14.546366,-9.2631616 L -14.546366,-11.11724 L -17.065044,-11.11724 C -17.065044,-11.11724 -16.938939,-12.623682 -16.202763,-13.724534 C -15.418872,-14.8697 -13.724987,-15.455921 -12.348062,-14.487986 C -10.909786,-13.462112 -11.363077,-11.451252 -11.363077,-11.451252 C -11.083605,-11.451252 -10.05773,-12.068137 -9.49196,-13.894952 C -8.4013335,-17.374752 -11.847044,-20.731859 -15.333669,-18.79939 C -17.777369,-17.439504 -18.789605,-14.375507 -18.789605,-11.11724 L -20.115415,-11.11724 C -20.084739,-10.875257 -20.446015,-13.547315 -19.904095,-15.537711 C -19.53942,-16.911235 -19.038414,-18.359737 -18.213622,-20.10475 C -17.494484,-21.614591 -17.215011,-24.170758 -18.752116,-26.075963 C -20.071101,-27.745998 -20.865217,-28.669619 -21.206042,-29.324005"
       style="fill:#ffffff;fill-opacity:1;fill-rule:evenodd;stroke:none"
       id="path3377" />
    <path
       d="M -107.38994,42.146564 L -59.279364,42.146564 L -59.279364,12.664698 L -107.38994,12.664698 L -107.38994,42.146564 z"
       style="fill:#006cb7;fill-opacity:1;fill-rule:nonzero;stroke:none"
       id="path3379" />
    <path
       d="M -83.327837,14.205903 C -83.689113,14.860277 -84.476403,15.787322 -85.791988,17.443719 C -87.325693,19.359138 -87.056433,21.908491 -86.333895,23.428571 C -85.495465,25.170171 -85.011498,26.61526 -84.633184,27.988771 C -84.108315,29.97918 -84.452553,32.644412 -84.418464,32.402428 L -85.757899,32.402428 C -85.757899,29.154388 -86.763335,26.090391 -89.217261,24.727105 C -92.710686,22.794636 -96.152996,26.155156 -95.055557,29.634955 C -94.476149,31.451533 -93.457087,32.068429 -93.170802,32.068429 C -93.170802,32.068429 -93.637731,30.05757 -92.185817,29.035109 C -90.822531,28.070574 -89.125232,28.653383 -88.348155,29.801961 C -87.601753,30.896 -87.482461,32.402428 -87.482461,32.402428 L -89.990926,32.402428 L -89.990926,34.263332 L -84.950158,34.256507 C -84.950158,34.256507 -85.083075,36.870626 -87.843736,36.625229 C -87.843736,36.625229 -87.502912,38.68039 -84.950158,37.603389 C -84.950158,37.603389 -85.083075,39.764204 -83.327837,40.844618 C -81.582825,39.764204 -81.719155,37.603389 -81.719155,37.603389 C -79.159576,38.68039 -78.818751,36.625229 -78.818751,36.625229 C -81.582825,36.870626 -81.719155,34.256507 -81.719155,34.256507 L -76.668162,34.263332 L -76.668162,32.402428 L -79.176614,32.402428 C -79.176614,32.402428 -79.064135,30.896 -78.324558,29.801961 C -77.533843,28.653383 -75.850182,28.070574 -74.473258,29.035109 C -73.021356,30.05757 -73.495098,32.068429 -73.495098,32.068429 C -73.2088,32.068429 -72.189739,31.451533 -71.610343,29.634955 C -70.512891,26.155156 -73.958615,22.794636 -77.445227,24.727105 C -79.905977,26.090391 -80.914813,29.154388 -80.914813,32.402428 L -82.237198,32.402428 C -82.213347,32.644412 -82.560985,29.97918 -82.022478,27.988771 C -81.65439,26.61526 -81.167023,25.170171 -80.338818,23.428571 C -79.606054,21.908491 -79.336795,19.359138 -80.867099,17.443719 C -82.192897,15.787322 -82.9802,14.860277 -83.327837,14.205903"
       style="fill:#ffffff;fill-opacity:1;fill-rule:evenodd;stroke:none"
       id="path3381" />
    <path
       d="M -45.264738,42.146564 L 2.8628696,42.146564 L 2.8628696,12.664698 L -45.264738,12.664698 L -45.264738,42.146564 z"
       style="fill:#006cb7;fill-opacity:1;fill-rule:nonzero;stroke:none"
       id="path3383" />
    <path
       d="M -21.206042,14.205903 C -21.567317,14.860277 -22.347808,15.787322 -23.677005,17.443719 C -25.214123,19.359138 -24.93805,21.908491 -24.212099,23.428571 C -23.370269,25.170171 -22.893115,26.61526 -22.511401,27.988771 C -21.986532,29.97918 -22.33417,32.644412 -22.296681,32.402428 L -23.632704,32.402428 C -23.632704,29.154388 -24.64154,26.090391 -27.095463,24.727105 C -30.585487,22.794636 -34.034611,26.155156 -32.937172,29.634955 C -32.361176,31.451533 -31.331889,32.068429 -31.042191,32.068429 C -31.042191,32.068429 -31.519346,30.05757 -30.060619,29.035109 C -28.704145,28.070574 -27.003434,28.653383 -26.229769,29.801961 C -25.48337,30.896 -25.360678,32.402428 -25.360678,32.402428 L -27.869128,32.402428 L -27.869128,34.263332 L -22.831775,34.256507 C -22.831775,34.256507 -22.968105,36.870626 -25.721951,36.625229 C -25.721951,36.625229 -25.391354,38.68039 -22.831775,37.603389 C -22.831775,37.603389 -22.968105,39.764204 -21.206042,40.844618 C -19.464442,39.764204 -19.593947,37.603389 -19.593947,37.603389 C -17.034367,38.68039 -16.696955,36.625229 -16.696955,36.625229 C -19.464442,36.870626 -19.593947,34.256507 -19.593947,34.256507 L -14.546366,34.263332 L -14.546366,32.402428 L -17.065044,32.402428 C -17.065044,32.402428 -16.938939,30.896 -16.202763,29.801961 C -15.418872,28.653383 -13.724987,28.070574 -12.348062,29.035109 C -10.909786,30.05757 -11.363077,32.068429 -11.363077,32.068429 C -11.083605,32.068429 -10.05773,31.451533 -9.49196,29.634955 C -8.4013335,26.155156 -11.847044,22.794636 -15.333669,24.727105 C -17.777369,26.090391 -18.789605,29.154388 -18.789605,32.402428 L -20.115415,32.402428 C -20.084739,32.644412 -20.446015,29.97918 -19.904095,27.988771 C -19.53942,26.61526 -19.038414,25.170171 -18.213622,23.428571 C -17.494484,21.908491 -17.215011,19.359138 -18.752116,17.443719 C -20.071101,15.787322 -20.865217,14.860277 -21.206042,14.205903"
       style="fill:#ffffff;fill-opacity:1;fill-rule:evenodd;stroke:none"
       id="path3385" />
  </g>
</svg>
