<?xml version="1.0" encoding="UTF-8"?>
<svg width="236px" height="85px" viewBox="0 0 236 85" version="1.1" xmlns="http://www.w3.org/2000/svg" xmlns:xlink="http://www.w3.org/1999/xlink">
    <g id="Symbols" stroke="none" stroke-width="1" fill="none" fill-rule="evenodd">
        <g fill-rule="nonzero">
            <g>
                <path d="M7.72826287,3.25057205 L3.39337657,0 C-2.36278392,8.17494613 -0.633566983,19.6004643 7.34925642,25.5194164 C13.8871177,30.3467585 22.7463935,30.1526945 29,24.9372244 L25.6126298,20.5950423 C20.2354758,25.0342564 12.4421556,24.1367104 8.10726932,18.6301443 C4.64883544,14.1909302 4.45933222,7.88385012 7.72826287,3.25057205" id="Path" fill="#0F0C0A"></path>
                <path d="M59,41.7149028 L58.9034594,42 L59,42 L59,41.7149028 Z M43.915527,25.2030238 L42.539823,20 C34.5993564,22.0194384 29,29.1706263 29,37.2721382 C29,38.8164147 29.1930813,40.2656587 29.6033789,41.8099352 L34.8889783,40.4557235 C34.5993564,39.3866091 34.5028158,38.4362851 34.5028158,37.3671706 C34.5028158,31.5701944 38.4127112,26.6522678 43.915527,25.2030238" id="Shape" fill="#0F0C0A"></path>
                <path d="M28,50.4883721 C28,40.8604651 20.0502564,33 10.2841026,33 C8.46769231,33 6.74564103,33.3023256 5,33.7674419 L6.53333333,38.8604651 C7.68923077,38.4883721 8.93948718,38.3023256 10.1897436,38.3023256 C16.9835897,38.3023256 22.5507692,43.7674419 22.5507692,50.4883721 L22.5507692,51.5348837 L27.905641,52 C27.905641,51.5348837 28,51.0465116 28,50.4883721" id="Path" fill="#008DB0"></path>
                <path d="M226.569774,52.5981297 C226.569774,49.878079 227.890469,48.8282349 229.790416,48.8282349 C231.667193,48.8282349 232.987888,49.9973795 232.987888,52.5981297 L232.987888,52.7890105 L226.569774,52.7890105 L226.569774,52.5981297 Z M236,53.5763936 C236,48.1362921 233.45129,45.9173034 229.790416,45.9173034 C226.106372,45.9173034 223.557662,48.1362921 223.557662,53.5763936 L223.557662,54.2444762 C223.557662,59.5891373 226.291732,61.8081261 230.439179,61.8081261 C232.315956,61.8081261 234.192733,61.3309242 235.88415,60.25722 L234.957346,57.6326096 C233.543971,58.5154331 232.037915,58.8971946 230.439179,58.8971946 C228.075829,58.8971946 226.569774,57.6326096 226.569774,55.2227401 L226.569774,55.1272997 L236,55.1272997 L236,53.5763936 Z M220.754081,46.2990649 L217.741969,46.2990649 L217.741969,58.4199927 C216.791996,58.8017542 215.842022,58.8971946 214.915219,58.8971946 C212.64455,58.8971946 211.138494,57.7519101 211.138494,54.3399166 L211.138494,46.2990649 L208.219063,46.2990649 L208.219063,54.2444762 C208.219063,59.5891373 210.953133,61.9035665 214.729858,61.9035665 C216.791996,61.9035665 218.854134,61.521805 220.638231,60.5435411 L220.754081,46.2990649 Z M196.077936,53.5763936 C196.077936,49.7826386 197.583992,48.7327945 200.040021,48.7327945 C200.874144,48.7327945 201.731438,48.9236752 202.588731,49.2099964 L202.588731,58.4199927 C201.824118,58.8017542 200.989995,58.992635 200.225382,58.8971946 C197.769352,58.8971946 196.077936,57.9427908 196.077936,54.0535955 L196.077936,53.5763936 Z M205.508162,47.2773287 C203.793576,46.3945052 201.916798,45.9173034 199.947341,46.0127437 C195.799895,46.0127437 193.065824,48.4464733 193.065824,53.671834 L193.065824,54.2444762 C193.065824,59.5891373 196.077936,61.9035665 199.947341,61.9035665 C200.781464,61.9035665 201.731438,61.8081261 202.588731,61.4263646 L202.588731,68.9900145 L205.600843,68.9900145 L205.508162,47.2773287 Z M186.85624,41.8372273 C186.85624,42.9109315 187.713533,43.6983146 188.640337,43.6983146 C189.682991,43.6983146 190.447604,42.8154911 190.447604,41.8372273 C190.447604,40.7873831 189.590311,40 188.640337,40 C187.690363,40 186.85624,40.7873831 186.85624,41.8372273 M187.250132,61.4263646 L190.146393,61.4263646 L190.146393,46.2990649 L187.250132,46.2990649 L187.250132,61.4263646 Z M171.424961,61.4263646 L174.344392,61.4263646 L174.344392,49.2099964 C175.201685,48.8282349 176.128489,48.7327945 177.078462,48.7327945 C179.325961,48.7327945 180.832017,49.878079 180.832017,53.3855128 L180.832017,61.4263646 L183.751448,61.4263646 L183.751448,53.5763936 C183.751448,48.2317325 181.017378,45.9173034 177.263823,45.9173034 C175.201685,45.821863 173.209057,46.2990649 171.33228,47.1818884 L171.424961,61.4263646 Z M156.179042,61.4263646 L159.098473,61.4263646 L159.098473,49.2099964 C159.955766,48.9236752 160.88257,48.7327945 161.832543,48.7327945 C164.080042,48.7327945 165.586098,49.878079 165.586098,53.3855128 L165.586098,61.4263646 L168.505529,61.4263646 L168.505529,53.5763936 C168.505529,48.2317325 165.771459,45.9173034 162.017904,45.9173034 C160.97525,45.9173034 160.048447,46.0127437 159.005793,46.2036245 L159.005793,40.1908808 L156.086361,40.1908808 L156.179042,61.4263646 Z M141.883096,53.9581551 C141.883096,59.493697 144.709847,61.6172453 148.648763,61.6172453 C150.432859,61.6172453 152.240126,61.1400435 153.746182,60.0663392 L152.703528,57.4417289 C151.475513,58.229112 150.154818,58.7063139 148.741443,58.7063139 C146.493944,58.7063139 144.895208,57.5371692 144.895208,53.8627147 L144.895208,53.3855128 C144.895208,49.6871982 146.493944,48.5419137 148.741443,48.5419137 C150.154818,48.5419137 151.568194,49.0191156 152.703528,49.878079 L153.838863,47.2773287 C152.332807,46.2990649 150.52554,45.7264226 148.741443,45.7264226 C144.802528,45.7264226 141.975777,47.849971 141.975777,53.3855128 L141.883096,53.9581551 Z M130.112691,52.5026894 C130.112691,49.7826386 131.433386,48.7327945 133.310163,48.7327945 C135.18694,48.7327945 136.507636,49.878079 136.507636,52.5026894 L136.507636,52.6935701 L130.112691,52.6935701 L130.112691,52.5026894 Z M139.519747,53.4809532 C139.519747,48.0408517 136.971037,45.821863 133.310163,45.821863 C129.649289,45.821863 127.100579,48.0408517 127.100579,53.4809532 L127.100579,54.1490359 C127.100579,59.493697 129.83465,61.7126857 133.982096,61.7126857 C135.858873,61.7126857 137.73565,61.2354838 139.427067,60.1617796 L138.477093,57.5371692 C137.086888,58.3245523 135.580832,58.8017542 133.982096,58.8017542 C131.618747,58.8017542 130.112691,57.5371692 130.112691,55.1272997 L130.112691,55.0318593 L139.519747,55.0318593 L139.519747,53.4809532 Z M115.608215,56.0817035 C115.608215,60.1617796 117.878884,61.7126857 120.890995,61.7126857 C122.582412,61.8081261 124.181148,61.2354838 125.501843,60.1617796 C125.223802,59.3028162 124.945761,58.4199927 124.459189,57.5371692 C123.717746,58.229112 122.767773,58.6108735 121.840969,58.7063139 C121.354397,58.8017542 120.890995,58.8017542 120.427593,58.8017542 C119.292259,58.6108735 118.527646,57.9427908 118.527646,56.201004 L118.527646,49.2099964 L124.273828,49.2099964 L124.273828,46.3945052 L118.527646,46.3945052 L118.527646,41.8372273 L115.608215,41.8372273 L115.608215,56.0817035 Z M112.132701,46.2036245 L109.21327,46.2036245 L109.21327,58.3245523 C108.471827,58.7063139 107.707214,58.8971946 106.873091,58.8971946 C104.324381,58.8971946 102.725645,57.7519101 102.725645,54.2444762 L102.725645,46.2036245 L99.8062138,46.2036245 L99.8062138,54.1490359 C99.8062138,59.493697 102.725645,61.8081261 106.4792,61.8081261 C107.429173,61.8081261 108.379147,61.7126857 109.305951,61.3309242 L109.305951,62.285328 C109.305951,65.1008191 107.892575,66.1745233 105.923117,66.1745233 C104.231701,66.1745233 102.632965,65.6973215 101.219589,64.814498 L100.176935,67.5345487 C101.868352,68.4889525 103.860979,69.0854548 105.830437,68.9900145 C109.491311,68.9900145 112.225382,66.7471656 112.225382,62.1898876 L112.132701,46.2036245 Z M90.9552396,56.3918847 C90.9552396,60.25722 92.8551869,61.6172453 95.3807267,61.6172453 C96.5160611,61.6172453 97.5587151,61.4263646 98.4855187,60.8537223 L97.5587151,58.229112 C96.9794629,58.6108735 96.4233807,58.8017542 95.7514481,58.8017542 C94.6392838,58.8017542 93.8746709,58.229112 93.8746709,56.3918847 L93.8746709,40.1908808 L90.8625592,40.1908808 L90.9552396,56.3918847 Z M75.7093207,54.0535955 C75.7093207,59.5891373 78.4433913,61.7126857 81.9189047,61.7126857 C85.4175882,61.7126857 88.1284887,59.5891373 88.1284887,54.0535955 L88.1284887,53.5763936 C88.1284887,48.0408517 85.4175882,45.9173034 81.9189047,45.9173034 C78.4433913,45.9173034 75.7093207,48.0408517 75.7093207,53.5763936 L75.7093207,54.0535955 Z M85.116377,54.0535955 C85.116377,57.7519101 83.9115324,58.8971946 81.9189047,58.8971946 C79.9494471,58.8971946 78.628752,57.7519101 78.628752,54.0535955 L78.628752,53.5763936 C78.628752,49.878079 79.8567667,48.7327945 81.9189047,48.7327945 C83.9810427,48.7327945 85.116377,49.878079 85.116377,53.5763936 L85.116377,54.0535955 Z M66.9510269,44.6527184 C70.0789889,44.6527184 71.0057925,45.821863 71.0057925,47.849971 C71.0057925,49.878079 70.0789889,50.9517832 66.9510269,50.9517832 L63.0121116,50.9517832 L63.0121116,44.6527184 L66.9510269,44.6527184 Z M60,41.7417869 L60,61.4263646 L63.104792,61.4263646 L63.104792,53.8627147 L67.0668773,53.8627147 C72.1411269,53.8627147 74.2032649,51.3335447 74.2032649,47.849971 C74.2032649,44.3663972 72.2338073,41.7417869 67.0668773,41.7417869 L60,41.7417869 Z" id="Shape" fill="#008DB0"></path>
                <path d="M186.927279,16.2836787 L184.598439,20.2285462 L186.742817,20.2285462 L189.740333,16.2836787 L186.927279,16.2836787 Z M182.615466,28.0952116 C182.615466,25.4883694 183.929762,24.4502464 185.820504,24.4502464 C187.688187,24.4502464 189.002483,25.580647 189.002483,28.0952116 L189.002483,28.2797668 L182.615466,28.2797668 L182.615466,28.0952116 Z M192,29.041057 C192,23.7812338 189.46364,21.6357796 185.820504,21.6357796 C182.177368,21.6357796 179.61795,23.7812338 179.61795,29.041057 L179.61795,29.6870002 C179.61795,34.8545458 182.338773,37 186.466123,37 C188.333806,37 190.20149,36.538612 191.907769,35.500489 L190.962398,32.962855 C189.648102,33.8164228 188.057112,34.1855332 186.466123,34.1855332 C184.114225,34.1855332 182.615466,32.962855 182.615466,30.6328456 L182.615466,30.540568 L192,30.540568 L192,29.041057 Z M167.927634,31.5556216 C167.927634,35.500489 170.164243,36.9077224 173.161759,36.9077224 C174.84498,36.9077224 176.43597,36.4463344 177.750266,35.4082114 C177.473572,34.5546436 177.104647,33.7241452 176.827953,32.8705774 C176.067045,33.53959 175.144732,33.9087004 174.10713,34.000978 C173.645974,34.0932556 173.161759,34.0932556 172.700603,34.0932556 C171.57077,33.9087004 170.832919,33.2627572 170.832919,31.5556216 L170.832919,24.7270792 L176.528201,24.7270792 L176.528201,22.00489 L170.832919,22.00489 L170.832919,17.5986345 L167.927634,17.5986345 L167.927634,31.5556216 Z M160.618304,17.7831897 C160.618304,18.8213128 161.448386,19.582603 162.393757,19.582603 C163.431359,19.582603 164.169209,18.7290352 164.169209,17.7831897 C164.169209,16.7681361 163.339127,16.0068459 162.393757,16.0068459 C161.356155,15.9145683 160.618304,16.7681361 160.618304,17.7831897 M160.894998,36.6308896 L163.800284,36.6308896 L163.800284,22.00489 L160.894998,22.00489 L160.894998,36.6308896 Z M145.261795,35.4082114 C147.037247,36.4463344 148.997162,36.9077224 151.072366,36.9077224 C153.977652,36.9077224 157.251862,36.0541546 157.251862,32.6860222 C157.251862,29.963833 155.568641,28.2797668 151.533523,27.541546 C150.495921,27.3569908 148.536006,27.2647132 148.536006,25.8574798 C148.536006,24.7270792 149.942533,24.3579688 151.533523,24.3579688 C153.124512,24.3579688 154.715502,24.7270792 156.122029,25.580647 L157.0674,23.043013 C155.361121,22.0971676 153.493437,21.543502 151.533523,21.6357796 C148.628237,21.6357796 145.63072,22.4893474 145.63072,26.042035 C145.63072,29.5947226 148.720468,30.1714576 150.980135,30.540568 C152.847818,30.9096784 154.346577,31.463344 154.346577,32.6860222 C154.346577,33.8164228 152.755587,34.1855332 151.164597,34.1855332 C149.481376,34.1855332 147.775098,33.8164228 146.276339,32.962855 L145.261795,35.4082114 Z M134.678255,36.6308896 L137.58354,36.6308896 L137.58354,24.8193568 C138.321391,24.542524 139.17453,24.3579688 140.004612,24.3579688 C140.76552,24.3579688 141.595601,24.542524 142.264278,24.9116344 L143.394111,22.2817228 C142.356509,21.8203348 141.134445,21.6357796 140.004612,21.6357796 C138.136928,21.6357796 136.361476,22.00489 134.678255,22.8584578 L134.678255,36.6308896 Z M121.466123,28.002934 C121.466123,25.3730224 122.780419,24.3579688 124.648102,24.3579688 C126.515786,24.3579688 127.830082,25.4883694 127.830082,28.002934 L127.830082,28.1874892 L121.466123,28.1874892 L121.466123,28.002934 Z M130.827598,28.9487794 C130.827598,23.6889562 128.314296,21.543502 124.648102,21.543502 C120.981908,21.543502 118.468606,23.6889562 118.468606,28.9487794 L118.468606,29.5947226 C118.468606,34.7622682 121.189429,36.9077224 125.316779,36.9077224 C127.184463,36.9077224 129.052146,36.4463344 130.735367,35.4082114 L129.813054,32.8705774 C128.406527,33.7241452 126.907769,34.0932556 125.316779,34.0932556 C122.964881,34.0932556 121.466123,32.8705774 121.466123,30.540568 L121.466123,30.4482904 L130.827598,30.4482904 L130.827598,28.9487794 Z M105.164243,22.00489 L102.074495,22.00489 L107.977297,36.6308896 L110.974814,36.6308896 L116.877616,22.00489 L113.880099,22.00489 L109.568287,33.1704796 L105.164243,22.00489 Z M95.8949982,17.7831897 C95.8949982,18.8213128 96.7481376,19.582603 97.6704505,19.582603 C98.7080525,19.582603 99.4459028,18.7290352 99.4459028,17.7831897 C99.4459028,16.7681361 98.6158212,16.0068459 97.6704505,16.0068459 C96.7481376,15.9145683 95.9872295,16.7681361 95.8949982,17.7831897 M96.2639234,36.6308896 L99.1692089,36.6308896 L99.1692089,22.00489 L96.1716921,22.00489 L96.2639234,36.6308896 Z M80.3540263,36.6308896 L83.2593118,36.6308896 L83.2593118,24.8193568 C84.0893934,24.4502464 85.0347641,24.3579688 85.9801348,24.3579688 C88.2167435,24.3579688 89.715502,25.4883694 89.715502,28.7642242 L89.715502,36.6308896 L92.6207875,36.6308896 L92.6207875,29.041057 C92.6207875,23.8735114 89.8999645,21.6357796 86.1645974,21.6357796 C84.0893934,21.543502 82.1294785,22.00489 80.261795,22.8584578 L80.3540263,36.6308896 Z M62.0922313,27.9106564 C62.0922313,34.462366 65.1819794,37 69.4015608,37 C73.5980844,37 76.6878326,34.462366 76.6878326,27.9106564 L76.6878326,17.5986345 L73.7133735,17.5986345 L73.7133735,27.9106564 C73.7133735,32.5937446 72.0070947,34.1855332 69.4015608,34.1855332 C66.796027,34.1855332 65.0897481,32.5937446 65.0897481,27.9106564 L65.0897481,17.5986345 L62,17.5986345 L62,27.9106564 L62.0922313,27.9106564 Z" id="Shape" fill="#008DB0"></path>
                <path d="M186.731603,80.5079007 L191.329897,80.5079007 L191.329897,79.0406321 L186.731603,79.0406321 L186.731603,76.738149 L192,76.738149 L192,75.3611738 L185.229648,75.3611738 L185.229648,84.8194131 L192,84.8194131 L192,83.4424379 L186.731603,83.4424379 L186.731603,80.5079007 Z M177.35016,79.5823928 C177.35016,77.3024831 178.389975,76.4672686 180.076786,76.4672686 C180.908638,76.4672686 181.856026,76.738149 182.503022,77.3024831 L183.080697,76.0158014 C182.225738,75.3611738 181.093494,75 179.984358,75 C177.535016,75 175.663349,76.2866817 175.663349,79.4920993 L175.663349,80.4176072 C175.663349,83.6230248 177.442588,84.9097065 179.984358,84.9097065 C181.093494,84.9097065 182.13331,84.5485327 183.080697,83.8939052 L182.503022,82.6072235 C181.763598,83.1715576 180.908638,83.4424379 180.076786,83.4424379 C178.389975,83.4424379 177.35016,82.6072235 177.35016,80.3273138 L177.35016,79.5823928 Z M166.374333,84.8194131 L167.876289,84.8194131 L167.876289,78.1151242 L171.804479,84.8194131 L173.49129,84.8194131 L173.49129,75.2708804 L171.989335,75.2708804 L171.989335,82.0654628 L168.061145,75.2708804 L166.374333,75.2708804 L166.374333,84.8194131 Z M160.458941,77.48307 L161.568077,80.5981941 L159.234269,80.5981941 L160.458941,77.48307 Z M156.230359,84.8194131 L157.824742,84.8194131 L158.864557,81.9751693 L162.23818,81.9751693 L163.277995,84.8194131 L164.964806,84.8194131 L161.475649,75.3611738 L159.881266,75.3611738 L156.230359,84.8194131 Z M140.170992,80.5079007 L144.769285,80.5079007 L144.769285,79.0406321 L140.170992,79.0406321 L140.170992,76.738149 L145.439389,76.738149 L145.439389,75.3611738 L138.669037,75.3611738 L138.669037,84.8194131 L140.170992,84.8194131 L140.170992,80.5079007 Z M136.427657,79.1309255 L132.568788,79.1309255 L132.568788,80.4176072 L136.427657,80.4176072 L136.427657,79.1309255 Z M125.451831,80.5079007 L130.050124,80.5079007 L130.050124,79.0406321 L125.451831,79.0406321 L125.451831,76.738149 L130.697121,76.738149 L130.697121,75.3611738 L123.949876,75.3611738 L123.949876,84.8194131 L130.697121,84.8194131 L130.697121,83.4424379 L125.451831,83.4424379 L125.451831,80.5079007 Z M120.091006,80.5079007 C120.091006,82.6072235 119.051191,83.4424379 117.456808,83.4424379 L116.04728,83.4424379 L116.04728,76.738149 L117.456808,76.738149 C119.143619,76.738149 120.091006,77.48307 120.091006,79.6726862 L120.091006,80.5079007 Z M114.452897,84.8194131 L117.456808,84.8194131 C119.998578,84.8194131 121.685389,83.6230248 121.685389,80.5079007 L121.685389,79.5823928 C121.685389,76.5575621 119.998578,75.2708804 117.456808,75.2708804 L114.452897,75.2708804 L114.452897,84.8194131 Z M112.211518,79.1309255 L108.352648,79.1309255 L108.352648,80.4176072 L112.211518,80.4176072 L112.211518,79.1309255 Z M98.416637,83.9841986 C99.7337362,84.6388262 101.235691,85 102.737647,85 C104.33203,85 106.480981,84.6388262 106.480981,82.3363431 C106.480981,80.5981941 105.348738,79.8532731 103.014931,79.221219 C102.2524,79.0406321 100.9353,78.7697517 100.9353,77.6636569 C100.9353,76.738149 101.975116,76.5575621 102.922503,76.5575621 C103.939211,76.5575621 104.886598,76.8284424 105.741557,77.3927765 L106.388553,76.1060948 C105.348738,75.4514673 104.147174,75.0902935 102.922503,75.0902935 C101.143263,75.0902935 99.3409172,75.6546275 99.3409172,77.6636569 C99.3409172,79.6726862 101.235691,80.3273138 102.645219,80.6884876 C104.054746,81.0496614 104.886598,81.4108352 104.886598,82.3363431 C104.886598,83.261851 104.054746,83.6230248 102.737647,83.6230248 C101.697831,83.6230248 100.658016,83.3521445 99.7337362,82.7878104 L98.416637,83.9841986 Z M89.9594739,76.6478555 L93.1482403,76.6478555 L93.1482403,84.7291196 L94.6501955,84.7291196 L94.6501955,76.738149 L97.838962,76.738149 L97.838962,75.3611738 L89.8670459,75.3611738 L89.9594739,76.6478555 Z M80.9477426,80.4176072 C80.9477426,83.6230248 82.5421258,84.9097065 84.7141841,84.9097065 C86.8631354,84.9097065 88.4575187,83.6230248 88.4575187,80.4176072 L88.4575187,75.2708804 L86.8631354,75.2708804 L86.8631354,80.4176072 C86.8631354,82.7878104 86.0312833,83.5327314 84.7141841,83.5327314 C83.397085,83.5327314 82.5421258,82.7878104 82.5421258,80.4176072 L82.5421258,75.2708804 L80.9477426,75.2708804 L80.9477426,80.4176072 Z M75.2403128,77.3927765 L76.349449,80.5079007 L74.0156417,80.5079007 L75.2403128,77.3927765 Z M70.9193032,84.7291196 L72.5136865,84.7291196 L73.5303946,81.8848758 L76.9271241,81.8848758 L77.9438322,84.7291196 L79.5382154,84.7291196 L76.0721649,75.2708804 L74.4777817,75.2708804 L70.9193032,84.7291196 Z M63.6868112,80.5079007 L67.7305368,80.5079007 L67.7305368,84.8194131 L69.32492,84.8194131 L69.32492,75.2708804 L67.7305368,75.2708804 L67.7305368,79.0406321 L63.5943832,79.0406321 L63.5943832,75.2708804 L62,75.2708804 L62,84.7291196 L63.5943832,84.7291196 L63.6868112,80.5079007 Z" id="Shape" fill="#0F0C0A"></path>
                <path d="M150.663768,76.4420804 C152.286957,76.4420804 152.750725,77.0330969 152.750725,77.8841608 C152.750725,78.7588652 152.286957,79.3262411 150.663768,79.3262411 L148.692754,79.3262411 L148.692754,76.4420804 L150.663768,76.4420804 Z M153.214493,85 L155,85 L152.171014,80.5791962 C153.4,80.2955083 154.350725,79.2316785 154.257971,77.8841608 C154.257971,76.1583924 153.214493,75 150.571014,75 L147,75 L147,85 L148.6,85 L148.6,80.8628842 L150.571014,80.8628842 L153.214493,85 Z" id="Shape" fill="#0F0C0A"></path>
            </g>
        </g>
    </g>
</svg>
